<?xml version="1.0" encoding="utf-8"?>
<!-- Generator: Adobe Illustrator 24.0.1, SVG Export Plug-In . SVG Version: 6.00 Build 0)  -->
<svg version="1.1" id="Layer_1" xmlns="http://www.w3.org/2000/svg" xmlns:xlink="http://www.w3.org/1999/xlink" x="0px" y="0px"
	 viewBox="0 0 1428 500" style="enable-background:new 0 0 1428 500;" xml:space="preserve">
<style type="text/css">
	.st0{fill:#FFFFFF;}
	.st1{fill:#009FA3;}
	.st2{fill:none;stroke:#FFFFFF;stroke-width:5;stroke-miterlimit:10;}
</style>
<g>
	<path class="st0" d="M945.6,87.2c-3.6,11.3-7,22.6-10.7,33.8c-6.2,18.8-12.3,37.6-18.8,56.3c-7.2,20.6-14.2,41.3-23.8,61
		c-10.9,22.4-29.7,32.6-53.8,34.7c-12.2,1.1-24.4,0.1-36.6-0.4c-11-0.4-22-0.8-32.5,3.8c-4.3,1.9-7.8,4.7-10.4,8.6
		c-22.8,34.7-45.8,69.3-68.2,104.4c-11.6,18.2-10.1,37.4-0.6,56.2c4,8,10,14.5,17,20c2.3,1.8,3.1,3.6,1.6,6.4
		c-1.4,2.6-2.8,3.1-5.5,1.3c-26.3-17.4-52.6-34.7-79-52c-8.7-5.7-17.5-11.4-26.2-17.2c-1.8-1.2-5.4-1.9-2.9-5.7
		c2.1-3.3,4.5-2.9,7.4-1.4c10.5,5.8,21.8,8.3,33.7,7.4c20.8-1.6,35.8-11.9,46.9-29.5c16.4-25.9,33.6-51.4,50.4-77
		c4.7-7.1,9.5-14.2,13.9-21.5c3-4.9,3.7-10.5,3-16.3c-1.4-11.6-6.7-21.8-11.7-32c-6.8-14-13.9-27.9-16.1-43.6
		c-2.6-18.8,2.4-35.4,15.2-49.5c18.8-20.7,39.5-39.4,60.2-58.2c12.9-11.7,26.1-23.2,39.2-34.8c6-5.3,12-10.5,18.1-15.6
		c1.8-1.5,3.5-1.6,5.6-0.2c27.5,18.1,54.9,36.2,82.5,54.1C946.8,82.3,946,84.6,945.6,87.2z M887.8,231.5c0.9-5.4-2.2-9-6.9-8.6
		c-23.8,1.9-46.9-1.6-69.6-8.4c-27.5-8.3-53.2-20-74.9-39.4c-1.4-1.3-2.9-2.2-4.8-1.3c-2,1-2.4,2.6-2.3,4.8
		c0.4,7.9,2.5,15.5,5.3,22.8c6.2,16.5,15,31.8,21.7,48.1c4.3,10.4,13.4,16.3,24.8,16.2c16.4-0.2,32.7,1.1,49,0.9
		c15.4-0.3,30.1-3,42.4-13.4C879.7,247.1,885,239.7,887.8,231.5z"/>
	<path class="st1" d="M887.8,231.5c-2.9,8.2-8.2,15.6-15.4,21.7c-12.3,10.4-27,13.2-42.4,13.4c-16.3,0.3-32.6-1.1-49-0.9
		c-11.4,0.1-20.5-5.7-24.8-16.2c-6.7-16.3-15.5-31.7-21.7-48.1c-2.8-7.4-4.9-14.9-5.3-22.8c-0.1-2.2,0.3-3.8,2.3-4.8
		c1.9-0.9,3.4,0,4.8,1.3c21.7,19.4,47.4,31.1,74.9,39.4c22.7,6.8,45.8,10.3,69.6,8.4C885.7,222.6,888.7,226.1,887.8,231.5z"/>
</g>
<g>
	<path class="st0" d="M816.2,396.8c7.1-1.8,14.2-4.2,20.5-8.1c2.8-1.7,4.5-0.7,6.2,1.6c1.6,2.2,1.2,3.5-1,5
		c-9.2,6.3-18.3,12.7-27.5,19.1c-17.3,12.1-34.5,24.2-51.7,36.2c-8.3,5.8-16.7,11.7-25.1,17.4c-1.5,1.1-3.2,3.5-5.3,0.2
		c-1.8-2.8-2-4.9,0.8-7.1c5.7-4.5,10.4-9.9,14-16.1c6.6-11.4,9.6-23.5,8.6-36.7c-0.8-10.9-5.3-20-11.4-28.7
		c-22-31.5-44.2-62.8-65.9-94.5c-7.7-11.2-18.6-14.2-31.1-14.5c-12.5-0.3-24.9,1.8-37.4,2.1c-13.3,0.4-26.5-0.1-38.9-5.5
		c-13.4-5.9-23.7-15.4-30.2-28.6c-12.3-24.8-21.9-50.7-31.5-76.6c-7.7-20.9-15.1-41.8-22.7-62.8c-1.3-3.6-2.3-7.3-3.6-11
		c-0.9-2.6,0.7-3.8,2.4-5c12.2-8.7,24.5-17.3,36.8-26c13.7-9.6,27.5-19.2,41.3-28.9c5.2-3.7,5.5-3.9,10.3,0
		c20,16.2,39.9,32.5,59.4,49.2c19.1,16.4,38.1,32.9,56,50.6c9.2,9.1,16.1,19.6,19,32.3c2.2,9.6,1.7,19.4-0.6,29
		c-3.7,15.2-10.7,29.2-16.9,43.4c-3.9,9.1-7.5,18.3-7.2,28.6c0.2,7.3,4.1,12.7,8,18.2c22.7,32.4,45.1,64.9,68.2,96.9
		c10.1,13.9,24.9,20.3,42.1,21.2C806.6,398,811.4,397.5,816.2,396.8z M586.2,241.5c-6.9,1.3-13.8,2.7-20.7,3.9
		c-2.4,0.4-4.1,1.6-4.7,4c-0.6,2.3,0.5,4,2.3,5.3c2.9,2.1,5.9,4,9.2,5.5c12.8,5.9,26.4,6,40.1,5.5c14.9-0.6,29.8-2.9,44.9-1.3
		c8.5,0.9,17.6-4.8,19.7-12.8c4.2-15.6,11.5-29.7,17.7-44.5c1.8-4.3,3.2-8.8,4.7-13.2c0.6-1.7,0.2-3.3-1.2-4.5
		c-1.4-1.1-2.9-0.9-4.3,0c-1,0.6-1.9,1.6-2.7,2.5c-6.9,7.4-14.8,13.6-23.2,19.1C643,227.5,615.5,237,586.2,241.5z"/>
	<path class="st1" d="M586.2,241.5c29.3-4.6,56.8-14,81.7-30.5c8.4-5.6,16.3-11.7,23.2-19.1c0.8-0.9,1.7-1.9,2.7-2.5
		c1.3-0.8,2.9-1,4.3,0c1.5,1.2,1.8,2.7,1.2,4.5c-1.5,4.4-2.9,8.9-4.7,13.2c-6.1,14.7-13.5,28.9-17.7,44.5
		c-2.2,8-11.2,13.7-19.7,12.8c-15.1-1.6-29.9,0.7-44.9,1.3c-13.7,0.6-27.3,0.4-40.1-5.5c-3.3-1.5-6.2-3.5-9.2-5.5
		c-1.8-1.3-2.9-2.9-2.3-5.3c0.6-2.4,2.3-3.5,4.7-4C572.4,244.2,579.3,242.8,586.2,241.5z"/>
</g>
<line class="st2" x1="33" y1="329" x2="450" y2="329"/>
<line class="st2" x1="983" y1="329" x2="1400" y2="329"/>
</svg>
