<?xml version="1.0" encoding="utf-8"?>
<!-- Generator: Adobe Illustrator 24.1.2, SVG Export Plug-In . SVG Version: 6.00 Build 0)  -->
<svg version="1.1" id="Слой_1" xmlns="http://www.w3.org/2000/svg" xmlns:xlink="http://www.w3.org/1999/xlink" x="0px" y="0px"
	 viewBox="0 0 200 200" style="enable-background:new 0 0 200 200;" xml:space="preserve">
<style type="text/css">
	.st0{fill:#29A1DC;}
	.st1{fill:#FFFFFF;}
	.st2{fill:#4A7F99;}
	.st3{fill:#99D0EB;}
	.st4{fill:#ABE3FF;}
</style>
<circle class="st0" cx="156.8" cy="80.6" r="18.7"/>
<path class="st1" d="M167.7,81l1.7-7.1l-2.5,1c-2.1-4-6.2-6.5-10.7-6.5c-6.7,0-12.1,5.4-12.1,12.1s5.4,12.1,12.1,12.1
	c3.4,0,6.6-1.4,8.9-3.9c0.2-0.2,0.4-0.6,0.3-0.9c0-0.3-0.2-0.7-0.4-0.9c-0.2-0.2-0.5-0.3-0.9-0.3s-0.7,0.2-0.9,0.4
	c-1.8,2-4.4,3.1-7,3.1c-5.3,0-9.6-4.3-9.6-9.6s4.3-9.6,9.6-9.6c3.5,0,6.7,1.9,8.4,4.9L162,77L167.7,81z"/>
<path class="st2" d="M155,155.5c-0.9-2.6-2.9-4.8-5.4-6c-4.2-2-9.1-0.9-12.2,2.4l-18.7-10l15.3-8h16.2c1.7,0,3-1.4,3-3s-1.4-3-3-3
	H84.6L63.8,58.3c-0.4-1.3-1.6-2.2-2.9-2.2H36.4c-1.7,0-3,1.3-3,3s1.4,3,3,3h22.2l20.8,69.5c0.4,1.3,1.6,2.2,2.9,2.2h8.4l15,8
	L87,151.6c-3.4-3.3-8.5-3.8-12.5-1.5c-2.4,1.4-4.2,3.7-4.8,6.4c-0.7,2.7-0.3,5.6,1.1,8s3.7,4.2,6.4,4.8c0.9,0.2,1.8,0.3,2.7,0.3
	c1.9,0,3.7-0.5,5.3-1.5c3.9-2.3,5.9-7,4.9-11.4l22.2-11.7l22.5,12c-0.3,1.7-0.2,3.5,0.4,5.2c0.9,2.6,2.9,4.8,5.4,6
	c1.4,0.7,3,1,4.5,1c1.2,0,2.4-0.2,3.6-0.6c2.6-0.9,4.8-2.9,6-5.4C155.8,161,155.9,158.1,155,155.5z M82,163.2
	c-2.1,1.2-4.9,0.5-6.1-1.6s-0.5-4.9,1.6-6.1c0.7-0.4,1.5-0.6,2.3-0.6c1.5,0,3,0.8,3.8,2.2C84.8,159.2,84.2,161.9,82,163.2z
	 M103.7,133.9h17.2l-8.7,4.6L103.7,133.9z M149.1,160.9c-0.5,1.1-1.4,1.9-2.5,2.3c-1.1,0.4-2.3,0.3-3.4-0.2
	c-2.2-1.1-3.2-3.7-2.1-5.9c1.1-2.2,3.7-3.2,5.9-2.1C149.2,156.1,150.2,158.7,149.1,160.9z"/>
<path class="st3" d="M151.9,101.5c-10.8-1.9-18.1-11.9-16.9-22.6H78.5c-2.1,0-3.6,2-3,4L87,122c0.5,1.7,2.1,2.8,3.8,2.8h54.4
	c1.7,0,3.3-1.1,3.8-2.8l6.2-20.2C154.1,101.8,153,101.7,151.9,101.5z"/>
<path class="st4" d="M152.1,101.5c-10.2-1.9-18.2-12.3-17.1-22.6H82.7c-2,0-3.3,2.9-2.8,4.8l9.8,35.8c0.5,1.6,3.7,1.8,5.4,1.8h45.6
	c1.6,0,5.2,0.3,5.7-1.3l5.6-18.4C150.9,101.5,153.2,101.7,152.1,101.5z"/>
</svg>
