<?xml version="1.0" encoding="utf-8"?>
<!-- Generator: Adobe Illustrator 24.1.2, SVG Export Plug-In . SVG Version: 6.00 Build 0)  -->
<svg version="1.1" id="Слой_1" xmlns="http://www.w3.org/2000/svg" xmlns:xlink="http://www.w3.org/1999/xlink" x="0px" y="0px"
	 viewBox="0 0 759.6 322.2" style="enable-background:new 0 0 759.6 322.2;" xml:space="preserve">
<style type="text/css">
	.st0{fill:#FFFFFF;}
	.st1{enable-background:new    ;}
</style>
<g>
	<g>
		<path class="st0" d="M446.8,270.1c-18.7,0-33.8-15.2-33.8-33.8s15.2-33.8,33.8-33.8c18.7,0,33.8,15.2,33.8,33.8l0,0
			C480.5,254.9,465.4,270.1,446.8,270.1z M446.8,256.1c11,0,19.8-8.9,19.8-19.8s-8.9-19.8-19.8-19.8c-11,0-19.8,8.9-19.8,19.8
			S435.8,256.1,446.8,256.1z M376.1,270.1c-18.7,0-33.8-15.2-33.8-33.8s15.2-33.8,33.8-33.8c18.6,0,33.8,15.2,33.8,33.8l0,0
			C409.9,254.9,394.7,270.1,376.1,270.1z M376.1,256.1c11,0,19.8-8.9,19.8-19.8s-8.9-19.8-19.8-19.8c-11,0-19.8,8.9-19.8,19.8
			C356.3,247.2,365.1,256.1,376.1,256.1z M339.2,235.9c0,18.9-15.2,34.2-33.8,34.2c-18.6,0-33.8-15.3-33.8-34.2s13.8-33.4,33.8-33.4
			c7.4,0,14.2,1.5,19.8,5.7v-19.6c0-3.8,3.3-6.8,7-6.8s7,3.1,7,6.8V235.9z M305.3,256.1c11,0,19.8-8.9,19.8-19.8
			s-8.9-19.8-19.8-19.8s-19.8,8.9-19.8,19.8S294.4,256.1,305.3,256.1z"/>
	</g>
</g>
<g>
	<g>
		<path class="st0" d="M234.6,270.1c-18.6,0-33.8-15.2-33.8-33.8s15.2-33.8,33.8-33.8s33.8,15.2,33.8,33.8l0,0
			C268.4,254.9,253.3,270.1,234.6,270.1z M234.6,256.1c11,0,19.8-8.9,19.8-19.8s-8.9-19.8-19.8-19.8s-19.8,8.8-19.8,19.8
			C214.9,247.3,223.7,256.1,234.6,256.1z"/>
	</g>
</g>
<g>
	<g>
		<g>
			<path class="st0" d="M616.7,212.2c6.6,6.6,9.9,14.6,9.9,24c0,9.3-3.3,17.4-9.9,24c-6.6,6.6-14.6,9.9-23.9,9.9s-17.3-3.3-23.9-9.9
				c-6.6-6.6-9.9-14.6-9.9-24c0-9.3,3.3-17.4,9.9-24c6.6-6.6,14.6-9.9,23.9-9.9S610.1,205.6,616.7,212.2z M592.8,216.1
				c-5.5,0-10.3,2-14.2,5.9s-5.9,8.7-5.9,14.2c0,5.6,2,10.3,5.9,14.3s8.7,5.9,14.2,5.9s10.3-2,14.2-5.9c3.9-4,5.9-8.7,5.9-14.3
				s-2-10.3-5.9-14.2C603,218,598.3,216.1,592.8,216.1z"/>
		</g>
	</g>
	<g>
		<g>
			<path class="st0" d="M687,212.2C687,212.3,687.1,212.3,687,212.2c1.4,1.4,2.1,3,2.1,4.9c0,1.8-0.7,3.5-2,4.8s-2.9,2-4.8,2
				c-1.9,0-3.5-0.7-4.8-2.1h-0.1c-3.9-3.9-8.6-5.8-14.1-5.8s-10.3,2-14.2,5.9s-5.9,8.7-5.9,14.2c0,5.6,2,10.3,5.9,14.3
				s8.7,5.9,14.2,5.9s10.2-1.9,14.1-5.8c0.1-0.1,0.1-0.1,0.1-0.1c1.3-1.3,2.9-2,4.8-2c1.8,0,3.5,0.7,4.9,2c1.3,1.3,2.1,2.9,2.1,4.9
				c0,1.9-0.7,3.5-2.1,4.9c-0.1,0.1-0.1,0.1-0.1,0.1c-6.5,6.5-14.5,9.9-23.8,9.9s-17.3-3.3-23.9-9.9c-6.6-6.6-9.9-14.6-9.9-24
				c0-9.3,3.3-17.4,9.9-24c6.6-6.6,14.6-9.9,23.9-9.9C672.7,202.3,680.6,205.6,687,212.2L687,212.2z"/>
		</g>
	</g>
	<g>
		<g>
			<path class="st0" d="M759.6,263.4c0,2.6-0.7,4.4-2.1,5.3c-1.3,0.9-2.9,1.3-4.9,1.3c-1.9,0-3.5-0.4-4.9-1.3s-2.1-2.6-2.1-5.1
				c-5.7,4.3-12.4,6.5-19.9,6.5c-9.3,0-17.3-3.3-23.9-9.9c-6.6-6.6-9.9-14.6-9.9-24c0-9.3,3.3-17.4,9.9-24
				c6.6-6.6,14.6-9.9,23.9-9.9s17.3,3.3,23.9,9.9c6.5,6.5,9.8,14.4,9.9,23.6L759.6,263.4L759.6,263.4z M740.1,222
				c-3.9-4-8.7-5.9-14.2-5.9s-10.3,2-14.2,5.9s-5.9,8.7-5.9,14.2c0,5.6,2,10.3,5.9,14.3s8.6,5.9,14.2,5.9c5.5,0,10.3-2,14.2-5.9
				c3.3-3.4,5.2-7.3,5.7-11.8V236c0-0.4,0-0.8,0.1-1.3C745.7,229.8,743.7,225.5,740.1,222z"/>
		</g>
	</g>
</g>
<g>
	<g>
		<path class="st0" d="M584.6,197.7c-0.3,0.4-1.1,0.1-1.5,0c-0.9-0.4-1.3-1.2-1.5-1.5c-1.3-2.1-4.8-3-7.4-2.9
			c-0.7,0-2.7,0.1-4.4,1.5c-0.8,0.7-1.3,1.4-2.2,2.9c-0.2,0.4-1,1.8-1.5,3.7c-0.2,0.9-0.1,1.2,0,1.5c0.4,0.8,1.8,0.8,2.9,0.7
			c3.9-0.2,7-1.3,7.4-1.5c1.1-0.4,4.3-1.7,6.6-2.2c0.1,0,1-0.2,2.2,0c0.6,0.1,1.3,0.2,1.5,0.7c0.1,0.5-0.3,1.1-0.7,1.5
			c-0.6,0.4-1.2,0.3-1.5,0.7c-0.1,0.2-0.1,0.5,0,0.7c0.3,0.4,1,0.2,1.5,0c0.3-0.1,0.4-0.4,0.7-0.7c0.4-0.5,0.7-1,0.7-1.5
			c0-0.4-0.1-0.6,0-0.7c0.1-0.1,0.5-0.1,0.7,0c0,0,0.9,0.2,2.2,0s1.5-1,2.2-0.7c0.2,0.1,0.4,0.3,0.7,0.7c0.9,1.1,0.8,1.5,1.5,2.2
			c0.5,0.5,1.3,0.9,1.5,0.7c0.1-0.1,0.1-0.5,0-0.7c-0.1-0.4-0.4-0.4-0.7-0.7c-0.6-0.6-1-1-1.5-1.5s-0.4-0.2-0.7-0.7
			c-0.1-0.2-0.1-0.5,0-0.7c0.2-0.2,0.7-0.1,1.5,0c2.4,0.4,2.6,0.4,2.9,0.7c0.1,0.1,0.4,0.6,0.7,1.5c0.4,0.9,0.4,1.1,0.7,1.5
			c0.1,0.1,0.8,0.9,1.5,0.7c0.3-0.1,0.7-0.3,0.7-0.7s-0.4-0.7-0.7-0.7s-0.4,0-0.7,0c-0.7-0.1-1.1-0.9-1.5-1.5
			c-0.5-0.9-0.3-1.1-0.7-1.5c-0.6-0.6-1.4-0.4-1.5-0.7c0-0.1,0.2-0.2,0.7-0.7s0.5-0.7,0.7-0.7c0.5-0.1,1.1,0.4,1.5,0.7
			c0.4,0.4,1.5,0.7,3.7,1.5c2.2,0.7,4.3,0.7,5.1,1.5c0.7,0.7,0.7,0.7,0.7,0.7c0.4,0.5,0.6,0.7,0.7,0.7c0.4,0,0.7-0.7,0.7-1.5
			c0-0.7-0.2-1.2-0.7-2.2s-0.7-1-0.7-1.5c-0.1-1,0.6-2,0.7-2.2c0.3-0.4,0.5-0.7,0.7-0.7c1.8-0.7,6.8,5.9,8,8
			c0.1,0.2,0.4,0.7,0.7,0.7s0.7-0.8,0.7-1.5s-0.5-1.3-0.7-1.5c-4-4.2-5.4-5.4-8-8c-0.2-0.2-1-1-1.5-0.7c-0.2,0.1-0.2,0.3-0.7,1.5
			c-0.2,0.4-0.4,1-0.7,1.5c-0.4,0.7-0.7,0.7-0.7,0.7c-0.3,0-0.5-0.4-0.7-0.7c-1-1.5-4.5-1.5-5.1-1.5c-0.7,0-1.5,0-2.2,0.7
			c-0.5,0.5-0.7,1.3-1.5,1.5c-0.1,0.1-0.4,0.1-0.7,0c-0.4-0.2-0.4-0.7-0.7-1.5c-0.1-0.4-0.4-1.1-0.7-1.5c-0.7-0.9-2.1-0.8-2.9-0.7
			c-1.3,0.1-1.3,0.4-4.4,1.5c-1.5,0.5-2.3,0.7-2.9,1.5c-0.1,0.2-0.6,0.7-0.7,1.5C584.3,196.6,584.9,197.3,584.6,197.7z"/>
	</g>
</g>
<g class="st1">
	<g>
		<path class="st0" d="M353.8,311.6c-0.3,0-0.6-0.1-0.8-0.2c-0.2-0.2-0.4-0.4-0.4-0.7v-25c0-0.2,0.1-0.4,0.3-0.6
			c0.2-0.2,0.4-0.3,0.8-0.3h6.8c1.4,0,2.7,0.3,3.9,0.8c1.2,0.5,2.1,1.3,2.7,2.5c0.7,1.1,1,2.7,1,4.5v0.4c0,1.9-0.3,3.4-1,4.6
			c-0.7,1.1-1.6,2-2.8,2.5s-2.5,0.8-3.9,0.8H355v9.9c0,0.3-0.1,0.6-0.4,0.7C354.3,311.5,354.1,311.6,353.8,311.6z M355,298.6h5.3
			c1.6,0,2.9-0.5,3.8-1.4s1.4-2.3,1.4-4.2v-0.4c0-1.9-0.5-3.3-1.4-4.2s-2.2-1.4-3.8-1.4H355V298.6z"/>
		<path class="st0" d="M353.8,312c-0.4,0-0.8-0.2-1-0.2l-0.1-0.1c-0.2-0.2-0.5-0.5-0.5-1v-25c0-0.3,0.1-0.6,0.4-0.9
			c0.3-0.3,0.6-0.4,1.1-0.4h6.8c1.4,0,2.7,0.3,4,0.8c1.3,0.5,2.3,1.4,2.9,2.7c0.7,1.1,1,2.7,1,4.7v0.4c0,2-0.3,3.6-1.1,4.8
			c-0.8,1.3-1.8,2.2-3,2.7c-1.3,0.6-2.7,0.8-4,0.8h-5v9.5c0,0.5-0.2,0.9-0.7,1.1l-0.1,0c-0.1,0-0.2,0-0.3,0
			C354.1,311.9,354,312,353.8,312z M353.2,311.1c0.2,0.1,0.6,0.2,0.9,0.1c0.1,0,0.2,0,0.4-0.1c0.1-0.1,0.1-0.2,0.1-0.3v-10.3h5.8
			c1.3,0,2.5-0.3,3.8-0.8c1-0.4,1.9-1.2,2.6-2.4c0.6-1.1,0.9-2.5,0.9-4.4v-0.4c0-1.8-0.3-3.3-0.9-4.3c-0.6-1.1-1.4-1.9-2.5-2.4
			c-1.2-0.5-2.5-0.8-3.8-0.8h-6.8c-0.3,0-0.4,0.1-0.5,0.2c-0.1,0.1-0.2,0.2-0.2,0.3v25C353,310.8,353.1,310.9,353.2,311.1z
			 M360.3,299h-5.7v-12.3h5.7c1.7,0,3.1,0.5,4.1,1.5c1,1,1.5,2.5,1.5,4.5v0.4c0,2-0.5,3.5-1.5,4.5C363.4,298.5,362,299,360.3,299z
			 M355.4,298.2h4.9c1.5,0,2.7-0.4,3.5-1.3c0.9-0.9,1.3-2.2,1.3-3.9v-0.4c0-1.8-0.4-3.1-1.3-3.9c-0.8-0.8-2.1-1.3-3.5-1.3h-4.9
			V298.2z"/>
	</g>
	<g>
		<path class="st0" d="M377.5,311.8c-1.4,0-2.6-0.4-3.5-1.2c-1-0.8-1.5-2-1.5-3.7c0-1.3,0.4-2.4,1.1-3.1s1.7-1.2,3-1.5
			s2.8-0.4,4.5-0.4h1.9V301c0-0.8-0.1-1.6-0.4-2.3c-0.3-0.8-0.7-1.4-1.4-1.9c-0.6-0.5-1.5-0.8-2.6-0.8c-0.8,0-1.5,0.1-2,0.3
			c-0.5,0.2-0.9,0.3-1.2,0.5c-0.3,0.2-0.5,0.3-0.7,0.3c-0.3,0-0.5-0.1-0.7-0.4s-0.3-0.6-0.3-0.8c0-0.3,0.3-0.6,0.8-0.9
			s1.1-0.5,1.9-0.7s1.5-0.3,2.3-0.3c1.6,0,2.9,0.3,3.9,1s1.7,1.6,2.1,2.6c0.4,1.1,0.6,2.2,0.6,3.5v9.6c0,0.3-0.1,0.5-0.3,0.7
			c-0.2,0.2-0.5,0.3-0.9,0.3c-0.3,0-0.6-0.1-0.8-0.3c-0.2-0.2-0.3-0.4-0.3-0.7V309c-0.6,0.7-1.4,1.4-2.3,1.9
			C379.8,311.5,378.8,311.8,377.5,311.8z M378.1,309.8c0.8,0,1.6-0.2,2.3-0.6s1.3-0.9,1.8-1.5s0.7-1.2,0.7-1.7v-2.4h-1.5
			c-1.1,0-2.2,0.1-3.1,0.2s-1.8,0.4-2.4,0.9c-0.6,0.4-0.9,1.1-0.9,2.1c0,1.1,0.3,1.8,0.9,2.3C376.5,309.6,377.2,309.8,378.1,309.8z"
			/>
		<path class="st0" d="M377.5,312.2c-1.5,0-2.8-0.4-3.7-1.3c-1.1-0.9-1.6-2.2-1.6-4c0-1.4,0.4-2.6,1.2-3.4c0.7-0.7,1.8-1.3,3.2-1.6
			c1.2-0.3,2.7-0.4,4.6-0.4h1.5V301c0-0.9-0.1-1.6-0.4-2.2c-0.3-0.8-0.7-1.3-1.3-1.7c-0.6-0.5-1.4-0.7-2.4-0.7
			c-0.8,0-1.4,0.1-1.9,0.3c-0.2,0.1-0.3,0.1-0.5,0.2c-0.3,0.1-0.5,0.2-0.7,0.3c-0.8,0.5-1.5,0.5-1.9-0.2c-0.2-0.3-0.4-0.7-0.4-1
			c0-0.6,0.6-1,1-1.2c0.5-0.3,1.1-0.5,2-0.7c0.9-0.2,1.6-0.3,2.4-0.3c1.7,0,3.1,0.3,4.1,1.1c1,0.7,1.8,1.7,2.2,2.8
			c0.4,1.2,0.6,2.3,0.6,3.6v9.6c0,0.4-0.1,0.7-0.4,1c-0.3,0.3-0.7,0.4-1.2,0.4c-0.4,0-0.8-0.1-1.1-0.4c-0.3-0.3-0.4-0.6-0.4-1v-0.8
			c-0.5,0.5-1.1,1-1.7,1.3C379.9,311.9,378.8,312.2,377.5,312.2z M381.1,302.3c-1.9,0-3.3,0.1-4.4,0.4c-1.2,0.3-2.2,0.8-2.8,1.4
			c-0.6,0.6-1,1.6-1,2.8c0,1.6,0.4,2.7,1.4,3.4c0.8,0.7,1.9,1.1,3.3,1.1c1.2,0,2.1-0.3,3-0.8c0.8-0.5,1.6-1.1,2.2-1.8l0.7-0.8v2.7
			c0,0.2,0,0.3,0.2,0.4c0.1,0.1,0.3,0.2,0.5,0.2c0.3,0,0.5-0.1,0.6-0.2c0.1-0.1,0.2-0.3,0.2-0.4v-9.6c0-1.2-0.2-2.3-0.6-3.4
			c-0.4-0.9-1.1-1.8-2-2.4c-0.9-0.6-2.1-0.9-3.7-0.9c-0.7,0-1.4,0.1-2.2,0.3c-0.9,0.2-1.4,0.4-1.8,0.7c-0.6,0.4-0.6,0.6-0.6,0.6
			c0,0.1,0.1,0.3,0.2,0.6c0.1,0.2,0.2,0.2,0.4,0.2c0.1,0,0.2-0.1,0.5-0.2c0.2-0.2,0.5-0.3,0.8-0.4c0.1,0,0.3-0.1,0.4-0.2
			c0.5-0.2,1.3-0.3,2.1-0.3c1.1,0,2.2,0.3,2.8,0.9c0.7,0.5,1.2,1.1,1.5,2.1c0.3,0.7,0.4,1.5,0.4,2.4v1.3H381.1z M378.1,310.2
			c-1,0-1.8-0.3-2.4-0.8c-0.7-0.6-1-1.4-1-2.6c0-1.1,0.4-1.9,1.1-2.4c0.6-0.5,1.5-0.8,2.6-1c0.8-0.1,2-0.2,3.1-0.2h1.9v2.8
			c0,0.5-0.1,1.2-0.8,1.9c-0.5,0.6-1.2,1.2-1.9,1.6C379.8,310,379,310.2,378.1,310.2z M381.4,304c-1.1,0-2.3,0.1-3.1,0.2
			c-0.9,0.1-1.7,0.4-2.2,0.8c-0.5,0.4-0.8,0.9-0.8,1.8c0,1,0.2,1.6,0.8,2c0.5,0.4,1.1,0.6,2,0.6c0.8,0,1.5-0.2,2.1-0.5
			c0.7-0.4,1.2-0.9,1.7-1.4c0.4-0.5,0.6-1,0.6-1.5v-2H381.4z"/>
	</g>
	<g>
		<path class="st0" d="M393.9,311.6c-0.3,0-0.6-0.1-0.8-0.3c-0.2-0.2-0.3-0.4-0.3-0.7V295c0-0.3,0.1-0.5,0.3-0.6
			c0.2-0.2,0.5-0.2,0.8-0.2s0.6,0.1,0.8,0.2s0.3,0.4,0.3,0.6v1.8c0.3-0.5,0.6-1,1.1-1.4s1-0.8,1.7-1.1c0.6-0.3,1.4-0.4,2.2-0.4h1.3
			c0.3,0,0.5,0.1,0.7,0.3c0.2,0.2,0.3,0.5,0.3,0.8s-0.1,0.6-0.3,0.8s-0.4,0.3-0.7,0.3H400c-0.8,0-1.6,0.2-2.3,0.6
			c-0.7,0.4-1.4,1-1.8,1.8s-0.7,1.8-0.7,2.9v9.1c0,0.2-0.1,0.5-0.3,0.7C394.6,311.5,394.3,311.6,393.9,311.6z"/>
		<path class="st0" d="M393.9,312c-0.4,0-0.8-0.1-1.1-0.4c-0.3-0.3-0.4-0.6-0.4-1V295c0-0.5,0.2-0.8,0.5-0.9c0.3-0.3,0.7-0.3,1-0.3
			c0.4,0,0.8,0.2,1,0.2c0.3,0.2,0.5,0.6,0.5,0.9v0.6c0.1-0.2,0.3-0.3,0.5-0.5c0.5-0.4,1-0.8,1.8-1.2c0.6-0.3,1.4-0.4,2.3-0.4h1.3
			c0.4,0,0.7,0.1,1,0.4c0.3,0.3,0.4,0.6,0.4,1.1s-0.1,0.8-0.4,1.1c-0.3,0.3-0.6,0.4-1,0.4H400c-0.8,0-1.5,0.2-2.1,0.6
			c-0.5,0.3-1.2,0.8-1.7,1.6c-0.3,0.6-0.7,1.6-0.7,2.7v9.1c0,0.3-0.1,0.7-0.4,1C394.8,311.8,394.4,312,393.9,312z M393.9,294.6
			c-0.2,0-0.4,0-0.5,0.1l-0.1,0.1c0,0-0.1,0-0.1,0.3v15.6c0,0.2,0,0.3,0.2,0.4c0.1,0.1,0.3,0.2,0.5,0.2c0.3,0,0.5-0.1,0.7-0.3
			c0.1-0.1,0.2-0.3,0.2-0.4v-9.1c0-1.3,0.4-2.4,0.7-3.1c0.5-1,1.3-1.6,1.9-2c0.7-0.4,1.6-0.6,2.5-0.6h1.3c0.2,0,0.3,0,0.4-0.2
			c0.1-0.1,0.2-0.3,0.2-0.5s-0.1-0.4-0.2-0.5c-0.1-0.1-0.3-0.2-0.4-0.2H400c-0.9,0-1.6,0.1-2,0.4c-0.7,0.3-1.1,0.7-1.6,1.1
			c-0.4,0.4-0.7,0.8-1,1.3l-0.7,1.2V295c0-0.1-0.1-0.2-0.1-0.3C394.5,294.7,394.2,294.6,393.9,294.6z"/>
	</g>
	<g>
		<path class="st0" d="M413.6,311.6c-1.9,0-3.3-0.4-4.3-1.3s-1.5-2.2-1.5-4.1v-19.4c0-0.3,0.1-0.5,0.4-0.6c0.3-0.2,0.5-0.2,0.8-0.2
			s0.6,0.1,0.8,0.2s0.4,0.4,0.4,0.6v7.4h4.8c0.2,0,0.4,0.1,0.6,0.3c0.1,0.2,0.2,0.4,0.2,0.7s-0.1,0.5-0.2,0.7s-0.3,0.3-0.6,0.3h-4.8
			v10c0,1.2,0.3,2,0.8,2.5s1.4,0.7,2.7,0.7h1c0.3,0,0.6,0.1,0.8,0.3c0.2,0.2,0.3,0.5,0.3,0.8s-0.1,0.6-0.3,0.8
			c-0.2,0.2-0.4,0.3-0.8,0.3L413.6,311.6L413.6,311.6z"/>
		<path class="st0" d="M414.7,312h-1.1c-2,0-3.5-0.4-4.6-1.4c-1.1-1-1.6-2.4-1.6-4.4v-19.4c0-0.5,0.2-0.8,0.6-0.9
			c0.4-0.2,0.7-0.2,1-0.2c0.4,0,0.8,0.2,1,0.2c0.3,0.2,0.6,0.6,0.6,0.9v7h4.4c0.3,0,0.6,0.1,0.9,0.4l0.1,0.1
			c0.1,0.2,0.2,0.5,0.2,0.9s-0.1,0.7-0.2,0.9c-0.1,0.2-0.4,0.5-0.9,0.5h-4.4v9.6c0,1,0.2,1.8,0.7,2.2c0.4,0.4,1.2,0.6,2.4,0.6h1
			c0.4,0,0.8,0.1,1.1,0.4c0.3,0.3,0.4,0.6,0.4,1.1s-0.1,0.8-0.4,1.1C415.5,311.9,415.2,312,414.7,312z M409,286.4
			c-0.3,0-0.4,0-0.6,0.1l-0.1,0c-0.1,0-0.1,0-0.1,0.2v19.4c0,1.8,0.4,3,1.4,3.8c0.9,0.8,2.2,1.2,4,1.2h1.1c0.3,0,0.4-0.1,0.5-0.2
			c0.1-0.1,0.2-0.3,0.2-0.5s-0.1-0.4-0.2-0.5c-0.1-0.1-0.3-0.2-0.5-0.2h-1c-1.5,0-2.4-0.3-3-0.8c-0.6-0.6-0.9-1.5-0.9-2.8v-10.4h5.2
			c0.2,0,0.3-0.1,0.3-0.1c0.1-0.2,0.2-0.3,0.2-0.5c0-0.2-0.1-0.3-0.1-0.5c-0.1-0.1-0.2-0.2-0.3-0.2h-5.2v-7.8c0-0.1-0.1-0.2-0.2-0.3
			S409.3,286.4,409,286.4z"/>
	</g>
	<g>
		<path class="st0" d="M422.9,311.6c-0.3,0-0.6-0.1-0.8-0.3c-0.2-0.2-0.3-0.4-0.3-0.7V295c0-0.3,0.1-0.5,0.3-0.6
			c0.2-0.2,0.5-0.2,0.8-0.2s0.6,0.1,0.8,0.2s0.3,0.4,0.3,0.6v1.7c0.4-0.7,1-1.4,1.8-1.9c0.8-0.6,1.9-0.9,3.1-0.9s2.3,0.3,3.3,0.9
			s1.8,1.5,2.4,2.5s0.9,2.2,0.9,3.5v9.8c0,0.3-0.1,0.6-0.4,0.7c-0.2,0.2-0.5,0.2-0.8,0.2s-0.5-0.1-0.8-0.2c-0.3-0.2-0.4-0.4-0.4-0.7
			v-9.8c0-0.8-0.2-1.5-0.6-2.2s-1-1.3-1.7-1.7c-0.7-0.5-1.4-0.7-2.3-0.7c-0.7,0-1.4,0.2-2.1,0.6s-1.2,0.9-1.7,1.6s-0.6,1.5-0.6,2.5
			v9.8c0,0.2-0.1,0.5-0.3,0.7C423.5,311.5,423.2,311.6,422.9,311.6z"/>
		<path class="st0" d="M422.9,312c-0.4,0-0.8-0.1-1.1-0.4c-0.3-0.3-0.4-0.6-0.4-1V295c0-0.5,0.2-0.8,0.5-0.9c0.3-0.3,0.7-0.3,1-0.3
			c0.4,0,0.8,0.2,1,0.2c0.3,0.2,0.5,0.6,0.5,0.9v0.5c0.3-0.4,0.7-0.7,1.2-1c0.8-0.6,2-1,3.3-1c1.3,0,2.4,0.3,3.5,1
			c1,0.6,1.8,1.5,2.5,2.6c0.6,1,1,2.3,1,3.7v9.8c0,0.5-0.2,0.9-0.6,1c-0.3,0.3-0.7,0.3-1,0.3c-0.3,0-0.5-0.1-0.8-0.2l-0.3-0.1
			c-0.4-0.3-0.6-0.6-0.6-1v-9.8c0-0.7-0.2-1.4-0.5-2c-0.4-0.6-0.9-1.2-1.6-1.6c-0.7-0.5-1.3-0.7-2.1-0.7c-0.6,0-1.3,0.2-1.9,0.5
			c-0.6,0.3-1.1,0.8-1.6,1.5c-0.4,0.6-0.5,1.3-0.5,2.3v9.8c0,0.3-0.1,0.7-0.4,1l-0.1,0.1C423.6,311.9,423.3,312,422.9,312z
			 M422.9,294.6c-0.2,0-0.4,0-0.5,0.1l-0.1,0.1c0,0-0.1,0-0.1,0.3v15.6c0,0.2,0,0.3,0.2,0.4c0.2,0.2,0.7,0.2,1.2,0
			c0.1-0.1,0.1-0.3,0.1-0.4v-9.8c0-1.1,0.1-1.9,0.7-2.7c0.6-0.8,1.1-1.3,1.8-1.7c0.8-0.4,1.5-0.6,2.3-0.6c1,0,1.8,0.2,2.5,0.8
			c0.7,0.4,1.4,1.1,1.8,1.8c0.4,0.8,0.6,1.5,0.6,2.4v9.8c0,0.1,0,0.2,0.2,0.4l0.1,0c0.2,0.1,0.3,0.1,0.5,0.1c0.2,0,0.4,0,0.5-0.1
			l0.1-0.1c0.1,0,0.1-0.2,0.1-0.3v-9.8c0-1.2-0.3-2.4-0.8-3.3c-0.6-1-1.4-1.9-2.3-2.4c-0.9-0.6-2-0.8-3.1-0.8
			c-1.1,0-2.2,0.3-2.9,0.8c-0.9,0.6-1.4,1.3-1.7,1.8l-0.7,1.2V295c0-0.1-0.1-0.2-0.1-0.3C423.5,294.7,423.2,294.6,422.9,294.6z"/>
	</g>
	<g>
		<path class="st0" d="M450.1,311.8c-1.5,0-2.9-0.3-4.1-0.9s-2.1-1.4-2.8-2.4c-0.7-1-1-2.3-1-3.7v-4.1c0-1.2,0.3-2.4,1-3.4
			c0.6-1,1.5-1.9,2.6-2.5s2.2-0.9,3.5-0.9c1.2,0,2.4,0.3,3.4,0.9s1.9,1.4,2.5,2.4s1,2.2,1,3.5c0,1-0.2,1.6-0.5,2s-0.7,0.7-1.2,0.8
			c-0.5,0.1-1,0.1-1.5,0.1h-8.3v1.4c0,1.5,0.5,2.6,1.6,3.5s2.4,1.3,4,1.3c1,0,1.7-0.1,2.3-0.4c0.5-0.2,1-0.5,1.3-0.7
			s0.6-0.4,0.9-0.4c0.2,0,0.4,0.1,0.5,0.2s0.3,0.3,0.4,0.5s0.1,0.3,0.1,0.5c0,0.3-0.2,0.6-0.7,1s-1.1,0.7-1.9,1
			C452.2,311.7,451.2,311.8,450.1,311.8z M444.6,301.8h7.4c0.7,0,1.2-0.1,1.5-0.2s0.4-0.5,0.4-1c0-0.8-0.2-1.5-0.6-2.2
			s-0.9-1.3-1.6-1.7c-0.7-0.4-1.5-0.7-2.4-0.7c-0.8,0-1.6,0.2-2.3,0.6s-1.3,0.9-1.7,1.6c-0.4,0.7-0.6,1.4-0.6,2.3L444.6,301.8
			L444.6,301.8z"/>
		<path class="st0" d="M450.1,312.2c-1.6,0-3-0.3-4.3-0.9c-1.2-0.6-2.2-1.4-2.9-2.5c-0.7-1-1.1-2.3-1.1-3.9v-4.1
			c0-1.4,0.4-2.6,1.1-3.6c0.6-1.1,1.6-2,2.7-2.6c1.2-0.6,2.4-0.9,3.7-0.9c1.3,0,2.6,0.3,3.6,1c1.1,0.7,2,1.6,2.6,2.5
			c0.7,1.1,1.1,2.4,1.1,3.7c0,1-0.2,1.7-0.6,2.2c-0.4,0.5-0.9,0.8-1.4,0.9c-0.5,0.1-1.1,0.1-1.6,0.1h-7.9v1c0,1.4,0.5,2.4,1.5,3.2
			c1,0.8,2.2,1.2,3.8,1.2c1,0,1.6-0.1,2.1-0.4c0.6-0.2,1.1-0.5,1.3-0.7c0.3-0.2,0.7-0.5,1.1-0.5c0.3,0,0.6,0.2,0.8,0.3
			c0.2,0.2,0.4,0.4,0.5,0.6c0.1,0.3,0.1,0.5,0.1,0.7c0,0.4-0.3,0.8-0.8,1.3c-0.5,0.4-1.1,0.7-2,1.1
			C452.2,312.1,451.2,312.2,450.1,312.2z M449.3,294.3c-1.2,0-2.3,0.3-3.3,0.9c-1,0.5-1.9,1.4-2.5,2.4c-0.6,0.9-0.9,2-0.9,3.2v4.1
			c0,1.4,0.3,2.6,0.9,3.5c0.7,1,1.6,1.7,2.7,2.3c1.1,0.6,2.5,0.9,3.9,0.9c1.1,0,2-0.1,3-0.3c0.8-0.3,1.3-0.6,1.7-0.9
			c0.4-0.3,0.6-0.5,0.6-0.7c0-0.2,0-0.2-0.1-0.3c-0.1-0.1-0.3-0.3-0.3-0.4c0,0-0.1-0.1-0.2-0.1c-0.2,0-0.4,0.2-0.7,0.3
			c-0.2,0.1-0.8,0.5-1.4,0.7c-0.6,0.3-1.3,0.4-2.4,0.4c-1.7,0-3.1-0.5-4.2-1.4c-1.2-1-1.7-2.2-1.7-3.8v-1.8h8.7c0.5,0,1,0,1.4-0.1
			c0.4-0.1,0.7-0.3,1-0.7c0.3-0.4,0.4-1,0.4-1.8c0-1.1-0.3-2.3-0.9-3.3c-0.5-0.9-1.3-1.7-2.4-2.3
			C451.6,294.6,450.5,294.3,449.3,294.3z M452,302.2h-7.8l0.1-1.7c0-0.9,0.2-1.7,0.6-2.5c0.4-0.7,1-1.3,1.8-1.7
			c1.5-0.8,3.3-0.9,5.1,0.1c0.7,0.4,1.3,1,1.7,1.8c0.4,0.8,0.6,1.5,0.6,2.4c0,0.8-0.2,1.2-0.7,1.4C453.4,302,452.8,302.2,452,302.2z
			 M445,301.4h7c0.7,0,1.2-0.1,1.4-0.2c0,0,0.1-0.2,0.1-0.6c0-0.7-0.2-1.4-0.6-2c-0.4-0.7-0.9-1.2-1.5-1.6c-1.6-0.9-3.1-0.8-4.3-0.1
			c-0.7,0.4-1.2,0.9-1.6,1.5c-0.4,0.7-0.5,1.3-0.5,2.1L445,301.4z"/>
	</g>
	<g>
		<path class="st0" d="M463.8,311.6c-0.3,0-0.6-0.1-0.8-0.3c-0.2-0.2-0.3-0.4-0.3-0.7V295c0-0.3,0.1-0.5,0.3-0.6
			c0.2-0.2,0.5-0.2,0.8-0.2s0.6,0.1,0.8,0.2s0.3,0.4,0.3,0.6v1.8c0.3-0.5,0.6-1,1.1-1.4s1-0.8,1.7-1.1c0.6-0.3,1.4-0.4,2.2-0.4h1.3
			c0.3,0,0.5,0.1,0.7,0.3c0.2,0.2,0.3,0.5,0.3,0.8s-0.1,0.6-0.3,0.8s-0.4,0.3-0.7,0.3h-1.3c-0.8,0-1.6,0.2-2.3,0.6
			c-0.7,0.4-1.4,1-1.8,1.8s-0.7,1.8-0.7,2.9v9.1c0,0.2-0.1,0.5-0.3,0.7C464.5,311.5,464.2,311.6,463.8,311.6z"/>
		<path class="st0" d="M463.8,312c-0.4,0-0.8-0.1-1.1-0.4c-0.3-0.3-0.4-0.6-0.4-1V295c0-0.5,0.2-0.8,0.5-0.9c0.3-0.3,0.7-0.3,1-0.3
			c0.4,0,0.8,0.2,1,0.2c0.3,0.2,0.5,0.6,0.5,0.9v0.6c0.1-0.2,0.3-0.3,0.5-0.5c0.5-0.4,1-0.8,1.8-1.2c0.6-0.3,1.4-0.4,2.3-0.4h1.3
			c0.4,0,0.7,0.1,1,0.4c0.3,0.3,0.4,0.7,0.4,1.1s-0.1,0.8-0.4,1.1c-0.3,0.3-0.6,0.4-1,0.4h-1.3c-0.8,0-1.5,0.2-2.1,0.6
			c-0.5,0.3-1.2,0.8-1.7,1.6c-0.3,0.6-0.7,1.6-0.7,2.7v9.1c0,0.3-0.1,0.7-0.4,1C464.7,311.8,464.3,312,463.8,312z M463.8,294.6
			c-0.2,0-0.4,0-0.5,0.1l-0.1,0.1c0,0-0.1,0-0.1,0.3v15.6c0,0.2,0,0.3,0.2,0.4c0.1,0.1,0.3,0.2,0.5,0.2c0.3,0,0.5-0.1,0.7-0.3
			c0.1-0.1,0.2-0.3,0.2-0.4v-9.1c0-1.3,0.4-2.4,0.7-3.1c0.5-1,1.3-1.6,2-2c0.7-0.4,1.6-0.7,2.5-0.7h1.3c0.2,0,0.3,0,0.4-0.2
			c0.1-0.1,0.2-0.3,0.2-0.5s-0.1-0.4-0.2-0.5c-0.1-0.1-0.3-0.2-0.4-0.2h-1.3c-0.9,0-1.6,0.1-2,0.4c-0.7,0.3-1.1,0.7-1.6,1.1
			c-0.4,0.4-0.7,0.8-1,1.3l-0.7,1.2V295c0-0.1-0.1-0.2-0.1-0.3C464.3,294.7,464,294.6,463.8,294.6z"/>
	</g>
</g>
<g class="st1">
	<g>
		<path class="st0" d="M576.2,311.8c-1.4,0-2.6-0.3-3.8-0.8s-2.1-1.3-2.8-2.5s-1-2.7-1-4.6v-11.4c0-1.9,0.3-3.4,1-4.6s1.6-2,2.8-2.5
			s2.4-0.8,3.8-0.8c1.6,0,3,0.3,4.1,0.8c1.1,0.6,2,1.3,2.6,2.2c0.6,0.9,0.9,1.9,0.9,3.1c0,0.6-0.1,1-0.3,1.2s-0.5,0.3-0.9,0.3
			s-0.8-0.1-0.9-0.3c-0.2-0.2-0.3-0.4-0.3-0.6c0-0.4-0.1-0.8-0.2-1.4c-0.1-0.5-0.4-1-0.7-1.5c-0.4-0.5-0.9-0.9-1.5-1.2
			c-0.7-0.3-1.6-0.5-2.6-0.5c-1.7,0-3,0.5-3.9,1.4s-1.4,2.3-1.4,4.2v11.4c0,1.9,0.5,3.4,1.4,4.3s2.3,1.4,4,1.4c1.1,0,2-0.2,2.6-0.5
			s1.1-0.7,1.5-1.1c0.3-0.5,0.6-0.9,0.7-1.5s0.2-1,0.3-1.5c0-0.3,0.1-0.6,0.3-0.7c0.2-0.2,0.5-0.2,0.8-0.2c0.4,0,0.7,0.1,0.9,0.3
			c0.2,0.2,0.3,0.6,0.3,1.2c0,1.1-0.3,2.1-0.9,3.1c-0.6,0.9-1.5,1.7-2.6,2.3C579.2,311.5,577.8,311.8,576.2,311.8z"/>
		<path class="st0" d="M576.2,312.2c-1.3,0-2.6-0.3-3.9-0.8c-1.3-0.5-2.2-1.4-3-2.7c-0.7-1.2-1.1-2.8-1.1-4.8v-11.4
			c0-2,0.3-3.6,1.1-4.8c0.7-1.3,1.7-2.1,3-2.7c1.4-0.6,2.6-0.8,3.9-0.8c1.6,0,3.1,0.3,4.3,0.8c1.3,0.7,2.2,1.5,2.8,2.3
			c0.6,1,1,2.1,1,3.3c0,0.7-0.1,1.2-0.4,1.5c-0.3,0.3-0.7,0.4-1.2,0.4c-0.3,0-0.9,0-1.2-0.4c-0.2-0.3-0.4-0.5-0.4-0.8
			c0-0.3-0.1-0.5-0.1-0.9l-0.1-0.5c-0.1-0.4-0.4-0.9-0.7-1.4c-0.3-0.4-0.8-0.8-1.3-1.1c-0.7-0.3-1.6-0.5-2.4-0.5
			c-1.6,0-2.8,0.4-3.6,1.3c-0.9,0.9-1.3,2.2-1.3,3.9v11.4c0,1.8,0.5,3.2,1.3,4c0.8,0.8,2.2,1.3,3.7,1.3c1,0,1.8-0.2,2.4-0.5
			c0.5-0.2,1-0.6,1.4-1l0.1-0.2c0.2-0.4,0.4-0.7,0.5-1.1c0.1-0.4,0.1-0.7,0.2-1l0.1-0.5c0-0.3,0.1-0.7,0.4-0.9
			c0.3-0.3,0.7-0.3,1-0.3c0.5,0,0.9,0.1,1.2,0.4c0.3,0.3,0.4,0.8,0.4,1.5c0,1.1-0.3,2.2-1,3.3c-0.6,1-1.6,1.8-2.7,2.4
			C579.4,311.8,577.9,312.2,576.2,312.2z M576.2,285c-1.2,0-2.4,0.2-3.7,0.8c-1.1,0.5-2,1.2-2.6,2.3c-0.6,1.1-0.9,2.5-0.9,4.4v11.4
			c0,1.9,0.3,3.3,0.9,4.4c0.7,1.1,1.5,1.9,2.6,2.3c1.3,0.5,2.4,0.8,3.7,0.8c1.6,0,2.9-0.3,4-0.9c1.1-0.6,1.9-1.3,2.5-2.2
			c0.6-0.9,0.8-1.9,0.8-2.9c0-0.7-0.1-0.9-0.2-0.9c-0.1-0.1-0.3-0.2-0.6-0.2c-0.2,0-0.4,0-0.5,0.1l-0.1,0.1c0,0-0.1,0.2-0.1,0.4
			l-0.1,0.6c-0.1,0.3-0.1,0.6-0.2,1c-0.1,0.6-0.3,1-0.6,1.4l-0.1,0.2c-0.5,0.6-1.1,1-1.7,1.2c-0.7,0.3-1.7,0.5-2.8,0.5
			c-1.8,0-3.3-0.5-4.3-1.5c-1-1-1.5-2.6-1.5-4.6v-11.4c0-2,0.5-3.5,1.5-4.5c1-1,2.4-1.5,4.2-1.5c1,0,1.9,0.2,2.7,0.5
			c0.7,0.3,1.2,0.8,1.6,1.3c0.3,0.6,0.7,1.1,0.8,1.7l0.1,0.5c0.1,0.4,0.1,0.7,0.1,1c0,0.1,0.1,0.2,0.2,0.3l0.1,0.1
			c0,0,0.2,0.1,0.6,0.1c0.3,0,0.5-0.1,0.6-0.2c0.1-0.1,0.2-0.3,0.2-0.9c0-1.1-0.3-2-0.8-2.9c-0.5-0.8-1.3-1.5-2.5-2.1
			C579,285.2,577.7,285,576.2,285z"/>
	</g>
	<g>
		<path class="st0" d="M596.9,311.8c-1.3,0-2.4-0.3-3.5-1c-1.1-0.6-1.9-1.5-2.6-2.6s-1-2.2-1-3.4v-4c0-1.2,0.3-2.4,1-3.4
			c0.6-1,1.5-1.9,2.5-2.5c1.1-0.6,2.2-1,3.5-1s2.4,0.3,3.5,0.9s1.9,1.5,2.6,2.5c0.6,1,1,2.2,1,3.5v4c0,1.2-0.3,2.3-1,3.4
			c-0.6,1.1-1.5,1.9-2.6,2.6S598.2,311.8,596.9,311.8z M596.9,309.6c0.9,0,1.6-0.2,2.3-0.7s1.2-1,1.7-1.8c0.4-0.7,0.6-1.5,0.6-2.3
			v-4c0-0.8-0.2-1.5-0.6-2.2c-0.4-0.7-1-1.3-1.7-1.7c-0.7-0.5-1.5-0.7-2.3-0.7s-1.6,0.2-2.3,0.7s-1.2,1-1.7,1.7
			c-0.4,0.7-0.6,1.5-0.6,2.2v4c0,0.8,0.2,1.6,0.6,2.3c0.4,0.7,1,1.3,1.7,1.8C595.3,309.4,596.1,309.6,596.9,309.6z"/>
		<path class="st0" d="M596.9,312.2c-1.4,0-2.6-0.3-3.7-1.1c-1-0.6-1.9-1.4-2.7-2.7c-0.7-1.1-1.1-2.3-1.1-3.6v-4
			c0-1.4,0.4-2.6,1.1-3.6c0.6-1,1.6-2,2.6-2.6c1.3-0.7,2.5-1.1,3.7-1.1c1.3,0,2.5,0.3,3.7,0.9c1,0.5,1.8,1.4,2.7,2.6
			c0.7,1.2,1.1,2.4,1.1,3.7v4c0,1.3-0.3,2.5-1.1,3.6c-0.6,1-1.4,1.9-2.7,2.7C599.3,311.9,598.3,312.2,596.9,312.2z M596.8,294.3
			c-1.1,0-2.1,0.3-3.3,1c-0.9,0.6-1.8,1.4-2.4,2.4c-0.6,0.9-0.9,2-0.9,3.2v4c0,1.2,0.3,2.2,0.9,3.2c0.8,1.2,1.5,2,2.5,2.5
			c1,0.7,2.1,1,3.3,1c1.2,0,2.1-0.3,3.2-0.9c1.2-0.8,2-1.5,2.5-2.5c0.7-1,1-2,1-3.2v-4c0-1.1-0.3-2.3-0.9-3.3
			c-0.8-1.1-1.6-1.9-2.5-2.4C599.1,294.5,598,294.3,596.8,294.3z M596.9,310c-1,0-1.8-0.3-2.5-0.8c-0.8-0.6-1.4-1.2-1.8-1.9
			c-0.4-0.7-0.6-1.6-0.6-2.5v-4c0-0.8,0.2-1.7,0.7-2.4c0.5-0.8,1.1-1.3,1.8-1.8c0.7-0.5,1.6-0.8,2.5-0.8c1,0,1.8,0.3,2.5,0.8
			c0.7,0.4,1.4,1.1,1.8,1.8c0.4,0.8,0.6,1.5,0.6,2.4v4c0,0.9-0.2,1.7-0.6,2.5c-0.5,0.8-1,1.4-1.8,1.9
			C598.7,309.7,597.9,310,596.9,310z M596.9,296.6c-0.8,0-1.5,0.2-2.1,0.6c-0.7,0.5-1.1,0.9-1.6,1.6c-0.3,0.6-0.5,1.3-0.5,2v4
			c0,0.8,0.2,1.5,0.6,2.1c0.3,0.6,0.9,1.2,1.6,1.7c0.6,0.4,1.3,0.6,2.1,0.6c0.8,0,1.5-0.2,2.1-0.6c0.7-0.5,1.2-1,1.6-1.7
			c0.4-0.6,0.5-1.3,0.5-2.1v-4c0-0.7-0.2-1.4-0.6-2c-0.4-0.6-0.9-1.2-1.6-1.6C598.4,296.8,597.7,296.6,596.9,296.6z"/>
	</g>
	<g>
		<path class="st0" d="M612,311.6c-0.3,0-0.6-0.1-0.8-0.3c-0.2-0.2-0.3-0.4-0.3-0.7V295c0-0.3,0.1-0.5,0.3-0.6
			c0.2-0.2,0.5-0.2,0.8-0.2s0.6,0.1,0.8,0.2s0.3,0.4,0.3,0.6v1.7c0.4-0.7,1-1.4,1.8-1.9c0.8-0.6,1.9-0.9,3.1-0.9
			c1.2,0,2.3,0.3,3.3,0.9s1.8,1.5,2.4,2.5c0.6,1,0.9,2.2,0.9,3.5v9.8c0,0.3-0.1,0.6-0.4,0.7c-0.2,0.2-0.5,0.2-0.8,0.2
			s-0.5-0.1-0.8-0.2c-0.3-0.2-0.4-0.4-0.4-0.7v-9.8c0-0.8-0.2-1.5-0.6-2.2c-0.4-0.7-1-1.3-1.7-1.7c-0.7-0.5-1.4-0.7-2.3-0.7
			c-0.7,0-1.4,0.2-2.1,0.6c-0.7,0.4-1.2,0.9-1.7,1.6c-0.4,0.7-0.6,1.5-0.6,2.5v9.8c0,0.2-0.1,0.5-0.3,0.7
			C612.6,311.5,612.3,311.6,612,311.6z"/>
		<path class="st0" d="M612,312c-0.4,0-0.8-0.1-1.1-0.4c-0.3-0.3-0.4-0.6-0.4-1V295c0-0.5,0.2-0.8,0.5-0.9c0.3-0.3,0.7-0.3,1-0.3
			c0.4,0,0.8,0.2,1,0.2c0.3,0.2,0.5,0.6,0.5,0.9v0.5c0.3-0.4,0.7-0.7,1.2-1c0.8-0.6,2-1,3.3-1c1.3,0,2.4,0.3,3.5,1
			c1,0.6,1.8,1.5,2.5,2.6c0.6,1,1,2.3,1,3.7v9.8c0,0.5-0.2,0.9-0.6,1c-0.3,0.3-0.7,0.3-1,0.3c-0.3,0-0.5-0.1-0.8-0.2l-0.3-0.1
			c-0.4-0.3-0.6-0.6-0.6-1v-9.8c0-0.7-0.2-1.4-0.6-2c-0.4-0.6-0.9-1.2-1.6-1.6c-0.7-0.5-1.3-0.7-2.1-0.7c-0.6,0-1.3,0.2-1.9,0.6
			c-0.6,0.3-1.1,0.8-1.6,1.5c-0.4,0.6-0.5,1.4-0.5,2.3v9.8c0,0.3-0.1,0.7-0.4,1l-0.1,0.1C612.7,311.9,612.4,312,612,312z M612,294.6
			c-0.2,0-0.4,0-0.5,0.1l-0.1,0.1c0,0-0.1,0-0.1,0.3v15.6c0,0.2,0,0.3,0.2,0.4c0.2,0.2,0.7,0.2,1.2,0c0.1-0.1,0.1-0.3,0.1-0.4v-9.8
			c0-1,0.2-1.9,0.6-2.7c0.6-0.8,1.1-1.3,1.8-1.7c0.8-0.4,1.5-0.6,2.3-0.6c1,0,1.8,0.2,2.5,0.8c0.7,0.4,1.4,1.1,1.8,1.8
			c0.4,0.8,0.7,1.5,0.7,2.4v9.8c0,0.1,0,0.2,0.2,0.4l0.1,0c0.2,0.1,0.3,0.1,0.5,0.1c0.2,0,0.4,0,0.5-0.1l0.1-0.1
			c0.1,0,0.1-0.2,0.1-0.3v-9.8c0-1.2-0.3-2.4-0.8-3.3c-0.6-1-1.4-1.8-2.3-2.4c-0.9-0.6-2-0.8-3.1-0.8c-1.1,0-2.2,0.3-2.9,0.8
			c-0.9,0.5-1.4,1.3-1.7,1.8l-0.7,1.2V295c0-0.1-0.1-0.2-0.1-0.3C612.6,294.7,612.3,294.6,612,294.6z"/>
	</g>
	<g>
		<path class="st0" d="M637.7,311.6c-1.9,0-3.3-0.4-4.3-1.3s-1.5-2.2-1.5-4.1v-19.4c0-0.3,0.1-0.5,0.4-0.6c0.3-0.2,0.5-0.2,0.8-0.2
			s0.6,0.1,0.8,0.2s0.4,0.4,0.4,0.6v7.4h4.8c0.2,0,0.4,0.1,0.6,0.3c0.1,0.2,0.2,0.4,0.2,0.7s-0.1,0.5-0.2,0.7
			c-0.1,0.2-0.3,0.3-0.6,0.3h-4.8v10c0,1.2,0.3,2,0.8,2.5s1.4,0.7,2.7,0.7h1c0.3,0,0.6,0.1,0.8,0.3c0.2,0.2,0.3,0.5,0.3,0.8
			s-0.1,0.6-0.3,0.8c-0.2,0.2-0.4,0.3-0.8,0.3L637.7,311.6L637.7,311.6z"/>
		<path class="st0" d="M638.8,312h-1.1c-2,0-3.5-0.4-4.6-1.4c-1.1-1-1.6-2.4-1.6-4.4v-19.4c0-0.5,0.2-0.8,0.6-0.9
			c0.4-0.2,0.7-0.2,1-0.2c0.4,0,0.8,0.2,1,0.2c0.3,0.2,0.6,0.6,0.6,0.9v7h4.4c0.3,0,0.6,0.1,0.9,0.4l0.1,0.1
			c0.1,0.2,0.2,0.5,0.2,0.9s-0.1,0.7-0.2,0.9c-0.1,0.2-0.4,0.5-0.9,0.5h-4.4v9.6c0,1,0.2,1.8,0.7,2.2c0.4,0.4,1.2,0.6,2.4,0.6h1
			c0.4,0,0.8,0.1,1.1,0.4c0.3,0.3,0.4,0.6,0.4,1.1s-0.1,0.8-0.4,1.1C639.6,311.9,639.3,312,638.8,312z M633.1,286.4
			c-0.3,0-0.4,0-0.6,0.1l-0.1,0c-0.1,0-0.1,0-0.1,0.2v19.4c0,1.8,0.4,3,1.4,3.8c0.9,0.8,2.2,1.2,4,1.2h1.1c0.3,0,0.4-0.1,0.5-0.2
			c0.1-0.1,0.2-0.3,0.2-0.5s-0.1-0.4-0.2-0.5c-0.1-0.1-0.3-0.2-0.5-0.2h-1c-1.5,0-2.4-0.3-3-0.8c-0.6-0.6-0.9-1.5-0.9-2.8v-10.4h5.2
			c0.2,0,0.3-0.1,0.3-0.1c0.1-0.2,0.2-0.3,0.2-0.5c0-0.2-0.1-0.3-0.1-0.5c-0.1-0.1-0.2-0.2-0.3-0.2h-5.2v-7.8c0-0.1-0.1-0.2-0.2-0.3
			C633.7,286.5,633.4,286.4,633.1,286.4z"/>
	</g>
	<g>
		<path class="st0" d="M647,311.6c-0.3,0-0.6-0.1-0.8-0.3c-0.2-0.2-0.3-0.4-0.3-0.7V295c0-0.3,0.1-0.5,0.3-0.6
			c0.2-0.2,0.5-0.2,0.8-0.2s0.6,0.1,0.8,0.2s0.3,0.4,0.3,0.6v1.8c0.3-0.5,0.6-1,1.1-1.4s1-0.8,1.7-1.1c0.6-0.3,1.4-0.4,2.2-0.4h1.3
			c0.3,0,0.5,0.1,0.7,0.3c0.2,0.2,0.3,0.5,0.3,0.8s-0.1,0.6-0.3,0.8s-0.4,0.3-0.7,0.3H653c-0.8,0-1.6,0.2-2.3,0.6s-1.4,1-1.8,1.8
			s-0.7,1.8-0.7,2.9v9.1c0,0.2-0.1,0.5-0.3,0.7C647.6,311.5,647.3,311.6,647,311.6z"/>
		<path class="st0" d="M647,312c-0.4,0-0.8-0.1-1.1-0.4c-0.3-0.3-0.4-0.6-0.4-1V295c0-0.5,0.2-0.8,0.5-0.9c0.3-0.3,0.7-0.3,1-0.3
			c0.4,0,0.8,0.2,1,0.2c0.3,0.2,0.5,0.6,0.5,0.9v0.6c0.1-0.2,0.3-0.3,0.5-0.5c0.5-0.4,1-0.8,1.8-1.2c0.6-0.3,1.4-0.4,2.3-0.4h1.3
			c0.4,0,0.7,0.1,1,0.4c0.3,0.3,0.4,0.6,0.4,1.1s-0.1,0.8-0.4,1.1c-0.3,0.3-0.6,0.4-1,0.4H653c-0.8,0-1.5,0.2-2.1,0.6
			c-0.5,0.3-1.2,0.8-1.7,1.6c-0.3,0.6-0.7,1.6-0.7,2.7v9.1c0,0.3-0.1,0.7-0.4,1C647.8,311.8,647.4,312,647,312z M647,294.6
			c-0.2,0-0.4,0-0.5,0.1l-0.1,0.1c0,0-0.1,0-0.1,0.3v15.6c0,0.2,0,0.3,0.2,0.4c0.1,0.1,0.3,0.2,0.5,0.2c0.2,0,0.4-0.1,0.6-0.3
			c0.1-0.1,0.2-0.3,0.2-0.4v-9.1c0-1.3,0.4-2.4,0.7-3.1c0.5-1,1.3-1.6,1.9-2c0.7-0.4,1.6-0.6,2.5-0.6h1.4c0.2,0,0.3,0,0.4-0.2
			c0.1-0.1,0.2-0.3,0.2-0.5s-0.1-0.4-0.2-0.5c-0.1-0.1-0.3-0.2-0.4-0.2h-1.3c-0.9,0-1.6,0.1-2,0.4c-0.7,0.3-1.1,0.7-1.6,1.1
			c-0.4,0.4-0.7,0.8-1,1.3l-0.7,1.2l0-3.1c0-0.1-0.1-0.2-0.1-0.3C647.6,294.7,647.3,294.6,647,294.6z"/>
	</g>
	<g>
		<path class="st0" d="M662.1,289c-0.4,0-0.8-0.2-1.1-0.5s-0.5-0.7-0.5-1.1s0.2-0.8,0.5-1.1c0.3-0.3,0.7-0.4,1.1-0.4
			s0.8,0.1,1.1,0.4s0.5,0.7,0.5,1.1s-0.2,0.8-0.5,1.1C662.9,288.9,662.6,289,662.1,289z M662.1,311.6c-0.3,0-0.6-0.1-0.8-0.3
			c-0.2-0.2-0.3-0.4-0.3-0.7V295c0-0.3,0.1-0.5,0.3-0.6c0.2-0.2,0.5-0.2,0.8-0.2s0.6,0.1,0.9,0.2c0.2,0.2,0.3,0.4,0.3,0.6v15.6
			c0,0.2-0.1,0.5-0.3,0.7C662.7,311.5,662.4,311.6,662.1,311.6z"/>
		<path class="st0" d="M662.1,312c-0.4,0-0.8-0.1-1.1-0.4c-0.3-0.3-0.4-0.6-0.4-1V295c0-0.5,0.2-0.8,0.5-0.9c0.3-0.3,0.7-0.3,1-0.3
			c0.4,0,0.7,0.1,1,0.2l0.1,0.1c0.3,0.3,0.4,0.6,0.4,0.9v15.6c0,0.3-0.1,0.7-0.4,1C662.8,311.9,662.5,312,662.1,312z M662.1,294.6
			c-0.2,0-0.4,0-0.5,0.1l-0.1,0.1c0,0-0.1,0-0.1,0.3v15.6c0,0.2,0,0.3,0.2,0.4c0.2,0.2,0.8,0.3,1.2,0c0.1-0.1,0.1-0.3,0.1-0.4V295
			c0-0.1-0.1-0.2-0.1-0.3C662.6,294.6,662.3,294.6,662.1,294.6z M662.1,289.4c-0.5,0-1-0.2-1.4-0.6c-0.4-0.4-0.6-0.9-0.6-1.4
			c0-0.5,0.2-1,0.6-1.4c0.3-0.3,0.8-0.5,1.4-0.5c0.6,0,1,0.2,1.4,0.5c0.4,0.4,0.6,0.9,0.6,1.4c0,0.5-0.2,1-0.6,1.4
			C663.1,289.3,662.6,289.4,662.1,289.4z M662.1,286.3c-0.4,0-0.6,0.1-0.8,0.3c-0.2,0.2-0.4,0.6-0.4,0.8s0.1,0.6,0.4,0.8
			c0.2,0.2,0.6,0.4,0.8,0.4c0.4,0,0.6-0.1,0.8-0.3c0.3-0.3,0.4-0.6,0.4-0.9s-0.1-0.6-0.4-0.8C662.7,286.4,662.5,286.3,662.1,286.3z"
			/>
	</g>
	<g>
		<path class="st0" d="M678.2,311.8c-1.2,0-2.2-0.3-3.1-0.8c-0.9-0.6-1.6-1.2-1.9-2v1.6c0,0.2-0.1,0.5-0.3,0.7s-0.5,0.3-0.8,0.3
			s-0.6-0.1-0.8-0.3s-0.3-0.4-0.3-0.7v-26.2c0-0.3,0.1-0.5,0.3-0.6s0.5-0.2,0.8-0.2s0.6,0.1,0.9,0.2c0.2,0.2,0.3,0.4,0.3,0.6v12.4
			c0.4-0.7,1-1.4,1.9-1.9s1.8-0.9,3-0.9s2.3,0.3,3.3,0.9s1.8,1.5,2.4,2.5c0.6,1,0.9,2.2,0.9,3.5v4c0,1.2-0.3,2.3-0.9,3.4
			c-0.6,1.1-1.4,1.9-2.4,2.6S679.4,311.8,678.2,311.8z M677.8,309.6c0.8,0,1.6-0.2,2.3-0.7s1.2-1,1.7-1.8c0.4-0.7,0.6-1.5,0.6-2.3
			v-4c0-0.8-0.2-1.5-0.6-2.2c-0.4-0.7-1-1.3-1.7-1.7c-0.7-0.5-1.5-0.7-2.3-0.7c-0.7,0-1.4,0.2-2.1,0.6c-0.7,0.4-1.3,0.9-1.7,1.6
			s-0.7,1.5-0.7,2.5v5.1c0,0.4,0.2,0.8,0.6,1.4c0.4,0.6,1,1.1,1.6,1.5C676.2,309.4,676.9,309.6,677.8,309.6z"/>
		<path class="st0" d="M678.2,312.2c-1.2,0-2.3-0.3-3.3-0.8c-0.5-0.3-1-0.7-1.3-1.1v0.3c0,0.3-0.1,0.7-0.4,1c-0.5,0.5-1.6,0.5-2.1,0
			c-0.3-0.3-0.4-0.6-0.4-1v-26.2c0-0.6,0.3-0.8,0.5-0.9c0.1-0.1,0.5-0.2,1-0.2c0.4,0,0.7,0.1,1,0.2l0.2,0.1c0.3,0.3,0.4,0.6,0.4,0.9
			v11.2c0.4-0.4,0.8-0.8,1.3-1.1c1-0.6,2-0.9,3.2-0.9c1.3,0,2.4,0.3,3.5,1c1,0.6,1.8,1.5,2.5,2.6c0.6,1,1,2.3,1,3.7v4
			c0,1.2-0.3,2.4-0.9,3.6c-0.6,1.1-1.4,1.9-2.5,2.7C680.8,311.9,679.7,312.2,678.2,312.2z M672.8,306.9l0.7,1.9
			c0.2,0.6,0.7,1.1,1.8,1.8c0.9,0.5,1.8,0.7,2.9,0.7c1.3,0,2.3-0.3,3.1-0.8c1-0.7,1.8-1.5,2.3-2.5c0.6-1.1,0.9-2.1,0.9-3.2v-4
			c0-1.2-0.3-2.4-0.8-3.3c-0.6-1-1.4-1.9-2.3-2.4c-0.9-0.6-2-0.8-3.1-0.8c-1.1,0-1.9,0.3-2.8,0.9c-0.7,0.4-1.3,1-1.8,1.8l-0.7,1.2
			v-13.8c0-0.1-0.1-0.2-0.1-0.3c-0.3-0.1-0.5-0.2-0.7-0.2c-0.3,0-0.6,0.1-0.6,0.2c0,0-0.1,0-0.1,0.3v26.2c0,0.2,0,0.3,0.2,0.4
			c0.2,0.2,0.8,0.2,1.1,0c0.1-0.1,0.2-0.3,0.2-0.4V306.9z M677.8,310c-1,0-1.8-0.2-2.5-0.8c-0.7-0.5-1.3-1-1.7-1.6
			c-0.4-0.6-0.7-1.1-0.7-1.6v-5.1c0-0.9,0.2-1.8,0.8-2.7c0.4-0.7,1-1.3,1.8-1.7c1.7-1,3.5-0.8,4.8,0.1c0.7,0.4,1.4,1.1,1.8,1.8
			c0.4,0.8,0.7,1.5,0.7,2.4v4c0,0.9-0.2,1.7-0.7,2.5c-0.5,0.8-1,1.4-1.8,1.9C679.6,309.7,678.8,310,677.8,310z M677.8,296.6
			c-0.6,0-1.3,0.2-1.9,0.6c-0.7,0.4-1.2,0.9-1.6,1.5c-0.4,0.8-0.7,1.5-0.7,2.3v5.1c0,0.3,0.1,0.6,0.5,1.2c0.3,0.5,0.8,0.9,1.5,1.4
			c0.6,0.4,1.3,0.6,2.1,0.6c0.8,0,1.5-0.2,2.1-0.6c0.7-0.5,1.2-1,1.6-1.7c0.4-0.6,0.5-1.3,0.5-2.1v-4c0-0.7-0.2-1.4-0.6-2
			c-0.4-0.6-0.9-1.2-1.6-1.6C679.3,296.8,678.6,296.6,677.8,296.6z"/>
	</g>
	<g>
		<path class="st0" d="M698.5,311.8c-1.3,0-2.5-0.3-3.5-1c-1.1-0.6-1.9-1.5-2.5-2.6s-1-2.2-1-3.4V295c0-0.2,0.1-0.4,0.4-0.6
			c0.2-0.2,0.5-0.3,0.8-0.3s0.6,0.1,0.8,0.3c0.2,0.2,0.3,0.4,0.3,0.6v9.8c0,0.8,0.2,1.6,0.6,2.3c0.4,0.7,1,1.3,1.7,1.7
			c0.7,0.5,1.5,0.7,2.3,0.7c0.9,0,1.7-0.2,2.4-0.7s1.2-1,1.6-1.7c0.4-0.7,0.6-1.5,0.6-2.3v-9.9c0-0.2,0.1-0.5,0.4-0.6
			s0.5-0.3,0.8-0.3c0.4,0,0.7,0.1,0.9,0.3c0.2,0.2,0.3,0.4,0.3,0.6v9.9c0,1.3-0.3,2.4-0.9,3.4c-0.6,1-1.5,1.9-2.5,2.5
			C700.9,311.5,699.7,311.8,698.5,311.8z"/>
		<path class="st0" d="M698.5,312.2c-1.5,0-2.7-0.4-3.7-1.1c-1.1-0.6-1.9-1.5-2.6-2.7c-0.7-1.3-1-2.4-1-3.6V295
			c0-0.4,0.2-0.7,0.6-0.9c0.4-0.4,1.5-0.5,2.1,0c0.3,0.3,0.4,0.6,0.4,0.9v9.8c0,0.8,0.2,1.5,0.6,2.1c0.4,0.6,0.9,1.2,1.6,1.6
			c0.6,0.4,1.3,0.7,2.1,0.7c0.9,0,1.6-0.2,2.2-0.6c0.7-0.5,1.1-1,1.5-1.6c0.4-0.6,0.5-1.4,0.5-2.1v-9.9c0-0.4,0.2-0.8,0.7-1
			c0.1,0,0.2-0.1,0.3-0.1c0.2-0.1,0.4-0.2,0.7-0.2c0.5,0,0.9,0.1,1.2,0.4c0.3,0.3,0.4,0.6,0.4,0.9v9.9c0,1.3-0.3,2.5-1,3.6
			c-0.6,1.1-1.6,2-2.6,2.6C701.2,311.8,699.9,312.2,698.5,312.2z M692.7,294.5c-0.2,0-0.4,0.1-0.5,0.2c-0.3,0.2-0.3,0.3-0.3,0.3v9.8
			c0,1,0.3,2,1,3.2c0.6,1.1,1.4,1.9,2.4,2.5c0.9,0.6,2,1,3.3,1c1.2,0,2.3-0.3,3.3-1c1-0.6,1.8-1.4,2.4-2.4c0.6-1,0.8-2,0.8-3.2v-9.9
			c0-0.1-0.1-0.2-0.2-0.3c-0.1-0.1-0.3-0.2-0.6-0.2c-0.1,0-0.2,0-0.3,0.1c-0.1,0.1-0.2,0.1-0.4,0.2c-0.1,0-0.1,0.2-0.1,0.2v9.9
			c0,0.9-0.2,1.7-0.6,2.5c-0.4,0.7-0.9,1.3-1.7,1.8c-0.7,0.5-1.6,0.8-2.6,0.8c-1,0-1.8-0.3-2.5-0.8c-0.7-0.4-1.4-1.1-1.8-1.8
			c-0.4-0.7-0.6-1.6-0.6-2.5V295c0-0.1-0.1-0.2-0.2-0.3C693.1,294.5,692.9,294.5,692.7,294.5z"/>
	</g>
	<g>
		<path class="st0" d="M718.6,311.6c-1.9,0-3.3-0.4-4.3-1.3s-1.5-2.2-1.5-4.1v-19.4c0-0.3,0.1-0.5,0.4-0.6c0.3-0.2,0.5-0.2,0.8-0.2
			s0.6,0.1,0.8,0.2s0.4,0.4,0.4,0.6v7.4h4.8c0.2,0,0.4,0.1,0.6,0.3c0.1,0.2,0.2,0.4,0.2,0.7s-0.1,0.5-0.2,0.7
			c-0.1,0.2-0.3,0.3-0.6,0.3h-4.8v10c0,1.2,0.3,2,0.8,2.5s1.4,0.7,2.7,0.7h1c0.3,0,0.6,0.1,0.8,0.3c0.2,0.2,0.3,0.5,0.3,0.8
			s-0.1,0.6-0.3,0.8c-0.2,0.2-0.4,0.3-0.8,0.3L718.6,311.6L718.6,311.6z"/>
		<path class="st0" d="M719.7,312h-1.1c-2,0-3.5-0.4-4.6-1.4c-1.1-1-1.6-2.4-1.6-4.4v-19.4c0-0.5,0.2-0.8,0.6-0.9
			c0.4-0.2,0.7-0.2,1-0.2c0.4,0,0.8,0.2,1,0.2c0.3,0.2,0.6,0.6,0.6,0.9v7h4.4c0.3,0,0.6,0.1,0.9,0.4l0.1,0.1
			c0.1,0.2,0.2,0.5,0.2,0.9s-0.1,0.7-0.2,0.9c-0.1,0.2-0.4,0.5-0.9,0.5h-4.4v9.6c0,1,0.2,1.8,0.7,2.2c0.4,0.4,1.2,0.6,2.4,0.6h1
			c0.4,0,0.8,0.1,1.1,0.4c0.3,0.3,0.4,0.6,0.4,1.1s-0.1,0.8-0.4,1.1C720.5,311.9,720.2,312,719.7,312z M714,286.4
			c-0.3,0-0.4,0-0.6,0.1l-0.1,0c-0.1,0-0.1,0-0.1,0.2v19.4c0,1.8,0.4,3,1.4,3.8c0.9,0.8,2.2,1.2,4,1.2h1.1c0.3,0,0.4-0.1,0.5-0.2
			c0.1-0.1,0.2-0.3,0.2-0.5s-0.1-0.4-0.2-0.5c-0.1-0.1-0.3-0.2-0.5-0.2h-1c-1.5,0-2.4-0.3-3-0.8c-0.6-0.6-0.9-1.5-0.9-2.8v-10.4h5.2
			c0.2,0,0.3-0.1,0.3-0.1c0.1-0.2,0.2-0.3,0.2-0.5c0-0.2-0.1-0.3-0.1-0.5c-0.1-0.1-0.2-0.2-0.3-0.2h-5.2v-7.8c0-0.1-0.1-0.2-0.2-0.3
			S714.3,286.4,714,286.4z"/>
	</g>
	<g>
		<path class="st0" d="M732.7,311.8c-1.3,0-2.4-0.3-3.5-1c-1.1-0.6-1.9-1.5-2.6-2.6s-1-2.2-1-3.4v-4c0-1.2,0.3-2.4,1-3.4
			c0.6-1,1.5-1.9,2.5-2.5c1.1-0.6,2.2-1,3.5-1s2.4,0.3,3.5,0.9s1.9,1.5,2.6,2.5c0.6,1,1,2.2,1,3.5v4c0,1.2-0.3,2.3-1,3.4
			c-0.6,1.1-1.5,1.9-2.6,2.6S733.9,311.8,732.7,311.8z M732.7,309.6c0.9,0,1.6-0.2,2.3-0.7s1.2-1,1.7-1.8c0.4-0.7,0.6-1.5,0.6-2.3
			v-4c0-0.8-0.2-1.5-0.6-2.2c-0.4-0.7-1-1.3-1.7-1.7c-0.7-0.5-1.5-0.7-2.3-0.7s-1.6,0.2-2.3,0.7s-1.2,1-1.7,1.7
			c-0.4,0.7-0.6,1.5-0.6,2.2v4c0,0.8,0.2,1.6,0.6,2.3c0.4,0.7,1,1.3,1.7,1.8C731.1,309.4,731.8,309.6,732.7,309.6z"/>
		<path class="st0" d="M732.7,312.2c-1.4,0-2.6-0.3-3.7-1.1c-1-0.6-1.9-1.4-2.7-2.7c-0.7-1.1-1.1-2.3-1.1-3.6v-4
			c0-1.4,0.4-2.6,1.1-3.6c0.6-1,1.6-2,2.6-2.6c1.3-0.7,2.5-1.1,3.7-1.1c1.3,0,2.5,0.3,3.7,0.9c1,0.5,1.8,1.4,2.7,2.6
			c0.7,1.2,1.1,2.4,1.1,3.7v4c0,1.3-0.3,2.5-1.1,3.6c-0.6,1-1.4,1.9-2.7,2.7C735.2,311.8,734,312.2,732.7,312.2z M732.6,294.3
			c-1.1,0-2.1,0.3-3.3,1c-0.9,0.6-1.8,1.4-2.4,2.4c-0.6,0.9-0.9,2-0.9,3.2v4c0,1.2,0.3,2.2,0.9,3.2c0.8,1.2,1.5,2,2.5,2.5
			c1,0.7,2.1,1,3.3,1c1.2,0,2.2-0.3,3.2-0.9c1.2-0.8,2-1.5,2.5-2.5c0.7-1,1-2,1-3.2v-4c0-1.1-0.3-2.3-0.9-3.3
			c-0.8-1.1-1.6-1.9-2.5-2.4C734.9,294.5,733.8,294.3,732.6,294.3z M732.7,310c-1,0-1.8-0.2-2.5-0.8c-0.8-0.6-1.4-1.2-1.8-1.9
			c-0.4-0.7-0.6-1.6-0.6-2.5v-4c0-0.8,0.2-1.7,0.7-2.4c0.5-0.8,1.1-1.3,1.8-1.8c0.7-0.5,1.6-0.8,2.5-0.8c1,0,1.8,0.3,2.5,0.8
			c0.7,0.4,1.4,1.1,1.8,1.8c0.4,0.8,0.6,1.5,0.6,2.4v4c0,0.9-0.2,1.7-0.6,2.5c-0.5,0.8-1,1.4-1.8,1.9
			C734.5,309.7,733.7,310,732.7,310z M732.7,296.6c-0.8,0-1.5,0.2-2.1,0.6c-0.7,0.5-1.1,0.9-1.6,1.6c-0.3,0.6-0.5,1.3-0.5,2v4
			c0,0.8,0.2,1.5,0.6,2.1c0.3,0.6,0.9,1.2,1.6,1.7c0.6,0.4,1.2,0.6,2.1,0.6c0.8,0,1.5-0.2,2.1-0.6c0.7-0.5,1.2-1,1.6-1.7
			c0.4-0.6,0.5-1.3,0.5-2.1v-4c0-0.7-0.2-1.4-0.6-2c-0.4-0.6-0.9-1.2-1.6-1.6C734.2,296.8,733.5,296.6,732.7,296.6z"/>
	</g>
	<g>
		<path class="st0" d="M747.7,311.6c-0.3,0-0.6-0.1-0.8-0.3c-0.2-0.2-0.3-0.4-0.3-0.7V295c0-0.3,0.1-0.5,0.3-0.6
			c0.2-0.2,0.5-0.2,0.8-0.2s0.6,0.1,0.8,0.2s0.3,0.4,0.3,0.6v1.8c0.3-0.5,0.6-1,1.1-1.4s1-0.8,1.7-1.1c0.6-0.3,1.4-0.4,2.2-0.4h1.3
			c0.3,0,0.5,0.1,0.7,0.3c0.2,0.2,0.3,0.5,0.3,0.8s-0.1,0.6-0.3,0.8c-0.2,0.2-0.4,0.3-0.7,0.3h-1.3c-0.8,0-1.6,0.2-2.3,0.6
			s-1.4,1-1.8,1.8s-0.7,1.8-0.7,2.9v9.1c0,0.2-0.1,0.5-0.3,0.7C748.4,311.5,748.1,311.6,747.7,311.6z"/>
		<path class="st0" d="M747.7,312c-0.4,0-0.8-0.1-1.1-0.4c-0.3-0.3-0.4-0.6-0.4-1V295c0-0.5,0.2-0.8,0.5-0.9c0.3-0.3,0.7-0.3,1-0.3
			c0.4,0,0.8,0.2,1,0.2c0.3,0.2,0.5,0.6,0.5,0.9v0.6c0.1-0.2,0.3-0.3,0.5-0.5c0.5-0.4,1-0.8,1.8-1.2c0.6-0.3,1.4-0.4,2.3-0.4h1.3
			c0.4,0,0.7,0.1,1,0.4c0.3,0.3,0.4,0.6,0.4,1.1s-0.1,0.8-0.4,1.1c-0.3,0.3-0.6,0.4-1,0.4h-1.3c-0.8,0-1.5,0.2-2.1,0.6
			c-0.5,0.3-1.2,0.8-1.7,1.6c-0.3,0.6-0.7,1.6-0.7,2.7v9.1c0,0.3-0.1,0.7-0.4,1C748.6,311.8,748.2,312,747.7,312z M747.7,294.6
			c-0.2,0-0.4,0-0.5,0.1l-0.1,0.1c0,0-0.1,0-0.1,0.3v15.6c0,0.2,0,0.3,0.2,0.4c0.1,0.1,0.3,0.2,0.5,0.2c0.3,0,0.5-0.1,0.7-0.3
			c0.1-0.1,0.2-0.3,0.2-0.4v-9.1c0-1.3,0.4-2.4,0.7-3.1c0.5-1,1.3-1.6,1.9-2c0.7-0.4,1.6-0.6,2.5-0.6h1.3c0.2,0,0.3,0,0.4-0.2
			c0.1-0.1,0.2-0.3,0.2-0.5s-0.1-0.4-0.2-0.5c-0.1-0.1-0.3-0.2-0.4-0.2h-1.3c-0.9,0-1.6,0.1-2,0.4c-0.7,0.3-1.1,0.7-1.6,1.1
			c-0.4,0.4-0.7,0.8-1,1.3l-0.7,1.2V295c0-0.1-0.1-0.2-0.1-0.3C748.3,294.7,748,294.6,747.7,294.6z"/>
	</g>
</g>
<g>
	<g>
		<g>
			<path class="st0" d="M449.4,134.7c-2,1.6-4.7,2.9-8.3,3.9c-3.6,1-6.8,1.6-9.6,1.6c-11,0-19.6-2.8-25.9-8.3s-9.4-13.4-9.4-23.6
				V66.4h-11.9V48.2h11.8v-21l23.6-4.2v25.2h16.1l0.2,18.1l-16.3,0.1V104c0,4.6,1.1,8.4,3.3,11.4c2.2,3,5.4,4.5,9.7,4.5
				c1.6,0,3.2-0.2,4.8-0.5c1.6-0.4,3.2-1,4.9-1.8L449.4,134.7z"/>
		</g>
		<g>
			<path class="st0" d="M538.9,62c3.8-4.3,8.8-7.6,15.1-10.1s11.9-3.7,16.9-3.7c12.1,0,20.7,3.5,25.7,10.6
				c5.1,7.1,7.6,15.7,7.6,25.9v55.5h-24V85.8c0-5.6-1.3-9.9-4-12.9s-6.6-4.5-11.7-4.5c-3.4,0-7,0.9-10.8,2.7
				c-3.8,1.8-7.2,3.9-10.3,6.2c0.1,1.2,0.2,2.4,0.4,3.7c0.1,1.2,0.2,2.4,0.2,3.7v55.5h-24V85.8c0-5.6-1.3-9.9-4-12.9
				s-6.5-4.5-11.5-4.5c-3.1,0-6.1,0.6-9.2,1.9s-6.1,2.9-8.9,4.8v65h-23.8V51.6l23.4-3v7c3-2,5-3,9.4-4.5c5.7-1.9,10.8-3,15.3-3
				c7,0,12.8,1.2,17.4,3.7C532.7,54.4,536.3,57.8,538.9,62z"/>
		</g>
		<g>
			<path class="st0" d="M637.9,12.4c3.8,0,7,1.3,9.6,3.8c2.6,2.6,3.9,5.7,3.9,9.5s-1.3,6.9-3.9,9.5c-2.6,2.6-5.8,3.8-9.6,3.8
				c-3.7,0-6.8-1.3-9.3-3.8c-2.6-2.6-3.8-5.7-3.8-9.5s1.3-6.9,3.8-9.5C631.1,13.7,634.3,12.4,637.9,12.4z M650,48.6l-0.2,91.5H626
				l-0.1-91.5C625.9,48.6,650,48.6,650,48.6z"/>
		</g>
		<g>
			<path class="st0" d="M662.6,140.2l34.3-45.5l-33-46h25.9l21.1,30l22-30h26.7l-34.7,46l31.8,45.5h-26.2l-20.6-28.5l-21,28.5H662.6
				z"/>
		</g>
		<g>
			<path class="st0" d="M199.4,94.3c0-26.7,19.6-45.7,46.9-45.7c18.1,0,29.1,7.8,35,15.7l-15.2,14.1c-4.2-6.1-10.6-9.4-18.7-9.4
				c-14.1,0-24,10.1-24,25.3s9.9,25.5,24,25.5c8.1,0,14.5-3.6,18.7-9.4l15.2,13.9c-5.9,8.1-16.8,15.9-35,15.9
				C219,140.2,199.4,121.2,199.4,94.3z"/>
		</g>
		<g>
			<path class="st0" d="M290.8,94.3c0-25.3,18.9-45.7,45.8-45.7c26.4,0,44.3,19.5,44.3,48v5.1h-65.8c1.5,11,10.4,20.2,25.4,20.2
				c7.5,0,17.9-3.2,23.6-8.7l10.3,14.8c-8.8,7.9-22.7,12.1-36.4,12.1C311.1,140.2,290.8,122.3,290.8,94.3z M336.5,66.9
				c-14.5,0-20.7,10.7-21.8,19.3h43.6C357.8,77.9,351.9,66.9,336.5,66.9z"/>
		</g>
	</g>
	<g>
		<g>
			<path class="st0" d="M92.8,104.3c0.6,0.3,0.7,1,0.2,1.5c-3.1,2.8-6.6,5.2-10.3,7.1c-6.6,3.2-13.8,4.8-21,4.7
				c-7.2-0.3-14.3-2.2-20.4-5.7s-11.3-8.5-15-14.4s-5.8-12.6-6.4-19.4c-0.4-6.8,0.8-13.7,3.5-19.8c1.4-3,3.1-5.9,5.2-8.5
				s4.5-4.9,7.1-7c5.2-4,11.4-6.7,17.8-7.8c-6.3,1.5-12.2,4.6-16.9,8.9c-2.4,2.1-4.5,4.5-6.2,7.1c-1.8,2.6-3.1,5.5-4.3,8.4
				c-2.1,5.9-2.7,12.2-1.9,18.3c0.9,6.1,3.3,11.8,6.8,16.7c3.6,4.8,8.3,8.7,13.7,11.3c5.3,2.5,11.2,3.6,17,3.4
				c5.8-0.3,11.4-2,16.3-4.9c1.9-1.2,3.7-2.5,5.4-4c0.3-0.2,0.7-0.3,1-0.1L92.8,104.3z"/>
		</g>
		<g>
			<path class="st0" d="M110.9,120.6c0.4,0.4,0.3,1.1-0.1,1.5c-0.2,0.2-0.4,0.4-0.6,0.6c-2.6,2.3-5.4,4.5-8.3,6.4s-6,3.6-9.2,5
				s-6.5,2.6-9.8,3.5c-13.4,3.7-27.8,2.9-40.6-1.9s-23.9-13.6-31.4-24.8C3.3,99.6-0.3,86.2,0.1,73c0.5-13.2,5.2-26.1,13.2-36.3
				c8.1-10.2,19.2-17.8,31.5-21.3c12.3-3.6,25.6-3.2,37.5,1c5.9,2.1,11.5,5.1,16.4,8.9c5,3.7,9.3,8.3,12.8,13.3
				c-3.8-4.8-8.3-9.1-13.4-12.5s-10.6-6-16.5-7.7c-11.6-3.4-24.2-2.9-35.5,1s-21,11.5-27.6,21.1c-6.7,9.6-10.2,21.2-9.9,32.6
				c0.2,11.4,4.1,22.6,10.9,31.6c6.7,8.9,16.3,15.6,26.8,18.9s22,3.1,32.2-0.3c8.2-2.7,15.5-7.5,21.3-13.6c0.4-0.4,1.1-0.5,1.5-0.1
				c0.6,0.6,1.3,1.3,1.8,2C103.2,111.5,108.9,118.3,110.9,120.6z"/>
		</g>
		<g>
			<path class="st0" d="M150.6,53.6l-35.8,43.7l2,4.1l4.1,8.6c0.7,1.5,0.4,3.3-0.8,4.5l-2.9,2.7c-0.2,0.2-0.4,0.2-0.7,0.2
				c-0.1,0-0.2-0.1-0.3-0.2c0,0-0.1,0-0.1-0.1l-7.9-9.4c-0.8-0.9-1.6-1.8-2.5-2.6c-0.7-0.6-1.3-1.2-2.1-1.8c-1.4-1.1-3-2.2-4.6-3
				c-0.2-0.2-0.5-0.3-0.8-0.4l-9.1-4.8l-1.7-0.9c-0.4-0.2-0.5-0.6-0.3-1l2-3.4c0.9-1.5,2.6-2.2,4.2-1.8l13.8,3.1l14-18.1L92.3,60.4
				c-0.4-0.2-0.5-0.7-0.3-1l4.5-5.6c1.8-2.3,4.8-3.4,7.7-3l30.3,5.1l7.5-9.6c1.7-2.2,3.9-3.9,6.4-5l3.5-1.5c0.5-0.2,1-0.2,1.4-0.1
				c0.3,0.1,0.5,0.2,0.7,0.3l0,0c0.5,0.4,0.9,1.2,0.7,2l-0.6,3.7C153.7,48.6,152.5,51.3,150.6,53.6z"/>
		</g>
		<g>
			<g>
				<path class="st0" d="M156,98.2l-4.5,5.6c-0.2,0.2-0.5,0.3-0.7,0.2c-0.1,0-0.3-0.1-0.4-0.2l-17.3-23.4l13.4-16.2L157.1,90
					C158.3,92.7,157.8,95.8,156,98.2z"/>
			</g>
		</g>
	</g>
</g>
</svg>
