<?xml version="1.0" encoding="utf-8"?>
<!-- Generator: Adobe Illustrator 24.1.2, SVG Export Plug-In . SVG Version: 6.00 Build 0)  -->
<svg version="1.1" id="Слой_1" xmlns="http://www.w3.org/2000/svg" xmlns:xlink="http://www.w3.org/1999/xlink" x="0px" y="0px"
	 viewBox="0 0 200 200" style="enable-background:new 0 0 200 200;" xml:space="preserve">
<style type="text/css">
	.st0{fill:#85A1AA;}
	.st1{fill:#29A1DC;}
	.st2{fill:#D6E7F0;}
	.st3{fill:#6BC3EE;}
	.st4{fill:#FFFFFF;}
	.st5{fill:#92D4F4;}
	.st6{fill:#1C74A0;}
	.st7{fill:#145E82;}
	.st8{fill:none;}
	.st9{fill:#99DDFE;}
	.st10{fill:#404040;}
	.st11{fill:#9DDDFC;}
	.st12{fill:#16A6ED;}
	.st13{fill:#1F8CC1;}
	.st14{fill:#7FBFDE;}
	.st15{fill:#3C5E6F;}
	.st16{fill:#63ACD0;}
	.st17{fill:#D9E6ED;}
</style>
<path class="st0" d="M135.4,49.6v103c0,3.5-2.7,6.4-6,6.4l0,0H50.1c-3.4,0-6.1-2.9-6-6.4l0,0v-103c0-3.5,2.7-6.4,6-6.4l0,0h79.2
	C132.7,43.2,135.4,46.1,135.4,49.6z"/>
<path class="st1" d="M139,80.7h-6.3V54.6h6.3c1.1,0,1.9,0.9,1.9,1.9v22.2C140.9,79.8,140.1,80.7,139,80.7z M139,113h-6.3V87h6.3
	c1.1,0,1.9,0.9,1.9,1.9v22.2C140.9,112.2,140.1,113,139,113z M139,145.4h-6.3v-26.1h6.3c1.1,0,1.9,0.9,1.9,1.9v22.2
	C140.9,144.5,140.1,145.4,139,145.4z"/>
<path class="st2" d="M132.7,47.8V150c0,3.5-2.6,6.3-5.8,6.4l0,0H51c-3.2,0-5.8-2.9-5.8-6.4l0,0V47.8c0-3.5,2.6-6.3,5.8-6.4l0,0h75.8
	C130.1,41.4,132.7,44.3,132.7,47.8z"/>
<path class="st3" d="M61.7,41.4v114.9H50c-3.5,0-6.4-2.9-6.4-6.4l0,0V47.8c0-3.5,2.8-6.3,6.4-6.4l0,0C50,41.4,61.7,41.4,61.7,41.4z"
	/>
<path class="st4" d="M106.7,90.3L106.7,90.3z"/>
<g>
	<path class="st5" d="M112.1,104.6c-3.2-0.6-6-2.2-8.2-4.6c-1.5-2.1-1.3-7.3-1.3-7.3H92.5c0,0,0.3,5.2-1.3,7.3c-2.2,2.4-5,4-8.2,4.6
		c0,0-0.7,0.2,0.9,2.8c0.8,1.3,7.2,1.9,13.6,2c6.5,0,12.9-0.7,13.6-2C112.8,104.8,112.1,104.6,112.1,104.6z"/>
	<path class="st6" d="M104.2,99c0,0,0.4-4-1.5-3.1c-1.4,1.4-3.3,2.2-5.3,2.4c-2-0.2-3.8-1-5.3-2.4c-1.9-0.9-1.5,3.7-1.5,3.7
		s-6.3,2.1-7.8,3.1c-1.5,0.5-2.5,1.9-2.6,3.5c0,0.7,0,2.9,0.1,4.6c0,1.4,1.2,2.6,2.7,2.6h29.3c1.4,0,2.6-1.1,2.6-2.6
		c0-1.8,0.1-3.9,0.1-4.6c-0.1-1.6-1.1-3-2.6-3.6c-1.5-0.9-8.2-3.1-8.2-3.1"/>
	<path class="st7" d="M91.6,101.5c-0.1-3.9,0-3.4,0.3-4.4c0.1-0.4,0.4-0.7,0.8-0.8c-0.1-0.1-0.2-0.2-0.3-0.3c-0.4,0.2-0.7,0.6-0.8,1
		c-0.2,1-0.4,0.5-0.3,4.1C91.4,101.2,91.5,101.4,91.6,101.5z M93.7,98.2c0-0.3,0.3-0.6,0.6-0.8L94,97.2c-0.3,0.2-0.5,0.5-0.6,0.9
		c-0.2,1-0.4,0.5-0.3,4.2l0.4,0.1C93.3,98.6,93.5,99.2,93.7,98.2z M95.7,98.9c0.1-0.3,0.3-0.6,0.6-0.7l-0.5-0.1
		c-0.2,0.2-0.4,0.5-0.5,0.8c-0.2,1-0.4,0.5-0.3,4.1h0.4C95.3,99.4,95.5,99.9,95.7,98.9z M103.7,101c0.1-3.5,0-3.1-0.3-4
		c-0.1-0.4-0.4-0.8-0.8-1c0,0-0.2,0.2-0.3,0.3c0.4,0.1,0.7,0.4,0.8,0.8c0.2,1,0.4,0.4,0.3,4.3C103.4,101.3,103.6,101.2,103.7,101z
		 M101.8,102.4c0.1-3.7-0.1-3.3-0.3-4.2c-0.1-0.4-0.3-0.7-0.6-0.9l-0.4,0.2c0.3,0.1,0.6,0.4,0.6,0.8c0.2,1,0.4,0.4,0.3,4.3
		L101.8,102.4z M99.8,103c0.1-3.6,0-3.2-0.3-4.2c-0.1-0.3-0.2-0.6-0.5-0.8l-0.5,0.1c0.3,0.1,0.5,0.4,0.6,0.7
		c0.2,0.9,0.4,0.5,0.3,4.2L99.8,103z M97.3,98.3v5h0.4l0,0v-5H97.3z"/>
	<path class="st8" d="M97.6,103.3c0,0,6.3-0.3,6.6-3.6l0,0c0,0,0.4-4.6-1.5-3.7c-1.4,1.4-3.3,2.2-5.3,2.4c-2-0.2-3.8-1-5.2-2.4
		c-1.9-0.9-1.5,3.7-1.5,3.7C90.7,103,97.6,103.3,97.6,103.3z"/>
	<path class="st8" d="M112.3,113.5c1.4,0,2.6-1.1,2.6-2.6c0-1.8,0.1-3.9,0.1-4.6c-0.1-1.6-1.1-3-2.6-3.6c-1.5-0.9-8.2-3.2-8.2-3.2
		c0,3.5-6.6,3.9-6.6,3.9s-6.9-0.3-6.9-3.7c0,0-6.3,2.1-7.8,3.1c-1.5,0.5-2.5,1.9-2.6,3.5c0,0.7,0,2.9,0.1,4.6c0,1.4,1.2,2.6,2.7,2.6
		L112.3,113.5z"/>
	<path class="st9" d="M104.5,85.3c-0.1,0-0.3,0-0.4,0.1l-0.2-1.7l-0.6-0.9c0.1-1,0-1.9-0.1-2.9c-0.3-0.3-0.7-0.6-1.1-0.9
		c0,0-0.2-0.7-1.7-0.2l-2.7,0.9l-5.6,1.8c0,0-1.1,1.3-1.5,1.5c-0.3,0.2-0.4,0.4-0.6,0.9c-0.2,0.4-0.3,0.8-0.2,1.2
		c-1.5,0-1.3,1.4-1.1,2.7c0.2,1.2,0.5,2.3,1.4,2.3c0.1,0,0.2,0,0.3-0.1c0.5,4.6,1.8,5.5,5,7.5c1.1,0.6,2.3,0.6,3.4,0
		c2.1-1.5,5.2-2.1,5.3-7.4c0.1,0,0.2,0,0.3,0c0.9,0,1.1-0.9,1.4-2.3C106.1,86.4,106.3,85.1,104.5,85.3z"/>
	<path class="st10" d="M91.1,84.9c0.1,0.9-0.1,1.7-0.4,2.5c0,0-0.1,0-0.1,0h-0.2c0,0-0.1,0-0.1-0.1c0,0,0,0,0,0c0-0.4,0-1.8-1.1-2.1
		c0,0,0-3.2-0.1-4.5c-0.1-1.3,1.6-6,8.8-6.3c0,0,4.3,0,4.6,2.9c0.7-0.1,3.7,0.2,2.4,7.8c-0.6,0.6-0.9,1.3-0.8,2.1
		c0,0.1,0,0.1-0.1,0.1h-0.3c-0.1,0-0.2,0-0.1-0.1c0.3-1.1-0.6-2.4-0.7-3.5c-0.1-1.1-0.2-4.2-2.5-2.9c-2.7,1.8-1.1,2.5-8.1,2.5
		C91.6,83.5,91,84.1,91.1,84.9C91.1,84.8,91.1,84.9,91.1,84.9z M121.6,95.8L121.6,95.8c0,0.1-0.1,0.2-0.2,0.3l0,0l0,0l0,0l0,0l0,0
		l-0.1,0.2l0,0l0,0l0,0h-0.5l0,0c-0.2,1-0.4,1.9-0.7,2.8l-0.2,0.5c0,0.1,0,0.1,0,0.2l-0.1,0.3v0.2l-0.1,0.3v0.1
		c0,0.1-0.2,0.1-0.2,0.2v0.2c-0.3,0.5-0.8,0.8-1.1,1.2c0,2.1,0.4,4.2,1.2,6.1c0,0,5.3,1.8,6.5,2.5c0.6,0.3,1.1,0.7,1.5,1.2
		c0.1-2.5-2.8-4.6-4.4-7.4C121.5,101.6,121.6,96.8,121.6,95.8z M102.5,110.7c1.3-0.7,6.5-2.5,6.5-2.5c0.7-1.8,1-3.7,1-5.6
		c-0.3-0.3-0.6-0.7-0.9-1.1l0,0l-0.2-0.4l0,0l-0.3-0.6l0,0c-0.1-0.1-0.2-0.3-0.2-0.4l-0.1-0.1c0-0.1-0.1-0.2-0.2-0.4
		c0-0.1,0-0.1,0-0.2c-0.1-0.2-0.1-0.3-0.2-0.5c-0.3-0.8-0.5-1.7-0.7-2.6l0,0h-0.3l0,0l0,0l0,0l0,0l0,0v-0.1l0,0l0,0l0,0l0,0l0,0
		v-0.1l0,0v-0.1l0,0l0,0l0,0c0,0,0-0.1,0-0.1c0,0,0.5,5.9-1.2,8.9c-1.6,3-5.7,4.8-5.1,7.4C101.1,111.6,101.7,111,102.5,110.7z"/>
	<path class="st5" d="M126.9,109.4c-1.4-0.7-7-2.8-7.1-2.8c-1.3-2.2-1.9-8.4-1.9-8.4h-7.6c0,0-0.5,6.3-1.9,8.4c0,0-5.7,2-7.1,2.7
		c-1.3,0.5-2.2,1.7-2.3,3.1c0,1.1,0.1,2.4,0.1,3.3h29.8c0-1.1,0.1-2.2,0.1-3.3C129.1,111.1,128.2,109.9,126.9,109.4z"/>
	<path class="st11" d="M122.3,93.7c-0.3-0.7-0.8-0.2-1,0.3c0.1-4.8-1.7-9.9-7.3-10h-0.2c-5.7,0.1-7.4,5.1-7.3,10
		c-0.2-0.4-0.7-1-1.1-0.3c-0.2,0.7-0.2,1.5,0.1,2.1c0.3,0.9,1,1.5,1.3,1.2c0.2,0.9,0.5,1.8,0.8,2.6c0.5,1.1,1.1,2.2,1.9,3.1
		c0.4,0.5,0.8,1,1.3,1.4c0.9,0.7,1.9,1.1,3.1,1.1h0.2c1.1,0,2.1-0.4,2.9-1.1c0.5-0.5,0.9-1,1.3-1.5c0.8-0.9,1.5-1.9,2-3.1
		c0.3-0.8,0.5-1.7,0.7-2.6c0.4,0.3,1-0.5,1.3-1.4C122.6,94.9,122.5,94.3,122.3,93.7z"/>
	<path class="st10" d="M106.6,94c2.2-1.3,3.7-3.6,4.1-6.1c0,0,1.7,4.4,10.6,6.1c0.1-0.2,0.2-0.3,0.4-0.5c0.2-0.2,0.5-0.3,0.7,0.4
		c0,0,0.9-11.4-8.4-11c0,0-9.2-0.9-8.6,11.1C105.5,94,105.7,92.7,106.6,94z"/>
	<path class="st12" d="M126.9,109.4c-1.4-0.7-7-2.8-7.1-2.8c-1,2.9-3,5.4-5.7,6.9c-2.7-1.5-4.7-4-5.7-6.9c0,0-5.7,2-7.1,2.7
		c-1.3,0.5-2.2,1.7-2.3,3.1c0,0.7,0,3.3,0.1,5.3c0,1.2,1,2.2,2.2,2.2h25.5c1.2,0,2.1-0.9,2.2-2.1c0-2,0.1-4.6,0.1-5.3
		C129.1,111.2,128.2,109.9,126.9,109.4z"/>
	<path class="st13" d="M121.4,107.3l-1.6-0.6c-1,2.9-3,5.4-5.7,6.9c-2.7-1.5-4.7-4-5.7-6.9l-1.7,0.6c1.1,3.8,3.8,7,7.4,8.6l0,0
		C117.7,114.2,120.4,111.1,121.4,107.3z"/>
	<polygon class="st14" points="86.6,106.1 86.6,101.6 75,101.6 75,106.1 80.8,111.2 	"/>
	<path class="st15" d="M94.4,108.2l-6.9-1.8c-0.1,0-0.2-0.1-0.3-0.1l-6.4,3.7l-6.1-3.9c-0.2,0.1-0.4,0.3-0.6,0.3l-6.9,1.8
		c-1.2,0.3-2,1.3-2,2.5v7.2c0,1.2,1,2.1,2.1,2.1h26.9c1.2,0,2.1-1,2.1-2.1l0,0v-7.2C96.4,109.5,95.6,108.5,94.4,108.2z"/>
	<path class="st9" d="M74,87l-0.9,5.6l0.8,6.8c0,1.1,0.5,2.1,1.4,2.7l1.9,2.1c0.7,0.5,1.5,1.5,2.3,1.5H82c0.8,0,1.6-1,2.3-1.5l2-2
		c0.8-0.7,1.3-1.7,1.4-2.7l0.7-6.5l-1-5.8L74,87z"/>
	<polygon class="st16" points="82.4,120 79.2,120 79.6,111.2 82,111.2 	"/>
	<path class="st1" d="M82.4,110h-3.2v1.2c0,0.4,0.3,0.7,0.7,0.7l0,0h1.8c0.4,0,0.7-0.3,0.7-0.7L82.4,110L82.4,110z"/>
	<path class="st17" d="M75,104.7l5.9,5.3c-1.3,0.7-2.5,1.6-3.6,2.5c-0.4,0.3-0.9,0.2-1.2-0.1c0-0.1-0.1-0.1-0.1-0.2l-2.7-6.1
		l0.9-1.3C74.2,104.5,74.6,104.4,75,104.7C74.9,104.7,74.9,104.7,75,104.7z M86.7,104.7l-5.8,5.3c1.3,0.7,2.5,1.6,3.6,2.5
		c0.4,0.3,0.9,0.2,1.2-0.1c0,0,0.1-0.1,0.1-0.2l2.7-6.1l-0.9-1.3C87.4,104.5,87,104.4,86.7,104.7C86.7,104.7,86.7,104.7,86.7,104.7z
		"/>
	<path class="st9" d="M90.3,95.6c-1.5,3.8-3.1,2.7-3.1,2.3l0.4-3.1c-0.1-0.7,0.4-1.4,1.1-1.5c0.1,0,0.2,0,0.2,0l0,0
		C91.1,93.2,90.3,95.6,90.3,95.6z M71.5,95.6c1.5,3.8,3.1,2.7,3.1,2.3l-0.3-3.1c0.1-0.7-0.4-1.4-1.1-1.5c-0.1,0-0.1,0-0.2,0l0,0
		C70.6,93.2,71.5,95.6,71.5,95.6z"/>
	<path class="st10" d="M74.9,92.9c0.1,0.9-0.1,1.7-0.4,2.5c0,0-0.1,0-0.1,0h-0.2c-0.1,0-0.1,0-0.1-0.1c0,0,0,0,0,0
		c0-0.4,0-1.8-1-2.1c0,0,0-3.1-0.1-4.4s1.5-5.9,8.7-6.2c0,0,4.3,0,4.6,2.9c0.7,0,3.7,0.2,2.4,7.7c-0.6,0.5-0.8,1.3-0.8,2.1
		c0,0.1,0,0.1-0.1,0.1h-0.3c-0.1,0-0.2,0-0.1-0.1c0.3-1.1-0.6-2.4-0.7-3.5c0-1.1-0.2-4.1-2.4-2.7c-2.7,1.8-1.1,2.5-8,2.5
		C75.4,91.6,74.9,92.2,74.9,92.9z"/>
</g>
</svg>
