<?xml version="1.0" encoding="utf-8"?>
<!-- Generator: Adobe Illustrator 24.1.2, SVG Export Plug-In . SVG Version: 6.00 Build 0)  -->
<svg version="1.1" id="Слой_1" xmlns="http://www.w3.org/2000/svg" xmlns:xlink="http://www.w3.org/1999/xlink" x="0px" y="0px"
	 viewBox="0 0 200 200" style="enable-background:new 0 0 200 200;" xml:space="preserve">
<style type="text/css">
	.st0{fill:none;stroke:#3D4856;stroke-miterlimit:10;}
	.st1{fill:#FFFFFF;}
	.st2{fill:#3D4856;}
</style>
<path class="st0" d="M146.7,46v112.6c0,3.8-3,7-6.6,7l0,0H53.5c-3.7,0-6.7-3.2-6.6-7l0,0V46c0-3.8,3-7,6.6-7l0,0h86.6
	C143.8,39,146.7,42.2,146.7,46z"/>
<path class="st0" d="M150.7,80h-6.9V51.5h6.9c1.2,0,2.1,1,2.1,2.1v24.3C152.8,79,151.9,80,150.7,80z M150.7,115.3h-6.9V86.9h6.9
	c1.2,0,2.1,1,2.1,2.1v24.3C152.8,114.4,151.9,115.3,150.7,115.3z M150.7,150.7h-6.9v-28.5h6.9c1.2,0,2.1,1,2.1,2.1v24.3
	C152.8,149.7,151.9,150.7,150.7,150.7z"/>
<path class="st0" d="M143.8,44v111.7c0,3.8-2.8,6.9-6.4,7l0,0H53.3c-3.5,0-6.4-3.2-6.4-7l0,0V44c0-3.8,2.8-6.9,6.4-7l0,0h83.9
	C141,37,143.8,40.2,143.8,44z"/>
<path class="st0" d="M66.2,37v125.6H53.4c-3.8,0-7-3.2-7-7l0,0V44c0-3.8,3.1-6.9,7-7l0,0H66.2z"/>
<path class="st1" d="M115.4,90.5L115.4,90.5z"/>
<g>
	<path class="st0" d="M122.8,110.6l-11-3c-0.2,0-0.3-0.1-0.5-0.2l-10.3,6l-9.7-6.2c-0.2,0.2-0.5,0.4-0.9,0.4l-11,3
		c-1.9,0.4-3.2,2.1-3.2,3.9V126c0,1.9,1.5,3.4,3.4,3.4h42.9c1.9,0,3.4-1.5,3.4-3.4l0,0v-11.5C126,112.7,124.7,111,122.8,110.6z"/>
	<path class="st0" d="M90.2,76.7l-1.4,8.9L90,96.4c0.1,1.7,0.9,3.3,2.2,4.4l3.1,3.3c1.1,0.8,2.4,2.4,3.7,2.4h4
		c1.3,0,2.6-1.5,3.7-2.4l3.2-3.3c1.3-1.1,2.1-2.7,2.2-4.4l1.1-10.5l-1.5-9.3L90.2,76.7z"/>
	<polygon class="st0" points="103.7,129.5 98.6,129.5 99.2,116.4 103,116.4 	"/>
	<path class="st0" d="M103.7,113.3h-5.1v2c0,0.7,0.5,1.1,1.1,1.1l0,0h3c0.7,0,1.1-0.5,1.1-1.1L103.7,113.3L103.7,113.3z"/>
	<path class="st2" d="M91.8,104.9l9.4,8.4c-2.1,1.1-4,2.5-5.8,4c-0.5,0.4-1.4,0.3-1.9-0.2c-0.1-0.1-0.1-0.2-0.2-0.2l-4.4-9.7
		l1.4-2.1C90.6,104.6,91.2,104.6,91.8,104.9C91.7,104.9,91.8,104.9,91.8,104.9z M110.5,104.9l-9.3,8.4c2.1,1.1,4,2.5,5.8,4
		c0.5,0.4,1.4,0.3,1.9-0.2c0.1-0.1,0.1-0.2,0.1-0.2l4.4-9.7l-1.4-2.1C111.7,104.6,111,104.6,110.5,104.9
		C110.6,104.9,110.5,104.9,110.5,104.9z"/>
	<path class="st0" d="M116.5,90.4c-2.3,6-4.8,4.4-4.8,3.7l0.5-4.9c-0.2-1.1,0.5-2.2,1.7-2.4c0.1,0,0.2,0,0.3,0l0,0
		C117.7,86.7,116.5,90.4,116.5,90.4z M85.6,90.4c2.3,6,4.8,4.4,4.8,3.7l-0.5-4.9c0.2-1.2-0.7-2.2-1.7-2.4c-0.1,0-0.2,0-0.3,0l0,0
		C84.4,86.7,85.6,90.4,85.6,90.4z"/>
	<path class="st2" d="M91.7,86.2c0.1,1.4-0.1,2.7-0.7,4h-0.1h-0.3c-0.1,0-0.2-0.1-0.2-0.2l0,0c0-0.7,0-2.8-1.6-3.3c0,0,0-4.9-0.2-7
		s2.4-9.5,13.9-9.9c0,0,6.8,0,7.3,4.6c1.1,0,5.9,0.3,3.8,12.3c-0.9,0.9-1.3,2.1-1.2,3.3c0,0.1-0.1,0.2-0.2,0.2h-0.4
		c-0.2,0-0.2,0-0.2-0.2c0.4-1.7-1-3.8-1.1-5.6c-0.1-1.7-0.3-6.4-3.9-4.4c-4.3,2.8-1.6,3.9-12.8,3.9C92.5,84,91.6,85,91.7,86.2z"/>
</g>
</svg>
