<?xml version="1.0" encoding="utf-8"?>
<!-- Generator: Adobe Illustrator 24.1.2, SVG Export Plug-In . SVG Version: 6.00 Build 0)  -->
<svg version="1.1" id="Слой_1" xmlns="http://www.w3.org/2000/svg" xmlns:xlink="http://www.w3.org/1999/xlink" x="0px" y="0px"
	 viewBox="0 0 200 200" style="enable-background:new 0 0 200 200;" xml:space="preserve">
<style type="text/css">
	.st0{fill:#85A1AA;}
	.st1{fill:#29A1DC;}
	.st2{fill:#D6E7F0;}
	.st3{fill:#6BC3EE;}
	.st4{fill:#FFFFFF;}
	.st5{fill:#7FBFDE;}
	.st6{fill:#3C5E6F;}
	.st7{fill:#99DDFE;}
	.st8{fill:#63ACD0;}
	.st9{fill:#D9E6ED;}
	.st10{fill:#404040;}
	.st11{fill:#E3F4FF;}
	.st12{fill:#BBD8EF;}
	.st13{fill:#4E7693;}
	.st14{fill:#2C5168;}
</style>
<path class="st0" d="M135.4,49.6v103c0,3.5-2.7,6.4-6,6.4l0,0H50.1c-3.4,0-6.1-2.9-6-6.4l0,0v-103c0-3.5,2.7-6.4,6-6.4l0,0h79.2
	C132.7,43.2,135.4,46.1,135.4,49.6z"/>
<path class="st1" d="M139,80.7h-6.3V54.6h6.3c1.1,0,1.9,0.9,1.9,1.9v22.2C140.9,79.8,140.1,80.7,139,80.7z M139,113h-6.3V87h6.3
	c1.1,0,1.9,0.9,1.9,1.9v22.2C140.9,112.2,140.1,113,139,113z M139,145.4h-6.3v-26.1h6.3c1.1,0,1.9,0.9,1.9,1.9v22.2
	C140.9,144.5,140.1,145.4,139,145.4z"/>
<path class="st2" d="M132.7,47.8V150c0,3.5-2.6,6.3-5.8,6.4l0,0H51c-3.2,0-5.8-2.9-5.8-6.4l0,0V47.8c0-3.5,2.6-6.3,5.8-6.4l0,0h75.8
	C130.1,41.4,132.7,44.3,132.7,47.8z"/>
<path class="st3" d="M61.7,41.4v114.9H50c-3.5,0-6.4-2.9-6.4-6.4l0,0V47.8c0-3.5,2.8-6.3,6.4-6.4l0,0C50,41.4,61.7,41.4,61.7,41.4z"
	/>
<path class="st4" d="M106.7,90.3L106.7,90.3z"/>
<g>
	<polygon class="st5" points="105.1,109.6 105.1,103.1 88.2,103.1 88.2,109.6 96.7,117.1 	"/>
	<path class="st6" d="M116.5,112.7l-10.1-2.7c-0.2,0-0.3-0.1-0.5-0.2l-9.4,5.5l-8.9-5.7c-0.2,0.2-0.5,0.4-0.8,0.4l-10.1,2.7
		c-1.7,0.4-2.9,1.9-2.9,3.6v10.5c0,1.7,1.4,3.1,3.1,3.1h39.3c1.7,0,3.1-1.4,3.1-3.1l0,0v-10.5C119.4,114.6,118.2,113.1,116.5,112.7z
		"/>
	<path class="st7" d="M86.7,81.7l-1.3,8.1l1.1,9.9c0.1,1.6,0.8,3,2,4l2.8,3c1,0.7,2.2,2.2,3.4,2.2h3.7c1.2,0,2.4-1.4,3.4-2.2l2.9-3
		c1.2-1,1.9-2.5,2-4l1-9.6l-1.4-8.5L86.7,81.7z"/>
	<polygon class="st8" points="99,130 94.3,130 94.9,117.1 98.4,117.1 	"/>
	<path class="st1" d="M99,115.2h-4.7v1.8c0,0.6,0.5,1,1,1l0,0H98c0.6,0,1-0.5,1-1V115.2L99,115.2z"/>
	<path class="st9" d="M88.1,107.5l8.6,7.7c-1.9,1-3.7,2.3-5.3,3.7c-0.5,0.4-1.3,0.3-1.7-0.2c-0.1-0.1-0.1-0.2-0.2-0.2l-4-8.9
		l1.3-1.9C87,107.2,87.6,107.2,88.1,107.5C88,107.5,88.1,107.5,88.1,107.5z M105.2,107.5l-8.5,7.7c1.9,1,3.7,2.3,5.3,3.7
		c0.5,0.4,1.3,0.3,1.7-0.2c0.1-0.1,0.1-0.2,0.1-0.2l4-8.9l-1.3-1.9C106.3,107.2,105.7,107.2,105.2,107.5
		C105.3,107.5,105.2,107.5,105.2,107.5z"/>
	<path class="st7" d="M110.5,94.2c-2.2,5.5-4.5,4-4.5,3.4l0.5-4.5c-0.2-1,0.5-2,1.6-2.2c0.1,0,0.2,0,0.3,0l0,0
		C111.6,90.8,110.5,94.2,110.5,94.2z M83,94.2c2.2,5.5,4.5,4,4.5,3.4L87,93.1c0.2-1.1-0.6-2-1.6-2.2c-0.1,0-0.2,0-0.3,0l0,0
		C81.8,90.8,83,94.2,83,94.2z"/>
	<path class="st10" d="M88,90.4c0.1,1.3-0.1,2.5-0.6,3.7h-0.1H87c-0.1,0-0.2-0.1-0.2-0.2l0,0c0-0.6,0-2.6-1.5-3c0,0,0-4.5-0.2-6.4
		s2.2-8.7,12.7-9.1c0,0,6.2,0,6.7,4.2c1,0,5.4,0.3,3.5,11.3c-0.8,0.8-1.2,1.9-1.1,3c0,0.1-0.1,0.2-0.2,0.2h-0.4
		c-0.2,0-0.2,0-0.2-0.2c0.4-1.6-0.9-3.5-1-5.1s-0.3-5.9-3.6-4c-3.9,2.6-1.5,3.6-11.7,3.6C88.8,88.4,87.9,89.3,88,90.4z"/>
</g>
<rect x="50.6" y="47.2" class="st11" width="37.5" height="37.5"/>
<rect x="87" y="47.2" class="st12" width="1.1" height="37.5"/>
<path class="st12" d="M54.1,49.5v9.1h9.1v-9.1H54.1z M60.8,56.2h-4.2V52h4.2V56.2z M77.8,49.5v9.1H87v-9.1H77.8z M84.5,56.2h-4.2V52
	h4.2L84.5,56.2z M74.7,49.5v8.2h-4.1v4.1h-4.1v-8.2h4.1v-4.1H74.7z M58.3,70.1h-4.1V66h4.1V70.1z M66.5,61.9v8.2h-4.1V66h-4.1v-4.1
	H66.5z M70.6,74.2h-4.1v-4.1h4.1V74.2z M74.7,66h-4.1v-4.1h4.1V66z M87.1,74.2H83v-4.1h4.1V74.2z M70.6,82.4h-4.1v-4.1h4.1V82.4z
	 M83,74.2v8.2h-4.1v-8.2L83,74.2z M83,61.9v8.2h-4.1v4.1h-4.1V66h4.1v-4.1L83,61.9z M74.7,78.3h-4.1v-4.1h4.1V78.3z M54,73.3v9.1
	h9.1v-9.1H54z M60.7,80h-4.2v-4.2h4.2V80z"/>
<path class="st13" d="M52.9,49.5v9.1h9.1v-9.1H52.9z M59.6,56.2h-4.2V52h4.2V56.2z M76.7,49.5v9.1h9.1v-9.1H76.7z M83.4,56.2h-4.2
	V52h4.2L83.4,56.2z M73.6,49.5v8.2h-4.1v4.1h-4.1v-8.2h4.1v-4.1H73.6z M57.1,70.1H53V66h4.1V70.1z M65.4,61.9v8.2h-4.1V66h-4.1v-4.1
	H65.4z M69.5,74.2h-4.1v-4.1h4.1V74.2z M73.6,66h-4.1v-4.1h4.1V66z M85.9,74.2h-4.1v-4.1h4.1V74.2z M69.5,82.4h-4.1v-4.1h4.1V82.4z
	 M81.8,74.2v8.2h-4.1v-8.2H81.8z M81.8,61.9v8.2h-4.1v4.1h-4.1V66h4.1v-4.1H81.8z M73.6,78.3h-4.1v-4.1h4.1V78.3z M52.9,73.3v9.1
	h9.1v-9.1H52.9z M59.6,80h-4.2v-4.2h4.2L59.6,80z"/>
<rect x="68.3" y="57.7" class="st14" width="1.1" height="4.1"/>
<rect x="72.4" y="61.9" class="st14" width="1.1" height="4.1"/>
<rect x="78" y="52" class="st14" width="1.1" height="4.2"/>
<rect x="68.3" y="70.1" class="st14" width="1.1" height="4.1"/>
<rect x="76.6" y="70.1" class="st14" width="1.1" height="4.1"/>
<rect x="54.2" y="52" class="st14" width="1.1" height="4.2"/>
<rect x="84.7" y="49.5" class="st14" width="1.1" height="9.1"/>
<rect x="54.2" y="75.7" class="st14" width="1.1" height="4.2"/>
<rect x="56" y="66" class="st14" width="1.1" height="4.1"/>
<rect x="72.4" y="74.2" class="st14" width="1.1" height="4.1"/>
<rect x="80.7" y="74.2" class="st14" width="1.1" height="8.2"/>
<rect x="68.3" y="78.3" class="st14" width="1.1" height="4.1"/>
<rect x="84.8" y="70.1" class="st14" width="1.1" height="4.1"/>
<rect x="60.9" y="49.5" class="st14" width="1.1" height="9.1"/>
<polygon class="st14" points="72.4,57.7 73.6,57.7 73.6,53.6 73.6,49.5 72.4,49.5 72.4,53.6 "/>
<polygon class="st14" points="64.2,70.1 65.4,70.1 65.4,66 65.4,61.9 64.2,61.9 64.2,66 "/>
<polygon class="st14" points="81.8,61.9 80.7,61.9 80.7,66 80.7,70.1 81.8,70.1 81.8,66 "/>
<rect x="60.9" y="73.3" class="st14" width="1.1" height="9.1"/>
</svg>
