<?xml version="1.0" encoding="utf-8"?>
<!-- Generator: Adobe Illustrator 24.1.2, SVG Export Plug-In . SVG Version: 6.00 Build 0)  -->
<svg version="1.1" id="Слой_1" xmlns="http://www.w3.org/2000/svg" xmlns:xlink="http://www.w3.org/1999/xlink" x="0px" y="0px"
	 viewBox="0 0 200 200" style="enable-background:new 0 0 200 200;" xml:space="preserve">
<style type="text/css">
	.st0{fill:none;stroke:#D7DCDF;stroke-miterlimit:10;}
</style>
<path class="st0" d="M155.3,164.9H106c-3.5,0-6.3-3.9-6.3-8.7v-49h61.8v49C161.4,161,158.7,164.9,155.3,164.9z"/>
<path class="st0" d="M138.4,107.2h-15.6v17.4h0.6c0.2-0.9,0.8-1.4,1.4-1.2c0.5,0.2,0.8,0.6,0.9,1.2h0.9c0.2-0.9,0.8-1.4,1.4-1.2
	c0.5,0.2,0.8,0.6,0.9,1.2h0.9c0.2-0.9,0.8-1.4,1.4-1.2c0.5,0.2,0.8,0.6,0.9,1.2h0.9c0.2-0.9,0.8-1.4,1.4-1.2
	c0.5,0.2,0.8,0.6,0.9,1.2h0.9c0.2-0.9,0.8-1.4,1.4-1.2c0.5,0.2,0.8,0.6,0.9,1.2h0.6L138.4,107.2L138.4,107.2z"/>
<path class="st0" d="M105.8,97.1h44.4c2.7,0,5.3,0.9,6.2,2.4l5.1,7.7H99.6v-7.7C100.7,98,103.1,97.1,105.8,97.1z"/>
<path class="st0" d="M124.3,97.1h12.8l1.5,10.1H123L124.3,97.1z"/>
<path class="st0" d="M122.9,164.9h15.3v-16.5h-0.6c-0.2,0.8-0.6,1.2-1.1,1.2s-0.9-0.5-1.1-1.2h-0.9c-0.2,0.8-0.6,1.2-1.1,1.2
	s-0.9-0.5-1.1-1.2h-0.9c-0.2,0.8-0.6,1.2-1.1,1.2s-0.9-0.5-1.1-1.2h-0.9c-0.2,0.8-0.6,1.2-1.1,1.2s-0.9-0.5-1.1-1.2h-0.9
	c-0.2,0.8-0.6,1.2-1.1,1.2s-0.9-0.5-1.1-1.2h-0.6L122.9,164.9L122.9,164.9z M155.3,152.2l-4.2-10.5c-0.3-0.8-1.1-1.1-1.5-0.6
	c-0.2,0.2-0.3,0.3-0.5,0.6l-4.2,10.5c-0.5,0.9,0.2,2.1,1.1,2.1h2v3.6c0,0.8,0.5,1.5,1.1,1.5h2.3c0.6,0,1.1-0.6,1.1-1.5v-3.6h2
	C155.1,154.4,155.7,153.2,155.3,152.2z M119,141.3h-12.5c-0.5,0-0.8-0.6-0.8-1.1s0.3-0.9,0.8-0.9H119c0.5,0,0.8,0.6,0.8,1.1
	C119.6,140.9,119.5,141.3,119,141.3z M119,146.9h-12.5c-0.5,0-0.8-0.6-0.8-1.1s0.3-0.9,0.8-0.9H119c0.5,0,0.8,0.5,0.8,1.1
	C119.8,146.4,119.5,146.9,119,146.9L119,146.9z M119,152.5h-12.5c-0.5,0-0.8-0.6-0.8-1.1s0.3-0.9,0.8-0.9H119c0.5,0,0.8,0.5,0.8,1.1
	C119.8,152,119.5,152.5,119,152.5L119,152.5z M119,158h-12.5c-0.5,0-0.8-0.6-0.8-1.1s0.3-0.9,0.8-0.9H119c0.5,0,0.8,0.6,0.8,1.1
	C119.6,157.6,119.5,157.9,119,158z"/>
<path class="st0" d="M93.5,164.9H44.1c-3.5,0-6.3-3.9-6.3-8.7v-49h61.8v49C99.6,161,96.9,164.9,93.5,164.9L93.5,164.9z"/>
<path class="st0" d="M76.6,107.2H61v17.4h0.6c0.2-0.9,0.8-1.4,1.4-1.2c0.5,0.2,0.8,0.6,0.9,1.2h0.9c0.2-0.9,0.8-1.4,1.4-1.2
	c0.5,0.2,0.8,0.6,0.9,1.2H68c0.2-0.9,0.8-1.4,1.4-1.2c0.5,0.2,0.8,0.6,0.9,1.2h0.9c0.2-0.9,0.8-1.4,1.4-1.2c0.5,0.2,0.8,0.6,0.9,1.2
	h0.9c0.2-0.9,0.8-1.4,1.4-1.2c0.5,0.2,0.8,0.6,0.9,1.2h0.6L76.6,107.2L76.6,107.2z"/>
<path class="st0" d="M49.3,97.1h44.2c2.7,0,5.3,0.9,6.2,2.4v7.7H37.8l5.3-7.7C44,98,46.6,97.1,49.3,97.1z"/>
<path class="st0" d="M62.3,97.1h12.8l1.5,10.1H61L62.3,97.1z"/>
<path class="st0" d="M61.1,164.9h15.3v-16.5h-0.6c-0.2,0.8-0.6,1.2-1.1,1.2s-0.9-0.5-1.1-1.2h-0.9c-0.2,0.8-0.6,1.2-1.1,1.2
	s-0.9-0.5-1.1-1.2h-0.9c-0.2,0.8-0.6,1.2-1.1,1.2s-0.9-0.5-1.1-1.2h-0.9c-0.2,0.8-0.6,1.2-1.1,1.2s-0.9-0.5-1.1-1.2h-0.9
	c-0.2,0.8-0.6,1.2-1.1,1.2s-0.9-0.5-1.1-1.2h-0.6L61.1,164.9L61.1,164.9z M91.7,151.3l-4.2-10.5c-0.3-0.8-1.1-1.1-1.5-0.6
	c-0.2,0.2-0.3,0.3-0.5,0.6l-4.2,10.5c-0.5,0.9,0.2,2.1,1.1,2.1h2v3.6c0,0.8,0.5,1.5,1.1,1.5h2.3c0.6,0,1.1-0.6,1.1-1.5v-3.6h2
	C91.5,153.4,92.1,152.2,91.7,151.3z M55.4,140.4H42.9c-0.5,0-0.8-0.6-0.8-1.1s0.3-0.9,0.8-0.9h12.5c0.5,0,0.8,0.5,0.8,1.1
	C56.2,140,55.9,140.4,55.4,140.4L55.4,140.4z M55.4,146H42.9c-0.5,0-0.8-0.6-0.8-1.1s0.3-0.9,0.8-0.9h12.5c0.5,0,0.8,0.5,0.8,1.1
	C56.2,145.4,55.9,146,55.4,146L55.4,146z M55.4,151.4H42.9c-0.5,0-0.8-0.6-0.8-1.1s0.3-0.9,0.8-0.9h12.5c0.5,0,0.8,0.5,0.8,1.1
	S55.9,151.4,55.4,151.4L55.4,151.4z M55.4,157H42.9c-0.5,0-0.8-0.6-0.8-1.1s0.3-0.9,0.8-0.9h12.5c0.5,0,0.8,0.5,0.8,1.1
	C56.2,156.5,55.9,157,55.4,157L55.4,157z"/>
<path class="st0" d="M124.3,103.9H75c-3.5,0-6.3-3.9-6.3-8.7v-49h61.8v49C130.6,100,127.8,103.9,124.3,103.9L124.3,103.9z"/>
<path class="st0" d="M123.1,90.8l-4.2-10.5c-0.3-0.8-1.1-1.1-1.5-0.6c-0.2,0.2-0.3,0.3-0.5,0.6l-4.2,10.5c-0.5,0.9,0.2,2.1,1.1,2.1
	h2v3.6c0,0.8,0.5,1.5,1.1,1.5h2.3c0.6,0,1.1-0.6,1.1-1.5v-3.6h2C122.9,92.9,123.5,91.7,123.1,90.8z M107.5,46.1H91.8v17.4h0.6
	c0.2-0.9,0.8-1.4,1.4-1.2c0.5,0.2,0.8,0.6,0.9,1.2h0.9c0.2-0.9,0.8-1.4,1.4-1.2c0.5,0.2,0.8,0.6,0.9,1.2h0.9
	c0.2-0.9,0.8-1.4,1.4-1.2c0.5,0.2,0.8,0.6,0.9,1.2h0.9c0.2-0.9,0.8-1.4,1.4-1.2c0.5,0.2,0.8,0.6,0.9,1.2h0.9
	c0.2-0.9,0.8-1.4,1.4-1.2c0.5,0.2,0.8,0.6,0.9,1.2h0.6L107.5,46.1L107.5,46.1z"/>
<path class="st0" d="M80.2,36.1h39.1c2.7,0,5.3,0.9,6.2,2.4l5.1,7.7H68.8l5.3-7.7C75,37,77.4,36.1,80.2,36.1z"/>
<path class="st0" d="M93.3,36.1h12.8l1.5,10.1H91.8L93.3,36.1z"/>
<path class="st0" d="M92,103.9h15.3V87.3h-0.6c-0.2,0.8-0.6,1.2-1.1,1.2s-0.9-0.5-1.1-1.2h-0.9c-0.2,0.8-0.6,1.2-1.1,1.2
	s-0.9-0.5-1.1-1.2h-0.9c-0.2,0.8-0.6,1.2-1.1,1.2s-0.9-0.5-1.1-1.2h-0.9c-0.2,0.8-0.6,1.2-1.1,1.2s-0.9-0.5-1.1-1.2h-0.9
	c-0.2,0.8-0.6,1.2-1.1,1.2s-0.9-0.5-1.1-1.2H92V103.9L92,103.9z M86.9,80H74.4c-0.5,0-0.8-0.6-0.8-1.1s0.3-0.9,0.8-0.9h12.5
	c0.5,0,0.8,0.5,0.8,1.1C87.6,79.5,87.3,80,86.9,80z M86.9,85.5H74.4c-0.5,0-0.8-0.6-0.8-1.1s0.3-0.9,0.8-0.9h12.5
	c0.5,0,0.8,0.5,0.8,1.1C87.6,84.9,87.3,85.5,86.9,85.5z M86.9,91H74.4c-0.5,0-0.8-0.6-0.8-1.1s0.3-0.9,0.8-0.9h12.5
	c0.5,0,0.8,0.5,0.8,1.1C87.6,90.5,87.3,91,86.9,91L86.9,91z M86.9,96.5H74.4c-0.5,0-0.8-0.6-0.8-1.1s0.3-0.9,0.8-0.9h12.5
	c0.5,0,0.8,0.5,0.8,1.1C87.6,96.1,87.3,96.5,86.9,96.5L86.9,96.5z"/>
</svg>
