<?xml version="1.0" encoding="utf-8"?>
<!-- Generator: Adobe Illustrator 24.1.2, SVG Export Plug-In . SVG Version: 6.00 Build 0)  -->
<svg version="1.1" id="Слой_1" xmlns="http://www.w3.org/2000/svg" xmlns:xlink="http://www.w3.org/1999/xlink" x="0px" y="0px"
	 viewBox="0 0 200 200" style="enable-background:new 0 0 200 200;" xml:space="preserve">
<style type="text/css">
	.st0{fill:#29A1DC;}
	.st1{fill:#AAAAAA;}
	.st2{fill:#868686;}
	.st3{fill:#DBDBDB;}
	.st4{fill:#FFFFFF;}
</style>
<g>
	<ellipse class="st0" cx="100" cy="101" rx="64.5" ry="63.9"/>
</g>
<g id="XMLID_1236_">
	<polygon class="st1" points="68.6,70.6 95.5,110.1 95.5,137.7 104.2,133.9 104.2,110.1 131.1,70.6 	"/>
</g>
<g id="XMLID_1062_">
	<polygon class="st2" points="124.9,70.6 101.3,110.1 104.2,110.1 131.1,70.6 	"/>
</g>
<g id="XMLID_1059_">
	<polygon class="st3" points="82.9,70.6 68.6,70.6 95.5,110.1 95.5,137.7 98.8,135.3 98.8,110.1 	"/>
</g>
<g id="XMLID_1057_">
	<path class="st4" d="M95.5,139.1c-0.2,0-0.5,0-0.7-0.2c-0.4-0.2-0.5-0.7-0.5-1.1v-27.7c0-0.7,0.5-1.4,1.5-1.4h8.8
		c0.7,0,1.5,0.5,1.5,1.4v23.8c0,0.5-0.4,1.1-0.7,1.3l-8.8,3.8C95.8,138.9,95.7,139.1,95.5,139.1z M96.9,111.6v24.1l6-2.5v-21.6H96.9
		L96.9,111.6z"/>
</g>
<g id="XMLID_1056_">
	<path class="st4" d="M104.2,111.6h-8.8c-0.4,0-0.9-0.2-1.1-0.5L67.5,71.6c-0.4-0.4-0.4-0.9,0-1.4c0.2-0.4,0.7-0.7,1.3-0.7h62.5
		c0.5,0,0.9,0.4,1.3,0.7c0.2,0.4,0.2,0.9,0,1.4l-26.9,39.5C105.2,111.2,104.6,111.6,104.2,111.6z M96.2,108.9h7.3l25-36.8H71.2
		L96.2,108.9z"/>
</g>
</svg>
