<?xml version="1.0" encoding="utf-8"?>
<!-- Generator: Adobe Illustrator 24.1.2, SVG Export Plug-In . SVG Version: 6.00 Build 0)  -->
<svg version="1.1" id="Слой_1" xmlns="http://www.w3.org/2000/svg" xmlns:xlink="http://www.w3.org/1999/xlink" x="0px" y="0px"
	 viewBox="0 0 200 200" style="enable-background:new 0 0 200 200;" xml:space="preserve">
<style type="text/css">
	.st0{fill-rule:evenodd;clip-rule:evenodd;fill:#29A1DC;}
	.st1{clip-path:url(#SVGID_2_);}
	.st2{fill-rule:evenodd;clip-rule:evenodd;fill:#1C475C;}
	.st3{fill-rule:evenodd;clip-rule:evenodd;fill:#153544;}
	.st4{fill-rule:evenodd;clip-rule:evenodd;fill:#FFFFFF;}
	.st5{fill-rule:evenodd;clip-rule:evenodd;fill:#E1E6E8;}
	.st6{fill:none;}
</style>
<path class="st0" d="M99.6,36.6c35.6,0,64.4,28.8,64.4,64.4s-28.8,64.4-64.4,64.4S35.2,136.6,35.2,101S64,36.6,99.6,36.6z"/>
<g>
	<g>
		<defs>
			<circle id="SVGID_1_" cx="99.6" cy="101" r="64.4"/>
		</defs>
		<clipPath id="SVGID_2_">
			<use xlink:href="#SVGID_1_"  style="overflow:visible;"/>
		</clipPath>
		<g class="st1">
			<path class="st2" d="M75,87.8c3.8,0.7,7.5,1.9,10.9,3.5l6.8-6.7l5.6,4.1l5.6,4.1l-4.2,8.6c2.6,2.8,4.9,5.9,6.7,9.2l9.5-1.4
				l2.1,6.6l2.1,6.6l-8.5,4.4c0.2,1.9,0.4,3.8,0.4,5.7c0,1.9-0.1,3.8-0.4,5.7l8.5,4.4l-2.1,6.6l-2.1,6.6l-9.5-1.4
				c-1.8,3.4-4.1,6.5-6.7,9.2l4.2,8.6l-5.6,4.1l-5.6,4.1l-6.8-6.7c-3.4,1.6-7.1,2.8-10.9,3.5l-1.6,9.4h-6.9h-6.9l-1.6-9.4
				c-3.8-0.7-7.5-1.9-10.9-3.5l-6.8,6.7l-5.6-4.1l-5.6-4.1l4.2-8.6c-2.6-2.8-4.9-5.9-6.7-9.2l-9.5,1.4l-2.1-6.6l-2.1-6.6l8.5-4.4
				c-0.2-1.9-0.4-3.8-0.4-5.7s0.1-3.8,0.4-5.7l-8.5-4.4l2.1-6.6l2.1-6.6l9.5,1.4c1.8-3.4,4.1-6.5,6.7-9.2l-4.2-8.6l5.6-4.1l5.6-4.1
				l6.8,6.7c3.4-1.6,7.1-2.8,10.9-3.5l1.6-9.4h6.9h6.9L75,87.8z M66.5,105.6c14.9,0,27,12.1,27,27c0,14.9-12.1,27-27,27
				s-27-12.1-27-27C39.5,117.7,51.6,105.6,66.5,105.6z"/>
			<path class="st3" d="M66.5,99.2c18.4,0,33.4,14.9,33.4,33.4C99.9,151,85,166,66.5,166s-33.4-15-33.4-33.4
				C33.1,114.1,48,99.2,66.5,99.2z M66.5,105.6c14.9,0,27,12.1,27,27c0,14.9-12.1,27-27,27s-27-12.1-27-27
				C39.5,117.7,51.6,105.6,66.5,105.6z"/>
			<path class="st4" d="M135.1,58.3c1.6,0.3,3.2,0.8,4.6,1.5l2.9-2.8l2.4,1.7l2.4,1.7l-1.8,3.7c1.1,1.2,2.1,2.5,2.9,3.9l4-0.6
				l0.9,2.8l0.9,2.8l-3.6,1.9c0.1,0.8,0.2,1.6,0.2,2.4s-0.1,1.6-0.2,2.4l3.6,1.9l-0.9,2.8l-0.9,2.8l-4-0.6c-0.8,1.4-1.8,2.8-2.9,3.9
				l1.8,3.7l-2.4,1.7l-2.4,1.7l-2.9-2.8c-1.5,0.7-3,1.2-4.6,1.5l-0.7,4h-3h-3l-0.7-4c-1.6-0.3-3.2-0.8-4.6-1.5l-2.9,2.8l-2.4-1.7
				l-2.4-1.7l1.8-3.7c-1.1-1.2-2.1-2.5-2.9-3.9l-4,0.6l-0.9-2.8l-0.9-2.8l3.6-1.9c-0.1-0.8-0.2-1.6-0.2-2.4s0.1-1.6,0.2-2.4
				l-3.6-1.9l0.9-2.8l0.9-2.8l4,0.6c0.8-1.4,1.8-2.8,2.9-3.9l-1.8-3.7l2.4-1.7l2.4-1.7l2.9,2.8c1.5-0.7,3-1.2,4.6-1.5l0.7-4h3h3
				L135.1,58.3z M131.5,69.3c4.5,0,8.1,3.6,8.1,8.1s-3.6,8.1-8.1,8.1s-8.1-3.6-8.1-8.1S127,69.3,131.5,69.3z"/>
			<path class="st5" d="M131.5,65.1c6.8,0,12.3,5.5,12.3,12.3s-5.5,12.3-12.3,12.3s-12.3-5.5-12.3-12.3S124.7,65.1,131.5,65.1z
				 M131.5,69.3c4.5,0,8.1,3.6,8.1,8.1s-3.6,8.1-8.1,8.1s-8.1-3.6-8.1-8.1S127,69.3,131.5,69.3z"/>
		</g>
	</g>
</g>
<path class="st6" d="M99.6,36.6c35.6,0,64.4,28.8,64.4,64.4s-28.8,64.4-64.4,64.4S35.2,136.6,35.2,101S64,36.6,99.6,36.6z"/>
</svg>
