<?xml version="1.0" encoding="utf-8"?>
<!-- Generator: Adobe Illustrator 24.1.2, SVG Export Plug-In . SVG Version: 6.00 Build 0)  -->
<svg version="1.1" id="Слой_1" xmlns="http://www.w3.org/2000/svg" xmlns:xlink="http://www.w3.org/1999/xlink" x="0px" y="0px"
	 viewBox="0 0 200 200" style="enable-background:new 0 0 200 200;" xml:space="preserve">
<style type="text/css">
	.st0{fill:none;stroke:#D7DCDF;stroke-miterlimit:10;}
</style>
<path class="st0" d="M129.8,47.5L98.5,78.9l0,0l0,0l-6.8,6.7c-1.9,2-4.6,3.1-7.5,3.1s-5.4-1.1-7.5-3.1L70,78.9L38.9,47.5H129.8z"/>
<path class="st0" d="M129.8,47.5L98.5,78.9l0,0l0,0l-6.8,6.7c-1.9,2-4.6,3.1-7.5,3.1s-5.4-1.1-7.5-3.1L70,78.9L38.9,47.5h6.8
	L70.1,72l6.8,6.7c1.9,2,4.6,3.1,7.5,3.1s5.4-1.1,7.5-3.1l6.8-6.7l0,0l0,0l24.4-24.5H129.8z"/>
<polygon class="st0" points="67,80 36.8,109.1 36.8,49.7 "/>
<polygon class="st0" points="131.8,49.7 131.8,109.1 101.7,80 "/>
<polygon class="st0" points="131.8,49.7 131.8,109.1 127.7,105.1 127.7,53.8 "/>
<path class="st0" d="M129.6,111.1H38.9L69,82l5.7,5.7c2.5,2.6,5.9,4,9.7,4c3.6,0,7.1-1.4,9.5-4l5.7-5.7L129.6,111.1z"/>
<polygon class="st0" points="129.6,111.1 38.9,111.1 42.9,107.4 125.6,107.4 "/>
<path class="st0" d="M155,155.6H77.1c-3.8,0-6.8-3.1-6.8-6.7v-48.7c0-3.8,3-6.7,6.8-6.7h78c3.8,0,6.8,3.1,6.8,6.7v48.5
	C161.8,152.6,158.8,155.6,155,155.6z"/>
<path class="st0" d="M161.8,103.7v-2.9c0-4.1-3-7.3-6.8-7.3H77.1c-3.8,0-6.8,3.2-6.8,7.3v2.9H161.8z"/>
<path class="st0" d="M70.1,103.7h91.5V146H70.1V103.7z"/>
<path class="st0" d="M145.6,130.4h-10.1c-3.2,0-5.9-2.6-5.9-5.7v-12.6c0-3.1,2.7-5.7,5.9-5.7h10.1c3.2,0,5.9,2.6,5.9,5.7v12.6
	C151.3,127.8,148.9,130.4,145.6,130.4z"/>
<path class="st0" d="M107.1,124.4H77.9c-1,0-1.4-0.8-1.4-1.4c0-0.9,0.8-1.4,1.4-1.4h29c1,0,1.4,0.8,1.4,1.4
	C108.5,123.8,107.9,124.4,107.1,124.4z M107.1,131H77.9c-1,0-1.4-0.8-1.4-1.4c0-0.9,0.8-1.4,1.4-1.4h29c1,0,1.4,0.8,1.4,1.4
	C108.5,130.4,107.9,131,107.1,131z M91.5,137.7H78.1c-1,0-1.4-0.8-1.4-1.4c0-0.9,0.8-1.4,1.4-1.4h13.5c1,0,1.4,0.8,1.4,1.4
	S92.3,137.7,91.5,137.7z"/>
</svg>
