<?xml version="1.0" encoding="utf-8"?>
<!-- Generator: Adobe Illustrator 24.1.2, SVG Export Plug-In . SVG Version: 6.00 Build 0)  -->
<svg version="1.1" id="Слой_1" xmlns="http://www.w3.org/2000/svg" xmlns:xlink="http://www.w3.org/1999/xlink" x="0px" y="0px"
	 viewBox="0 0 200 200" style="enable-background:new 0 0 200 200;" xml:space="preserve">
<style type="text/css">
	.st0{fill:#2B90C1;}
	.st1{fill:#D6E7F0;}
	.st2{opacity:0.15;enable-background:new    ;}
	.st3{fill:#29A1DC;}
	.st4{fill:#85A1AA;}
	.st5{fill:#FFFFFF;stroke:#FFFFFF;stroke-miterlimit:10;}
</style>
<g>
	<path class="st0" d="M157.1,127.3c-0.3-0.8-1-1.3-1.8-1.3h-23.5c-1.1,0-2,0.9-2,2v19.6c0,1.1,0.9,2,2,2c0.5,0,0.9-0.2,1.3-0.5
		l23.5-19.6C157.1,128.9,157.4,128,157.1,127.3z"/>
</g>
<g>
	<path class="st1" d="M82.8,86.8V126h49c1.1,0,2,0.9,2,2v29.4c0,1.1-0.9,2-2,2H45.6c-1.1,0-2-0.9-2-2V71.1c0-0.5,0.2-1,0.6-1.4
		l27.4-27.4c0.4-0.4,0.9-0.6,1.4-0.6h58.8c1.1,0,2,0.9,2,2v41.1c0,1.1-0.9,2-2,2H82.8z"/>
</g>
<g class="st2">
	<path d="M133.7,127.9v9.8H73c-1.1,0-2-0.9-2-2V92.7c0-1.1,0.9-2,2-2h7.8v37.2H133.7z"/>
</g>
<g>
	<path class="st3" d="M80.8,82.9h74.4c1.1,0,2,0.9,2,2v43.1c0,1.1-0.9,2-2,2H80.8c-1.1,0-2-0.9-2-2V84.8
		C78.9,83.7,79.8,82.9,80.8,82.9z"/>
</g>
<g>
	<path class="st4" d="M75,41.7v29.4c0,1.1-0.9,2-2,2H43.6v-2c0-0.5,0.2-1,0.6-1.4l27.4-27.4c0.4-0.4,0.9-0.6,1.4-0.6H75z"/>
</g>
<g>
	<path class="st5" d="M101.2,98.6h2.2v15.6h-2.2V98.6z M102.4,106.1h5c0.5,0,0.9-0.1,1.2-0.3c0.4-0.2,0.6-0.5,0.8-0.9
		c0.2-0.4,0.3-0.9,0.3-1.4c0-0.5-0.1-1-0.3-1.4c-0.2-0.4-0.5-0.7-0.8-1s-0.8-0.3-1.2-0.3h-5v-2.1h4.9c0.9,0,1.8,0.2,2.5,0.6
		s1.3,1,1.6,1.7c0.4,0.7,0.6,1.6,0.6,2.5c0,1-0.2,1.8-0.6,2.5c-0.4,0.7-0.9,1.3-1.6,1.7s-1.5,0.6-2.5,0.6h-4.9V106.1z"/>
	<path class="st5" d="M114.7,98.6h2.2v15.6h-2.2V98.6z M116.2,112.1h3.5c1.2,0,2-0.3,2.7-0.9c0.6-0.6,1-1.4,1-2.5v-4.6
		c0-1.1-0.3-1.9-1-2.5c-0.6-0.6-1.5-0.9-2.7-0.9h-3.5v-2.1h3.5c1.3,0,2.3,0.2,3.2,0.7c0.9,0.4,1.6,1.1,2,1.9s0.7,1.8,0.7,3v4.4
		c0,1.2-0.2,2.2-0.7,3s-1.1,1.5-2,1.9c-0.9,0.4-2,0.7-3.2,0.7h-3.5V112.1z"/>
	<path class="st5" d="M129,98.6h2.2v15.6H129V98.6z M130,98.6h8.8v2.1H130V98.6z M130,105.6h7.6v2.1H130V105.6z"/>
</g>
</svg>
