<?xml version="1.0" encoding="utf-8"?>
<!-- Generator: Adobe Illustrator 24.1.2, SVG Export Plug-In . SVG Version: 6.00 Build 0)  -->
<svg version="1.1" id="Слой_1" xmlns="http://www.w3.org/2000/svg" xmlns:xlink="http://www.w3.org/1999/xlink" x="0px" y="0px"
	 viewBox="0 0 200 200" style="enable-background:new 0 0 200 200;" xml:space="preserve">
<style type="text/css">
	.st0{fill:none;stroke:#3D4856;stroke-miterlimit:10;}
	.st1{fill:#333333;}
</style>
<path id="XMLID_2491_" class="st0" d="M148.2,99.2h-21.3c-1.9,0-3.2,1.3-3.2,3.2v45.4c0,1.9,1.3,3.2,3.2,3.2h21.3
	c1.9,0,3.2-1.3,3.2-3.2v-45.4C151.4,100.4,150,99.2,148.2,99.2z"/>
<path id="XMLID_2444_" class="st0" d="M130.3,58.9H63.7c-3.2,0-5.9,2.7-5.9,5.9v88.8c0,3.2,2.7,5.9,5.9,5.9h66.4
	c3.2,0,5.9-2.7,5.9-5.9V64.8C136.2,61.6,133.6,58.9,130.3,58.9z"/>
<path id="XMLID_2443_" class="st0" d="M124.2,54.1H70.1c-2.9,0-5.4,2.4-5.4,5.4V159c0,2.9,2.4,5.4,5.4,5.4h54.1
	c2.9,0,5.4-2.4,5.4-5.4V59.4C129.3,56.5,126.9,54.1,124.2,54.1z"/>
<path id="XMLID_2442_" class="st0" d="M114.4,113.8H79.7c-2.4,0-4.3,1.9-4.3,4.3v46.1h43.4v-46.1
	C118.7,115.7,116.7,113.8,114.4,113.8z"/>
<path id="XMLID_2441_" class="st0" d="M76.8,107.9h40.3c2.9,0,5.1-2.4,5.1-5.1V54.1H71.7V103C71.7,105.5,74.1,107.9,76.8,107.9z"/>
<path id="XMLID_2440_" class="st0" d="M77.3,74.8h39.5v26.7H77.3V74.8z"/>
<g id="XMLID_2426_">
	<path id="XMLID_2439_" class="st0" d="M88.4,120h-3.7c-0.8,0-1.3,0.5-1.3,1.3v3.7c0,0.8,0.5,1.3,1.3,1.3h3.7c0.8,0,1.3-0.5,1.3-1.3
		v-3.7C89.8,120.5,89.2,120,88.4,120z"/>
	<path id="XMLID_2438_" class="st0" d="M98.9,120h-3.7c-0.8,0-1.3,0.5-1.3,1.3v3.7c0,0.8,0.5,1.3,1.3,1.3h3.7c0.8,0,1.3-0.5,1.3-1.3
		v-3.7C100.2,120.5,99.7,120,98.9,120z"/>
	<path id="XMLID_2437_" class="st0" d="M109.3,120h-3.7c-0.8,0-1.3,0.5-1.3,1.3v3.7c0,0.8,0.5,1.3,1.3,1.3h3.7
		c0.8,0,1.3-0.5,1.3-1.3v-3.7C110.5,120.5,110.1,120,109.3,120z"/>
	<path id="XMLID_2436_" class="st0" d="M88.4,130.7h-3.7c-0.8,0-1.3,0.5-1.3,1.3v3.7c0,0.8,0.5,1.3,1.3,1.3h3.7
		c0.8,0,1.3-0.5,1.3-1.3V132C89.8,131.2,89.2,130.7,88.4,130.7z"/>
	<path id="XMLID_2435_" class="st0" d="M98.9,130.7h-3.7c-0.8,0-1.3,0.5-1.3,1.3v3.7c0,0.8,0.5,1.3,1.3,1.3h3.7
		c0.8,0,1.3-0.5,1.3-1.3V132C100.2,131.2,99.7,130.7,98.9,130.7z"/>
	<path id="XMLID_2434_" class="st0" d="M109.3,130.7h-3.7c-0.8,0-1.3,0.5-1.3,1.3v3.7c0,0.8,0.5,1.3,1.3,1.3h3.7
		c0.8,0,1.3-0.5,1.3-1.3V132C110.5,131.2,110.1,130.7,109.3,130.7z"/>
	<path id="XMLID_2433_" class="st0" d="M88.4,141.3h-3.7c-0.8,0-1.3,0.5-1.3,1.3v3.7c0,0.8,0.5,1.3,1.3,1.3h3.7
		c0.8,0,1.3-0.5,1.3-1.3v-3.7C89.8,141.8,89.2,141.3,88.4,141.3z"/>
	<path id="XMLID_2432_" class="st0" d="M98.9,141.3h-3.7c-0.8,0-1.3,0.5-1.3,1.3v3.7c0,0.8,0.5,1.3,1.3,1.3h3.7
		c0.8,0,1.3-0.5,1.3-1.3v-3.7C100.2,141.8,99.7,141.3,98.9,141.3z"/>
	<path id="XMLID_2431_" class="st0" d="M109.3,141.3h-3.7c-0.8,0-1.3,0.5-1.3,1.3v3.7c0,0.8,0.5,1.3,1.3,1.3h3.7
		c0.8,0,1.3-0.5,1.3-1.3v-3.7C110.5,141.8,110.1,141.3,109.3,141.3z"/>
	<path id="XMLID_2430_" class="st0" d="M88.4,151.7h-3.7c-0.8,0-1.3,0.5-1.3,1.3v3.7c0,0.8,0.5,1.3,1.3,1.3h3.7
		c0.8,0,1.3-0.5,1.3-1.3V153C89.8,152.5,89.2,151.7,88.4,151.7z"/>
	<path id="XMLID_2429_" class="st0" d="M98.9,151.7h-3.7c-0.8,0-1.3,0.5-1.3,1.3v3.7c0,0.8,0.5,1.3,1.3,1.3h3.7
		c0.8,0,1.3-0.5,1.3-1.3V153C100.2,152.5,99.7,151.7,98.9,151.7z"/>
	<path id="XMLID_2427_" class="st0" d="M109.3,151.7h-3.7c-0.8,0-1.3,0.5-1.3,1.3v3.7c0,0.8,0.5,1.3,1.3,1.3h3.7
		c0.8,0,1.3-0.5,1.3-1.3V153C110.5,152.5,110.1,151.7,109.3,151.7z"/>
</g>
<path id="XMLID_2425_" class="st1" d="M115.1,64.5H78.9c-0.8,0-1.6,0.8-1.6,1.6s0.8,1.6,1.6,1.6h36.3c0.8,0,1.6-0.8,1.6-1.6
	S115.9,64.5,115.1,64.5z"/>
<path id="XMLID_2424_" class="st0" d="M111.6,37.1L110,39l-2.1-2.1c-0.5-0.5-1.6-0.5-2.1,0l-2.1,2.1l-2.1-2.1
	c-0.5-0.5-1.6-0.5-2.1,0L97.3,39l-2.1-2.1c-0.5-0.5-1.6-0.5-2.1,0l-2,2.1L89,36.9c-0.5-0.5-1.6-0.5-2.1,0L84.6,39L83,37.4
	c-0.5-0.5-1.3-0.3-1.3,0.5v28.5H114V37.9C113.1,37.1,112.3,36.8,111.6,37.1z"/>
<path id="XMLID_2422_" class="st0" d="M85.2,43.9h23.2v2.7H85.2V43.9z"/>
<path id="XMLID_2402_" class="st0" d="M85.2,51.4h23.2v2.7H85.2V51.4z"/>
<path id="XMLID_2400_" class="st0" d="M85.2,58.9h23.2v2.7H85.2V58.9z"/>
<circle class="st0" cx="142" cy="143.1" r="4.5"/>
<circle class="st0" cx="142" cy="137.2" r="4.5"/>
</svg>
