<?xml version="1.0" encoding="utf-8"?>
<!-- Generator: Adobe Illustrator 24.1.2, SVG Export Plug-In . SVG Version: 6.00 Build 0)  -->
<svg version="1.1" id="Слой_1" xmlns="http://www.w3.org/2000/svg" xmlns:xlink="http://www.w3.org/1999/xlink" x="0px" y="0px"
	 viewBox="0 0 200 200" style="enable-background:new 0 0 200 200;" xml:space="preserve">
<style type="text/css">
	.st0{fill:#7DB0C9;}
	.st1{fill:#4A7F99;}
	.st2{fill:#99D0EB;}
	.st3{fill:#7197A5;}
	.st4{fill:#96BFCE;}
	.st5{fill:#4A8499;}
	.st6{fill:#014862;}
	.st7{fill:#2A3673;}
	.st8{fill:#ADE9FF;}
	.st9{fill:#E6E6E6;}
	.st10{fill:#29A1DC;}
	.st11{enable-background:new    ;}
	.st12{fill:none;stroke:#ADE9FF;stroke-width:0.25;stroke-miterlimit:10;}
	.st13{fill:#7DB5C9;}
	.st14{fill:#20B8EF;}
	.st15{fill:#185267;}
	.st16{fill:#FFFFFF;}
	.st17{fill:none;stroke:#ADE9FF;stroke-width:0.1;stroke-miterlimit:10;}
	.st18{fill:#3B6F82;}
	.st19{fill:#58BCE0;}
	.st20{fill:#439EBF;}
	.st21{fill:#5CD3FF;}
	.st22{fill:#ABE3FF;}
</style>
<g>
	<path class="st0" d="M50.9,125.2v15.5c0,2.2,2.5,3.9,5.5,3.9h86.2c3,0,5.5-1.8,5.5-3.9v-15.5H50.9z"/>
</g>
<g>
	<path class="st1" d="M138.1,128H60.8c-2.4,0-4.4,1.4-4.4,3.1v7.1c0,1.7,2,3.1,4.4,3.1h77.3c2.4,0,4.4-1.4,4.4-3.1v-7.1
		C142.5,129.4,140.5,128,138.1,128z"/>
</g>
<g>
	<path class="st2" d="M137.3,117.6H61.9l-11,7.6h97.2L137.3,117.6z"/>
</g>
<g>
	<path class="st3" d="M115.3,119c-0.1-0.2-0.8-0.4-1.5-0.4h-1.6c-0.7,0-1.3,0.2-1.2,0.4l0.1,0.5c0.1,0.2,0.7,0.4,1.5,0.4h1.7
		c0.8,0,1.3-0.2,1.2-0.4L115.3,119z M121.7,119.5l-0.4-0.5c-0.2-0.2-0.9-0.4-1.6-0.4h-1.6c-0.7,0-1.2,0.2-1.1,0.4l0.3,0.5
		c0.1,0.2,0.9,0.4,1.6,0.4h1.7C121.4,119.9,121.9,119.7,121.7,119.5z M127.8,119.5l-0.5-0.5c-0.2-0.2-1-0.4-1.7-0.4H124
		c-0.7,0-1.2,0.2-1,0.4l0.4,0.5c0.2,0.2,1,0.4,1.7,0.4h1.7C127.6,119.9,128,119.7,127.8,119.5z M133.9,119.5l-0.6-0.5
		c-0.3-0.2-1.1-0.4-1.8-0.4h-1.6c-0.7,0-1.1,0.2-0.9,0.4l0.5,0.5c0.2,0.2,1.1,0.4,1.8,0.4h1.7C133.9,119.9,134.2,119.7,133.9,119.5z
		 M116.5,121.3l-0.3-0.6c-0.1-0.2-0.8-0.4-1.6-0.4h-1.7c-0.8,0-1.3,0.2-1.3,0.4l0.2,0.6c0.1,0.3,0.8,0.5,1.6,0.5h1.8
		C116,121.7,116.6,121.5,116.5,121.3L116.5,121.3z M123,121.3l-0.4-0.6c-0.2-0.2-1-0.4-1.7-0.4h-1.7c-0.8,0-1.3,0.2-1.2,0.4l0.3,0.6
		c0.1,0.3,0.9,0.5,1.8,0.5h1.8C122.7,121.7,123.2,121.5,123,121.3z M129.6,121.3l-0.6-0.6c-0.3-0.2-1.1-0.4-1.9-0.4h-1.7
		c-0.8,0-1.2,0.2-1,0.4l0.5,0.6c0.2,0.3,1.1,0.5,1.9,0.5h1.8C129.5,121.7,129.9,121.5,129.6,121.3z M136.2,121.3l-0.7-0.6
		c-0.3-0.2-1.2-0.4-2-0.4h-1.7c-0.8,0-1.2,0.2-0.9,0.4l0.6,0.6c0.3,0.3,1.2,0.5,2,0.5h1.8C136.2,121.7,136.6,121.5,136.2,121.3z
		 M117.5,123.4l-0.3-0.7c-0.1-0.3-0.9-0.5-1.8-0.5h-1.9c-0.8,0-1.5,0.2-1.4,0.5l0.2,0.7c0.1,0.3,0.9,0.6,1.8,0.6h2
		C117,123.9,117.6,123.7,117.5,123.4z M124.6,123.4l-0.5-0.7c-0.2-0.3-1.1-0.5-1.9-0.5h-1.9c-0.8,0-1.4,0.2-1.2,0.5l0.4,0.7
		c0.2,0.3,1,0.6,1.9,0.6h2C124.3,123.9,124.9,123.7,124.6,123.4z M131.8,123.4l-0.7-0.7c-0.3-0.3-1.2-0.5-2-0.5h-1.9
		c-0.8,0-1.3,0.2-1.1,0.5l0.6,0.7c0.3,0.3,1.2,0.6,2.1,0.6h2C131.6,123.9,132.1,123.7,131.8,123.4z M138.9,123.4l-0.9-0.7
		c-0.4-0.3-1.3-0.5-2.2-0.5H134c-0.8,0-1.3,0.2-0.9,0.5l0.7,0.7c0.3,0.3,1.4,0.6,2.2,0.6h2C138.9,123.9,139.3,123.7,138.9,123.4z"/>
</g>
<g>
	<path class="st4" d="M115.3,118.5c-0.1-0.2-0.8-0.4-1.5-0.4h-1.6c-0.7,0-1.3,0.2-1.2,0.4l0.1,0.5c0.1,0.2,0.7,0.4,1.5,0.4h1.7
		c0.8,0,1.3-0.2,1.2-0.4L115.3,118.5z M121.7,119l-0.4-0.5c-0.2-0.2-0.9-0.4-1.6-0.4h-1.6c-0.7,0-1.2,0.2-1.1,0.4l0.3,0.5
		c0.1,0.2,0.9,0.4,1.6,0.4h1.7C121.4,119.4,121.8,119.2,121.7,119z M127.8,119l-0.5-0.5c-0.2-0.2-1-0.4-1.7-0.4H124
		c-0.7,0-1.2,0.2-1,0.4l0.4,0.5c0.2,0.2,1,0.4,1.7,0.4h1.7C127.6,119.4,128,119.2,127.8,119z M133.9,119l-0.6-0.5
		c-0.3-0.2-1.1-0.4-1.8-0.4h-1.6c-0.7,0-1.1,0.2-0.9,0.4l0.5,0.5c0.2,0.2,1.1,0.4,1.8,0.4h1.7C133.8,119.4,134.2,119.2,133.9,119z
		 M116.4,120.8l-0.3-0.6c-0.1-0.2-0.8-0.4-1.6-0.4h-1.7c-0.8,0-1.3,0.2-1.3,0.4l0.2,0.6c0.1,0.3,0.8,0.5,1.6,0.5h1.8
		C116,121.3,116.6,121,116.4,120.8L116.4,120.8z M123,120.8l-0.4-0.6c-0.2-0.2-1-0.4-1.7-0.4h-1.7c-0.8,0-1.3,0.2-1.2,0.4l0.3,0.6
		c0.1,0.3,0.9,0.5,1.8,0.5h1.8C122.7,121.3,123.2,121,123,120.8z M129.6,120.8l-0.6-0.6c-0.3-0.2-1.1-0.4-1.9-0.4h-1.7
		c-0.8,0-1.2,0.2-1,0.4l0.5,0.6c0.2,0.3,1.1,0.5,1.9,0.5h1.8C129.4,121.3,129.9,121,129.6,120.8z M136.2,120.8l-0.7-0.6
		c-0.3-0.2-1.2-0.4-2-0.4h-1.7c-0.8,0-1.2,0.2-0.9,0.4l0.6,0.6c0.3,0.3,1.2,0.5,2,0.5h1.8C136.2,121.3,136.6,121,136.2,120.8z
		 M117.4,122.9l-0.3-0.7c-0.1-0.3-0.9-0.5-1.8-0.5h-1.9c-0.8,0-1.5,0.2-1.4,0.5l0.2,0.7c0.1,0.3,0.9,0.6,1.8,0.6h2
		C117,123.5,117.6,123.2,117.4,122.9z M124.6,122.9l-0.5-0.7c-0.2-0.3-1.1-0.5-1.9-0.5h-1.9c-0.8,0-1.4,0.2-1.2,0.5l0.4,0.7
		c0.2,0.3,1,0.6,1.9,0.6h2C124.3,123.5,124.8,123.2,124.6,122.9z M131.8,122.9l-0.7-0.7c-0.3-0.3-1.2-0.5-2.1-0.5h-1.9
		c-0.8,0-1.3,0.2-1.1,0.5l0.6,0.7c0.3,0.3,1.2,0.6,2.1,0.6h2C131.6,123.5,132.1,123.2,131.8,122.9z M138.9,122.9l-0.9-0.7
		c-0.4-0.3-1.3-0.5-2.2-0.5H134c-0.8,0-1.3,0.2-0.9,0.5l0.7,0.7c0.3,0.3,1.4,0.6,2.2,0.6h2C138.9,123.5,139.3,123.2,138.9,122.9z"/>
</g>
<g>
	<path class="st5" d="M64.9,118.6l-1.8,1.4h28.4l0.4-1.4H64.9z"/>
</g>
<g>
	<path class="st4" d="M103,107.9h-3c-3.4,0-6.1,0.9-6.1,2v8.4c0,0.6,1.6,1.2,3.6,1.2h7.9c2,0,3.6-0.5,3.6-1.2v-8.4
		C109.1,108.8,106.3,107.9,103,107.9z"/>
</g>
<g>
	<path class="st6" d="M105.3,107.7h-7.6c-2.1,0-3.8,0.6-3.8,1.2v2c0,0.7,1.7,1.2,3.8,1.2h7.6c2.1,0,3.8-0.6,3.8-1.2v-2
		C109.1,108.3,107.4,107.7,105.3,107.7z"/>
</g>
<g id="XMLID_1_">
	<path class="st7" d="M143.5,80.4h-9c-0.8,0-1.3,0.5-1.3,1.2v16.8c0,0.7,0.5,1.2,1.3,1.2h9c0.8,0,1.3-0.5,1.3-1.2V81.6
		C144.9,80.9,144.3,80.4,143.5,80.4z"/>
</g>
<g>
	<path class="st0" d="M64.2,54.9c-1.4,0-2.4,1.3-2.4,2.8v40.5c0,5.9,2,10.6,4.4,10.6h66.1c2.4,0,4.4-4.8,4.4-10.6V57.7
		c0-1.5-1.1-2.8-2.4-2.8H64.2z"/>
</g>
<g>
	<path class="st4" d="M131.8,56.7H66.6c-1,0-1.9,2.4-1.9,5.4v40.1c0,3,0.8,5.4,1.9,5.4h65.3c1,0,1.9-2.4,1.9-5.4V62.1
		C133.7,59.1,132.9,56.7,131.8,56.7z"/>
</g>
<g>
	<path class="st1" d="M129.9,57.8H68.5c-0.9,0-1.6,2.5-1.6,5.6v36.8c0,3.1,0.7,5.6,1.6,5.6h61.3c0.9,0,1.6-2.5,1.6-5.6V63.5
		C131.5,60.3,130.7,57.8,129.9,57.8z"/>
</g>
<g>
	<path class="st8" d="M72.1,61.2c-1.3,0-1.9,0.5-1.9,1.8v1.8c0,1.3,0.6,1.8,1.9,1.8s1.9-0.5,1.9-1.8V63C74,61.7,73.4,61.2,72.1,61.2
		z M72.8,64.9c0,0.6-0.2,0.8-0.8,0.8s-0.8-0.2-0.8-0.8V63c0-0.7,0.2-0.8,0.8-0.8c0.6,0,0.8,0.1,0.8,0.8V64.9z M76.5,61.2
		c-1.3,0-1.9,0.5-1.9,1.8v1.8c0,1.3,0.6,1.8,1.9,1.8s1.9-0.5,1.9-1.8V63C78.3,61.7,77.8,61.2,76.5,61.2z M77.2,64.9
		c0,0.6-0.2,0.8-0.8,0.8s-0.8-0.2-0.8-0.8V63c0-0.7,0.2-0.8,0.8-0.8c0.6,0,0.8,0.1,0.8,0.8V64.9z"/>
</g>
<g>
	<circle class="st9" cx="140.9" cy="96.3" r="1.9"/>
</g>
<g>
	<circle class="st10" cx="140.9" cy="93.8" r="1.9"/>
</g>
<g>
	<rect x="73.7" y="130.6" class="st3" width="51" height="3.7"/>
</g>
<g>
	<path class="st5" d="M142.6,61.9v13c0,0.2,0.2,0.4,0.3,0.4c0.2,0,0.3-0.2,0.3-0.4v-13c0-0.2-0.2-0.4-0.3-0.4S142.6,61.7,142.6,61.9
		z"/>
</g>
<g>
	<path class="st5" d="M139.1,68.3v9.3c0,0.1,0.1,0.3,0.2,0.3c0.1,0,0.2-0.1,0.2-0.3v-9.3c0-0.1-0.1-0.3-0.2-0.3
		C139.2,68.1,139.1,68.2,139.1,68.3z"/>
</g>
<g>
	<path class="st3" d="M125.5,73.9h-10.3c-0.8,0-1.4-0.6-1.4-1.4V61.6c0-0.8,0.6-1.4,1.4-1.4h10.3c0.8,0,1.4,0.6,1.4,1.4v10.9
		C126.9,73.3,126.3,73.9,125.5,73.9z"/>
</g>
<g>
	<path class="st9" d="M125.2,73.6h-10.3c-0.8,0-1.4-0.6-1.4-1.4v-11c0-0.8,0.6-1.4,1.4-1.4h10.3c0.8,0,1.4,0.6,1.4,1.4v10.9
		C126.6,73,126,73.6,125.2,73.6z"/>
</g>
<g class="st11">
	<path class="st8" d="M81.4,66.7c-0.3,0-0.6-0.1-0.9-0.2s-0.4-0.3-0.6-0.6s-0.2-0.6-0.2-0.9v-0.4h-0.5c-0.1,0-0.1,0-0.1-0.1
		c0,0-0.1-0.1-0.1-0.1c0-0.1,0-0.1,0.1-0.2c0,0,0.1-0.1,0.1-0.1h0.5v-0.8h-0.5c-0.1,0-0.1,0-0.1-0.1c0,0-0.1-0.1-0.1-0.1
		c0-0.1,0-0.1,0.1-0.2c0,0,0.1-0.1,0.1-0.1h0.5v-0.5c0-0.4,0.1-0.7,0.2-1c0.1-0.3,0.3-0.4,0.6-0.5c0.2-0.1,0.5-0.2,0.8-0.2
		c0.3,0,0.6,0.1,0.9,0.2s0.4,0.3,0.6,0.5s0.2,0.4,0.2,0.7c0,0.1,0,0.2-0.1,0.2c0,0-0.1,0.1-0.2,0.1c-0.1,0-0.1,0-0.2,0
		s-0.1-0.1-0.1-0.1c0-0.1,0-0.3-0.1-0.4s-0.1-0.2-0.2-0.3c-0.1-0.1-0.2-0.2-0.4-0.2c-0.1,0-0.3-0.1-0.5-0.1c-0.4,0-0.6,0.1-0.8,0.3
		c-0.2,0.2-0.3,0.5-0.3,0.9V63h1.4c0,0,0.1,0,0.1,0.1c0,0,0.1,0.1,0.1,0.2c0,0.1,0,0.1-0.1,0.1c0,0-0.1,0.1-0.1,0.1h-1.4v0.8h1.4
		c0,0,0.1,0,0.1,0.1c0,0,0.1,0.1,0.1,0.2c0,0.1,0,0.1-0.1,0.1c0,0-0.1,0.1-0.1,0.1h-1.4V65c0,0.2,0,0.3,0.1,0.5s0.1,0.3,0.2,0.4
		c0.1,0.1,0.2,0.2,0.4,0.2c0.1,0.1,0.3,0.1,0.5,0.1c0.2,0,0.4,0,0.6-0.1c0.2-0.1,0.3-0.2,0.4-0.3c0.1-0.1,0.1-0.3,0.1-0.5
		c0-0.1,0-0.1,0.1-0.2s0.1,0,0.2,0c0.1,0,0.2,0,0.2,0.1c0,0,0.1,0.1,0.1,0.2c0,0.3-0.1,0.5-0.2,0.7c-0.1,0.2-0.3,0.4-0.6,0.5
		S81.7,66.7,81.4,66.7z"/>
</g>
<g class="st11">
	<path class="st12" d="M81.4,66.7c-0.3,0-0.6-0.1-0.9-0.2s-0.4-0.3-0.6-0.6s-0.2-0.6-0.2-0.9v-0.4h-0.5c-0.1,0-0.1,0-0.1-0.1
		c0,0-0.1-0.1-0.1-0.1c0-0.1,0-0.1,0.1-0.2c0,0,0.1-0.1,0.1-0.1h0.5v-0.8h-0.5c-0.1,0-0.1,0-0.1-0.1c0,0-0.1-0.1-0.1-0.1
		c0-0.1,0-0.1,0.1-0.2c0,0,0.1-0.1,0.1-0.1h0.5v-0.5c0-0.4,0.1-0.7,0.2-1c0.1-0.3,0.3-0.4,0.6-0.5c0.2-0.1,0.5-0.2,0.8-0.2
		c0.3,0,0.6,0.1,0.9,0.2s0.4,0.3,0.6,0.5s0.2,0.4,0.2,0.7c0,0.1,0,0.2-0.1,0.2c0,0-0.1,0.1-0.2,0.1c-0.1,0-0.1,0-0.2,0
		s-0.1-0.1-0.1-0.1c0-0.1,0-0.3-0.1-0.4s-0.1-0.2-0.2-0.3c-0.1-0.1-0.2-0.2-0.4-0.2c-0.1,0-0.3-0.1-0.5-0.1c-0.4,0-0.6,0.1-0.8,0.3
		c-0.2,0.2-0.3,0.5-0.3,0.9V63h1.4c0,0,0.1,0,0.1,0.1c0,0,0.1,0.1,0.1,0.2c0,0.1,0,0.1-0.1,0.1c0,0-0.1,0.1-0.1,0.1h-1.4v0.8h1.4
		c0,0,0.1,0,0.1,0.1c0,0,0.1,0.1,0.1,0.2c0,0.1,0,0.1-0.1,0.1c0,0-0.1,0.1-0.1,0.1h-1.4V65c0,0.2,0,0.3,0.1,0.5s0.1,0.3,0.2,0.4
		c0.1,0.1,0.2,0.2,0.4,0.2c0.1,0.1,0.3,0.1,0.5,0.1c0.2,0,0.4,0,0.6-0.1c0.2-0.1,0.3-0.2,0.4-0.3c0.1-0.1,0.1-0.3,0.1-0.5
		c0-0.1,0-0.1,0.1-0.2s0.1,0,0.2,0c0.1,0,0.2,0,0.2,0.1c0,0,0.1,0.1,0.1,0.2c0,0.3-0.1,0.5-0.2,0.7c-0.1,0.2-0.3,0.4-0.6,0.5
		S81.7,66.7,81.4,66.7z"/>
</g>
<g>
	<path class="st3" d="M110,73.9H99.7c-0.8,0-1.4-0.6-1.4-1.4V61.6c0-0.8,0.6-1.4,1.4-1.4H110c0.8,0,1.4,0.6,1.4,1.4v10.9
		C111.5,73.3,110.8,73.9,110,73.9z"/>
</g>
<g>
	<path class="st9" d="M109.8,73.6H99.4c-0.8,0-1.4-0.6-1.4-1.4v-11c0-0.8,0.6-1.4,1.4-1.4h10.3c0.8,0,1.4,0.6,1.4,1.4v10.9
		C111.2,73,110.5,73.6,109.8,73.6z"/>
</g>
<g>
	<path class="st3" d="M125.7,90.8h-10.3c-0.8,0-1.4-0.6-1.4-1.4v-11c0-0.8,0.6-1.4,1.4-1.4h10.3c0.8,0,1.4,0.6,1.4,1.4v10.9
		C127.1,90.1,126.4,90.8,125.7,90.8z"/>
</g>
<g>
	<path class="st9" d="M125.4,90.4H115c-0.8,0-1.4-0.6-1.4-1.4V78.1c0-0.8,0.6-1.4,1.4-1.4h10.3c0.8,0,1.4,0.6,1.4,1.4V89
		C126.8,89.8,126.2,90.4,125.4,90.4z"/>
</g>
<g>
	<path class="st2" d="M122.5,85.3l-2.4,2.2c-0.2,0.2-0.6,0-0.5-0.3c0-0.6,0-1.4-0.2-1.8l3-1.6l0.2,1.1
		C122.6,85.1,122.6,85.2,122.5,85.3z M118.1,81l-2.2,2.4c-0.2,0.2,0,0.6,0.3,0.5c0.6,0,1.4,0,1.8,0.2l1.6-3l-1.1-0.2
		C118.3,80.8,118.2,80.9,118.1,81z"/>
</g>
<g>
	<path class="st13" d="M119.2,85.5c0.2,0.2,0.4,0.2,0.6,0.2c1.1-0.2,2-0.7,2.8-1.5c1.1-1.1,1.7-2.6,1.6-4.5c0-0.2-0.2-0.4-0.4-0.4
		c-3-0.2-5.4,1.6-5.9,4.3c0,0.2,0,0.4,0.2,0.6L119.2,85.5z"/>
</g>
<g>
	<path class="st5" d="M122.5,84.2c-0.7,0.7-1.7,1.2-2.8,1.5c-0.2,0-0.4,0-0.6-0.2l-0.6-0.6l5.4-5.4c0.1,0.1,0.1,0.2,0.1,0.3
		C124.2,81.6,123.6,83.1,122.5,84.2z"/>
</g>
<g>
	<path class="st14" d="M123.9,81.4c0.1-0.5,0.1-1,0.1-1.5c0-0.2-0.2-0.4-0.4-0.4c-0.5,0-1,0-1.5,0.1L123.9,81.4z"/>
</g>
<g>
	<circle class="st15" cx="121.2" cy="82.2" r="1.3"/>
</g>
<g>
	<circle class="st16" cx="121.2" cy="82.2" r="0.7"/>
</g>
<g>
	<path class="st8" d="M115.9,85.7c0.3-1.2,1.8-1.7,2.7-0.8c0.6,0.6,0.6,1.6,0,2.2c-0.7,0.7-1.2,0.2-1.7,1.1c0,0-0.2-0.4-0.2-0.7
		c0,0-0.7,1.3-1.8,0.7c0,0,0.7-0.4,0.9-1.3C115.7,86.1,115.9,85.7,115.9,85.7z"/>
</g>
<g>
	<path class="st5" d="M117.3,84.9c0.4-0.4,0.9-0.4,1.3,0c0.3,0.3,0.3,0.9,0,1.3c-0.4,0.4-0.7,0.1-1,0.6c0,0-0.1-0.2-0.1-0.4
		c0,0-0.4,0.7-1,0.4c0,0,0.4-0.2,0.5-0.8C117,85.7,117.1,85.1,117.3,84.9z"/>
</g>
<g>
	<path class="st2" d="M119.6,84.4c-0.1,0.1-1.1,0.8-1.7,1.2c-0.1,0.1-0.2,0-0.1-0.1c0.4-0.6,1.1-1.6,1.2-1.7c0.2-0.2,0.4-0.2,0.6,0
		C119.7,84,119.7,84.2,119.6,84.4z"/>
</g>
<g>
	<circle class="st10" cx="119.9" cy="66.7" r="4"/>
</g>
<g>
	<path class="st16" d="M120.5,67.9L120.5,67.9c-0.1,0.2-0.3,0.3-0.4,0.4c-0.3,0.1-0.6,0.2-0.9,0.2s-0.6-0.1-0.9-0.2
		c-0.3-0.2-0.5-0.4-0.7-0.6c-0.2-0.3-0.3-0.5-0.3-0.8s0-0.6,0.2-0.9c0.1-0.1,0.1-0.3,0.2-0.4s0.2-0.2,0.3-0.3
		c0.2-0.2,0.5-0.3,0.8-0.3c-0.3,0.1-0.5,0.2-0.7,0.4c-0.1,0.1-0.2,0.2-0.3,0.3c-0.1,0.1-0.1,0.2-0.2,0.4c-0.1,0.3-0.1,0.5-0.1,0.8
		s0.1,0.5,0.3,0.7c0.2,0.2,0.4,0.4,0.6,0.5s0.5,0.2,0.7,0.1c0.3,0,0.5-0.1,0.7-0.2c0.1-0.1,0.2-0.1,0.2-0.2l0,0L120.5,67.9z"/>
</g>
<g>
	<path class="st16" d="M121.3,68.6L121.3,68.6C121.3,68.7,121.3,68.7,121.3,68.6c-0.1,0.2-0.3,0.3-0.4,0.4s-0.3,0.2-0.4,0.2
		c-0.1,0.1-0.3,0.1-0.4,0.2c-0.6,0.2-1.2,0.1-1.8-0.1c-0.6-0.2-1-0.6-1.4-1.1c-0.3-0.5-0.5-1.1-0.5-1.6c0-0.6,0.2-1.1,0.6-1.6
		c0.3-0.4,0.8-0.8,1.4-0.9c0.5-0.2,1.1-0.1,1.6,0c0.3,0.1,0.5,0.2,0.7,0.4c0.2,0.2,0.4,0.4,0.6,0.6c-0.2-0.2-0.4-0.4-0.6-0.5
		s-0.5-0.3-0.7-0.3c-0.5-0.1-1.1-0.1-1.5,0c-0.5,0.2-0.9,0.5-1.2,0.9c-0.3,0.4-0.4,0.9-0.4,1.4s0.2,1,0.5,1.4s0.7,0.7,1.2,0.8
		c0.5,0.1,1,0.1,1.4,0s0.7-0.3,0.9-0.6c0,0,0,0,0.1,0l0.1,0.1C120.9,68.2,121.2,68.5,121.3,68.6z"/>
</g>
<g>
	<path class="st16" d="M123,65.6l-1.6,1.9l0.1,0.2l0.2,0.4c0,0.1,0,0.1,0,0.2l-0.1,0.1l0,0l0,0l0,0l-0.3-0.4l-0.1-0.1l-0.1-0.1
		c-0.1,0-0.1-0.1-0.2-0.1l0,0l-0.4-0.2h-0.1l0,0l0.1-0.1c0-0.1,0.1-0.1,0.2-0.1l0.6,0.1l0.6-0.8l-1.2-0.5l0,0l0.2-0.2
		c0.1-0.1,0.2-0.1,0.3-0.1l1.3,0.2l0.3-0.4c0.1-0.1,0.2-0.2,0.3-0.2l0.2-0.1c0,0,0,0,0.1,0l0,0l0,0v0.1v0.2
		C123.2,65.4,123.1,65.5,123,65.6z"/>
</g>
<g>
	<g>
		<path class="st16" d="M123.2,67.5l-0.2,0.2l0,0l0,0l-0.8-1l0.6-0.7l0.5,1.1C123.3,67.3,123.3,67.4,123.2,67.5z"/>
	</g>
</g>
<g>
	<path class="st3" d="M124.9,102.4H99.6c-0.9,0-1.6-0.7-1.6-1.6v-4.7c0-0.9,0.7-1.6,1.6-1.6h25.3c0.9,0,1.6,0.7,1.6,1.6v4.7
		C126.5,101.7,125.7,102.4,124.9,102.4z"/>
</g>
<g>
	<path class="st7" d="M124.6,102h-25c-0.9,0-1.6-0.7-1.6-1.6v-4.7c0-0.9,0.7-1.6,1.6-1.6h25c0.9,0,1.6,0.7,1.6,1.6v4.7
		C126.2,101.3,125.5,102,124.6,102z"/>
</g>
<g class="st11">
	<path class="st8" d="M103.7,100c0,0-0.1,0-0.1-0.1s-0.1-0.1-0.1-0.1l-0.9-1.8h-0.8v1.8c0,0.1,0,0.1-0.1,0.1s-0.1,0-0.1,0
		c-0.1,0-0.1,0-0.1,0s-0.1-0.1-0.1-0.1v-4.1c0,0,0-0.1,0-0.1s0.1,0,0.1,0h1.1c0.2,0,0.5,0,0.6,0.1c0.2,0.1,0.4,0.2,0.5,0.4
		s0.2,0.4,0.2,0.7c0,0.2,0,0.5-0.1,0.6s-0.2,0.3-0.3,0.4c-0.1,0.1-0.3,0.1-0.5,0.2l0.9,1.8c0,0,0,0,0,0c0,0,0,0,0,0c0,0,0,0.1,0,0.1
		c0,0-0.1,0.1-0.1,0.1C103.7,100,103.7,100,103.7,100z M101.8,97.7h0.8c0.3,0,0.5-0.1,0.7-0.2s0.2-0.3,0.2-0.7
		c0-0.3-0.1-0.5-0.2-0.6s-0.4-0.2-0.7-0.2h-0.8V97.7z"/>
	<path class="st8" d="M104.7,100c0,0-0.1,0-0.1,0c0,0-0.1-0.1-0.1-0.1v-4.1c0,0,0-0.1,0.1-0.1c0,0,0.1,0,0.1,0h2.1
		c0.1,0,0.1,0,0.1,0.1c0,0,0,0.1,0,0.1c0,0.1,0,0.1,0,0.1c0,0-0.1,0.1-0.1,0.1h-1.9v1.6h0.9c0,0,0.1,0,0.1,0.1c0,0,0,0.1,0,0.1
		c0,0,0,0.1,0,0.1s-0.1,0.1-0.1,0.1h-0.9v1.7h1.9c0,0,0.1,0,0.1,0.1c0,0,0,0.1,0,0.1c0,0,0,0.1,0,0.1c0,0-0.1,0.1-0.1,0.1H104.7z"/>
	<path class="st8" d="M108.7,100c-0.2,0-0.4,0-0.6-0.1c-0.2-0.1-0.3-0.2-0.4-0.4c-0.1-0.2-0.2-0.4-0.2-0.8v-1.9
		c0-0.3,0.1-0.6,0.2-0.7c0.1-0.2,0.3-0.3,0.4-0.4c0.2-0.1,0.4-0.1,0.6-0.1s0.4,0,0.6,0.1c0.2,0.1,0.3,0.2,0.5,0.4
		c0.1,0.2,0.2,0.4,0.2,0.7v1.9c0,0.3-0.1,0.6-0.2,0.8c-0.1,0.2-0.3,0.3-0.5,0.4C109.1,100,108.9,100,108.7,100z M108.7,99.7
		c0.3,0,0.5-0.1,0.6-0.2c0.2-0.1,0.2-0.4,0.2-0.7v-1.9c0-0.3-0.1-0.5-0.2-0.7c-0.2-0.1-0.4-0.2-0.6-0.2s-0.5,0.1-0.6,0.2
		c-0.1,0.1-0.2,0.4-0.2,0.7v1.9c0,0.3,0.1,0.5,0.2,0.7C108.2,99.6,108.4,99.7,108.7,99.7z"/>
	<path class="st8" d="M113.1,100c0,0-0.1,0-0.1-0.1s-0.1-0.1-0.1-0.1L112,98h-0.8v1.8c0,0.1,0,0.1-0.1,0.1s-0.1,0-0.1,0
		c-0.1,0-0.1,0-0.1,0s-0.1-0.1-0.1-0.1v-4.1c0,0,0-0.1,0-0.1s0.1,0,0.1,0h1.1c0.2,0,0.5,0,0.6,0.1c0.2,0.1,0.4,0.2,0.5,0.4
		s0.2,0.4,0.2,0.7c0,0.2,0,0.5-0.1,0.6s-0.2,0.3-0.3,0.4c-0.1,0.1-0.3,0.1-0.5,0.2l0.9,1.8c0,0,0,0,0,0c0,0,0,0,0,0c0,0,0,0.1,0,0.1
		c0,0-0.1,0.1-0.1,0.1C113.2,100,113.1,100,113.1,100z M111.2,97.7h0.8c0.3,0,0.5-0.1,0.7-0.2s0.2-0.3,0.2-0.7
		c0-0.3-0.1-0.5-0.2-0.6S112.3,96,112,96h-0.8V97.7z"/>
	<path class="st8" d="M114.2,100c-0.1,0-0.1,0-0.1,0c0,0-0.1-0.1-0.1-0.1v-4.1c0,0,0-0.1,0.1-0.1c0,0,0.1,0,0.1,0h1.1
		c0.2,0,0.4,0,0.6,0.1c0.2,0.1,0.3,0.2,0.5,0.4c0.1,0.2,0.2,0.4,0.2,0.7v1.8c0,0.3-0.1,0.6-0.2,0.8c-0.1,0.2-0.3,0.3-0.5,0.4
		c-0.2,0.1-0.4,0.1-0.6,0.1H114.2z M114.4,99.6h0.8c0.3,0,0.5-0.1,0.6-0.2c0.2-0.1,0.2-0.4,0.2-0.7v-1.8c0-0.3-0.1-0.5-0.2-0.7
		c-0.2-0.1-0.4-0.2-0.6-0.2h-0.8V99.6z"/>
	<path class="st8" d="M117.5,100c0,0-0.1,0-0.1,0s-0.1-0.1-0.1-0.1v-4.1c0,0,0-0.1,0.1-0.1c0,0,0.1,0,0.1,0h2.1c0.1,0,0.1,0,0.1,0.1
		s0,0.1,0,0.1c0,0.1,0,0.1,0,0.1s-0.1,0.1-0.1,0.1h-1.9v1.6h0.9c0,0,0.1,0,0.1,0.1c0,0,0,0.1,0,0.1c0,0,0,0.1,0,0.1
		c0,0-0.1,0.1-0.1,0.1h-0.9v1.7h1.9c0,0,0.1,0,0.1,0.1c0,0,0,0.1,0,0.1c0,0,0,0.1,0,0.1s-0.1,0.1-0.1,0.1H117.5z"/>
	<path class="st8" d="M122.7,100c0,0-0.1,0-0.1-0.1s-0.1-0.1-0.1-0.1l-0.9-1.8h-0.8v1.8c0,0.1,0,0.1-0.1,0.1s-0.1,0-0.1,0
		c-0.1,0-0.1,0-0.1,0s-0.1-0.1-0.1-0.1v-4.1c0,0,0-0.1,0-0.1c0,0,0.1,0,0.1,0h1.1c0.2,0,0.5,0,0.6,0.1c0.2,0.1,0.4,0.2,0.5,0.4
		c0.1,0.2,0.2,0.4,0.2,0.7c0,0.2,0,0.5-0.1,0.6s-0.2,0.3-0.3,0.4c-0.1,0.1-0.3,0.1-0.5,0.2l0.9,1.8c0,0,0,0,0,0c0,0,0,0,0,0
		c0,0,0,0.1,0,0.1c0,0-0.1,0.1-0.1,0.1C122.8,100,122.7,100,122.7,100z M120.8,97.7h0.8c0.3,0,0.5-0.1,0.7-0.2s0.2-0.3,0.2-0.7
		c0-0.3-0.1-0.5-0.2-0.6s-0.4-0.2-0.7-0.2h-0.8V97.7z"/>
	<path class="st8" d="M123.6,99.6c0,0-0.1,0-0.1-0.1s-0.1-0.1-0.1-0.1c0-0.1,0-0.1,0.1-0.1l1.4-0.9l-1.4-0.9c0,0-0.1-0.1-0.1-0.1
		c0-0.1,0-0.1,0.1-0.1s0.1-0.1,0.1-0.1c0,0,0.1,0,0.1,0l1.6,1.1c0,0,0,0,0.1,0.1c0,0,0,0.1,0,0.1s0,0.1,0,0.1c0,0,0,0.1-0.1,0.1
		L123.6,99.6C123.6,99.6,123.6,99.6,123.6,99.6z"/>
</g>
<g class="st11">
	<path class="st17" d="M103.7,100c0,0-0.1,0-0.1-0.1s-0.1-0.1-0.1-0.1l-0.9-1.8h-0.8v1.8c0,0.1,0,0.1-0.1,0.1s-0.1,0-0.1,0
		c-0.1,0-0.1,0-0.1,0s-0.1-0.1-0.1-0.1v-4.1c0,0,0-0.1,0-0.1s0.1,0,0.1,0h1.1c0.2,0,0.5,0,0.6,0.1c0.2,0.1,0.4,0.2,0.5,0.4
		s0.2,0.4,0.2,0.7c0,0.2,0,0.5-0.1,0.6s-0.2,0.3-0.3,0.4c-0.1,0.1-0.3,0.1-0.5,0.2l0.9,1.8c0,0,0,0,0,0c0,0,0,0,0,0c0,0,0,0.1,0,0.1
		c0,0-0.1,0.1-0.1,0.1C103.7,100,103.7,100,103.7,100z M101.8,97.7h0.8c0.3,0,0.5-0.1,0.7-0.2s0.2-0.3,0.2-0.7
		c0-0.3-0.1-0.5-0.2-0.6s-0.4-0.2-0.7-0.2h-0.8V97.7z"/>
	<path class="st17" d="M104.7,100c0,0-0.1,0-0.1,0c0,0-0.1-0.1-0.1-0.1v-4.1c0,0,0-0.1,0.1-0.1c0,0,0.1,0,0.1,0h2.1
		c0.1,0,0.1,0,0.1,0.1c0,0,0,0.1,0,0.1c0,0.1,0,0.1,0,0.1c0,0-0.1,0.1-0.1,0.1h-1.9v1.6h0.9c0,0,0.1,0,0.1,0.1c0,0,0,0.1,0,0.1
		c0,0,0,0.1,0,0.1s-0.1,0.1-0.1,0.1h-0.9v1.7h1.9c0,0,0.1,0,0.1,0.1c0,0,0,0.1,0,0.1c0,0,0,0.1,0,0.1c0,0-0.1,0.1-0.1,0.1H104.7z"/>
	<path class="st17" d="M108.7,100c-0.2,0-0.4,0-0.6-0.1c-0.2-0.1-0.3-0.2-0.4-0.4c-0.1-0.2-0.2-0.4-0.2-0.8v-1.9
		c0-0.3,0.1-0.6,0.2-0.7c0.1-0.2,0.3-0.3,0.4-0.4c0.2-0.1,0.4-0.1,0.6-0.1s0.4,0,0.6,0.1c0.2,0.1,0.3,0.2,0.5,0.4
		c0.1,0.2,0.2,0.4,0.2,0.7v1.9c0,0.3-0.1,0.6-0.2,0.8c-0.1,0.2-0.3,0.3-0.5,0.4C109.1,100,108.9,100,108.7,100z M108.7,99.7
		c0.3,0,0.5-0.1,0.6-0.2c0.2-0.1,0.2-0.4,0.2-0.7v-1.9c0-0.3-0.1-0.5-0.2-0.7c-0.2-0.1-0.4-0.2-0.6-0.2s-0.5,0.1-0.6,0.2
		c-0.1,0.1-0.2,0.4-0.2,0.7v1.9c0,0.3,0.1,0.5,0.2,0.7C108.2,99.6,108.4,99.7,108.7,99.7z"/>
	<path class="st17" d="M113.1,100c0,0-0.1,0-0.1-0.1s-0.1-0.1-0.1-0.1L112,98h-0.8v1.8c0,0.1,0,0.1-0.1,0.1s-0.1,0-0.1,0
		c-0.1,0-0.1,0-0.1,0s-0.1-0.1-0.1-0.1v-4.1c0,0,0-0.1,0-0.1s0.1,0,0.1,0h1.1c0.2,0,0.5,0,0.6,0.1c0.2,0.1,0.4,0.2,0.5,0.4
		s0.2,0.4,0.2,0.7c0,0.2,0,0.5-0.1,0.6s-0.2,0.3-0.3,0.4c-0.1,0.1-0.3,0.1-0.5,0.2l0.9,1.8c0,0,0,0,0,0c0,0,0,0,0,0c0,0,0,0.1,0,0.1
		c0,0-0.1,0.1-0.1,0.1C113.2,100,113.1,100,113.1,100z M111.2,97.7h0.8c0.3,0,0.5-0.1,0.7-0.2s0.2-0.3,0.2-0.7
		c0-0.3-0.1-0.5-0.2-0.6S112.3,96,112,96h-0.8V97.7z"/>
	<path class="st17" d="M114.2,100c-0.1,0-0.1,0-0.1,0c0,0-0.1-0.1-0.1-0.1v-4.1c0,0,0-0.1,0.1-0.1c0,0,0.1,0,0.1,0h1.1
		c0.2,0,0.4,0,0.6,0.1c0.2,0.1,0.3,0.2,0.5,0.4c0.1,0.2,0.2,0.4,0.2,0.7v1.8c0,0.3-0.1,0.6-0.2,0.8c-0.1,0.2-0.3,0.3-0.5,0.4
		c-0.2,0.1-0.4,0.1-0.6,0.1H114.2z M114.4,99.6h0.8c0.3,0,0.5-0.1,0.6-0.2c0.2-0.1,0.2-0.4,0.2-0.7v-1.8c0-0.3-0.1-0.5-0.2-0.7
		c-0.2-0.1-0.4-0.2-0.6-0.2h-0.8V99.6z"/>
	<path class="st17" d="M117.5,100c0,0-0.1,0-0.1,0s-0.1-0.1-0.1-0.1v-4.1c0,0,0-0.1,0.1-0.1c0,0,0.1,0,0.1,0h2.1
		c0.1,0,0.1,0,0.1,0.1s0,0.1,0,0.1c0,0.1,0,0.1,0,0.1s-0.1,0.1-0.1,0.1h-1.9v1.6h0.9c0,0,0.1,0,0.1,0.1c0,0,0,0.1,0,0.1
		c0,0,0,0.1,0,0.1c0,0-0.1,0.1-0.1,0.1h-0.9v1.7h1.9c0,0,0.1,0,0.1,0.1c0,0,0,0.1,0,0.1c0,0,0,0.1,0,0.1s-0.1,0.1-0.1,0.1H117.5z"/>
	<path class="st17" d="M122.7,100c0,0-0.1,0-0.1-0.1s-0.1-0.1-0.1-0.1l-0.9-1.8h-0.8v1.8c0,0.1,0,0.1-0.1,0.1s-0.1,0-0.1,0
		c-0.1,0-0.1,0-0.1,0s-0.1-0.1-0.1-0.1v-4.1c0,0,0-0.1,0-0.1c0,0,0.1,0,0.1,0h1.1c0.2,0,0.5,0,0.6,0.1c0.2,0.1,0.4,0.2,0.5,0.4
		c0.1,0.2,0.2,0.4,0.2,0.7c0,0.2,0,0.5-0.1,0.6s-0.2,0.3-0.3,0.4c-0.1,0.1-0.3,0.1-0.5,0.2l0.9,1.8c0,0,0,0,0,0c0,0,0,0,0,0
		c0,0,0,0.1,0,0.1c0,0-0.1,0.1-0.1,0.1C122.8,100,122.7,100,122.7,100z M120.8,97.7h0.8c0.3,0,0.5-0.1,0.7-0.2s0.2-0.3,0.2-0.7
		c0-0.3-0.1-0.5-0.2-0.6s-0.4-0.2-0.7-0.2h-0.8V97.7z"/>
	<path class="st17" d="M123.6,99.6c0,0-0.1,0-0.1-0.1s-0.1-0.1-0.1-0.1c0-0.1,0-0.1,0.1-0.1l1.4-0.9l-1.4-0.9c0,0-0.1-0.1-0.1-0.1
		c0-0.1,0-0.1,0.1-0.1s0.1-0.1,0.1-0.1c0,0,0.1,0,0.1,0l1.6,1.1c0,0,0,0,0.1,0.1c0,0,0,0.1,0,0.1s0,0.1,0,0.1c0,0,0,0.1-0.1,0.1
		L123.6,99.6C123.6,99.6,123.6,99.6,123.6,99.6z"/>
</g>
<g>
	<path class="st3" d="M110.2,90.8H99.9c-0.8,0-1.4-0.6-1.4-1.4v-11c0-0.8,0.6-1.4,1.4-1.4h10.3c0.8,0,1.4,0.6,1.4,1.4v10.9
		C111.6,90.1,111,90.8,110.2,90.8z"/>
</g>
<g>
	<path class="st9" d="M109.9,90.4H99.6c-0.8,0-1.4-0.6-1.4-1.4V78.1c0-0.8,0.6-1.4,1.4-1.4h10.3c0.8,0,1.4,0.6,1.4,1.4V89
		C111.3,89.8,110.7,90.4,109.9,90.4z"/>
</g>
<g>
	<circle class="st5" cx="108.9" cy="69.1" r="1.3"/>
</g>
<g>
	<circle class="st8" cx="108.9" cy="69.1" r="0.8"/>
</g>
<g>
	<path class="st18" d="M108.2,69.4c0-0.1-0.1-0.2-0.1-0.3c0-0.4,0.4-0.8,0.8-0.8s0.7,0.3,0.8,0.7c0.1,0,0.2,0,0.3,0
		c0.1,0,0.1-0.1,0.2-0.1c-0.1-0.6-0.6-1.1-1.3-1.1c-0.7,0-1.3,0.6-1.3,1.3c0,0.2,0,0.4,0.1,0.5l0,0C107.9,69.5,108,69.4,108.2,69.4
		L108.2,69.4z"/>
</g>
<g>
	<path class="st13" d="M108.9,68.3c-0.4,0-0.8,0.4-0.8,0.8c0,0.1,0,0.2,0.1,0.3c0.5-0.2,1-0.3,1.5-0.4
		C109.7,68.6,109.3,68.3,108.9,68.3z"/>
</g>
<g>
	<path class="st5" d="M109,69.4c-0.1,0-0.3,0-0.3-0.2l-0.7-2.5c0-0.1,0-0.3,0.2-0.3c0.1,0,0.3,0,0.3,0.2l0.7,2.5
		C109.2,69.2,109.1,69.3,109,69.4z"/>
</g>
<g>
	<path class="st19" d="M110.1,68.7c0.2-0.1,0.4-0.3,0.2-0.6c-0.4-0.6-1.1-0.9-1.8-0.7c-0.7,0.2-1.2,0.8-1.2,1.5
		c0,0.3,0.2,0.4,0.5,0.4C108.4,68.9,109.2,68.7,110.1,68.7z"/>
</g>
<g>
	<path class="st3" d="M107,69.1c0.1-0.5,0.4-1.9,2.2-1.9c0.1,0,0.2-0.1,0.2-0.2v-0.9c0-0.1-0.1-0.2-0.2-0.2
		c-0.2-0.1-0.6-0.4-0.8-0.7l-0.8-1.3c0-0.1-0.1-0.1-0.2-0.1l0,0c-0.1,0-0.2,0.1-0.2,0.2c0,0,0,0,0,0.1c0.2,0.8,0.6,3-0.8,4.6
		c0,0.1-0.1,0.1-0.2,0.1H105c-0.1,0-0.2,0-0.2-0.1c-0.1-0.1-0.3-0.4-0.2-1c0.1-0.6,0.3-1,0.5-1.1c0.1-0.1,0.1-0.2,0.1-0.3
		c0-0.1-0.1-0.1-0.2-0.1h-3.1c-0.1,0-0.1,0-0.2,0.1c-0.3,0.2-1.4,0.9-1.7,2.5c0,0.1,0.1,0.7,0.3,0.7h6.4
		C106.9,69.3,107,69.3,107,69.1z"/>
</g>
<g>
	<path class="st6" d="M107.5,66.9c0.4-1.4,0.1-2.6,0.1-2.6l-0.5-0.4c0,0.1,0,0.1,0,0.2c0.2,0.8,0.6,3-0.8,4.6
		C106.3,68.6,107.1,68.3,107.5,66.9z"/>
</g>
<g>
	<path class="st6" d="M108.2,64.7l-0.6-0.9c0-0.1-0.1-0.1-0.2-0.1l0,0c-0.1,0-0.2,0.1-0.2,0.2c0,0,0,0,0,0.1c0,0.2,0.1,0.4,0.1,0.7
		c0.2,0.1,0.3,0.1,0.5,0.1C107.9,64.8,108.1,64.7,108.2,64.7z"/>
</g>
<g>
	<path class="st3" d="M108.5,63.9c0,0.4-0.2,0.7-0.7,0.7s-1.1-0.3-1.1-0.7c0-0.4,0.6-0.7,1.1-0.7C108.3,63.2,108.5,63.5,108.5,63.9z
		"/>
</g>
<g>
	<path class="st6" d="M101.6,66.2c0,0.1,0.1,0.2,0.3,0.2h3.3v-0.1c0-0.1-0.1-0.2-0.2-0.2h-3.1c-0.1,0-0.1,0-0.2,0.1
		C101.7,66.2,101.6,66.2,101.6,66.2z"/>
</g>
<g>
	<path class="st5" d="M105.3,66.2h-3.6c-0.2,0-0.3-0.1-0.3-0.3v-0.1c0-0.2,0.1-0.3,0.3-0.3h3.6c0.2,0,0.3,0.1,0.3,0.3v0.1
		C105.5,66.1,105.4,66.2,105.3,66.2z"/>
</g>
<g>
	<circle class="st5" cx="102.2" cy="69.1" r="1.3"/>
</g>
<g>
	<circle class="st8" cx="102.2" cy="69.1" r="0.8"/>
</g>
<g>
	<path class="st18" d="M103.4,69.7c0.1-0.2,0.1-0.4,0.1-0.6c0-0.7-0.6-1.3-1.3-1.3c-0.7,0-1.3,0.6-1.3,1.3c0,0.2,0,0.4,0.1,0.6
		C101,69.7,103.4,69.7,103.4,69.7z"/>
</g>
<g>
	<path class="st13" d="M102.8,69.7c0.1-0.2,0.2-0.4,0.2-0.6c0-0.5-0.4-0.8-0.8-0.8s-0.8,0.4-0.8,0.8c0,0.2,0.1,0.4,0.2,0.6H102.8z"
		/>
</g>
<g>
	<path class="st19" d="M103.8,69.4c0.4,0,0.7-0.4,0.5-0.7c-0.3-1-1-1.7-2.1-1.7s-1.7,0.7-2,1.7c-0.1,0.4,0.2,0.7,0.5,0.7H103.8z"/>
</g>
<g>
	<circle class="st5" cx="107" cy="64.2" r="0.3"/>
</g>
<g>
	<path class="st20" d="M103.3,68.9h-2.1c-0.1,0-0.1,0-0.1-0.1s0-0.1,0.1-0.1h2.1C103.3,68.7,103.3,68.8,103.3,68.9L103.3,68.9z
		 M103.3,68.4h-2.1c-0.1,0-0.1,0-0.1-0.1s0-0.1,0.1-0.1h2.1C103.3,68.2,103.3,68.3,103.3,68.4L103.3,68.4z M103.3,68h-2.1
		c-0.1,0-0.1,0-0.1-0.1s0-0.1,0.1-0.1h2.1C103.3,67.8,103.3,67.8,103.3,68C103.3,67.9,103.3,68,103.3,68z"/>
</g>
<g>
	<path class="st21" d="M108.1,63.2v1.3c0.3-0.1,0.4-0.4,0.4-0.7S108.4,63.3,108.1,63.2z"/>
</g>
<g>
	<path class="st5" d="M107.8,64.6c0.1,0,0.2,0,0.2,0v-1.3c-0.1,0-0.2,0-0.2,0V64.6z"/>
</g>
<g>
	<path class="st5" d="M108.1,63.9l0.5-0.4v-0.1l0,0c-0.2,0-0.4-0.1-0.7-0.1C107.8,63.2,108.1,63.9,108.1,63.9z"/>
</g>
<g>
	<path class="st1" d="M100.6,87.8c0.1,0.2,0.3,0.4,0.5,0.4c0.1,0,0.2,0,0.3,0c0.1,0,0.2,0,0.4-0.1c0.2-0.1,0.4-0.3,0.4-0.5
		c0-0.1,0.1-0.3,0-0.4l1.8-1l1.8,0.9c-0.1,0.3,0.1,0.7,0.4,0.9c0.1,0.1,0.3,0.1,0.4,0.1s0.1,0,0.2,0c0.2,0,0.4-0.2,0.5-0.4
		c0.1-0.2,0.1-0.4,0.1-0.6s-0.2-0.4-0.4-0.5c-0.3-0.2-0.7-0.1-1,0.1l-1.5-0.8l1.2-0.6h0.7c0.1,0,0.2-0.1,0.2-0.2l1.6-5.5h1.8
		c0.1,0,0.2-0.1,0.2-0.2s-0.1-0.2-0.2-0.2h-2c-0.1,0-0.2,0.1-0.2,0.2l-1.6,5.5H101c-0.1,0-0.2,0.1-0.2,0.2s0.1,0.2,0.2,0.2h1.3
		l1.2,0.6l-1.5,0.8c-0.2-0.3-0.6-0.3-1-0.2c-0.2,0.1-0.4,0.3-0.4,0.5C100.5,87.4,100.5,87.6,100.6,87.8z M106.2,87.3
		c0.1-0.1,0.2-0.2,0.3-0.2c0.1,0,0.1,0,0.2,0c0.2,0.1,0.2,0.3,0.1,0.5s-0.3,0.2-0.5,0.1C106.2,87.7,106.1,87.5,106.2,87.3z
		 M104,85.9l-0.7-0.4h1.4L104,85.9z M101.2,87.2c0.2-0.1,0.4,0,0.5,0.2s0,0.4-0.2,0.5c-0.1,0-0.2,0-0.3,0s-0.2-0.1-0.2-0.2
		C100.9,87.5,101,87.3,101.2,87.2z"/>
</g>
<g>
	<path class="st2" d="M100.5,82.9l0.5,1.6c0,0.1,0.2,0.2,0.3,0.2h4.3c0.1,0,0.3-0.1,0.3-0.2l0.9-3.1c0-0.2-0.1-0.3-0.2-0.3h-4.5
		c0.1,0.8-0.5,1.6-1.3,1.8C100.7,82.9,100.6,82.9,100.5,82.9z"/>
</g>
<g>
	<path class="st22" d="M100.8,82.9l0.4,1.5c0,0.1,0.3,0.1,0.5,0.1h3.6c0.1,0,0.4,0,0.4-0.1l0.8-2.8c0-0.2-0.1-0.4-0.2-0.4h-4.1
		C102.2,81.9,101.6,82.8,100.8,82.9C100.7,82.9,100.9,82.9,100.8,82.9z"/>
</g>
<g>
	<circle class="st10" cx="88.7" cy="84.4" r="18.5"/>
</g>
<g>
	<path class="st9" d="M87.6,97.9c-0.1,1-0.9,1.7-1.9,1.7s-1.8-0.7-1.9-1.7h-1.7c-0.1,1-0.9,1.7-1.9,1.7s-1.8-0.7-1.9-1.7h-1.7
		c-0.1,1-0.9,1.7-1.9,1.7s-1.8-0.7-1.9-1.7h-1.7c-0.1,1-0.9,1.7-1.9,1.7s-1.8-0.7-1.9-1.7H66V120h23V97.9H87.6z"/>
</g>
<g>
	<path class="st5" d="M86.2,105.3H68.8c-0.3,0-0.5,0.2-0.5,0.5s0.2,0.5,0.5,0.5h17.4c0.3,0,0.5-0.2,0.5-0.5
		C86.7,105.5,86.5,105.3,86.2,105.3z M86.2,108.1H68.8c-0.3,0-0.5,0.2-0.5,0.5s0.2,0.5,0.5,0.5h17.4c0.3,0,0.5-0.2,0.5-0.5
		C86.7,108.3,86.5,108.1,86.2,108.1z M86.2,110.8H68.8c-0.3,0-0.5,0.2-0.5,0.5s0.2,0.5,0.5,0.5h17.4c0.3,0,0.5-0.2,0.5-0.5
		C86.7,111,86.5,110.8,86.2,110.8z M86.2,113.6H68.8c-0.3,0-0.5,0.2-0.5,0.5s0.2,0.5,0.5,0.5h17.4c0.3,0,0.5-0.2,0.5-0.5
		C86.7,113.8,86.5,113.6,86.2,113.6z M86.2,116.4H68.8c-0.3,0-0.5,0.2-0.5,0.5s0.2,0.5,0.5,0.5h17.4c0.3,0,0.5-0.2,0.5-0.5
		S86.5,116.4,86.2,116.4z"/>
</g>
<g>
	<path class="st16" d="M100.5,84.8l1.7-7.3l-2.6,1c-2.2-4.1-6.4-6.7-11-6.7c-6.9,0-12.5,5.6-12.5,12.5s5.6,12.5,12.5,12.5
		c3.5,0,6.8-1.5,9.2-4.1c0.2-0.2,0.4-0.6,0.3-0.9c0-0.3-0.2-0.7-0.4-0.9c-0.2-0.2-0.5-0.3-0.9-0.3s-0.7,0.2-0.9,0.4
		c-1.9,2.1-4.5,3.2-7.3,3.2c-5.4,0-9.9-4.5-9.9-9.9s4.5-9.9,9.9-9.9c3.6,0,6.9,2,8.7,5.1l-2.7,1.3L100.5,84.8z"/>
</g>
</svg>
