<?xml version="1.0" encoding="utf-8"?>
<!-- Generator: Adobe Illustrator 24.1.2, SVG Export Plug-In . SVG Version: 6.00 Build 0)  -->
<svg version="1.1" id="Слой_1" xmlns="http://www.w3.org/2000/svg" xmlns:xlink="http://www.w3.org/1999/xlink" x="0px" y="0px"
	 viewBox="0 0 200 200" style="enable-background:new 0 0 200 200;" xml:space="preserve">
<style type="text/css">
	.st0{fill-rule:evenodd;clip-rule:evenodd;fill:none;stroke:#D7DCDF;stroke-miterlimit:10;}
</style>
<path class="st0" d="M89.2,150.5l2.3-9.8c0.1-0.7,0.7-1.1,1.2-1.2c2-0.5,3.8-1.1,5.3-1.9v-0.1c0-1.6,0.2-3.3,0.5-4.8
	c-3.3,2.2-7.3,3.5-11.6,3.5c-11.6,0-21.1-9.4-21.1-21c0-11.5,9.4-21.1,21.1-21.1c11.6,0,21,9.4,21,21.1c0,1.2-0.1,2.4-0.3,3.5
	c3.8-2.8,8.5-4.4,13.6-4.4c1.3,0,2.6,0.1,3.8,0.3v-1.8l-11.9-2.7c-0.7-0.1-1.1-0.7-1.2-1.2c-0.5-2.3-1.3-4.4-2.5-6.4
	c-0.3-0.6-0.3-1.1,0-1.7l5.5-9.1l-4-4c-0.1,0-0.2-0.1-0.3-0.1l-8.5,5.4c-0.6,0.4-1.2,0.4-1.8,0c-2-1.2-4.1-2.2-6.2-2.9
	c-0.6-0.2-1-0.7-1.1-1.2l-2.3-10.2h-5.9l-2.3,9.8c-0.1,0.7-0.7,1.1-1.2,1.2c-2.1,0.5-4.3,1.2-6.4,2.4c-0.5,0.3-1.1,0.3-1.6-0.1
	l-9.2-5.6L60,90.5l5.3,8.6c0.4,0.6,0.3,1.2,0,1.8c-1.1,1.7-2,3.7-2.9,6.2c-0.2,0.6-0.7,1-1.2,1.1L51,110.7v5.9l9.9,2.3
	c0.7,0.1,1.1,0.7,1.2,1.2c0.6,2.4,1.3,4.6,2.4,6.4c0.3,0.6,0.3,1.1,0,1.7l-5.5,9.1l4.2,4.2l8.6-5.4c0.6-0.4,1.2-0.4,1.8,0
	c2,1.2,4.1,2.2,6.2,2.9c0.6,0.2,1,0.7,1.1,1.2l2.5,10.3H89.2L89.2,150.5z"/>
<path class="st0" d="M87,132.8c9.7,0,17.6-7.9,17.6-17.6S96.7,97.5,87,97.5c-9.8,0-17.7,7.9-17.7,17.7S77.3,132.8,87,132.8z M87,128
	c-7.1,0-12.9-5.7-12.9-12.9c0-7.1,5.7-12.9,12.9-12.9c7.2,0,12.9,5.7,12.9,12.9C99.9,122.2,94.1,128,87,128L87,128z"/>
<path class="st0" d="M121.2,150.8c7.3,0,13.4-6,13.4-13.4s-6-13.4-13.4-13.4s-13.4,6-13.4,13.4S113.8,150.8,121.2,150.8z
	 M124.8,142.6l-4.3-4.3c-0.3-0.3-0.5-0.8-0.5-1.1v-8c0-1,0.8-1.7,1.7-1.7c1,0,1.7,0.8,1.7,1.7v7.2l3.8,3.8c0.7,0.7,0.7,1.7,0,2.4
	c-0.5,0.3-1,0.5-1.3,0.5S125.1,142.9,124.8,142.6L124.8,142.6z"/>
<path class="st0" d="M101.5,139c0.8,10.1,9.3,18.1,19.8,18.1c10.9,0,19.7-8.9,19.7-19.7c0-3.5-0.9-6.8-2.5-9.7l-0.1-0.1
	c-3.4-6-9.8-10-17.2-10c-11,0-19.8,8.9-19.8,19.8v0.5C101.6,138.3,101.6,138.7,101.5,139L101.5,139z M121.2,154.1
	c-9.3,0-16.8-7.5-16.8-16.7c0-9.3,7.5-16.8,16.8-16.8s16.7,7.5,16.7,16.8C137.9,146.6,130.5,154.1,121.2,154.1z"/>
<path class="st0" d="M138.2,121.8V80.1c0-1,0.8-1.7,1.7-1.7h2.7l-9.3-20.2l-9.2,20.2h2.7c1,0,1.7,0.8,1.7,1.7v35.3
	C132.3,116.7,135.6,118.9,138.2,121.8L138.2,121.8z"/>
<path class="st0" d="M109.8,84.3V65.4c0-1,0.8-1.7,1.7-1.7h2.5l-9.1-15.4l-9,15.4h2.4c1,0,1.7,0.8,1.7,1.7v23.5
	c0.5,0.2,0.9,0.5,1.3,0.7L109.8,84.3L109.8,84.3z"/>
</svg>
