<?xml version="1.0" encoding="utf-8"?>
<!-- Generator: Adobe Illustrator 24.1.2, SVG Export Plug-In . SVG Version: 6.00 Build 0)  -->
<svg version="1.1" id="Слой_1" xmlns="http://www.w3.org/2000/svg" xmlns:xlink="http://www.w3.org/1999/xlink" x="0px" y="0px"
	 viewBox="0 0 200 200" style="enable-background:new 0 0 200 200;" xml:space="preserve">
<style type="text/css">
	.st0{fill:#7DB0C9;}
	.st1{fill:#4A7F99;}
	.st2{fill:#ABE3FF;}
	.st3{fill:#5995B2;}
	.st4{fill:#3B6B82;}
	.st5{fill-rule:evenodd;clip-rule:evenodd;fill:#29A1DC;}
	.st6{clip-path:url(#SVGID_2_);}
	.st7{fill-rule:evenodd;clip-rule:evenodd;fill:#1C475C;}
	.st8{fill-rule:evenodd;clip-rule:evenodd;fill:#153544;}
	.st9{fill-rule:evenodd;clip-rule:evenodd;fill:#FFFFFF;}
	.st10{fill-rule:evenodd;clip-rule:evenodd;fill:#E1E6E8;}
	.st11{fill:none;}
</style>
<path class="st0" d="M140.4,104c1.4,0,2.7,0.1,4.1,0.3V63.9H54.8v73.9c0,4.4,3.5,7.9,7.9,7.9h51.4c-1.8-3.8-2.8-8.1-2.8-12.6
	C111.3,117.1,124.3,104,140.4,104z"/>
<g>
	<path class="st1" d="M80.2,135.3l-4.1-7.3c-0.4-0.7-1.5-0.7-1.9,0l-4.1,7.3c-0.4,0.7,0.1,1.5,1,1.5H73v2.5c0,0.6,0.5,1,1.1,1h2.2
		c0.6,0,1.1-0.5,1.1-1v-2.5h1.9C80.1,136.8,80.6,136,80.2,135.3z M109.5,63.9H89.8v15.8h0.7c0.2-0.8,0.9-1.3,1.7-1.1
		c0.5,0.1,1,0.5,1.1,1.1h1.1c0.2-0.8,0.9-1.3,1.7-1.1c0.5,0.1,1,0.5,1.1,1.1h1.1c0.2-0.8,0.9-1.3,1.7-1.1c0.5,0.1,1,0.5,1.1,1.1h1.1
		c0.2-0.8,0.9-1.3,1.7-1.1c0.5,0.1,1,0.5,1.1,1.1h1.1c0.2-0.8,0.9-1.3,1.7-1.1c0.5,0.1,1,0.5,1.1,1.1h0.7L109.5,63.9L109.5,63.9z"/>
</g>
<g>
	<path class="st2" d="M69.2,54.7h61.1c3.5,0,6.6,0.9,7.8,2.2l6.4,7H54.8l6.6-7C62.6,55.6,65.7,54.7,69.2,54.7z"/>
</g>
<g>
	<path class="st3" d="M91.6,54.7h16l1.8,9.2H89.8L91.6,54.7z"/>
</g>
<g>
	<path class="st1" d="M90,145.7h19.3v-15h-0.7c-0.2,0.6-0.7,1.1-1.4,1.1c-0.6,0-1.2-0.4-1.4-1.1h-1c-0.2,0.6-0.7,1.1-1.4,1.1
		c-0.6,0-1.2-0.4-1.4-1.1h-1c-0.2,0.6-0.7,1.1-1.4,1.1c-0.6,0-1.2-0.4-1.4-1.1h-1c-0.2,0.6-0.7,1.1-1.4,1.1c-0.6,0-1.2-0.4-1.4-1.1
		h-1c-0.2,0.6-0.7,1.1-1.4,1.1c-0.6,0-1.2-0.4-1.4-1.1H90V145.7z M80.6,77.7H67.7c-0.4,0-0.8-0.4-0.7-0.8c0-0.4,0.3-0.7,0.7-0.7
		h12.9c0.4,0,0.8,0.4,0.7,0.8C81.3,77.4,81,77.7,80.6,77.7z M80.6,81.8H67.7c-0.4,0-0.8-0.4-0.7-0.8c0-0.4,0.3-0.7,0.7-0.7h12.9
		c0.4,0,0.8,0.4,0.7,0.8C81.3,81.5,81,81.8,80.6,81.8z M80.6,85.9H67.7c-0.4,0-0.8-0.4-0.7-0.8c0-0.4,0.3-0.7,0.7-0.7h12.9
		c0.4,0,0.8,0.4,0.7,0.8C81.3,85.6,81,85.9,80.6,85.9z M80.6,90.1H67.7c-0.4,0-0.8-0.4-0.7-0.8c0-0.4,0.3-0.7,0.7-0.7h12.9
		c0.4,0,0.8,0.4,0.7,0.8C81.3,89.7,81,90,80.6,90.1z"/>
</g>
<g>
	<path class="st4" d="M109.3,130.7h-0.7c-0.2,0.6-0.7,1.1-1.4,1.1c-0.1,0-0.1,0-0.2,0v13.9v0.1h2.3
		C109.3,145.8,109.3,130.7,109.3,130.7z"/>
</g>
<path class="st5" d="M140.7,107.4c14.6,0,26.5,11.8,26.5,26.5c0,14.6-11.8,26.5-26.5,26.5c-14.6,0-26.5-11.8-26.5-26.5
	S126.1,107.4,140.7,107.4z"/>
<g>
	<g>
		<g>
			<defs>
				<circle id="SVGID_1_" cx="140.7" cy="133.9" r="26.5"/>
			</defs>
			<clipPath id="SVGID_2_">
				<use xlink:href="#SVGID_1_"  style="overflow:visible;"/>
			</clipPath>
			<g class="st6">
				<path class="st7" d="M130.6,128.5c1.6,0.3,3,0.8,4.5,1.4l2.8-2.8l2.3,1.7l2.3,1.7l-1.7,3.6c1,1.1,2,2.5,2.8,3.8l3.9-0.6l0.9,2.7
					l0.9,2.7l-3.5,1.8c0.1,0.8,0.1,1.6,0.1,2.4s-0.1,1.6-0.1,2.4l3.5,1.8l-0.9,2.7l-0.9,2.7l-3.9-0.6c-0.7,1.4-1.7,2.7-2.8,3.8
					l1.7,3.6l-2.3,1.7l-2.3,1.7l-2.8-2.8c-1.4,0.7-2.9,1.1-4.5,1.4l-0.7,3.9h-2.8h-2.8l-0.7-3.9c-1.6-0.3-3-0.8-4.5-1.4l-2.8,2.8
					l-2.3-1.7l-2.3-1.7l1.7-3.6c-1-1.1-2-2.5-2.8-3.8l-3.9,0.6l-0.9-2.7L105,151l3.5-1.8c-0.1-0.8-0.1-1.6-0.1-2.4s0.1-1.6,0.1-2.4
					l-3.5-1.8l0.9-2.7l0.9-2.7l3.9,0.6c0.7-1.4,1.7-2.7,2.8-3.8l-1.7-3.6l2.3-1.7l2.3-1.7l2.8,2.8c1.4-0.7,2.9-1.1,4.5-1.4l0.7-3.9
					h2.8h2.8L130.6,128.5z M127.1,135.7c6.1,0,11.1,5,11.1,11.1c0,6.1-5,11.1-11.1,11.1c-6.1,0-11.1-5-11.1-11.1
					C116.1,140.7,121,135.7,127.1,135.7z"/>
				<path class="st8" d="M127.1,133.1c7.6,0,13.8,6.1,13.8,13.8c0,7.6-6.1,13.8-13.8,13.8c-7.6,0-13.8-6.2-13.8-13.8
					C113.4,139.2,119.6,133.1,127.1,133.1z M127.1,135.7c6.1,0,11.1,5,11.1,11.1c0,6.1-5,11.1-11.1,11.1c-6.1,0-11.1-5-11.1-11.1
					C116.1,140.7,121,135.7,127.1,135.7z"/>
				<path class="st9" d="M155.3,116.3c0.7,0.1,1.3,0.3,1.9,0.6l1.2-1.1l1,0.7l1,0.7l-0.7,1.5c0.4,0.5,0.9,1,1.2,1.6l1.6-0.2l0.4,1.1
					l0.4,1.1l-1.5,0.8c0.1,0.3,0.1,0.7,0.1,1s-0.1,0.7-0.1,1l1.5,0.8l-0.4,1.1l-0.4,1.1l-1.6-0.2c-0.3,0.6-0.7,1.1-1.2,1.6l0.7,1.5
					l-1,0.7l-1,0.7l-1.2-1.1c-0.6,0.3-1.3,0.5-1.9,0.6l-0.3,1.6h-1.3h-1.3l-0.3-1.6c-0.7-0.1-1.3-0.3-1.9-0.6l-1.2,1.1l-1-0.7
					l-1-0.7l0.7-1.5c-0.4-0.5-0.9-1-1.2-1.6l-1.6,0.2l-0.4-1.1l-0.4-1.1l1.5-0.8c-0.1-0.3-0.1-0.7-0.1-1c0-0.3,0.1-0.7,0.1-1
					l-1.5-0.8l0.4-1.1l0.4-1.1l1.6,0.2c0.3-0.6,0.7-1.1,1.2-1.6l-0.7-1.5l1-0.7l1-0.7l1.2,1.1c0.6-0.3,1.3-0.5,1.9-0.6l0.3-1.6h1.3
					h1.3L155.3,116.3z M153.8,120.8c1.9,0,3.3,1.5,3.3,3.3c0,1.9-1.5,3.3-3.3,3.3c-1.9,0-3.3-1.5-3.3-3.3
					C150.5,122.3,152,120.8,153.8,120.8z"/>
				<path class="st10" d="M153.8,119.1c2.8,0,5.1,2.2,5.1,5.1c0,2.8-2.2,5.1-5.1,5.1c-2.8,0-5.1-2.2-5.1-5.1
					C148.8,121.3,151.1,119.1,153.8,119.1z M153.8,120.8c1.9,0,3.3,1.5,3.3,3.3c0,1.9-1.5,3.3-3.3,3.3c-1.9,0-3.3-1.5-3.3-3.3
					C150.5,122.3,152,120.8,153.8,120.8z"/>
			</g>
		</g>
	</g>
</g>
<path class="st11" d="M140.7,107.4c14.6,0,26.5,11.8,26.5,26.5c0,14.6-11.8,26.5-26.5,26.5c-14.6,0-26.5-11.8-26.5-26.5
	S126.1,107.4,140.7,107.4z"/>
</svg>
