<?xml version="1.0" encoding="utf-8"?>
<!-- Generator: Adobe Illustrator 24.1.2, SVG Export Plug-In . SVG Version: 6.00 Build 0)  -->
<svg version="1.1" id="Слой_1" xmlns="http://www.w3.org/2000/svg" xmlns:xlink="http://www.w3.org/1999/xlink" x="0px" y="0px"
	 viewBox="0 0 200 200" style="enable-background:new 0 0 200 200;" xml:space="preserve">
<style type="text/css">
	.st0{fill:#29A1DC;}
	.st1{fill-rule:evenodd;clip-rule:evenodd;fill:#1C475C;}
	.st2{fill-rule:evenodd;clip-rule:evenodd;fill:#153544;}
	.st3{fill-rule:evenodd;clip-rule:evenodd;fill:#E1E6E8;}
	.st4{fill-rule:evenodd;clip-rule:evenodd;fill:#FFFFFF;}
</style>
<g>
	<ellipse class="st0" cx="100" cy="101" rx="64.5" ry="63.9"/>
</g>
<path class="st1" d="M87.1,149.9l2.5-10.7c0.1-0.8,0.8-1.2,1.3-1.3c2.2-0.5,4.1-1.2,5.8-2.1v-0.1c0-1.7,0.2-3.6,0.5-5.2
	c-3.6,2.4-7.9,3.8-12.6,3.8c-12.6,0-22.9-10.2-22.9-22.8c0-12.5,10.2-22.9,22.9-22.9c12.6,0,22.8,10.2,22.8,22.9
	c0,1.3-0.1,2.6-0.3,3.8c4.1-3,9.2-4.8,14.8-4.8c1.4,0,2.8,0.1,4.1,0.3v-2L113,106c-0.8-0.1-1.2-0.8-1.3-1.3c-0.5-2.5-1.4-4.8-2.7-7
	c-0.3-0.7-0.3-1.2,0-1.8l6-9.9l-4.3-4.3c-0.1,0-0.2-0.1-0.3-0.1l-9.2,5.9c-0.7,0.4-1.3,0.4-2,0c-2.2-1.3-4.5-2.4-6.7-3.2
	c-0.7-0.2-1.1-0.8-1.2-1.3l-2.5-11.1h-6.4l-2.5,10.7c-0.1,0.8-0.8,1.2-1.3,1.3c-2.3,0.5-4.7,1.3-7,2.6c-0.5,0.3-1.2,0.3-1.7-0.1
	l-10-6.1l-4.5,4.5l5.8,9.4c0.4,0.7,0.3,1.3,0,2c-1.2,1.8-2.2,4-3.2,6.7c-0.2,0.7-0.8,1.1-1.3,1.2l-11.1,2.7v6.4l10.8,2.5
	c0.8,0.1,1.2,0.8,1.3,1.3c0.7,2.6,1.4,5,2.6,7c0.3,0.7,0.3,1.2,0,1.8l-6,9.9l4.6,4.6l9.4-5.9c0.7-0.4,1.3-0.4,2,0
	c2.2,1.3,4.5,2.4,6.7,3.2c0.7,0.2,1.1,0.8,1.2,1.3l2.7,11.2H87.1L87.1,149.9z"/>
<path class="st2" d="M84.5,132.8c11.5,0,20.9-9.4,20.9-20.9S96,91,84.5,91c-11.6,0-21,9.4-21,21S73,132.8,84.5,132.8z M84.5,127.1
	c-8.4,0-15.3-6.8-15.3-15.3c0-8.4,6.8-15.3,15.3-15.3s15.3,6.8,15.3,15.3C99.8,120.3,93,127.1,84.5,127.1L84.5,127.1z"/>
<path class="st3" d="M121.8,150.3c7.9,0,14.6-6.5,14.6-14.6c0-8-6.5-14.6-14.6-14.6c-8,0-14.6,6.5-14.6,14.6
	C107.3,143.7,113.8,150.3,121.8,150.3z M125.8,141.3l-4.7-4.7c-0.3-0.3-0.5-0.9-0.5-1.2v-8.7c0-1.1,0.9-1.8,1.8-1.8
	c1.1,0,1.8,0.9,1.8,1.8v7.8l4.1,4.1c0.8,0.8,0.8,1.8,0,2.6c-0.5,0.3-1.1,0.5-1.4,0.5C126.6,141.9,126.1,141.7,125.8,141.3
	L125.8,141.3z"/>
<path class="st1" d="M100.4,137.4c0.9,11,10.1,19.7,21.5,19.7c11.9,0,21.4-9.7,21.4-21.4c0-3.8-1-7.4-2.7-10.5l-0.1-0.1
	c-3.7-6.5-10.7-10.9-18.7-10.9c-12,0-21.5,9.7-21.5,21.5v0.5C100.5,136.7,100.5,137.1,100.4,137.4L100.4,137.4z M121.8,153.8
	c-10.1,0-18.3-8.2-18.3-18.2c0-10.1,8.2-18.3,18.3-18.3s18.2,8.2,18.2,18.3C140,145.7,132,153.8,121.8,153.8z"/>
<path class="st4" d="M140.3,118.7V73.4c0-1.1,0.9-1.8,1.8-1.8h2.9l-10.1-22l-10,22h2.9c1.1,0,1.8,0.9,1.8,1.8v38.4
	C133.9,113.2,137.5,115.6,140.3,118.7L140.3,118.7z"/>
<path class="st4" d="M109.5,77.9V57.4c0-1.1,0.9-1.8,1.8-1.8h2.7l-9.9-16.7l-9.8,16.7h2.6c1.1,0,1.8,0.9,1.8,1.8v25.6
	c0.5,0.2,1,0.5,1.4,0.8L109.5,77.9L109.5,77.9z"/>
</svg>
