<?xml version="1.0" encoding="utf-8"?>
<!-- Generator: Adobe Illustrator 24.1.2, SVG Export Plug-In . SVG Version: 6.00 Build 0)  -->
<svg version="1.1" id="Слой_1" xmlns="http://www.w3.org/2000/svg" xmlns:xlink="http://www.w3.org/1999/xlink" x="0px" y="0px"
	 viewBox="0 0 200 200" style="enable-background:new 0 0 200 200;" xml:space="preserve">
<style type="text/css">
	.st0{fill:#D2E1E9;}
	.st1{fill:#29A1DC;}
	.st2{fill:#0C5E86;}
	.st3{fill-rule:evenodd;clip-rule:evenodd;fill:#8FBFD7;}
	.st4{fill:#75C6EE;}
	.st5{fill-rule:evenodd;clip-rule:evenodd;fill:#29A1DC;}
	.st6{fill:#407995;}
	.st7{fill:none;}
	.st8{opacity:0.9;fill:#FFFFFF;enable-background:new    ;}
	.st9{fill:#FFFFFF;}
</style>
<rect x="38.8" y="67.8" class="st0" width="120.5" height="17.3"/>
<path class="st0" d="M107.8,135.1c0-23.2,18.8-41.9,41.9-41.9c3.3,0,6.5,0.4,9.6,1.1v-11c0-4.3-4.1-7.7-9.3-7.7H48.1
	c-5.1,0-9.3,3.4-9.3,7.7v53.9c0,4.3,4.1,7.7,9.3,7.7H109C108.2,141.7,107.8,138.4,107.8,135.1z"/>
<circle class="st1" cx="149.7" cy="135.1" r="35.5"/>
<path class="st2" d="M48.1,56.3H150c5.1,0,9.3,3.4,9.3,7.7v3.8c0,4.3-4.1,7.7-9.3,7.7H48.1c-5.1,0-9.3-3.4-9.3-7.7V64
	C38.8,59.8,42.9,56.3,48.1,56.3z"/>
<path class="st0" d="M71.2,66c0,3.2-3.1,5.8-6.9,5.8c-3.8,0-6.9-2.6-6.9-5.8l0,0c0-3.2,3.1-5.8,6.9-5.8l0,0
	C68.1,60.2,71.2,62.8,71.2,66z M140.7,66c0,3.2-3.1,5.8-6.9,5.8c-3.8,0-6.9-2.6-6.9-5.8l0,0c0-3.2,3.1-5.8,6.9-5.8l0,0
	C137.6,60.2,140.7,62.8,140.7,66z"/>
<path class="st2" d="M38.8,75.6V64h120.5v11.5"/>
<path class="st3" d="M64.3,48.6c-1.3,0-2.3,0.9-2.3,1.9l0,0v15.4c0,1.1,1,1.9,2.3,1.9c1.3,0,2.3-0.9,2.3-1.9V50.5
	C66.6,49.5,65.6,48.6,64.3,48.6L64.3,48.6L64.3,48.6z M133.8,48.6c-1.3,0-2.3,0.9-2.3,1.9l0,0v15.4c0,1.1,1,1.9,2.3,1.9
	s2.3-0.9,2.3-1.9V50.5C136.1,49.5,135.1,48.6,133.8,48.6L133.8,48.6L133.8,48.6z"/>
<path class="st4" d="M52.2,131.8h8.7v8.3h-8.7V131.8z M69.5,131.8h8.7v8.3h-8.7V131.8z M52.2,115.3h8.7v8.3h-8.7V115.3z M69.5,115.3
	h8.7v8.3h-8.7V115.3z M52.2,98.8h8.7v8.3h-8.7V98.8z M69.5,98.8h8.7v8.3h-8.7V98.8z M86.9,98.8h8.7v8.3h-8.7V98.8z M104.1,98.8h8.7
	v8.3h-8.7V98.8z M86.9,82.4h8.7v8.3h-8.7V82.4z M104.1,82.4h8.7v8.3h-8.7V82.4z M121.4,82.4h8.7v8.3h-8.7V82.4z M138.7,82.4h8.7v8.3
	h-8.7V82.4z"/>
<path class="st5" d="M95.5,116.1c-0.6,0-1.1,0.2-1.5,0.6l-4.2,4l-1.4-1.3c-0.8-0.9-2.1-0.9-3.1-0.1c-0.8,0.8-0.9,2-0.1,2.9l0.1,0.1
	l2.9,2.7c0.8,0.8,2.2,0.8,3.1,0l5.7-5.4c0.8-0.8,0.8-2.1,0.1-2.9C96.6,116.3,96,116.1,95.5,116.1z M78.1,83.1
	c-0.6,0-1.1,0.2-1.5,0.6l-4.2,4L71,86.4c-0.8-0.9-2.1-0.9-3.1-0.1c-0.8,0.8-0.9,2-0.1,2.9l0.1,0.1l2.9,2.7c0.8,0.8,2.2,0.8,3.1,0
	l5.7-5.5c0.8-0.8,0.8-2.1,0.1-2.9C79.3,83.2,78.7,83,78.1,83.1L78.1,83.1z"/>
<path class="st6" d="M54.3,84.4h4.3v4.1h-4.3V84.4z M89,133.9h4.3v4.1H89V133.9z"/>
<path class="st7" d="M173.7,159.1h-48v-48h48V159.1z"/>
<path class="st8" d="M149.6,127.9v8c0,0.6-0.3,1.2-0.9,1.5l-6.5,3.8c-0.9,0.5-1.1,1.6-0.6,2.5l0,0c0.5,0.9,1.6,1.1,2.5,0.6l8.5-5
	c0.5-0.3,0.9-0.9,0.9-1.5v-9.9c0-1-0.8-1.8-1.8-1.8h-0.2C150.4,126.2,149.6,127,149.6,127.9z"/>
<path class="st9" d="M171.4,136.7l3.3-13.8l-4.9,1.9c-4.1-7.8-12.1-12.7-20.9-12.7c-13.1,0-23.6,10.5-23.6,23.6s10.5,23.6,23.6,23.6
	c6.6,0,12.9-2.7,17.3-7.6c0.4-0.4,0.8-1.2,0.6-1.8c0-0.6-0.4-1.4-0.8-1.8c-0.4-0.4-1-0.6-1.8-0.6s-1.4,0.4-1.8,0.8
	c-3.5,3.9-8.6,6-13.6,6c-10.3,0-18.7-8.4-18.7-18.7s8.4-18.7,18.7-18.7c6.8,0,13.1,3.7,16.4,9.6l-5.1,2.3L171.4,136.7z"/>
</svg>
