<?xml version="1.0" encoding="utf-8"?>
<!-- Generator: Adobe Illustrator 24.1.2, SVG Export Plug-In . SVG Version: 6.00 Build 0)  -->
<svg version="1.1" id="Слой_1" xmlns="http://www.w3.org/2000/svg" xmlns:xlink="http://www.w3.org/1999/xlink" x="0px" y="0px"
	 viewBox="0 0 200 200" style="enable-background:new 0 0 200 200;" xml:space="preserve">
<style type="text/css">
	.st0{fill:#7DB0C9;}
	.st1{fill:#99D0EB;}
	.st2{fill:#4A7F99;}
	.st3{fill:#ABE3FF;}
	.st4{fill:#5995B2;}
	.st5{fill:#3B6B82;}
	.st6{fill:#85A1AA;}
	.st7{fill:#2A3673;}
	.st8{fill:#FFFFFF;stroke:#FFFFFF;stroke-width:0.25;stroke-miterlimit:10;}
</style>
<g>
	<path class="st0" d="M136.6,145.7H62.7c-4.4,0-7.9-3.5-7.9-7.9V63.9h89.7v73.9C144.5,142.2,141,145.7,136.6,145.7z"/>
</g>
<g>
	<path class="st1" d="M136.6,145.7H62.7c-4.4,0-7.9-3.5-7.9-7.9V63.9h89.7v73.9C144.5,142.2,141,145.7,136.6,145.7z"/>
</g>
<g>
	<path class="st2" d="M80.2,135.3l-4.1-7.3c-0.4-0.7-1.5-0.7-1.9,0l-4.1,7.3c-0.4,0.7,0.1,1.5,1,1.5H73v2.5c0,0.6,0.5,1,1.1,1h2.2
		c0.6,0,1.1-0.5,1.1-1v-2.5h1.9C80.1,136.8,80.6,136,80.2,135.3z M109.5,63.9H89.8v15.8h0.7c0.2-0.8,0.9-1.3,1.7-1.1
		c0.5,0.1,1,0.5,1.1,1.1h1.1c0.2-0.8,0.9-1.3,1.7-1.1c0.5,0.1,1,0.5,1.1,1.1h1.1c0.2-0.8,0.9-1.3,1.7-1.1c0.5,0.1,1,0.5,1.1,1.1h1.1
		c0.2-0.8,0.9-1.3,1.7-1.1c0.5,0.1,1,0.5,1.1,1.1h1.1c0.2-0.8,0.9-1.3,1.7-1.1c0.5,0.1,1,0.5,1.1,1.1h0.7L109.5,63.9L109.5,63.9z"/>
</g>
<g>
	<path class="st3" d="M69.2,54.7h61.1c3.5,0,6.6,0.9,7.8,2.2l6.4,7H54.8l6.6-7C62.6,55.6,65.7,54.7,69.2,54.7z"/>
</g>
<g>
	<path class="st4" d="M91.6,54.7h16l1.8,9.2H89.8L91.6,54.7z"/>
</g>
<g>
	<path class="st2" d="M90,145.7h19.3v-15h-0.7c-0.2,0.6-0.7,1.1-1.4,1.1c-0.6,0-1.2-0.4-1.4-1.1h-1c-0.2,0.6-0.7,1.1-1.4,1.1
		c-0.6,0-1.2-0.4-1.4-1.1h-1c-0.2,0.6-0.7,1.1-1.4,1.1c-0.6,0-1.2-0.4-1.4-1.1h-1c-0.2,0.6-0.7,1.1-1.4,1.1c-0.6,0-1.2-0.4-1.4-1.1
		h-1c-0.2,0.6-0.7,1.1-1.4,1.1c-0.6,0-1.2-0.4-1.4-1.1H90C90,130.7,90,145.7,90,145.7z M80.6,77.7H67.7c-0.4,0-0.8-0.4-0.7-0.8
		c0-0.4,0.3-0.7,0.7-0.7h12.9c0.4,0,0.8,0.4,0.7,0.8C81.3,77.4,81,77.7,80.6,77.7z M80.6,81.8H67.7c-0.4,0-0.8-0.4-0.7-0.8
		c0-0.4,0.3-0.7,0.7-0.7h12.9c0.4,0,0.8,0.4,0.7,0.8C81.3,81.5,81,81.8,80.6,81.8z M80.6,85.9H67.7c-0.4,0-0.8-0.4-0.7-0.8
		c0-0.4,0.3-0.7,0.7-0.7h12.9c0.4,0,0.8,0.4,0.7,0.8C81.3,85.6,81,85.9,80.6,85.9z M80.6,90.1H67.7c-0.4,0-0.8-0.4-0.7-0.8
		c0-0.4,0.3-0.7,0.7-0.7h12.9c0.4,0,0.8,0.4,0.7,0.8C81.3,89.7,81,90,80.6,90.1z"/>
</g>
<g>
	<path class="st5" d="M109.3,130.7h-0.7c-0.2,0.6-0.7,1.1-1.4,1.1c-0.1,0-0.1,0-0.2,0v13.9l0,0.1h2.3V130.7z"/>
</g>
<g>
	<g>
		<path class="st6" d="M154.7,128.6H121c-1.1,0-2.1-0.9-2.1-2.1v-15c0-1.1,0.9-2.1,2.1-2.1h33.7c1.1,0,2.1,0.9,2.1,2.1v15
			C156.7,127.7,155.8,128.6,154.7,128.6z"/>
	</g>
</g>
<g>
	<g>
		<path class="st7" d="M156.1,127.4h-33.7c-1.1,0-2.1-0.9-2.1-2.1v-15c0-1.1,0.9-2.1,2.1-2.1h33.7c1.1,0,2.1,0.9,2.1,2.1v15
			C158.1,126.5,157.2,127.4,156.1,127.4z"/>
	</g>
</g>
<g>
	<path class="st8" d="M131.1,121.3c-0.4-0.1-0.7-0.2-1-0.4s-0.6-0.4-0.9-0.6l0.7-0.9c0.3,0.3,0.7,0.5,1.1,0.6s0.8,0.2,1.3,0.2
		c0.6,0,1.1-0.1,1.4-0.3s0.5-0.6,0.5-1v0c0-0.3-0.1-0.5-0.2-0.7s-0.4-0.3-0.6-0.4s-0.6-0.2-0.9-0.2c0,0,0,0,0,0s0,0,0,0l-0.1,0
		c-0.6-0.1-1-0.2-1.4-0.3s-0.7-0.3-0.9-0.7s-0.4-0.8-0.4-1.4v0c0-0.5,0.1-1,0.4-1.4s0.6-0.7,1-0.9s1-0.3,1.6-0.3
		c0.3,0,0.6,0,0.9,0.1s0.6,0.2,0.9,0.3s0.6,0.3,0.8,0.5l-0.7,0.9c-0.3-0.2-0.6-0.4-1-0.5s-0.6-0.2-1-0.2c-0.6,0-1,0.1-1.4,0.3
		s-0.5,0.6-0.5,1v0c0,0.3,0.1,0.5,0.2,0.7s0.4,0.3,0.6,0.4s0.6,0.2,1,0.2c0,0,0,0,0,0s0,0,0,0c0,0,0,0,0.1,0s0,0,0.1,0
		c0.5,0.1,0.9,0.2,1.3,0.4s0.6,0.4,0.9,0.7s0.3,0.8,0.3,1.3v0c0,0.5-0.1,1-0.4,1.3s-0.6,0.7-1.1,0.8s-1,0.3-1.7,0.3
		C131.9,121.4,131.5,121.4,131.1,121.3z"/>
	<path class="st8" d="M137,112.8h1.2v8.5H137V112.8z M138,117.6l3.8-4.8h1.5l-5.4,6.6L138,117.6z M139.4,116.8l0.9-0.9l3.2,5.4h-1.5
		L139.4,116.8z"/>
	<path class="st8" d="M145.6,121.1c-0.4-0.2-0.8-0.6-1-1.1s-0.4-1-0.4-1.7v-5.4h1.2v5.5c0,0.6,0.2,1.1,0.5,1.4s0.8,0.5,1.3,0.5
		c0.6,0,1-0.2,1.3-0.5s0.5-0.8,0.5-1.4v-5.5h1.2v5.4c0,0.7-0.1,1.2-0.4,1.7s-0.6,0.8-1,1.1s-1,0.4-1.6,0.4
		C146.6,121.4,146.1,121.3,145.6,121.1z"/>
</g>
</svg>
