<?xml version="1.0" encoding="utf-8"?>
<!-- Generator: Adobe Illustrator 24.1.2, SVG Export Plug-In . SVG Version: 6.00 Build 0)  -->
<svg version="1.1" id="Слой_1" xmlns="http://www.w3.org/2000/svg" xmlns:xlink="http://www.w3.org/1999/xlink" x="0px" y="0px"
	 viewBox="0 0 200 200" style="enable-background:new 0 0 200 200;" xml:space="preserve">
<style type="text/css">
	.st0{fill:#2B90C1;}
	.st1{fill:#D6E7F0;}
	.st2{fill:#6BCDF1;}
	.st3{fill:#80D9F9;}
	.st4{fill:#5AABC8;}
	.st5{fill:#84DBFB;}
	.st6{fill:#41B7E2;}
	.st7{fill:#7EC6E0;}
	.st8{fill:#A9E8FF;}
	.st9{fill:#5AC9F2;}
	.st10{fill:#014862;}
	.st11{opacity:0.15;enable-background:new    ;}
	.st12{fill:#29A1DC;}
	.st13{fill:#85A1AA;}
	.st14{fill:#FFFFFF;stroke:#FFFFFF;stroke-miterlimit:10;}
</style>
<g>
	<g>
		<path class="st0" d="M157.1,127.3c-0.3-0.8-1-1.3-1.8-1.3h-23.5c-1.1,0-2,0.9-2,2v19.6c0,1.1,0.9,2,2,2c0.5,0,0.9-0.2,1.3-0.5
			l23.5-19.6C157.1,128.9,157.4,128,157.1,127.3z"/>
	</g>
</g>
<g>
	<g>
		<path class="st1" d="M82.8,86.8V126h49c1.1,0,2,0.9,2,2v29.4c0,1.1-0.9,2-2,2H45.6c-1.1,0-2-0.9-2-2V71.1c0-0.5,0.2-1,0.6-1.4
			l27.4-27.4c0.4-0.4,0.9-0.6,1.4-0.6h58.8c1.1,0,2,0.9,2,2v41.1c0,1.1-0.9,2-2,2C131.8,86.8,82.8,86.8,82.8,86.8z"/>
	</g>
</g>
<g>
	<rect x="67.9" y="75.1" class="st2" width="44" height="31.2"/>
</g>
<g>
	<rect x="67.9" y="75.1" class="st3" width="44" height="2.7"/>
</g>
<g>
	<rect x="52.7" y="133.5" class="st4" width="16.1" height="16.1"/>
</g>
<g>
	<rect x="81.9" y="133.5" class="st5" width="16.1" height="16.1"/>
</g>
<g>
	<rect x="111.1" y="133.5" class="st6" width="16.1" height="16.1"/>
</g>
<g>
	<rect x="52.7" y="133.5" class="st7" width="16.1" height="2.8"/>
</g>
<g>
	<rect x="81.9" y="133.5" class="st8" width="16.1" height="2.8"/>
</g>
<g>
	<rect x="111.1" y="133.5" class="st9" width="16.1" height="2.8"/>
</g>
<g>
	<polygon class="st10" points="91.5,120.7 91.5,106.3 88.3,106.3 88.3,120.7 59,120.7 59,133.5 62.3,133.5 62.3,124 88.3,124 
		88.3,133.5 91.5,133.5 91.5,124 117.5,124 117.5,133.5 120.7,133.5 120.7,120.7 	"/>
</g>
<g class="st11">
	<g>
		<path d="M133.7,127.9v9.8H73c-1.1,0-2-0.9-2-2v-43c0-1.1,0.9-2,2-2h7.8v37.2C80.8,127.9,133.7,127.9,133.7,127.9z"/>
	</g>
</g>
<g>
	<g>
		<path class="st12" d="M80.8,82.9h74.4c1.1,0,2,0.9,2,2V128c0,1.1-0.9,2-2,2H80.8c-1.1,0-2-0.9-2-2V84.8
			C78.9,83.7,79.8,82.9,80.8,82.9z"/>
	</g>
</g>
<g>
	<g>
		<path class="st13" d="M75,41.7v29.4c0,1.1-0.9,2-2,2H43.6v-2c0-0.5,0.2-1,0.6-1.4l27.4-27.4c0.4-0.4,0.9-0.6,1.4-0.6
			C73,41.7,75,41.7,75,41.7z"/>
	</g>
</g>
<g>
	<path class="st14" d="M101.7,98.7v9.2c0,3.5,1.5,4.9,3.6,4.9c2.3,0,3.8-1.5,3.8-4.9v-9.2h2v9c0,4.8-2.5,6.7-5.9,6.7
		c-3.2,0-5.6-1.8-5.6-6.6v-9.1H101.7z"/>
	<path class="st14" d="M127.6,107.4c-0.1-2.2-0.3-4.8-0.2-6.7h-0.1c-0.5,1.8-1.2,3.7-2,5.9l-2.7,7.5h-1.5l-2.5-7.4
		c-0.7-2.2-1.4-4.2-1.8-6h0c0,1.9-0.2,4.5-0.3,6.9l-0.4,6.6h-1.9l1.1-15.5h2.6l2.6,7.5c0.6,1.9,1.2,3.6,1.6,5.2h0.1
		c0.4-1.6,0.9-3.3,1.6-5.2l2.8-7.5h2.6l1,15.5h-2L127.6,107.4z"/>
	<path class="st14" d="M133,98.7h2v13.8h6.6v1.7H133V98.7z"/>
</g>
</svg>
