<?xml version="1.0"?>
<svg xmlns="http://www.w3.org/2000/svg" height="512px" viewBox="-90 0 447 447.467" width="512px" class=""><g><path d="m14.234375 74.148438h30v274.851562h-30zm0 0" fill="#d4e1f4" data-original="#D4E1F4"/><path d="m69.332031 14h-30c-13.855469.015625-25.082031 11.242188-25.097656 25.101562v21.046876h30v-21.050782c.015625-13.855468 11.242187-25.082031 25.097656-25.097656zm0 0" fill="#d4e1f4" data-original="#D4E1F4"/><path d="m69.332031 413.464844c-13.855469-.015625-25.082031-11.242188-25.097656-25.097656v-25.367188h-30v45.367188c.015625 13.855468 11.242187 25.085937 25.097656 25.101562h187.800781c11.890626-.015625 22.148438-8.363281 24.578126-20zm0 0" fill="#d4e1f4" data-original="#D4E1F4"/><path d="m125.117188 242.3125c-2.050782.003906-4-.894531-5.328126-2.453125l-12.222656-14.3125c-2.511718-2.941406-2.164062-7.359375.777344-9.871094s7.359375-2.164062 9.867188.777344l7.785156 9.113281 23.164062-18.84375c1.9375-1.589844 4.578125-2.019531 6.921875-1.128906 2.347657.886719 4.035157 2.964844 4.429688 5.441406.394531 2.476563-.566407 4.972656-2.515625 6.550782l-28.460938 23.15625c-1.25 1.015624-2.808594 1.570312-4.417968 1.570312zm0 0" fill="#1ae5be" data-original="#1AE5BE" class="active-path" style="fill:#FF3348" data-old_color="#1ae5be"/><path d="m133.234375 285.734375c-34.242187 0-62-27.757813-62-62s27.757813-62 62-62 62 27.757813 62 62c-.039063 34.222656-27.773437 61.960937-62 62zm0-110c-26.511719 0-48 21.488281-48 48 0 26.507813 21.488281 48 48 48 26.507813 0 48-21.492187 48-48-.03125-26.5-21.503906-47.972656-48-48zm0 0" fill="#1ae5be" data-original="#1AE5BE" class="active-path" style="fill:#FF3348" data-old_color="#1ae5be"/><g fill="#0635c9"><path d="m227.132812 0h-187.800781c-21.582031.0234375-39.074219 17.515625-39.097656 39.101562v369.265626c.023437 21.585937 17.515625 39.074218 39.097656 39.101562h187.800781c21.585938-.027344 39.078126-17.515625 39.101563-39.101562v-369.269532c-.027344-21.582031-17.515625-39.0742185-39.101563-39.097656zm-212.898437 74.148438h238v274.851562h-238zm25.097656-60.148438h187.800781c13.855469.015625 25.085938 11.242188 25.101563 25.101562v21.046876h-238v-21.050782c.015625-13.855468 11.242187-25.082031 25.097656-25.097656zm187.800781 419.464844h-187.800781c-13.855469-.015625-25.082031-11.242188-25.097656-25.097656v-45.367188h238v45.367188c-.015625 13.855468-11.246094 25.082031-25.101563 25.097656zm0 0" data-original="#0635C9" class="" data-old_color="#0635C9" style="fill:#000000"/><path d="m161.554688 391.53125h-56.644532c-3.867187 0-7 3.136719-7 7 0 3.867188 3.132813 7 7 7h56.644532c3.867187 0 7-3.132812 7-7 0-3.863281-3.132813-7-7-7zm0 0" data-original="#0635C9" class="" data-old_color="#0635C9" style="fill:#000000"/><path d="m226.734375 216.734375h-10.5c-3.867187 0-7 3.132813-7 7 0 3.863281 3.132813 7 7 7h10.5c3.863281 0 7-3.136719 7-7 0-3.867187-3.136719-7-7-7zm0 0" data-original="#0635C9" class="" data-old_color="#0635C9" style="fill:#000000"/><path d="m50.234375 230.734375c3.863281 0 7-3.136719 7-7 0-3.867187-3.136719-7-7-7h-10.5c-3.867187 0-7 3.132813-7 7 0 3.863281 3.132813 7 7 7zm0 0" data-original="#0635C9" class="" data-old_color="#0635C9" style="fill:#000000"/><path d="m223.914062 247.578125-14.65625-5.050781c-3.65625-1.261719-7.636718.679687-8.898437 4.335937-1.257813 3.65625.683594 7.640625 4.335937 8.898438l14.65625 5.050781c2.367188.832031 5 .328125 6.898438-1.3125 1.898438-1.644531 2.769531-4.175781 2.285156-6.640625-.480468-2.460937-2.246094-4.476563-4.621094-5.28125zm0 0" data-original="#0635C9" class="" data-old_color="#0635C9" style="fill:#000000"/><path d="m61.769531 191.703125-14.652343-5.050781c-2.371094-.828125-5-.328125-6.898438 1.3125-1.898438 1.644531-2.769531 4.175781-2.289062 6.640625.484374 2.460937 2.246093 4.480469 4.625 5.285156l14.652343 5.046875c3.65625 1.261719 7.640625-.679688 8.902344-4.335938 1.257813-3.65625-.683594-7.640624-4.339844-8.898437zm0 0" data-original="#0635C9" class="" data-old_color="#0635C9" style="fill:#000000"/><path d="m207.714844 207.578125c.707031 0 1.40625-.105469 2.082031-.316406l14.796875-4.601563c2.402344-.730468 4.226562-2.691406 4.785156-5.136718.558594-2.449219-.238281-5.007813-2.082031-6.707032-1.847656-1.699218-4.464844-2.28125-6.855469-1.523437l-14.800781 4.601562c-3.308594 1.023438-5.371094 4.3125-4.851563 7.734375.519532 3.425782 3.464844 5.953125 6.925782 5.949219zm0 0" data-original="#0635C9" class="" data-old_color="#0635C9" style="fill:#000000"/><path d="m56.671875 240.203125-14.800781 4.601563c-2.402344.730468-4.226563 2.691406-4.785156 5.140624-.554688 2.445313.238281 5.003907 2.085937 6.703126 1.847656 1.703124 4.460937 2.28125 6.855469 1.523437l14.800781-4.597656c3.691406-1.148438 5.753906-5.070313 4.605469-8.765625-1.148438-3.691406-5.070313-5.753906-8.761719-4.605469zm0 0" data-original="#0635C9" class="" data-old_color="#0635C9" style="fill:#000000"/></g></g> </svg>
