<?xml version="1.0" encoding="iso-8859-1"?>
<!-- Generator: Adobe Illustrator 16.0.0, SVG Export Plug-In . SVG Version: 6.00 Build 0)  -->
<!DOCTYPE svg PUBLIC "-//W3C//DTD SVG 1.1//EN" "http://www.w3.org/Graphics/SVG/1.1/DTD/svg11.dtd">
<svg version="1.1" id="Capa_1" xmlns="http://www.w3.org/2000/svg" xmlns:xlink="http://www.w3.org/1999/xlink" x="0px" y="0px"
	 width="26.459px" height="26.459px" viewBox="0 0 26.459 26.459" style="enable-background:new 0 0 26.459 26.459;"
	 xml:space="preserve">
<g>
	<g>
		<g fill="#fff">
			<path d="M4.142,14.106l0.825-0.221l-0.444-0.258c-0.062-0.034-0.083-0.112-0.047-0.173c0.034-0.062,0.112-0.082,0.174-0.047
				l0.444,0.258l-0.22-0.825c-0.019-0.066,0.021-0.138,0.089-0.156c0.068-0.018,0.137,0.022,0.155,0.09l0.286,1.069l0.448,0.259
				l0.114-0.019l0.301-0.608v-0.13l-0.783-0.783c-0.049-0.05-0.049-0.131,0-0.179c0.05-0.052,0.13-0.052,0.179,0l0.604,0.603v-0.513
				c0-0.069,0.056-0.126,0.127-0.126s0.127,0.057,0.127,0.126v0.513l0.604-0.602c0.05-0.052,0.13-0.052,0.179,0
				c0.049,0.048,0.049,0.129,0,0.179l-0.783,0.782v0.131l0.3,0.609l0.115,0.018l0.448-0.259l0.287-1.069
				c0.018-0.067,0.086-0.108,0.155-0.09c0.067,0.019,0.108,0.089,0.09,0.155l-0.221,0.825l0.445-0.258
				c0.061-0.035,0.138-0.015,0.174,0.047c0.035,0.061,0.015,0.139-0.046,0.173l-0.445,0.258l0.825,0.221
				c0.019,0.005,0.029,0.022,0.042,0.033h2.344c-0.167-1.845-1.408-3.375-3.093-3.97v-1.44c0-0.769-0.564-1.403-1.301-1.521
				L6.64,0.001H6.238L6.239,7.2c-0.78,0.079-1.392,0.731-1.392,1.531v1.441c-1.685,0.593-2.926,2.124-3.093,3.969h2.344
				C4.113,14.128,4.122,14.111,4.142,14.106z M5.604,8.731c0-0.434,0.354-0.789,0.79-0.789s0.79,0.355,0.79,0.789v0.334H5.604V8.731
				z"/>
			<path d="M7.232,14.402l-0.513-0.074c-0.042-0.005-0.078-0.029-0.096-0.068l-0.229-0.465L6.165,14.26
				c-0.019,0.039-0.055,0.064-0.096,0.068l-0.514,0.074l0.372,0.362c0.03,0.03,0.043,0.071,0.036,0.112l-0.087,0.51l0.458-0.241
				c0.019-0.008,0.039-0.013,0.06-0.013s0.041,0.005,0.06,0.013l0.458,0.241l-0.087-0.51c-0.006-0.041,0.007-0.082,0.037-0.112
				L7.232,14.402z"/>
			<path d="M8.581,14.774v-0.423l-1.071-0.285l-0.167,0.098l0.18,0.024c0.048,0.009,0.088,0.041,0.104,0.088
				c0.014,0.045,0.002,0.097-0.033,0.13L7.14,14.848l0.37,0.214L8.581,14.774z"/>
			<path d="M5.446,14.162l-0.167-0.097l-1.071,0.286v0.421l1.069,0.288l0.371-0.215l-0.453-0.441
				c-0.035-0.033-0.047-0.086-0.032-0.13c0.015-0.047,0.055-0.08,0.103-0.088L5.446,14.162z"/>
			<path d="M8.647,15.019L7.822,15.24l0.445,0.257c0.06,0.036,0.081,0.113,0.045,0.175c-0.024,0.04-0.065,0.062-0.109,0.062
				c-0.022,0-0.043-0.006-0.063-0.018l-0.445-0.258l0.221,0.825c0.019,0.069-0.022,0.139-0.09,0.156
				c-0.011,0.004-0.021,0.005-0.032,0.005c-0.057,0-0.107-0.037-0.123-0.096L7.385,15.28l-0.258-0.149l0.081,0.468
				c0.007,0.047-0.012,0.096-0.052,0.124c-0.021,0.017-0.047,0.023-0.074,0.023c-0.021,0-0.041-0.005-0.059-0.016l-0.5-0.264v0.311
				l0.783,0.783c0.049,0.049,0.049,0.131,0,0.18c-0.025,0.024-0.058,0.038-0.09,0.038c-0.033,0-0.065-0.014-0.089-0.038
				l-0.604-0.604v0.514c0,0.069-0.057,0.128-0.127,0.128S6.268,16.72,6.268,16.65v-0.514L5.664,16.74c-0.049,0.05-0.13,0.05-0.179,0
				c-0.049-0.049-0.049-0.131,0-0.18l0.783-0.783v-0.311l-0.5,0.264c-0.044,0.022-0.095,0.02-0.133-0.009
				c-0.04-0.029-0.059-0.076-0.05-0.123l0.08-0.468l-0.257,0.148L5.12,16.35c-0.016,0.058-0.066,0.095-0.123,0.095
				c-0.011,0-0.022-0.001-0.033-0.005c-0.068-0.019-0.108-0.087-0.089-0.156l0.221-0.825l-0.445,0.258
				c-0.021,0.013-0.042,0.017-0.064,0.017c-0.044,0-0.086-0.021-0.109-0.062c-0.036-0.062-0.015-0.139,0.047-0.174l0.444-0.258
				l-0.825-0.222c-0.019-0.004-0.028-0.021-0.043-0.031H1.757c0.215,2.375,2.209,4.236,4.639,4.236c2.431,0,4.425-1.861,4.64-4.236
				H8.692C8.675,14.998,8.665,15.015,8.647,15.019z"/>
		</g>
		<g fill="#fff">
			<g>
				<path d="M15.539,23.479c-0.765,0.473-1.779,0.473-2.542,0c-0.764,0.473-1.778,0.473-2.542,0
					c-0.309,0.192-0.654,0.306-1.015,0.346c0.755,1.559,2.346,2.634,4.192,2.634c1.955,0,3.625-1.204,4.317-2.912
					C17.203,23.946,16.258,23.926,15.539,23.479z"/>
				<path d="M11.725,20.119c0.763-0.474,1.778-0.474,2.542,0c0.765-0.474,1.778-0.474,2.543,0c0.309-0.192,0.654-0.307,1.016-0.346
					c-0.534-1.1-1.482-1.957-2.646-2.366v-1.439c0-0.854-0.691-1.547-1.546-1.547c-0.854,0-1.547,0.693-1.547,1.547v1.439
					c-1.259,0.443-2.271,1.412-2.771,2.643C10.06,19.651,11.002,19.673,11.725,20.119z M12.841,15.968c0-0.436,0.355-0.79,0.79-0.79
					c0.434,0,0.789,0.354,0.789,0.79v0.333h-1.58L12.841,15.968L12.841,15.968z"/>
				<path d="M9.945,21.312l0.254-0.339c0.148-0.197,0.361-0.197,0.51-0.001l0.253,0.34c0.388,0.517,1.137,0.517,1.526,0l0.254-0.339
					c0.146-0.197,0.36-0.197,0.508-0.001l0.254,0.34c0.387,0.517,1.137,0.517,1.525,0l0.254-0.339
					c0.146-0.197,0.361-0.197,0.509-0.001l0.254,0.34c0.389,0.517,1.138,0.517,1.524,0l0.254-0.339
					c0.106-0.142,0.243-0.177,0.367-0.116c-0.045-0.222-0.106-0.438-0.182-0.645c-0.261,0.02-0.515,0.143-0.694,0.381l-0.254,0.337
					c-0.148,0.196-0.362,0.196-0.509,0l-0.254-0.337c-0.389-0.52-1.138-0.52-1.526,0l-0.254,0.337c-0.146,0.196-0.361,0.196-0.508,0
					l-0.254-0.337c-0.389-0.52-1.137-0.52-1.526,0l-0.252,0.337c-0.146,0.196-0.36,0.196-0.508,0l-0.254-0.337
					c-0.389-0.52-1.137-0.52-1.525,0l-0.254,0.337c-0.114,0.153-0.269,0.184-0.401,0.098C9,21.24,8.981,21.458,8.977,21.678
					C9.323,21.755,9.705,21.633,9.945,21.312z"/>
				<path d="M17.316,22.288l-0.253,0.337c-0.147,0.197-0.361,0.197-0.509,0l-0.253-0.337c-0.389-0.519-1.139-0.519-1.527,0
					l-0.253,0.337c-0.147,0.197-0.362,0.197-0.509,0l-0.254-0.337c-0.389-0.519-1.137-0.519-1.526,0l-0.253,0.337
					c-0.146,0.197-0.36,0.197-0.508,0l-0.254-0.337c-0.389-0.519-1.137-0.519-1.525,0l-0.254,0.337
					c-0.106,0.141-0.246,0.178-0.37,0.115c0.045,0.223,0.111,0.437,0.188,0.646c0.261-0.021,0.514-0.143,0.692-0.381l0.254-0.339
					c0.148-0.195,0.362-0.195,0.51,0l0.253,0.339c0.389,0.518,1.138,0.519,1.526,0l0.254-0.339c0.146-0.195,0.36-0.195,0.508,0
					l0.254,0.339c0.387,0.518,1.137,0.519,1.525,0l0.254-0.339c0.147-0.195,0.361-0.195,0.508,0l0.254,0.339
					c0.389,0.518,1.138,0.519,1.526,0l0.254-0.339c0.113-0.151,0.265-0.183,0.397-0.101c0.034-0.21,0.057-0.425,0.062-0.645
					C17.938,21.844,17.558,21.966,17.316,22.288z"/>
			</g>
			<g>
				<rect x="13.474" y="0.001" width="0.402" height="14.789"/>
			</g>
		</g>
		<g fill="#fff">
			<path d="M17.81,10.086l0.824-0.221L18.19,9.608c-0.062-0.035-0.082-0.112-0.048-0.173c0.037-0.062,0.114-0.083,0.175-0.047
				l0.445,0.257l-0.221-0.825c-0.019-0.067,0.021-0.138,0.089-0.155c0.069-0.018,0.138,0.022,0.155,0.09l0.286,1.07l0.448,0.258
				l0.113-0.018l0.302-0.608v-0.13l-0.783-0.783c-0.05-0.05-0.05-0.13,0-0.179c0.05-0.051,0.13-0.051,0.179,0l0.604,0.603V8.453
				c0-0.069,0.057-0.126,0.127-0.126s0.128,0.057,0.128,0.126v0.515l0.604-0.603c0.05-0.051,0.13-0.051,0.18,0
				c0.049,0.049,0.049,0.129,0,0.179L20.19,9.326v0.131l0.3,0.608l0.116,0.018l0.447-0.258l0.287-1.07
				c0.019-0.067,0.086-0.108,0.155-0.09c0.066,0.019,0.107,0.088,0.089,0.155l-0.22,0.825l0.443-0.257
				c0.062-0.036,0.139-0.015,0.175,0.047c0.035,0.061,0.015,0.138-0.046,0.173l-0.445,0.257l0.825,0.221
				c0.021,0.005,0.028,0.022,0.044,0.034h2.344c-0.167-1.845-1.409-3.375-3.094-3.971V4.71c0-0.769-0.563-1.403-1.3-1.522V0h-0.402
				l0.002,3.179c-0.781,0.08-1.392,0.731-1.392,1.532v1.441c-1.685,0.593-2.927,2.125-3.094,3.969h2.344
				C17.782,10.108,17.791,10.091,17.81,10.086z M19.274,4.71c0-0.435,0.354-0.789,0.789-0.789c0.435,0,0.789,0.354,0.789,0.789
				v0.333h-1.578V4.71z"/>
			<path d="M20.901,10.382l-0.515-0.073c-0.04-0.005-0.077-0.03-0.096-0.069l-0.229-0.465l-0.229,0.465
				c-0.019,0.039-0.055,0.064-0.095,0.069l-0.513,0.073l0.37,0.363c0.03,0.03,0.044,0.071,0.036,0.112l-0.087,0.511l0.457-0.242
				c0.02-0.008,0.041-0.014,0.061-0.014s0.041,0.005,0.06,0.014l0.458,0.242l-0.087-0.511c-0.009-0.042,0.007-0.082,0.036-0.112
				L20.901,10.382z"/>
			<path d="M22.25,10.754v-0.423l-1.072-0.285l-0.167,0.097l0.181,0.025c0.047,0.009,0.088,0.041,0.102,0.087
				c0.015,0.045,0.002,0.097-0.032,0.13l-0.453,0.442l0.37,0.214L22.25,10.754z"/>
			<path d="M19.115,10.142l-0.167-0.097l-1.072,0.285v0.423l1.07,0.286l0.37-0.214l-0.453-0.442
				c-0.035-0.033-0.048-0.085-0.033-0.13c0.016-0.047,0.056-0.079,0.104-0.087L19.115,10.142z"/>
			<path d="M22.315,10.999l-0.825,0.222l0.445,0.256c0.061,0.036,0.081,0.114,0.045,0.175c-0.022,0.04-0.065,0.063-0.108,0.063
				c-0.022,0-0.045-0.006-0.064-0.019l-0.444-0.257l0.221,0.826c0.02,0.067-0.021,0.138-0.089,0.155
				c-0.012,0.003-0.021,0.004-0.033,0.004c-0.056,0-0.106-0.036-0.123-0.095l-0.286-1.069l-0.258-0.148l0.08,0.467
				c0.009,0.046-0.012,0.094-0.051,0.124c-0.022,0.016-0.049,0.023-0.075,0.023c-0.021,0-0.041-0.005-0.059-0.016l-0.5-0.262v0.31
				l0.783,0.783c0.049,0.049,0.049,0.129,0,0.179c-0.025,0.024-0.058,0.038-0.089,0.038c-0.034,0-0.066-0.014-0.09-0.038
				l-0.604-0.604v0.515c0,0.068-0.057,0.127-0.128,0.127c-0.069,0-0.127-0.059-0.127-0.127v-0.515l-0.604,0.604
				c-0.049,0.049-0.129,0.049-0.179,0c-0.05-0.05-0.05-0.13,0-0.179l0.783-0.783v-0.31l-0.502,0.262
				c-0.043,0.023-0.094,0.02-0.132-0.008c-0.041-0.029-0.06-0.077-0.051-0.124l0.08-0.467l-0.258,0.148l-0.286,1.07
				c-0.017,0.059-0.066,0.095-0.124,0.095c-0.011,0-0.021-0.001-0.032-0.004c-0.068-0.018-0.108-0.087-0.089-0.155l0.221-0.826
				l-0.445,0.257c-0.021,0.013-0.042,0.019-0.063,0.019c-0.045,0-0.088-0.023-0.11-0.063c-0.035-0.062-0.014-0.139,0.047-0.174
				l0.444-0.257l-0.824-0.222c-0.019-0.004-0.029-0.021-0.043-0.032h-2.344c0.215,2.375,2.209,4.237,4.64,4.237
				s4.425-1.861,4.639-4.237h-2.344C22.343,10.978,22.333,10.995,22.315,10.999z"/>
		</g>
	</g>
</g>
<g>
</g>
<g>
</g>
<g>
</g>
<g>
</g>
<g>
</g>
<g>
</g>
<g>
</g>
<g>
</g>
<g>
</g>
<g>
</g>
<g>
</g>
<g>
</g>
<g>
</g>
<g>
</g>
<g>
</g>
</svg>
