<?xml version="1.0"?>
<svg xmlns="http://www.w3.org/2000/svg" height="512px" viewBox="-7 0 429 429.79601" width="512px" class=""><g><path d="m196.996094 186.632812c-2.046875.003907-3.996094-.894531-5.324219-2.453124l-15.554687-18.21875c-1.652344-1.898438-2.15625-4.535157-1.324219-6.910157s2.878906-4.117187 5.351562-4.570312c2.476563-.449219 5.003907.460937 6.621094 2.390625l11.117187 13.019531 30.925782-25.160156c1.933594-1.613281 4.589844-2.0625 6.945312-1.171875 2.359375.886718 4.054688 2.976562 4.445313 5.464844.390625 2.488281-.585938 4.996093-2.558594 6.566406l-36.226563 29.472656c-1.246093 1.019531-2.808593 1.574219-4.417968 1.570312zm0 0" fill="#1ae5be" data-original="#1AE5BE" class="active-path" style="fill:#FF3348" data-old_color="#1ae5be"/><path d="m207.332031 241.894531c-42.523437 0-77-34.472656-77-77 0-42.523437 34.476563-77 77-77 42.527344 0 77 34.476563 77 77-.046875 42.507813-34.492187 76.953125-77 77zm0-140c-34.792969 0-63 28.207031-63 63 0 34.796875 28.207031 63 63 63s63-28.203125 63-63c-.039062-34.777343-28.222656-62.957031-63-63zm0 0" fill="#1ae5be" data-original="#1AE5BE" class="active-path" style="fill:#FF3348" data-old_color="#1ae5be"/><path d="m401.503906 160.765625-65.347656-40.328125c-.238281-.144531-.480469-.277344-.730469-.390625l-1.027343-.476563v-17.035156c0-1.726562-.636719-3.390625-1.789063-4.675781l-85.535156-95.355469c-.109375-.121094-.226563-.234375-.34375-.347656-1.316407-1.378906-3.140625-2.15625-5.046875-2.15625-.261719 0-.527344.015625-.789063.046875l-.121093-.0117188c-.234376-.0234374-.464844-.0351562-.699219-.0351562h-120.960938c-21.371093.0234375-38.691406 17.34375-38.714843 38.714844v81.382812l-67.082032 40.652344c-8 4.925781-12.886718 13.640625-12.917968 23.039062v194.558594c.027343 28.402344 23.042968 51.417969 51.445312 51.449219h311.109375c28.402344-.03125 51.417969-23.046875 51.445313-51.449219v-194.558594c-.03125-9.386718-4.90625-18.09375-12.894532-23.023437zm-7.328125 11.929687c3.851563 2.371094 6.207031 6.566407 6.222657 11.09375v10.632813l-66 40.335937v-98.953124zm-145.492187-147.429687 54.222656 60.449219h-29.507812c-13.644532-.015625-24.699219-11.074219-24.714844-24.71875zm-129.570313-11.269531h115.570313v47c.023437 21.371094 17.34375 38.691406 38.714844 38.71875h42.066406l4.933594 5.5v138.097656l-113 69.054688-113-69.054688v-204.597656c.011718-13.644532 11.070312-24.703125 24.714843-24.71875zm-98.515625 158.710937 59.800782-36.242187v98.292968l-66-40.335937v-10.632813c.011718-4.515624 2.359374-8.707031 6.199218-11.082031zm342.355469 243.089844h-311.109375c-20.671875-.023437-37.425781-16.777344-37.445312-37.449219v-167.519531l68.175781 41.667969c.722656.6875 1.578125 1.210937 2.519531 1.539062l118.652344 72.507813c2.242187 1.371093 5.0625 1.371093 7.300781 0l118.65625-72.511719c.941406-.328125 1.796875-.851562 2.519531-1.539062l68.175782-41.664063v167.519531c-.019532 20.671875-16.773438 37.425782-37.445313 37.449219zm0 0" fill="#0635c9" data-original="#0635C9" class="" data-old_color="#0635c9" style="fill:#000000"/><path d="m382.953125 395.796875h-311.109375c-20.671875-.023437-37.425781-16.777344-37.445312-37.449219v-135.300781l-20-12.21875v167.519531c.019531 20.671875 16.773437 37.425782 37.445312 37.449219h311.109375c15.066406-.015625 28.660156-9.046875 34.515625-22.929687-4.59375 1.9375-9.527344 2.933593-14.515625 2.929687zm0 0" fill="#d4e1f4" data-original="#D4E1F4" class=""/></g> </svg>
