<svg id="Layer_1" data-name="Layer 1" xmlns="http://www.w3.org/2000/svg" viewBox="0 0 326.74 326.13"><defs><style>.cls-1{fill:#e6e6e6;}.cls-2{fill:#fff;opacity:0.4;}.cls-3,.cls-5{fill:#c4c4c4;}.cls-3,.cls-4{opacity:0.3;}</style></defs><title>moon</title><circle class="cls-1" cx="606.59" cy="278.54" r="162.52" transform="translate(-172.21 740.01) rotate(-84.57)"/><path class="cls-2" d="M455.07,290.54A162.52,162.52,0,0,1,731.81,174.93,162.52,162.52,0,1,0,492.37,394.15,161.85,161.85,0,0,1,455.07,290.54Z" transform="translate(-444.07 -116.02)"/><path class="cls-3" d="M759.81,267.63a162.51,162.51,0,0,1-276.74,115.6A162.52,162.52,0,1,0,722.5,164,161.86,161.86,0,0,1,759.81,267.63Z" transform="translate(-444.07 -116.02)"/><g class="cls-4"><path class="cls-5" d="M632,405.77c-.44,7.88-15.34,13.44-33.28,12.44s-32.14-8.19-31.7-16.06,15.34-13.44,33.29-12.44S632.48,397.9,632,405.77Z" transform="translate(-444.07 -116.02)"/><path class="cls-5" d="M555.77,391.56c-2.7,5.11-14.32,4.24-25.94-1.93s-18.86-15.3-16.15-20.4,14.32-4.23,26,1.93S558.48,386.47,555.77,391.56Z" transform="translate(-444.07 -116.02)"/><path class="cls-5" d="M519.23,349.84c4.62,5.12,10.9,7,14,4.16s1.93-9.26-2.68-14.38-10.89-7-14-4.16S514.62,344.72,519.23,349.84Z" transform="translate(-444.07 -116.02)"/></g><g class="cls-4"><ellipse class="cls-5" cx="127.52" cy="249.11" rx="13" ry="4.25"/><path class="cls-5" d="M487.14,329.37c2.69,5.76,2.94,11.32.56,12.43s-6.48-2.66-9.17-8.41S475.6,322.07,478,321,484.46,323.62,487.14,329.37Z" transform="translate(-444.07 -116.02)"/><path class="cls-5" d="M491,300.38c1.84,4,2,7.79.38,8.55s-4.46-1.83-6.31-5.79-2-7.79-.38-8.56S489.1,296.41,491,300.38Z" transform="translate(-444.07 -116.02)"/><path class="cls-5" d="M501.55,362c1.85,4,2,7.79.38,8.55s-4.46-1.83-6.3-5.79-2-7.79-.39-8.55S499.7,358,501.55,362Z" transform="translate(-444.07 -116.02)"/><path class="cls-5" d="M606.61,361.61c4.38,0,7.91,1.52,7.89,3.33s-3.57,3.24-7.94,3.21-7.9-1.53-7.89-3.33S602.24,361.58,606.61,361.61Z" transform="translate(-444.07 -116.02)"/><path class="cls-5" d="M563.52,345.85c2.72,1.25,4.5,3.17,4,4.29s-3.14,1-5.86-.23-4.5-3.17-4-4.29S560.81,344.6,563.52,345.85Z" transform="translate(-444.07 -116.02)"/></g></svg>