<?xml version="1.0"?>
<svg xmlns="http://www.w3.org/2000/svg" xmlns:xlink="http://www.w3.org/1999/xlink" viewBox="0 0 512 512" width="512" height="512"><defs><linearGradient id="linear-gradient" x1="45.06" y1="477.812" x2="457.812" y2="65.06" gradientUnits="userSpaceOnUse"><stop offset="0" stop-color="#41dfd0"/><stop offset="1" stop-color="#ee83ef"/></linearGradient></defs><g id="gradient"><path d="M184,160a8,8,0,0,0,0-16h-8a56.078,56.078,0,0,0-48-55.419V80a8,8,0,0,0-16,0v8.581A56.078,56.078,0,0,0,64,144H56a8,8,0,0,0,0,16Zm-64-56a40.045,40.045,0,0,1,40,40H80A40.045,40.045,0,0,1,120,104ZM472,90a26.03,26.03,0,0,0-26-26H207.6A103.978,103.978,0,0,0,16,120a117.432,117.432,0,0,0,32,80.431V470a26.03,26.03,0,0,0,26,26H446a26.03,26.03,0,0,0,26-26V359a117.433,117.433,0,0,0,24-71,103.529,103.529,0,0,0-24-66.378Zm-16,0V206.08a103.847,103.847,0,0,0-104-14.075V80h94A10.011,10.011,0,0,1,456,90ZM336,80V200.4a104.82,104.82,0,0,0-32,32.239V80ZM456,376.186V448H240V344h62.292a116.949,116.949,0,0,0,23.686,30.332L386.594,429.9a8,8,0,0,0,10.812,0ZM232,328a8,8,0,0,0-8,8V448H192V336a8,8,0,0,0-8-8H64V296H288.285a117.174,117.174,0,0,0,6.794,32ZM64,448V344H176V448ZM288,80V280H64V215.519L114.594,261.9a8,8,0,0,0,10.812,0l60.616-55.565A117.4,117.4,0,0,0,224,120a103.425,103.425,0,0,0-8-40ZM120,32a88.1,88.1,0,0,1,88,88,101.359,101.359,0,0,1-32.789,74.537L120,245.147l-55.211-50.61c-1.055-.967-2.082-1.961-3.091-2.969l-.094-.093A101.379,101.379,0,0,1,32,120,88.1,88.1,0,0,1,120,32ZM456,470a10.011,10.011,0,0,1-10,10H74a10.011,10.011,0,0,1-10-10v-6H456Zm-8.789-107.463L392,413.147l-55.211-50.61A101.359,101.359,0,0,1,304,288a88,88,0,0,1,176,0A101.359,101.359,0,0,1,447.211,362.537Zm6.446-80.194-56-56a8,8,0,0,0-11.314,0l-56,56A8,8,0,0,0,336,296h8v40a8,8,0,0,0,8,8h80a8,8,0,0,0,8-8V296h8a8,8,0,0,0,5.657-13.657ZM392,243.314,428.686,280H355.314ZM424,328H400V312H384v16H360V296h64Z" style="fill:url(#linear-gradient)"/></g></svg>
