<?xml version="1.0"?>
<svg xmlns="http://www.w3.org/2000/svg" xmlns:xlink="http://www.w3.org/1999/xlink" viewBox="0 0 512 512" width="512" height="512"><defs><linearGradient id="linear-gradient" x1="49.166" y1="435.229" x2="439.856" y2="44.539" gradientUnits="userSpaceOnUse"><stop offset="0" stop-color="#41dfd0"/><stop offset="1" stop-color="#ee83ef"/></linearGradient></defs><g id="gradient"><path d="M72,123.056V96H48v24a8,8,0,0,1-4.422,7.155l-16,8a8,8,0,0,1-7.156-14.31L32,115.056V88a8,8,0,0,1,8-8H80a8,8,0,0,1,8,8v40a8,8,0,0,1-4.422,7.155l-16,8a8,8,0,1,1-7.156-14.31ZM402.824,80.3a8,8,0,0,0,11.314-.1l12.54-12.757a8,8,0,0,0,1.862-8.2L415.567,21.405a8,8,0,0,0-10.162-4.972L367.567,29.405A8,8,0,0,0,362.6,39.567l8.775,25.594L362.3,74.392a8,8,0,1,0,11.41,11.216l12.541-12.756a8,8,0,0,0,1.862-8.2l-7.784-22.7,22.7-7.783L411.8,59.756l-9.074,9.23A8,8,0,0,0,402.824,80.3ZM432.006,200a7.973,7.973,0,0,0,3.572-.847l16-8A8,8,0,0,0,456,184V164.944l11.578-5.789a8,8,0,1,0-7.156-14.31l-16,8A8,8,0,0,0,440,160v19.056l-11.578,5.789A8,8,0,0,0,432.006,200Zm61.646,119.374,3.1,31.85a8,8,0,0,1-4.644,8.053l-35.1,16a7.989,7.989,0,0,1-3.319.721c-.844,0-30.547-9.658-30.547-9.658l-29.893,3.271V392a8,8,0,0,1-7.2,7.96l-32.058,6.449c-.287.058-.575.09-.863.129l.551,81.408-16,.108-.563-83.2-31.03,3.1-.036,0h0a7.886,7.886,0,0,1-.8.04H280.79a18.088,18.088,0,0,1-17.31-13.044l-1.736-6.079a63.245,63.245,0,0,1-5.057,11.081l7.286,87.377A8,8,0,0,1,256,496H113.25a8,8,0,0,1-8-8V455.6A79.973,79.973,0,0,1,48.074,329.643,33.2,33.2,0,0,1,19.516,281.58l3.359-6.718A33.135,33.135,0,0,1,35.18,261.416l69.108-42.529A127.289,127.289,0,0,1,171.02,200h22.23v-6.451A39.875,39.875,0,0,1,184.805,176H184a24.028,24.028,0,0,1-24-24V126a54.062,54.062,0,0,1,54-54h46a28,28,0,0,1,4,55.718V168a39.764,39.764,0,0,1-6.75,22.207v28.9l3.7,1.882.062.032,21.322,10.875a69.842,69.842,0,0,1,38.194,61.372l.514,35.972,15.549-1.7L336,240.054a8,8,0,0,1,.493-2.819l4.085-11.091L320.937,216.9c-.31.09-.618.185-.932.266a32.226,32.226,0,0,1-8.054,1.029,32.006,32.006,0,1,1,29.426-44.718l60.478,28.452a8,8,0,0,1,3.833,10.646l-13.629,28.95a7.994,7.994,0,0,1-10.644,3.832L355.11,232.982l-3.1,8.418.571,84.39,68.665-7.506,20.1-13a7.979,7.979,0,0,1,5.942-1.122l40,8.151A8,8,0,0,1,493.652,319.376ZM360.66,217.911l20.329,9.566L387.8,213l-21.595-10.159ZM327.5,182.184a16,16,0,1,0-11.493,19.492A16.031,16.031,0,0,0,327.5,182.184ZM224.145,271.138,211.3,304.808a64.279,64.279,0,0,1,40.314,23.736l4.621-18.484a8,8,0,0,1,15.522,3.88l-5.316,21.265,38.622-4.222-.536-37.489a53.882,53.882,0,0,0-29.465-47.348L270.848,244l3.077,9.553a8,8,0,0,1-6.3,10.344ZM141.521,384H169.25V358.564l-33.57-6.719a8.016,8.016,0,0,1-4.087-2.188l-39.8-39.8-23,13.474c-.021.015-.042.028-.063.042l56.954,37.972a8.02,8.02,0,0,1,2.22,2.22Zm-12.7,9.786L115.48,373.769l-9.815-6.544a23.957,23.957,0,0,0,29.416,31.686A14.007,14.007,0,0,1,128.816,393.786ZM173.99,343.2a13.916,13.916,0,0,1,4.316,1.645l60.574-6.62a47.964,47.964,0,0,0-68.991-6.545,8,8,0,0,1-10.946-.458,63.408,63.408,0,0,0-42.287-19.125l24.538,24.539ZM248,128H200v40a24,24,0,0,0,48,0ZM237.122,252.754l18.732-3.122-4.8-14.893ZM209.25,206.809l12.2,40.054,19.8-25.6V204.084a39.9,39.9,0,0,1-32,1.085ZM184,144a8,8,0,0,0,0,16Zm72-32h4a12,12,0,0,0,0-24H214a38.043,38.043,0,0,0-38,38v3.376A23.889,23.889,0,0,1,184,128v-8a8,8,0,0,1,8-8ZM183.991,231.509l20.145,13.429-7.16-23.5Zm-133.2,82.1.028,0c3.218-.3,80.83-48.322,80.83-48.322a8,8,0,1,1,8.706,13.424l-26.677,17.3a79.246,79.246,0,0,1,51.5,19.14,64.019,64.019,0,0,1,29.172-10.77l14.212-37.264-42.688-28.459a8,8,0,0,1-.466-12.977L177.88,216h-6.86a111.3,111.3,0,0,0-58.348,16.515s-74.049,46.62-75.483,49.5l-3.364,6.727a17.231,17.231,0,0,0,16.964,24.874ZM113.25,440A64,64,0,0,0,166.3,411.815a8,8,0,0,1,10.683-2.41,48,48,0,0,0,68.871-23.665l-62.233,6.807A14.008,14.008,0,0,1,171.25,400H159.984a39.989,39.989,0,0,1-67.812-41.771l-30.38-20.256A63.98,63.98,0,0,0,113.25,440ZM184,429.617A63.848,63.848,0,0,1,175.3,426.5a79.958,79.958,0,0,1-54.045,29.091V480H184ZM247.306,480l-5.228-62.685A63.7,63.7,0,0,1,201.25,432c-.417,0-.833-.025-1.25-.033V480Zm50.6-99.954-21.38,2.338,2.333,8.169A2.015,2.015,0,0,0,280.79,392h16.722Zm38.9-20.35L336.7,343.62,185.25,360.178v16.1Zm.2,29.092-.088-13.009-22.943,2.51-.426,12.841Zm14.671-192.781-8.237-3.875a32.2,32.2,0,0,1-6.819,14.468l9.507,4.473Zm25.568,165.752-24,4.8v.141c0,.054,0,.108,0,.162v23.379l24-4.8ZM480.274,347.09,478.3,326.809l-31.008-6.318-18.948,12.256a7.967,7.967,0,0,1-3.475,1.235l-72.181,7.891.058,8.468,21.36-4.272a15.946,15.946,0,0,1,16.978,7.686l32.045-3.507a7.953,7.953,0,0,1,3.378.356l26.715,8.817Z" style="fill:url(#linear-gradient)"/></g></svg>
