<svg height="511pt" viewBox="-11 0 511 511.9996" width="511pt" xmlns="http://www.w3.org/2000/svg" xmlns:xlink="http://www.w3.org/1999/xlink"><linearGradient id="a" gradientTransform="matrix(.353039 0 0 -.353039 -10.626562 499.816888)" gradientUnits="userSpaceOnUse" x1="246.6522" x2="1227.5867" y1="219.6729" y2="1200.6073"><stop offset="0" stop-color="#41dfd0"/><stop offset="1" stop-color="#ee83ef"/></linearGradient><path d="m490.246094 244.820312c-.027344-135.238281-109.6875-244.8476558-244.925782-244.820312-135.238281.0273438-244.847656 109.6875-244.820312 244.925781.023438 106.527344 68.910156 200.816407 170.390625 233.21875.96875.304688 1.976563.460938 2.988281.457031 1.929688-.003906 3.820313-.519531 5.480469-1.496093 2.160156-1.28125 3.773437-3.3125 4.53125-5.707031l61.839844-196c16.90625-.085938 30.539062-13.863282 30.449219-30.765626-.085938-16.90625-13.859376-30.539062-30.765626-30.453124-4.546874.019531-9.035156 1.066406-13.121093 3.0625l-81.695313-81.707032c-4.054687-3.914062-10.511718-3.800781-14.429687.25-3.816407 3.957032-3.816407 10.222656 0 14.179688l81.65625 81.746094c-6.265625 12.789062-2.683594 28.226562 8.582031 36.945312l-58.921875 186.765625c-116.445313-42.894531-176.070313-172.0625-133.175781-288.507813 42.894531-116.445312 172.0625-176.070312 288.507812-133.175781 116.445313 42.894531 176.070313 172.066407 133.175782 288.507813-20.957032 56.890625-64.015626 102.898437-119.394532 127.574218l-6.367187-29.988281c-1.167969-5.511719-6.582031-9.035156-12.09375-7.867187-1.738281.371094-3.351563 1.1875-4.679688 2.367187l-61.390625 54.8125c-4.210937 3.746094-4.585937 10.195313-.835937 14.40625 1.21875 1.367188 2.78125 2.382813 4.53125 2.9375l78.378906 25.019531c5.363281 1.722657 11.109375-1.230468 12.832031-6.59375.546875-1.695312.636719-3.5.269532-5.242187l-6.257813-29.425781c90.628906-38.207032 149.472656-127.074219 149.261719-225.425782zm-244.871094-10.203124c5.632812 0 10.203125 4.570312 10.203125 10.203124 0 5.636719-4.570313 10.203126-10.203125 10.203126-5.636719 0-10.207031-4.566407-10.207031-10.203126 0-5.632812 4.570312-10.203124 10.207031-10.203124zm33.605469 237.824218 34.945312-31.171875 9.644531 45.445313zm-33.605469-431.683594c5.632812 0 10.203125 4.570313 10.203125 10.207032v20.402344c0 5.636718-4.570313 10.203124-10.203125 10.203124-5.636719 0-10.207031-4.566406-10.207031-10.203124v-20.402344c0-5.636719 4.570312-10.207032 10.207031-10.207032zm-173.453125 193.859376c5.632813 0 10.203125 4.570312 10.203125 10.203124 0 5.636719-4.570312 10.203126-10.203125 10.203126h-20.40625c-5.636719 0-10.203125-4.566407-10.203125-10.203126 0-5.632812 4.566406-10.203124 10.203125-10.203124zm346.902344 20.40625c-5.632813 0-10.203125-4.566407-10.203125-10.203126 0-5.636718 4.570312-10.203124 10.203125-10.203124h20.40625c5.636719 0 10.203125 4.566406 10.203125 10.203124 0 5.636719-4.566406 10.203126-10.203125 10.203126zm0 0" fill="url(#a)"/></svg>