<?xml version="1.0"?>
<svg xmlns="http://www.w3.org/2000/svg" height="512px" viewBox="-39 0 411 411.22243" width="512px" class="hovered-paths"><g><path d="m108.640625 258.476562c-16.078125-17.125-27.886719-35.832031-35.101563-55.597656-7.355468-19.808594-10.464843-40.941406-9.125-62.03125 2.542969-38.714844 19.015626-75.203125 46.367188-102.714844 7.988281-8.027343 16.847656-15.128906 26.417969-21.175781-28.992188 5.835938-55.597657 20.167969-76.417969 41.175781-27.351562 27.511719-43.824219 64-46.367188 102.714844-1.339843 21.085938 1.769532 42.21875 9.125 62.027344 7.214844 19.769531 19.023438 38.476562 35.101563 55.601562l108.453125 115.523438 34.390625-36.628906zm0 0" fill="#d4e1f4" data-original="#D4E1F4" class=""/><path d="m167.09375 277.3125c-63.917969 0-115.921875-53.316406-115.921875-118.847656s52.003906-118.851563 115.921875-118.851563c63.921875 0 115.921875 53.3125 115.921875 118.847657 0 65.53125-52 118.851562-115.921875 118.851562zm0-223.699219c-56.199219 0-101.921875 47.035157-101.921875 104.847657s45.722656 104.851562 101.921875 104.851562c56.203125 0 101.921875-47.039062 101.921875-104.851562s-45.71875-104.847657-101.921875-104.847657zm0 0" fill="#1ae5be" data-original="#1AE5BE" class="hovered-path active-path" style="fill:#FF3348" data-old_color="#1ae5be"/><g fill="#0635c9"><path d="m48.433594 288.058594 113.5625 120.953125c1.320312 1.410156 3.167968 2.210937 5.101562 2.210937s3.78125-.800781 5.105469-2.210937l113.554687-120.953125c17.378907-18.511719 30.179688-38.828125 38.042969-60.382813 8.027344-21.640625 11.414063-44.726562 9.941407-67.761719-2.765626-42.089843-20.675782-81.753906-50.417969-111.664062-30.792969-30.890625-72.613281-48.25-116.230469-48.25-43.613281 0-85.433594 17.359375-116.226562 48.25-29.742188 29.910156-47.652344 69.574219-50.421876 111.664062-1.472656 23.035157 1.914063 46.121094 9.941407 67.761719 7.867187 21.554688 20.667969 41.871094 38.046875 60.382813zm-34.019532-127.210938c2.542969-38.714844 19.015626-75.203125 46.367188-102.714844 28.167969-28.253906 66.421875-44.132812 106.3125-44.132812 39.894531 0 78.148438 15.878906 106.3125 44.132812 27.355469 27.511719 43.824219 64 46.367188 102.714844 1.339843 21.085938-1.765626 42.21875-9.125 62.027344-7.210938 19.769531-19.019532 38.476562-35.097657 55.601562l-108.457031 115.523438-108.453125-115.523438c-16.078125-17.125-27.886719-35.832031-35.101563-55.597656-7.355468-19.808594-10.464843-40.945312-9.125-62.03125zm0 0" data-original="#0635C9" class="" style="fill:#000000" data-old_color="#0635C9"/><path d="m148.339844 193.882812c2.6875 2.691407 7.03125 2.738282 9.78125.113282l63.808594-60.945313c2.796874-2.671875 2.898437-7.101562.226562-9.898437-2.667969-2.796875-7.101562-2.898438-9.894531-.226563l-58.859375 56.21875-31.355469-31.355469c-2.734375-2.734374-7.167969-2.734374-9.902344 0-2.734375 2.734376-2.734375 7.167969 0 9.902344zm0 0" data-original="#0635C9" class="" style="fill:#000000" data-old_color="#0635C9"/></g></g> </svg>
