<?xml version="1.0" encoding="utf-8"?>
<!-- Generator: Adobe Illustrator 24.0.1, SVG Export Plug-In . SVG Version: 6.00 Build 0)  -->
<svg version="1.1" id="Layer_1" xmlns="http://www.w3.org/2000/svg" xmlns:xlink="http://www.w3.org/1999/xlink" x="0px" y="0px"
	 viewBox="0 0 50 50" style="enable-background:new 0 0 50 50;" xml:space="preserve">
<g fill="#fff" >
	<path d="M7.2,35.4c5.8-2.5,10-5.8,10-10.7c0-4.3-3.9-5.3-8-6.2c-1-0.2-1.7-2-1.7-3.4c0-3.3,2.6-5.5,6.2-5.5
		c5.4,0,10.8,4.4,10.8,12.6c0,8.7-7.9,14.5-15.8,16.7L7.2,35.4z M28.9,35.4c5.7-2.5,10-5.8,10-10.7c0-4.3-4.1-5.3-8.1-6.2
		c-0.9-0.2-1.7-2-1.7-3.4c0-3.3,2.6-5.5,6.3-5.5c5.4,0,10.7,4.4,10.7,12.6c0,8.7-7.9,14.5-15.6,16.7L28.9,35.4z"/>
</g>
</svg>
