<?xml version="1.0" encoding="utf-8"?>
<!-- Generator: Adobe Illustrator 24.0.1, SVG Export Plug-In . SVG Version: 6.00 Build 0)  -->
<svg version="1.1" id="Layer_1" xmlns="http://www.w3.org/2000/svg" xmlns:xlink="http://www.w3.org/1999/xlink" x="0px" y="0px"
	 viewBox="0 0 3000 1000" style="enable-background:new 0 0 3000 1000;" xml:space="preserve">
<style type="text/css">
	.st0{fill:#fff;}
</style>
<g>
	<g>
		<g>
			<g>
				<path class="st0" d="M1012.4,649c-8.3,24.4-11.2,42.8-18.8,68.3c-14.5,49.9-47.4,98.7-75.7,129.2c18.6,3.1,46.9-22.4,57.3-43.8
					c-8.3,27.5-20.7,51.9-36.6,71.3c23.5,3.1,59.4-37.6,73.8-61.1c3.4,23.4,1.4,31.6-4.8,75.3c12.4-8.1,25.5-36.7,31.1-55
					c3.4,20.4,3.4,44.8,11,63.1c4.8-21.4,8.3-47.8,11-71.2c-0.7,37.6,26.2,83.5,40.7,111c0.7-37.7-5.5-75.3-2.1-113
					c0.7,30.5,17.9,67.2,31.8,90.6c-2.8-25.5-6.2-55-3.5-81.4c3.5,25.4,20.7,44.8,34.5,57c0.7-14.2-2.8-31.6-3.4-45.8
					c-0.7-18.3-1.2-20.3-1.2-37.6c20.4,34.5,35.1,54.9,80.6,50.8c-17.9-12.2-29-24.4-40.7-48.9c-10.4-21.4-19.3-44.8-24.9-69.2
					c-11-46.8-24.2-101.8-44.9-140.5c-18.6-34.6-47.6-57-77.3-40.7c-20.7,11.2-26.9,39.7-33.8,67.2L1012.4,649z"/>
			</g>
			<g>
				<path class="st0" d="M1031.5,513c-19.1,69.2-27.1,150.3-77.7,187.1c28,1.1,45.5-20.8,55.8-42.4c-8.1,26-23.5,66.2-40.4,81.3
					c27.9-4.3,53.5-37.8,69.7-69.2c0.7,31.4-12.5,67.1-16.9,97.3c24.2-34.6,38.9-86.5,41.8-135.2c0,42.2-3.7,90.9,6.6,129.8
					c2.9-31.3,8.8-59.4,13.2-89.7c0-1.1,0-1.1,0-1.1c0,33.5,5.1,83.3,27.9,100.6c-2.2-38.9-9.5-75.7-9.5-114.6
					c3.7,33.5,16.9,77.9,35.2,98.4l0,0c-5.9-36.8-5.1-71.4-7.3-109.2c-3.7,46.5,59.4,69.2,81.4,69.2c-30.1-13-45.5-82.2-59.4-119
					c-17.6-44.3-26.4-104.9-50.6-142.8c-14.7-21.6-35.2-21.6-46.2,7.6L1031.5,513z"/>
			</g>
			<g>
				<path class="st0" d="M1060.1,346.5c0,74.6-26.4,150.3-60.9,203.3c-3.7,5.4-8.1,11.9-11.7,17.3c24.2-5.4,51.3-42.2,61.6-74.6
					c-2.9,29.2-19.1,57.3-31.5,80c28.6-5.4,38.1-57.3,52.8-84.4c0,30.3,0.7,62.8,7.3,93c2.9-30.3,8.8-61.6,12.5-89.8
					c3.6,23.8,9.5,56.3,22.7,72.5c-0.7-24.9-5.9-49.7-5.9-74.6c8.8,40,34.5,60.6,57.9,77.8c-22.7-38.9-38.9-91.9-52.1-140.6
					c-6.6-22.7-12.5-46.5-16.9-70.3c-2.2-11.9-8.1-64.9-25.7-45.4c-2.2,3.2-2.9,5.4-2.9,9.7L1060.1,346.5z"/>
			</g>
			<g>
				<path class="st0" d="M1077.3,231.2c0,21.4-3.1,43.5-7.8,62.6c-9.8,36.6-25.9,58-47.1,79.4c-2.1,2.3-4.7,3-6.7,5.4
					c15,3.8,29-0.8,38.3-19.9c-6.7,19.1-8.3,30.6-21.7,44.3c22.8-1.5,36.1-33.6,38.8-55.7c-0.4-11.9-2.4,36.9,6.2,54.2
					c2.1-19.1,3.1-40.5,3.6-60.3c4.7,25.2,23.8,45,39.9,55c-7.2-12.2-15.5-29-17.1-45c7.8,23.7,29.5,29.8,45.6,30.5
					c-20.2-14.5-45.6-44.3-56.9-72.5c-9.3-23.7-10.3-55.7-15-80.9V231.2z"/>
			</g>
		</g>
		<g>
			<g>
				<path class="st0" d="M396.7,685.9c-9.6,21.3-13,37.4-21.8,59.6c-16.7,43.5-54.8,86.1-87.5,112.7c21.5,2.7,54.2-19.5,66.2-38.2
					c-9.6,24-23.9,45.3-42.3,62.2c27.1,2.7,68.6-32.8,85.3-53.3c4,20.4,1.6,27.5-5.6,65.7c14.4-7.1,29.5-32,35.9-48
					c4,17.8,4,39.1,12.7,55.1c5.6-18.7,9.6-41.7,12.8-62.2c-0.8,32.8,30.3,72.8,47.1,96.8c0.8-32.9-6.4-65.7-2.4-98.6
					c0.8,26.7,20.7,58.6,36.7,79.1c-3.2-22.2-7.2-48-4-71.1c4,22.2,23.9,39.1,39.9,49.7c0.8-12.4-3.2-27.5-4-40
					c-0.8-16-1.4-17.7-1.4-32.8c23.6,30.1,40.5,47.9,93.1,44.3c-20.7-10.6-33.5-21.3-47-42.6c-12-18.7-22.3-39.1-28.7-60.4
					c-12.7-40.9-27.9-88.8-51.8-122.6c-21.5-30.2-55-49.7-89.3-35.5c-23.9,9.8-31.1,34.6-39.1,58.6L396.7,685.9z"/>
			</g>
			<g>
				<path class="st0" d="M418.7,567.3c-22,60.4-31.3,131.2-89.8,163.3c32.3,0.9,52.6-18.1,64.5-37c-9.3,22.6-27.2,57.7-46.7,70.9
					c32.2-3.7,61.8-33,80.5-60.4c0.8,27.4-14.4,58.5-19.5,84.9c28-30.2,44.9-75.5,48.3-118c0,36.8-4.2,79.3,7.6,113.2
					c3.4-27.3,10.1-51.9,15.2-78.3c0-0.9,0-0.9,0-0.9c0,29.3,5.9,72.7,32.2,87.8c-2.5-34-11-66-11-100c4.3,29.3,19.5,68,40.7,85.9
					l0,0c-6.8-32.1-5.9-62.3-8.5-95.3c-4.2,40.6,68.6,60.4,94,60.4c-34.7-11.3-52.5-71.7-68.6-103.8
					c-20.3-38.7-30.5-91.5-58.5-124.6c-16.9-18.9-40.7-18.9-53.4,6.6L418.7,567.3z"/>
			</g>
			<g>
				<path class="st0" d="M451.8,421.9c0,65.1-30.5,131.2-70.3,177.4c-4.2,4.7-9.3,10.4-13.6,15.1c28-4.7,59.3-36.8,71.2-65.1
					c-3.4,25.5-22,50-36.4,69.8c33-4.7,44-50,61-73.6c0,26.4,0.8,54.7,8.5,81.2c3.4-26.4,10.2-53.8,14.4-78.3
					c4.2,20.7,11,49.1,26.2,63.2c-0.8-21.7-6.8-43.4-6.8-65.1c10.2,34.9,39.8,52.8,66.9,67.9c-26.3-34-44.9-80.2-60.2-122.7
					c-7.6-19.8-14.4-40.6-19.5-61.3c-2.6-10.4-9.3-56.6-29.6-39.6c-2.6,2.8-3.4,4.7-3.4,8.5L451.8,421.9z"/>
			</g>
			<g>
				<path class="st0" d="M471.6,321.3c0,18.6-3.6,37.9-9,54.6c-11.4,32-29.9,50.6-54.4,69.3c-2.4,2-5.4,2.7-7.8,4.7
					c17.4,3.3,33.5-0.7,44.3-17.3c-7.8,16.7-9.6,26.7-25.1,38.6c26.3-1.3,41.7-29.3,44.8-48.6c-0.4-10.4-2.8,32.2,7.2,47.3
					c2.4-16.7,3.6-35.3,4.2-52.6c5.4,22,27.5,39.3,46,48c-8.4-10.6-17.9-25.3-19.7-39.3c9,20.7,34.1,26,52.6,26.6
					c-23.3-12.6-52.6-38.6-65.8-63.3c-10.8-20.7-11.9-48.6-17.3-70.6V321.3z"/>
			</g>
		</g>
		<g>
			<g>
				<path class="st0" d="M715.2,637.5c-6.9,19.8-9.4,34.7-15.8,55.3c-12.1,40.4-39.8,79.9-63.5,104.6c15.6,2.5,39.3-18.1,48-35.5
					c-6.9,22.3-17.4,42.1-30.7,57.7c19.7,2.5,49.8-30.5,61.9-49.4c2.9,19,1.2,25.6-4,61c10.4-6.6,21.4-29.7,26-44.5
					c2.9,16.5,2.9,36.3,9.3,51.1c4.1-17.3,6.9-38.7,9.3-57.7c-0.6,30.5,22,67.6,34.2,89.9c0.6-30.5-4.6-61-1.7-91.5
					c0.6,24.7,15,54.4,26.6,73.4c-2.3-20.6-5.2-44.5-2.9-65.9c2.9,20.6,17.4,36.3,28.9,46.2c0.6-11.5-2.3-25.6-2.9-37.1
					c-0.6-14.9-1-16.4-1-30.5c17.1,28,29.4,44.5,67.6,41.2c-15-9.9-24.3-19.8-34.1-39.6c-8.7-17.3-16.2-36.3-20.8-56.1
					c-9.2-37.9-20.2-82.4-37.6-113.8c-15.6-28-39.9-46.1-64.8-33c-17.4,9.1-22.6,32.2-28.4,54.4L715.2,637.5z"/>
			</g>
			<g>
				<path class="st0" d="M731.3,527.4c-16,56-22.7,121.7-65.2,151.5c23.5,0.9,38.2-16.8,46.8-34.3c-6.8,21-19.7,53.6-33.9,65.8
					c23.4-3.5,44.9-30.7,58.4-56c0.6,25.4-10.4,54.3-14.1,78.8c20.3-28,32.6-70.1,35-109.5c0,34.2-3.1,73.6,5.5,105.1
					c2.5-25.4,7.4-48.2,11.1-72.7c0-0.9,0-0.9,0-0.9c0,27.1,4.3,67.4,23.4,81.4c-1.9-31.5-8-61.3-8-92.9
					c3.1,27.2,14.1,63.1,29.5,79.7l0,0c-4.9-29.8-4.3-57.8-6.1-88.4c-3.1,37.6,49.8,56,68.2,56c-25.2-10.5-38.1-66.6-49.8-96.3
					c-14.7-35.9-22.1-85-42.4-115.6c-12.3-17.5-29.5-17.5-38.7,6.1L731.3,527.4z"/>
			</g>
			<g>
				<path class="st0" d="M755.2,392.5c0,60.4-22.1,121.7-51,164.7c-3.1,4.4-6.8,9.6-9.8,14c20.3-4.4,43-34.2,51.6-60.4
					c-2.5,23.6-16,46.4-26.4,64.8c24-4.4,32-46.4,44.3-68.3c0,24.5,0.6,50.8,6.1,75.3c2.5-24.5,7.4-49.9,10.5-72.7
					c3.1,19.3,8,45.5,19,58.7c-0.6-20.2-4.9-40.3-4.9-60.4c7.4,32.4,28.9,49,48.6,63c-19.1-31.5-32.6-74.4-43.6-113.8
					c-5.5-18.4-10.4-37.7-14.1-56.9c-1.8-9.6-6.8-52.5-21.5-36.8c-1.9,2.6-2.5,4.4-2.5,7.9L755.2,392.5z"/>
			</g>
			<g>
				<path class="st0" d="M769.6,299.1c0,17.3-2.6,35.2-6.5,50.7c-8.2,29.7-21.7,47-39.5,64.3c-1.7,1.9-3.9,2.5-5.6,4.3
					c12.6,3.1,24.3-0.6,32.1-16.1c-5.6,15.4-6.9,24.7-18.2,35.8c19.1-1.2,30.2-27.2,32.6-45.1c-0.3-9.6-2,29.9,5.2,43.9
					c1.7-15.5,2.6-32.8,3-48.8c3.9,20.4,20,36.5,33.4,44.5c-6.1-9.9-13-23.5-14.3-36.5c6.5,19.2,24.7,24.1,38.2,24.7
					c-16.9-11.7-38.2-35.9-47.7-58.7c-7.8-19.2-8.7-45.1-12.6-65.5V299.1z"/>
			</g>
		</g>
		<g>
			<g>
				<path class="st0" d="M358.6,653.4c-0.9,18.8,11,45,18,59.7c13.6,27.8,34,49.9,52,71.3c-22.9,2.1-45-16-60.8-36.7
					c10.1,25.5,27.6,42.3,42.2,62.2c-23.5,4.5-43.4-24.7-55.7-47.8c1.4,17.9,10.2,34.1,16.2,48.8c-15-8.2-33.6-26.5-41.9-45.8
					c4.3,22.6,14.3,41.1,24.3,59.6c-21.9-6.5-37.3-40.5-45.7-65.3c-2.6,19.6,1.7,41.4-0.9,61c-7.7-15.4-4.6-40.5-12.8-56.7
					c0.3,20.3-8.6,40.1-17,54.4c-0.8-19.5,0-39.8-1.4-59.4c-4.9,20.4-19,39.6-30.8,53.2c8.3-19,6.9-40,11.2-60.5
					c-0.9,17.2-24.6,54.7-44.3,63.4c11.9-14.4,24.7-49.3,28.8-68.5c-11.7,26.9-40.6,49.9-82.6,43.5c21.9-10.7,34.6-22,43.6-35.5
					c-5.5,4.4-23.1,10.9-28,12.1c36-29.6,45.9-54.8,55.2-88.7c7.6-29.9,9.8-81.5,32.5-96.2c27.9-17.1,76.2-9.7,88.8,33.7
					L358.6,653.4z"/>
			</g>
			<g>
				<path class="st0" d="M321.6,514.3c1.8,4.1,1.9,12.3,3.7,17.5c3.2,12.2,7.2,25,11.3,36.6c9.9,28.5,24.8,48.6,43.9,64.5
					c7.4,6.3,14.4,11.4,22.6,15.8c-19.3,8.1-32.8-6.2-47.2-21.6c10.2,19.7,25,33.4,38.9,47.1c-9.8,6.1-28.9-8.1-36.8-14.9
					c-11.3-9.7-21.4-21.7-31-33.8c-0.5,24.1,15.3,47.7,19.9,68.7c-7.9-8.6-14-14.9-21-25.8c-5.7-9.8-14-19-17.2-30.6
					c0.7,18.1,7.8,35.5,7.2,54.3c-5.8-11.6-9.4-23.8-13.8-36c0.1,7,3.2,15.8,0.7,21.7c-8.3-10.9-8.6-32.6-12.7-46.6
					c-0.6,17,0,33.4-3.2,49.9c-5.4-18-9.5-36.7-14.1-54.7c0.3,20.5-2.9,39.3-8.7,58.2c-1.1-19.9-0.6-43.4-3.5-63.2
					c1.1,20.5-8.9,40.1-13.8,58.4c-1.1-20.5,4.2-41.7,3.9-61.6l0,0.6c-2.9,11.2-11.2,29.6-17.1,38.5c-5.5,7.2-34,34.9-42.1,36.2
					c17.8-19.8,32-51.8,36-72.4l0,0c-3.7,11.2-18.2,23.9-25.8,30c-6.4,5.4-13.7,6.8-21,8.2c18.4-4.6,34.3-40.7,43.1-60.3
					c10.9-23.7,19.1-50.3,24.7-77.4c3.2-15.3,7.1-48.2,19.1-53.8c15.8-6.8,37.4-0.4,43.8,22.3L321.6,514.3z"/>
			</g>
			<g>
				<path class="st0" d="M290.2,420.9c12.7,25,54,119.1,73.9,127.4c-15.9,6.9-40.3-20.1-46.5-30.5c9.3,22,23.8,36.3,41.3,48.2
					c-29.5-1.6-40-16.6-54.2-45.5c1.5,14.6,9.9,29.7,10.1,44.9c-14.4-13.1-22.6-45.2-29.7-66.1c1.1,20.5,3.2,43.9-0.8,63.9
					c-3.7-19.8-8.7-39-11.6-58.9c-0.1,25.2-8.4,45.4-18.5,65.5c1-18.8,4.7-37.1,4.4-56.4c-17.8,23.3-35,33.1-60.6,37.3
					c17.4-13.9,58.2-53.7,64.6-122.4c1.4-15.2,0-11.5,4.1-25.7c3.3-13,18.6-21.6,22.8-4.1L290.2,420.9z"/>
			</g>
			<g>
				<path class="st0" d="M276.6,306.2c-0.5,16.7,2,32.8,3.6,49.4c3.9,40.3,39.7,85.7,49,90.9c-15.1-0.9-26.3-11.1-34.2-22.8
					c3.2,9.2,11.8,34.8,19.2,46.9c-15.1-11.8-29.7-31.7-32.2-52.5c-3.7,16.2,4.3,35.3,5.6,51c-8.4-16.8-13.6-32-15.6-52.4
					c-0.6,9.3-6.8,21.1-11.6,27c-6.3,8.2-13.7,14.8-21.9,19.8c11.7-17.2,16.1-37,21.1-52.2c-4.8,16.5-21.5,22.9-35.3,30
					c7.9-6.1,27.1-25.8,36-43.6c7.7-15.5,11.6-33.2,13.3-51.5c0.8-7.4,1.3-14.7,1.5-22.1L276.6,306.2z"/>
			</g>
		</g>
		<g>
			<g>
				<path class="st0" d="M1021.9,602.3c-1.3,30.3,16.6,72.6,27.3,96.2c20.6,44.8,51.4,80.5,78.8,115c-34.7,3.5-68.1-25.8-92-59.2
					c15.3,41.2,41.7,68.1,63.9,100.3c-35.5,7.3-65.7-39.8-84.4-77c2.1,28.9,15.5,55,24.5,78.7c-22.8-13.2-50.9-42.7-63.5-73.8
					c6.6,36.4,21.7,66.2,36.9,96c-33.2-10.4-56.4-65.2-69.1-105.2c-3.9,31.6,2.6,66.7-1.3,98.3c-11.6-24.9-6.9-65.3-19.4-91.4
					c0.4,32.7-13.1,64.6-25.8,87.6c-1.3-31.4,0-64.2-2.1-95.7c-7.4,32.9-28.7,63.7-46.7,85.7c12.6-30.6,10.5-64.5,17-97.4
					c-1.4,27.7-37.3,88.2-67.1,102.2c18-23.1,37.4-79.4,43.5-110.4c-17.7,43.3-61.5,80.4-125,70.1c33.1-17.3,52.4-35.4,66-57.1
					c-8.4,7.1-35,17.5-42.4,19.5c54.6-47.7,69.5-88.3,83.6-142.9c11.5-48.2,14.8-131.4,49.3-155c42.2-27.6,115.3-15.7,134.5,54.3
					L1021.9,602.3z"/>
			</g>
			<g>
				<path class="st0" d="M965.8,378.1c2.7,6.5,2.9,19.8,5.6,28.2c4.8,19.7,10.9,40.3,17.1,59c14.9,45.9,37.5,78.3,66.5,104
					c11.2,10.1,21.7,18.3,34.2,25.5c-29.2,13.1-49.6-9.9-71.5-34.9c15.4,31.7,37.8,53.7,59,75.8c-14.9,9.8-43.8-13-55.7-24
					c-17.1-15.6-32.4-35-47-54.4c-0.8,38.8,23.1,76.8,30.1,110.6c-11.9-13.9-21.2-24-31.8-41.7c-8.7-15.8-21.2-30.6-26-49.3
					c1,29.2,11.8,57.3,10.9,87.5c-8.7-18.7-14.2-38.3-20.9-58c0.1,11.3,4.9,25.4,1.1,34.9c-12.6-17.6-13.1-52.5-19.2-75
					c-0.9,27.4,0.1,53.8-4.8,80.4c-8.2-29.1-14.4-59.1-21.3-88.2c0.4,33-4.4,63.4-13.1,93.9c-1.7-32.1-0.9-69.9-5.2-101.8
					c1.7,33-13.5,64.6-20.9,94.1c-1.7-33,6.3-67.2,5.9-99.3l0,0.9c-4.3,18.1-17,47.7-25.9,62.1c-8.3,11.6-51.4,56.2-63.8,58.4
					c27-31.9,48.5-83.5,54.6-116.7l0,0c-5.6,18.1-27.5,38.5-39.1,48.3c-9.6,8.8-20.7,11-31.7,13.1c27.9-7.4,51.9-65.6,65.2-97.2
					c16.4-38.2,28.9-81,37.5-124.8c4.9-24.7,10.7-77.7,28.8-86.7c24-11,56.7-0.6,66.3,36L965.8,378.1z"/>
			</g>
			<g>
				<path class="st0" d="M918.4,227.8c19.3,40.3,81.7,192,112,205.3c-24.1,11.1-61-32.3-70.3-49.1c14.1,35.5,36,58.4,62.5,77.6
					c-44.6-2.6-60.6-26.7-82-73.3c2.3,23.6,15,47.8,15.3,72.3c-21.8-21.1-34.2-72.8-45-106.4c1.7,33,4.8,70.7-1.3,103
					c-5.6-32-13.2-62.9-17.5-94.9c-0.1,40.6-12.7,73.1-28,105.6c1.6-30.3,7.1-59.7,6.6-90.9c-26.9,37.6-53,53.4-91.7,60.1
					c26.4-22.4,88.1-86.5,97.8-197.2c2.1-24.6-0.1-18.5,6.2-41.4c4.9-20.9,28.2-34.8,34.4-6.6L918.4,227.8z"/>
			</g>
			<g>
				<path class="st0" d="M897.7,42.9c-0.8,27,3.1,52.9,5.5,79.5c5.9,64.9,60.1,138.1,74.2,146.5c-22.9-1.4-39.8-17.8-51.8-36.8
					c4.8,14.7,17.9,56.1,29,75.6c-22.9-19-44.9-51.1-48.7-84.6c-5.5,26,6.6,56.9,8.4,82.2c-12.6-27.2-20.6-51.5-23.6-84.4
					c-0.9,15-10.4,33.9-17.6,43.6c-9.5,13.2-20.8,23.9-33.2,31.9c17.6-27.6,24.4-59.6,31.9-84.1c-7.3,26.6-32.5,36.9-53.4,48.3
					c12-9.8,41.1-41.5,54.5-70.2c11.7-24.9,17.6-53.6,20.2-83c1.2-11.9,2-23.7,2.3-35.7L897.7,42.9z"/>
			</g>
		</g>
		<g>
			<g>
				<path class="st0" d="M328.3,660.1c-0.1,11.6-8.2,27-13.1,35.6c-9.3,16.3-22.5,28.6-34.3,40.7c14,2.7,28.2-7.1,38.5-18.9
					c-7.1,15.1-18.3,24.3-28,35.7c14.3,4.2,27.5-12.5,35.8-26c-1.5,10.9-7.4,20.4-11.5,29c9.5-4.1,21.6-14.2,27.3-25.6
					c-3.4,13.6-10.2,24.4-16.9,35.1c13.7-2.6,24.2-22.6,30.2-37.3c1,12.2-2.4,25.3-1.5,37.6c5.2-9,4.1-24.6,9.7-34.1
					c-0.8,12.5,4,25.2,8.7,34.5c1.2-11.9,1.3-24.5,2.8-36.4c2.3,12.9,10.3,25.5,17.2,34.6c-4.5-12.2-2.9-25-4.9-37.8
					c0,10.6,13.3,35.2,25.2,41.7c-6.8-9.6-13.6-31.8-15.4-43.9c6.3,17.2,23.3,33.1,49.3,31.8c-13.1-7.9-20.5-15.6-25.6-24.5
					c3.3,3.1,13.8,8.1,16.8,9.2c-21.2-20.4-26.4-36.5-31-57.9c-3.7-18.8-3.3-50.7-16.8-61.1c-16.6-12.2-46.5-10.6-55.7,15.3
					L328.3,660.1z"/>
			</g>
			<g>
				<path class="st0" d="M355.7,576.8c-1.2,2.4-1.6,7.4-2.8,10.5c-2.4,7.3-5.3,14.9-8.1,21.8c-7,16.9-16.8,28.4-29.1,37
					c-4.8,3.4-9.2,6.1-14.4,8.3c11.6,6.2,20.4-1.8,29.7-10.4c-6.9,11.5-16.5,19-25.5,26.5c5.8,4.4,18-3.2,23.1-6.9
					c7.3-5.3,13.9-12,20.2-18.9c-0.5,14.8-11,28.4-14.5,41c5.1-4.8,9.1-8.3,13.8-14.6c3.8-5.7,9.2-10.8,11.6-17.8
					c-1,11.1-6,21.4-6.2,33c3.9-6.8,6.5-14.1,9.7-21.3c-0.3,4.3-2.5,9.5-1.2,13.3c5.5-6.2,6.4-19.5,9.3-27.9
					c-0.2,10.5-1.1,20.5,0.3,30.9c3.9-10.7,7.1-22,10.5-32.8c-0.9,12.6,0.5,24.4,3.4,36.3c1.4-12.2,1.8-26.6,4.2-38.6
					c-1.4,12.5,4.2,25.2,6.6,36.7c1.4-12.5-1.2-25.9-0.4-38.1l0,0.4c1.4,7.1,5.9,18.9,9.3,24.7c3.1,4.7,19.7,23.5,24.7,24.9
					c-10.3-13.3-18-33.8-19.8-46.7l0,0c1.9,7.1,10.4,15.8,14.9,20c3.7,3.7,8.2,5,12.6,6.3c-11.2-4-19.7-27.1-24.5-39.7
					c-5.9-15.3-10.1-32.1-12.7-49.1c-1.5-9.6-2.8-30.1-9.9-34.2c-9.5-5.2-23-2.5-27.6,11L355.7,576.8z"/>
			</g>
			<g>
				<path class="st0" d="M378,521.4c-8.7,14.6-37.1,69.9-49.6,73.8c9.6,5.2,25.4-9.9,29.6-15.9c-6.5,13-15.8,20.8-27,27.1
					c18.2,0.8,25.1-7.7,34.8-24.7c-1.4,8.9-7,17.6-7.7,27c9.3-7.2,15.4-26.4,20.5-38.8c-1.4,12.5-3.4,26.8-1.6,39.3
					c2.9-12,6.6-23.5,9.1-35.5c-0.8,15.5,3.7,28.4,9.2,41.4c0-11.6-1.6-23.1-0.8-34.9c10.1,15.4,20.4,22.5,36,26.6
					c-10.3-9.6-34-36.5-35.7-79.2c-0.4-9.5,0.4-7.1-1.7-16c-1.6-8.2-10.7-14.4-13.8-3.9L378,521.4z"/>
			</g>
			<g>
				<path class="st0" d="M390.1,451.7c-0.2,10.3-2.3,20.1-3.9,30.1c-3.7,24.5-27.2,50.3-33.1,52.9c9.3,0.4,16.5-5.2,21.8-12
					c-2.2,5.4-8.4,20.7-13.3,27.7c9.7-6.3,19.3-17.7,21.5-30.3c1.7,10.2-3.8,21.5-5.1,31c5.7-9.8,9.4-18.8,11.3-31.2
					c0,5.8,3.5,13.4,6.2,17.3c3.6,5.4,8,10,12.8,13.5c-6.6-11.3-8.7-23.7-11.2-33.4c2.4,10.4,12.4,15.4,20.7,20.6
					c-4.7-4.2-15.8-17.5-20.7-29c-4.2-10-6.1-21.1-6.5-32.5c-0.3-4.6-0.3-9.1-0.2-13.7L390.1,451.7z"/>
			</g>
		</g>
		<g>
			<g>
				<path class="st0" d="M145.5,613.1c-2,4-2.6,12.3-4.7,17.4c-3.9,12.1-8.7,24.7-13.5,36.2c-11.6,28-27.9,47-48.2,61.2
					c-7.9,5.6-15.2,10.1-23.9,13.8c19.2,10.2,33.7-3,49.2-17.2c-11.4,19-27.2,31.4-42.2,44c9.7,7.2,29.9-5.3,38.3-11.4
					c12.1-8.7,23-19.9,33.4-31.3c-0.8,24.5-18.2,47-24,67.9c8.5-8,15-13.7,22.8-24.2c6.4-9.4,15.3-17.9,19.2-29.4
					c-1.7,18.4-9.9,35.4-10.3,54.6c6.5-11.2,10.8-23.3,16.1-35.2c-0.5,7.1-4.1,15.7-1.9,22c9.1-10.3,10.6-32.3,15.4-46.1
					c-0.3,17.4-1.9,34,0.5,51.1c6.5-17.8,11.7-36.4,17.3-54.3c-1.4,20.8,0.8,40.3,5.6,60.2c2.2-20.1,3-44.1,7-64
					c-2.3,20.7,6.9,41.7,10.9,60.8c2.3-20.7-1.9-42.9-0.6-63.1l0,0.6c2.3,11.7,9.8,31.2,15.3,40.9c5.2,7.9,32.7,38.9,40.9,41.2
					c-17.1-22-29.8-56-32.7-77.4l0,0c3.2,11.8,17.2,26.2,24.7,33.1c6.2,6.2,13.5,8.3,20.9,10.4c-18.5-6.5-32.7-44.9-40.5-65.7
					c-9.8-25.3-16.7-53.1-21-81.3c-2.4-15.9-4.6-49.8-16.5-56.7c-15.7-8.6-38.1-4.2-45.8,18.3L145.5,613.1z"/>
			</g>
			<g>
				<path class="st0" d="M182.4,521.2C168.1,545.4,121,637,100.2,643.5c15.8,8.6,42.1-16.3,49-26.3c-10.7,21.5-26.2,34.5-44.7,44.8
					c30.1,1.4,41.6-12.8,57.6-40.8c-2.3,14.7-11.7,29.2-12.7,44.7c15.4-11.9,25.4-43.7,33.9-64.2c-2.3,20.7-5.6,44.3-2.6,65.1
					c4.9-19.8,11-38.8,15-58.8c-1.3,25.7,6.1,47,15.2,68.6c0-19.2-2.7-38.2-1.4-57.8c16.8,25.5,33.8,37.3,59.6,44.1
					c-17-15.9-56.3-60.5-59-131.1c-0.6-15.7,0.7-11.7-2.7-26.6c-2.6-13.5-17.8-23.8-22.9-6.4L182.4,521.2z"/>
			</g>
			<g>
				<path class="st0" d="M202.5,405.9c-0.4,17.1-3.8,33.2-6.4,49.9c-6.2,40.6-45.1,83.2-54.8,87.6c15.5,0.6,27.4-8.6,36.1-19.8
					c-3.7,9-13.9,34.2-22.1,45.8c16-10.5,31.9-29.3,35.6-50.2c2.8,16.8-6.4,35.5-8.5,51.3c9.4-16.3,15.6-31.2,18.7-51.7
					c0.1,9.5,5.8,22.1,10.3,28.7c5.9,9,13.2,16.5,21.2,22.4c-10.9-18.6-14.4-39.3-18.6-55.3c4,17.3,20.6,25.5,34.3,34.1
					c-7.7-7-26.2-29-34.3-48c-7-16.5-10-35-10.8-53.8c-0.4-7.6-0.5-15.1-0.4-22.7L202.5,405.9z"/>
			</g>
		</g>
		<g>
			<g>
				<path class="st0" d="M572.2,638.3c2.4,23.1-10.4,57-18.1,76c-14.8,36.1-38.4,66-59.3,94.8c28.4-0.3,54.4-25.6,72.4-53.2
					c-10.7,32.8-31,55.8-47.7,82.3c29.3,2.5,51.8-36.1,65.5-66.2c-0.5,22.3-10.2,43.5-16.5,62.3c18-12.1,39.7-37.1,48.6-62
					c-3.8,28.4-14.8,52.5-25.9,76.7c26.6-10.8,43.2-54.8,51.8-86.5c4.6,23.9,0.8,51.3,5.4,75.2c8.4-20,2.8-50.6,11.9-71.7
					c1.1,25.1,13.5,48.4,24.8,64.9c-0.3-24.2-2.8-49.2-2.4-73.4c7.5,24.6,26.2,46.4,41.8,61.6c-11.6-22.3-11.3-48.5-18.1-73.2
					c2.3,21.1,34.2,64.4,59.1,72.6c-15.6-16.2-34-57.6-40.3-80.8c16.3,31.6,53.6,56.3,105,43c-27.8-10.4-44.2-22.6-56.3-38.1
					c7.1,4.7,29.3,10.4,35.5,11.3c-46.6-31.9-60.5-61.7-74.4-102.3c-11.5-35.9-17.8-99.4-46.9-114.5c-35.6-17.5-94.7-2.1-107.3,53.1
					L572.2,638.3z"/>
			</g>
			<g>
				<path class="st0" d="M608.2,461.8c-1.9,5.2-1.5,15.4-3.3,22c-3.1,15.5-7.2,31.8-11.3,46.7c-10.2,36.4-27.2,63.2-49.7,85.4
					c-8.7,8.7-16.9,15.9-26.8,22.5c24.3,7.5,40.1-11.9,56.8-32.8c-11.2,25.6-28.5,44.4-44.8,63.2c12.5,6.3,35.2-13.7,44.4-23.2
					c13.3-13.4,24.9-29.6,35.9-45.7c2.3,29.6-15.5,60.8-19.7,87.3c9.1-11.6,16.2-20.2,24.1-34.6c6.4-12.8,16-25.3,19.1-40
					c0.4,22.5-7.1,44.9-5.1,68c6.3-15,9.9-30.6,14.6-46.2c0.4,8.7-2.9,19.9,0.6,26.8c9.5-14.6,8.4-41.4,12.4-59.1
					c2,20.9,2.3,41.2,7.4,61.2c5.4-23,9.2-46.5,13.6-69.4c1.1,25.3,6.3,48.2,14.8,70.8c0-24.7-2.3-53.6-0.2-78.5
					c0,25.4,13.8,48.3,21.2,70.3c0-25.4-8.1-51-9.1-75.6l0,0.7c4.3,13.5,15.9,35.1,23.8,45.3c7.3,8.1,44.4,38.6,54.5,39.2
					c-23.4-22.1-43.1-59.8-49.5-84.7l0,0c5.4,13.4,24.1,27.1,34,33.6c8.3,5.9,17.4,6.6,26.5,7.3c-23.1-3.3-45.2-45.8-57.4-68.8
					c-15.1-27.9-27.1-59.6-36-92.4c-5-18.5-12.1-58.6-27.3-63.9c-20-6.4-46.2,4.4-52.5,33.2L608.2,461.8z"/>
			</g>
			<g>
				<path class="st0" d="M640.3,342.5c-14,32.6-58.2,154.1-82.3,166.9c20.1,6.4,48.3-30,55.2-43.6c-10,28.4-26.8,47.9-47.6,64.8
					c36.3-5.8,48.2-25.6,63.7-63.2c-0.8,18.3-10.1,37.9-9.3,56.7c16.8-18.1,24.7-58.7,32.1-85.4c0,25.4-0.9,54.6,5.5,78.8
					c3.2-25,8-49.3,10.2-74.2c1.9,31.1,13.6,54.9,27.4,78.5c-2.6-23.1-8.3-45.1-9.4-69c23.5,26.5,45.5,36.4,77.4,38.2
					c-22.5-14.9-75.6-58.7-88.3-142.7c-2.8-18.6-0.7-14.2-6.8-31.2c-4.9-15.6-24.5-24.2-28.4-2.1L640.3,342.5z"/>
			</g>
			<g>
				<path class="st0" d="M649.1,199.2c1.8,20.6-0.2,40.8-1,61.4c-2,50.2-43,111-54.1,118.6c18.6-3.1,31.7-17.1,40.6-32.7
					c-3.2,11.7-12.1,44.5-20.4,60.4c17.8-16.5,34.4-43,36-69c5.6,19.5-2.9,44.2-3.3,63.7c9.1-21.9,14.6-41.2,15.5-66.7
					c1.4,11.4,9.9,25.1,16.2,31.9c8.3,9.3,18,16.5,28.4,21.6c-15.6-19.7-22.5-43.6-29.7-61.7c7.1,19.7,28.1,25.5,45.6,32.4
					c-10.2-6.5-35.3-28.3-47.5-49.1c-10.6-18.1-16.7-39.5-20.1-61.8c-1.5-9-2.7-18-3.5-27.1L649.1,199.2z"/>
			</g>
		</g>
		<g>
			<g>
				<path class="st0" d="M1158,646.9c2.5,27.4-10.7,67.9-18.7,90.5c-15.3,42.9-39.8,78.6-61.4,112.8c29.5-0.4,56.3-30.5,75-63.4
					c-11.1,39.1-32.2,66.4-49.4,97.9c30.3,3,53.7-42.9,67.8-78.8c-0.5,26.6-10.6,51.7-17.1,74.2c18.6-14.4,41.1-44.1,50.3-73.8
					c-3.9,33.8-15.3,62.5-26.8,91.2c27.5-12.9,44.7-65.2,53.6-102.9c4.7,28.4,0.8,61,5.5,89.4c8.7-23.9,2.9-60.2,12.3-85.3
					c1.1,29.9,13.9,57.5,25.7,77.2c-0.3-28.8-2.9-58.5-2.5-87.4c7.7,29.3,27.1,55.2,43.3,73.3c-12-26.6-11.7-57.7-18.7-87.1
					c2.4,25.1,35.5,76.6,61.3,86.3c-16.2-19.3-35.2-68.6-41.7-96.2c16.9,37.7,55.5,67,108.7,51.2c-28.8-12.4-45.8-26.9-58.3-45.3
					c7.4,5.6,30.3,12.4,36.7,13.5c-48.2-37.9-62.7-73.4-77-121.7c-11.9-42.7-18.4-118.2-48.6-136.2c-36.9-20.8-98.1-2.5-111.1,63.2
					L1158,646.9z"/>
			</g>
			<g>
				<path class="st0" d="M1195.3,436.8c-2,6.2-1.5,18.3-3.4,26.2c-3.2,18.5-7.4,37.9-11.7,55.6c-10.5,43.3-28.1,75.2-51.5,101.6
					c-9,10.3-17.5,18.9-27.7,26.7c25.2,9,41.5-14.1,58.8-39.1c-11.6,30.5-29.5,52.9-46.4,75.2c13,7.4,36.4-16.3,45.9-27.5
					c13.8-16,25.8-35.2,37.2-54.4c2.4,35.2-16.1,72.4-20.4,103.9c9.4-13.8,16.8-24,25-41.2c6.6-15.3,16.6-30.1,19.8-47.6
					c0.5,26.8-7.4,53.4-5.3,80.9c6.5-17.9,10.2-36.4,15.1-55c0.4,10.3-3,23.6,0.6,31.9c9.9-17.3,8.7-49.2,12.8-70.4
					c2,24.9,2.4,49.1,7.7,72.8c5.6-27.3,9.5-55.3,14-82.5c1.1,30.1,6.6,57.3,15.3,84.2c0-29.4-2.4-63.8-0.2-93.4
					c0,30.3,14.3,57.5,21.9,83.6c0-30.3-8.3-60.6-9.4-89.9l0,0.9c4.5,16,16.5,41.7,24.7,53.9c7.5,9.7,46,46,56.5,46.7
					c-24.2-26.3-44.7-71.1-51.3-100.8l0,0c5.6,15.9,25,32.3,35.2,40c8.6,7,18,7.9,27.4,8.7c-23.9-3.9-46.8-54.5-59.4-81.9
					c-15.6-33.2-28.1-70.9-37.3-109.9c-5.2-22-12.6-69.7-28.3-76.1c-20.7-7.6-47.9,5.2-54.3,39.5L1195.3,436.8z"/>
			</g>
			<g>
				<path class="st0" d="M1228.5,294.9c-14.5,38.8-60.3,183.3-85.3,198.6c20.9,7.6,50.1-35.7,57.2-51.9
					c-10.3,33.8-27.8,57-49.3,77.1c37.6-6.9,50-30.5,66-75.2c-0.8,21.7-10.5,45.1-9.6,67.5c17.4-21.5,25.6-69.8,33.2-101.6
					c0,30.3-0.9,65,5.7,93.7c3.3-29.7,8.3-58.7,10.5-88.3c1.9,37,14,65.3,28.4,93.4c-2.7-27.4-8.6-53.7-9.7-82.1
					c24.4,31.5,47.2,43.3,80.2,45.4c-23.3-17.7-78.3-69.8-91.4-169.8c-2.9-22.2-0.8-16.9-7.1-37.1c-5.1-18.5-25.4-28.8-29.4-2.5
					L1228.5,294.9z"/>
			</g>
			<g>
				<path class="st0" d="M1237.7,124.3c1.9,24.5-0.2,48.5-1.1,73c-2.1,59.8-44.6,132.1-56,141.2c19.3-3.6,32.8-20.3,42.1-38.8
					c-3.4,13.9-12.5,53-21.1,71.9c18.4-19.7,35.6-51.2,37.3-82.1c5.8,23.2-3,52.6-3.4,75.8c9.5-26,15.1-49.1,16.1-79.3
					c1.4,13.6,10.3,29.9,16.8,37.9c8.6,11.1,18.6,19.6,29.4,25.7c-16.1-23.4-23.3-51.8-30.7-73.4c7.3,23.5,29.1,30.3,47.3,38.5
					c-10.6-7.7-36.6-33.6-49.2-58.4c-11-21.6-17.3-47-20.8-73.6c-1.6-10.7-2.8-21.4-3.6-32.3L1237.7,124.3z"/>
			</g>
		</g>
	</g>
	<g>
		<g>
			<g>
				<path class="st0" d="M1300.7,705.4c1.3,22.9-12.7,55.2-21.2,73.3c-16.2,34.2-40.7,61.8-62.5,88.4c28,2,54.6-20.7,73.6-46.4
					c-12,31.4-33,52.3-50.5,77c28.7,4.9,52.5-31.2,67.3-59.8c-1.4,21.9-12,41.9-19,60c18.2-10.4,40.7-33.2,50.5-57
					c-5,27.6-16.9,50.5-28.8,73.3c26.6-8.5,44.9-50.3,54.8-80.8c3.4,23.8-1.5,50.5,1.9,74.4c9.1-19,5-49.5,14.9-69.5
					c0,24.8,11.1,48.7,21.6,65.9c0.7-23.8-0.6-48.6,0.9-72.4c6.2,24.8,23.7,47.8,38.4,64c-10.4-22.9-9-48.7-14.5-73.4
					c1.4,21,30.8,66.1,55,76.2c-14.7-17.2-30.9-59.5-36-82.8c14.6,32.4,50.2,59.8,101.4,50.9c-26.8-12.5-42.5-25.9-53.6-42.1
					c6.8,5.2,28.3,12.6,34.4,14.1c-44.4-35.2-56.8-65.7-68.6-106.7c-9.7-36.3-13.1-99.2-41-116.5c-34.2-20.1-93.1-9.9-107.9,43.4
					L1300.7,705.4z"/>
			</g>
			<g>
				<path class="st0" d="M1343.9,534.7c-2.1,5-2.1,15-4.2,21.4c-3.7,15-8.5,30.7-13.2,45c-11.6,35-29.5,59.9-52.7,79.8
					c-8.9,7.8-17.3,14.2-27.3,19.9c23.6,9.4,39.9-8.4,57.3-27.6c-12.1,24.2-30,41.3-46.8,58.4c12.1,7.2,35.2-10.6,44.7-19.1
					c13.7-12.1,25.8-27.1,37.4-42c1,29.3-18,58.6-23.3,84.3c9.5-10.7,16.8-18.5,25.3-32.1c6.9-12.1,16.8-23.5,20.5-37.8
					c-0.6,22.2-9,43.6-8,66.4c6.9-14.3,11.1-29.3,16.4-44.3c0,8.6-3.7,19.3-0.6,26.4c10-13.5,10.1-40,14.8-57.1
					c1,20.7,0.4,40.8,4.6,60.8c6.3-22.1,11.1-45,16.4-67.1c0,25,4.1,47.9,11.4,70.8c1.1-24.3,0.1-52.9,3.3-77.2
					c-1.1,25,11.4,48.6,17.7,70.8c1.1-25-5.7-50.8-5.6-75.1v0.7c3.6,13.6,14.1,35.8,21.4,46.5c6.8,8.6,41.9,41.6,51.9,43.1
					c-22-23.7-39.8-62.3-45-87.4l0,0c4.7,13.6,22.5,28.7,31.9,35.9c7.9,6.5,16.8,7.9,25.7,9.4c-22.6-5.1-42.4-48.8-53.4-72.4
					c-13.6-28.6-24-60.9-31.3-93.8c-4.1-18.6-9.3-58.6-24-65.1c-19.4-7.9-45.7,0.5-53.1,28.4L1343.9,534.7z"/>
			</g>
			<g>
				<path class="st0" d="M1380.8,420c-15.2,30.9-64.1,146.7-88.4,157.3c19.5,8,48.9-25.5,56.2-38.4c-11.1,27.1-28.5,44.9-49.7,59.8
					c36-2.7,48.6-21.3,65.5-56.9c-1.6,17.9-11.6,36.4-11.7,55c17.4-16.4,26.9-55.7,35.3-81.4c-1.1,25-3.3,53.6,1.9,77.9
					c4.2-24.3,10.1-47.8,13.3-72.1c0.4,30.7,10.9,55.1,23.4,79.5c-1.5-22.9-6.2-45.1-6.2-68.7c22,28,43.2,39.5,74.4,43.9
					c-21.5-16.5-71.8-63.9-80.5-147.6c-1.9-18.6-0.1-14-5.3-31.2c-4.2-15.7-23-25.8-27.8-4.4L1380.8,420z"/>
			</g>
			<g>
				<path class="st0" d="M1395.8,279.7c0.9,20.4-2,40.1-3.7,60.3c-4.2,49.2-47.2,105.6-58.5,112.2c18.5-1.5,31.9-14.2,41.4-28.8
					c-3.7,11.2-13.9,42.8-22.7,57.8c18.2-14.8,35.7-39.5,38.5-64.9c4.7,19.6-4.8,43.2-6.1,62.3c9.9-20.8,16.2-39.4,18.2-64.3
					c0.8,11.4,8.6,25.5,14.5,32.7c7.8,9.9,17,17.7,27,23.6c-14.5-20.6-20.2-44.7-26.4-63.1c6.1,20,26.5,27.4,43.5,35.6
					c-9.7-7.2-33.5-30.7-44.5-52.2c-9.6-18.7-14.7-40.2-17-62.5c-1.1-9-1.8-17.9-2.2-27L1395.8,279.7z"/>
			</g>
		</g>
		<g>
			<g>
				<path class="st0" d="M2409.4,544.1c-10.3,21-14.3,37-23.9,59c-18.3,43-58.1,83.8-91.9,108.8c21.7,4,55.4-16.6,68.1-34.8
					c-10.4,23.7-25.6,44.4-44.6,60.4c27.3,4.3,70.3-29.2,87.9-48.9c3.4,20.8,0.8,27.9-7.7,66.1c14.7-6.3,30.8-30.6,37.8-46.4
					c3.5,18.2,2.8,39.7,11.2,56.4c6.2-18.5,11-41.6,14.8-62.1c-1.8,33.2,28.4,75.4,44.5,100.6c1.8-33.2-4.4-66.8,0.7-99.8
					c0,27,19.1,60.4,34.6,82c-2.5-22.6-5.8-48.9-1.8-72c3.3,22.7,23,40.9,38.7,52.6c1.2-12.5-2.4-28-2.8-40.6
					c-0.3-16.2-0.9-18-0.4-33.3c22.9,31.8,39.4,50.8,92.7,50.2c-20.6-12-33.2-23.5-46.2-45.8c-11.5-19.6-21.3-40.8-27.1-62.7
					c-11.6-42-25.4-91.4-48.6-126.9c-20.8-31.8-54-53.4-89.1-41.1c-24.5,8.5-32.5,33.2-41.3,57L2409.4,544.1z"/>
			</g>
			<g>
				<path class="st0" d="M2435.4,425.4c-24.1,59.8-35.8,130.7-95.8,159.8c32.6,2.8,53.7-15.3,66.3-33.7
					c-10.1,22.4-29.3,56.8-49.4,69c32.6-1.9,63.5-29.8,83.2-56.4c0,27.7-16.4,58.3-22.3,84.7c29.2-28.9,47.7-73.7,52.4-116.4
					c-1.1,37.2-6.7,79.9,4.2,114.9c4.3-27.5,11.9-51.9,17.8-78.3c0-1,0-1,0-1c-0.9,29.6,3.7,73.8,29.8,90.6
					c-1.5-34.5-9.1-67.4-8-101.7c3.4,29.8,17.6,69.8,38.4,89.1l0,0c-5.8-32.8-4.1-63.3-5.6-96.8c-5.6,40.8,67.4,65,93.1,66.5
					c-34.8-13.4-50.8-75.5-66.1-108.8c-19.4-40.3-28-94.3-55.2-129.3c-16.5-20.1-40.5-21.4-54.1,3.6L2435.4,425.4z"/>
			</g>
			<g>
				<path class="st0" d="M2473.3,280.5c-2,65.8-34.9,130.8-76.6,175.2c-4.4,4.5-9.7,10-14.2,14.5c28.4-3.2,61.1-33.8,73.9-61.7
					c-4.2,25.6-23.8,49.3-39,68.5c33.5-2.9,46.1-48,63.9-70.8c-0.8,26.7-0.9,55.3,6,82.5c4.2-26.5,11.9-53.8,17-78.3
					c3.6,21.2,9.6,50.2,24.6,65.4c-0.2-22-5.5-44.2-4.8-66.2c9.2,35.9,38.6,55.7,65.5,72.5c-25.5-35.9-42.9-83.7-57-127.4
					c-7.1-20.5-13.3-41.8-17.8-63.1c-2.3-10.6-7.7-57.8-28.7-41.8c-2.7,2.7-3.6,4.6-3.7,8.4L2473.3,280.5z"/>
			</g>
			<g>
				<path class="st0" d="M2496.5,180c-0.6,18.8-4.8,38.1-10.8,54.7c-12.5,31.6-31.8,49.4-57.2,66.9c-2.5,1.9-5.5,2.4-8,4.3
					c17.4,4.4,33.9,1.3,45.3-14.9c-8.4,16.4-10.5,26.4-26.6,37.6c26.6,0.2,43-27.2,46.8-46.6c-0.1-10.5-3.8,32.4,5.8,48.2
					c2.9-16.7,4.7-35.5,5.9-52.9c4.7,22.5,26.6,41.3,45,51.1c-8.1-11.2-17.3-26.6-18.7-40.9c8.4,21.4,33.6,28.2,52.4,30
					c-23.2-14.1-52-42.1-64.5-67.8c-10.2-21.5-10.6-49.8-15.3-72.4L2496.5,180z"/>
			</g>
		</g>
		<g>
			<g>
				<path class="st0" d="M2753.2,525.1c-8.1,22.3-10.5,38.8-17.8,61.9c-13.8,45.4-49,92.3-79.8,122.8c21.6,0.1,52.7-26,63.4-46
					c-8,25-20.9,48-38,67c27.2-0.6,66.2-41,81.5-63.4c5.3,19.9,3.4,27.2-1.3,66.1c13.8-8.8,27.3-35.4,32.6-52.1
					c5.1,17.2,6.5,38.4,16.3,53.3c4.4-19.2,6.8-42.7,8.7-63.4c1.4,32.8,34.9,68.9,53.1,90.7c-1.3-32.8-10.6-64.7-8.8-97.9
					c2.5,26.5,24.5,55.9,41.7,74.3c-4.6-21.7-10.3-46.9-8.6-70.3c5.4,21.6,26.4,36.1,42.9,44.7c0-12.5-5-27-6.6-39.3
					c-1.9-15.8-2.6-17.5-3.6-32.5c25.4,27.2,43.4,42.8,95.6,32.9c-21.3-8.1-34.7-17.2-49.6-36.8c-13.1-17.1-24.8-36.2-32.5-56.7
					c-15.3-39.2-33.6-85.1-59.6-115.8c-23.4-27.5-58-42.9-91.2-24.6c-23.2,12.6-28.7,38.3-35.1,63.1L2753.2,525.1z"/>
			</g>
			<g>
				<path class="st0" d="M2767.4,404.3c-18,62.8-22.7,134.4-78.8,173.4c32.3-2.9,51.2-24.4,61.8-44.6c-7.8,23.7-23.3,60.8-41.9,76.3
					c31.8-7.6,59.4-40.3,76.2-69.8c2.6,27.2-10.6,60-13.9,86.9c25.9-33.4,39.8-80.6,40.4-123.3c2.4,36.7,0.9,79.4,15,111.8
					c1.6-27.6,6.7-52.9,10.1-79.8c-0.1-0.9-0.1-0.9-0.1-0.9c1.9,29.1,10.6,71.6,37.8,83.5c-4.7-33.5-15.3-64.4-17.5-98.3
					c6.1,28.6,23.8,65.3,46.1,80.6l0,0c-8.8-31.1-10-61.3-14.6-93.9c-1.6,40.9,72.2,51.9,97.6,48.8c-35.3-7.1-57-65.1-75.1-95.1
					c-22.8-36.1-36.3-87.5-66.3-117c-18.1-16.8-41.7-13.9-52.7,13L2767.4,404.3z"/>
			</g>
			<g>
				<path class="st0" d="M2790.9,255.6c4.2,64.8-21.9,134.3-58.5,185.1c-3.9,5.2-8.6,11.5-12.5,16.7c27.5-8,56.7-43.8,66.6-73.4
					c-1.7,25.8-18.7,52.5-31.7,73.9c32.6-8.7,40.6-55.1,55.9-80.7c1.7,26.3,4.4,54.4,13.7,79.8c1.7-26.7,6.6-54.8,9.3-79.7
					c5.6,20.2,14.2,47.5,30.3,59.8c-2.2-21.5-9.6-42.4-11-64c12.4,33.5,43.1,47.8,71.1,59.6c-28.4-30.6-49.9-74.4-67.9-114.9
					c-8.9-18.8-17-38.7-23.4-58.7c-3.2-10-13-55.3-32.1-35.9c-2.4,3.1-3.1,5.1-2.8,8.9L2790.9,255.6z"/>
			</g>
			<g>
				<path class="st0" d="M2804.1,153c1.2,18.6-1.1,38.2-5.4,55.5c-9.2,33.2-26.5,54-49.7,75.6c-2.3,2.3-5.2,3.3-7.4,5.6
					c17.5,1.2,33.3-4.7,42.9-22.6c-6.7,17.5-7.8,27.7-22.5,41.5c26.1-4.5,39.6-34.2,41.5-53.9c-1.1-10.3-0.7,32.4,10.2,46.2
					c1.3-16.9,1.3-35.6,0.7-52.9c6.8,21.2,30,35.8,49,42.2c-9-9.6-19.5-23-22.2-36.8c10.3,19.5,35.6,21.8,54.1,20.2
					c-24-9.8-54.9-32.1-69.6-55.1c-12-19.3-15.1-47-21.8-68.2L2804.1,153z"/>
			</g>
		</g>
		<g>
			<g>
				<path class="st0" d="M1918.5,701.1c8.6,18.2,12.1,32.3,20.2,51.4c15.4,37.5,47,72.1,73.6,93c-16.3,4.4-42.7-12.5-52.9-28.1
					c8.7,20.6,21,38.4,36,51.8c-20.6,4.9-54.4-23.1-68.4-39.9c-1.9,18.7,0.4,24.9,8.1,58.4c-11.4-5-24.5-26-30.3-39.7
					c-2,16.3-0.8,35.5-6.5,50.6c-5.4-16.2-9.8-36.5-13.4-54.6c2.5,29.4-18.9,68.2-30.3,91.2c-2.6-29.4,1-59.6-4-88.7
					c1,24-12.5,54.5-23.5,74.3c1.1-20.2,2.7-43.7-1.1-64.1c-1.8,20.3-16,37.3-27.6,48.3c-1.3-11.1,0.8-25,0.7-36.2
					c-0.3-14.4,0.1-16-0.8-29.6c-16.3,29.2-28.2,46.7-68.7,48.4c15.3-11.5,24.4-22.2,33.5-42.6c8.1-17.8,14.8-37.1,18.4-56.8
					c7.4-37.8,16.2-82.3,32.5-114.8c14.7-29.1,39.2-49.7,66.3-40.1c18.9,6.5,25.8,28.2,33.3,48.9L1918.5,701.1z"/>
			</g>
			<g>
				<path class="st0" d="M1894.6,596.7c20.4,52.1,31.7,114.7,78.3,138.1c-24.7,3.9-41.3-11.4-51.5-27.2
					c8.4,19.4,24.2,49.3,39.9,59.3c-24.9-0.4-49.3-23.9-65.2-46.7c1,24.6,14.4,51.1,19.9,74.4c-23.2-24.5-38.8-63.5-43.9-101.3
					c2.2,33,7.9,70.7,0.8,102.3c-4.2-24.2-10.8-45.6-16.3-68.8c-0.1-0.8-0.1-0.8-0.1-0.8c1.7,26.2-0.3,65.7-19.5,81.7
					c0-30.7,4.6-60.2,2.6-90.7c-1.5,26.6-10.9,62.8-26.1,80.8l0,0c3.3-29.4,0.9-56.4,0.9-86.2c5.6,36-49,60.5-68.5,62.9
					c25.9-13.4,36-69.2,46.5-99.4c13.3-36.6,18-84.9,37.5-117.1c11.9-18.5,30-20.7,41.2,1L1894.6,596.7z"/>
			</g>
			<g>
				<path class="st0" d="M1860.8,469.5c3.8,58.4,31,114.8,64.2,152.6c3.5,3.8,7.7,8.4,11.3,12.3c-21.7-1.6-47.6-27.5-58.3-51.8
					c4.1,22.6,19.8,42.8,32,59.2c-25.6-1.2-36.6-40.8-51-60.4c1.5,23.7,2.6,49.2-1.7,73.6c-4.1-23.4-10.9-47.3-15.6-68.9
					c-2,19-5.6,45-16.4,59.2c-0.6-19.6,2.7-39.6,1.4-59c-5.8,32.2-27.4,51.1-47.3,67.1c18.1-32.9,29.7-76.1,38.9-115.6
					c4.7-18.5,8.6-37.7,11.3-56.8c1.3-9.6,3.8-51.7,20.4-38.3c2.1,2.3,2.9,3.9,3.1,7.3L1860.8,469.5z"/>
			</g>
			<g>
				<path class="st0" d="M1839.8,381.1c1.1,16.7,5,33.7,10.1,48.1c10.6,27.6,25.9,42.6,45.7,57.1c1.9,1.6,4.3,1.9,6.2,3.5
					c-13.1,4.6-25.7,2.5-34.9-11.4c6.9,14.2,8.9,23,21.5,32.3c-20.2,1.2-33.6-22.4-37.2-39.5c-0.3-9.3,4,28.7-2.7,43.1
					c-2.8-14.7-4.8-31.3-6.3-46.8c-2.8,20.2-18.8,37.8-32.4,47.3c5.8-10.3,12.3-24.4,12.8-37.1c-5.7,19.4-24.6,26.5-38.7,28.8
					c17.1-13.5,38-39.5,46.7-62.9c7-19.5,6.3-44.7,9.2-64.9L1839.8,381.1z"/>
			</g>
		</g>
		<g>
			<g>
				<path class="st0" d="M1605.3,727.8c7.5,20.8,10.2,36.5,17,58.2c13.1,42.5,42.6,83.9,67.8,109.7c-16.5,2.8-41.8-18.7-51.1-36.9
					c7.5,23.4,18.6,44.2,32.8,60.6c-20.8,2.8-52.9-31.7-65.9-51.5c-2.9,20.1-1.1,27,4.6,64.3c-11.1-6.8-22.8-31.1-27.8-46.7
					c-3,17.4-2.8,38.3-9.5,54.1c-4.4-18.2-7.6-40.8-10.2-60.8c0.8,32.2-22.9,71.6-35.6,95.2c-0.8-32.2,4.5-64.4,1.3-96.6
					c-0.5,26.1-15.6,57.6-27.7,77.7c2.3-21.8,5.3-47.1,2.7-69.6c-2.9,21.8-18.2,38.5-30.4,49c-0.7-12.2,2.3-27,2.9-39.2
					c0.5-15.7,1-17.4,0.9-32.2c-18,29.7-30.9,47.3-71.3,44.2c15.9-10.6,25.6-21.2,35.9-42.2c9.1-18.4,16.9-38.5,21.7-59.4
					c9.6-40.1,21-87.3,39.1-120.5c16.4-29.8,42-49.2,68.4-35.5c18.4,9.4,24.1,33.7,30.3,57.1L1605.3,727.8z"/>
			</g>
			<g>
				<path class="st0" d="M1587.7,611.7c17.3,59,24.8,128.2,69.9,159.2c-24.9,1.2-40.5-17.3-49.8-35.7c7.3,22.1,21.2,56.4,36.3,69.1
					c-24.8-3.4-47.7-31.8-62.2-58.5c-0.5,26.8,11.4,57.2,15.4,83c-21.7-29.4-34.9-73.6-37.8-115.2c0.2,36.1,3.7,77.6-5.2,111
					c-2.8-26.8-8.1-50.8-12.2-76.6c0-0.9,0-0.9,0-0.9c0.2,28.6-4.2,71.2-24.2,86.2c1.8-33.3,8.1-64.8,7.9-98.1
					c-3.1,28.7-14.6,66.7-30.8,84.5l0,0c5-31.5,4.2-61.1,6-93.4c3.5,39.7-52.4,59.7-71.9,59.9c26.6-11.4,40-70.7,52.2-102.2
					c15.4-38.1,22.9-89.9,44.2-122.5c12.9-18.6,31.1-18.8,41.1,6L1587.7,611.7z"/>
			</g>
			<g>
				<path class="st0" d="M1561.5,469.6c0.4,63.8,24.2,128.3,55,173.2c3.3,4.6,7.2,10.1,10.5,14.7c-21.5-4.4-45.8-35.6-55-63.2
					c2.7,24.9,17.2,48.8,28.4,68.1c-25.4-4.4-34.1-48.7-47.3-71.6c0.1,25.9-0.3,53.6-6,79.6c-2.8-25.8-8.1-52.6-11.5-76.6
					c-3.1,20.4-8.2,48.2-19.8,62.2c0.5-21.3,5-42.6,4.8-63.9c-7.6,34.3-30.3,52.1-51.1,67.1c20-33.5,34.1-78.9,45.5-120.7
					c5.7-19.5,10.8-39.9,14.6-60.3c1.9-10.2,6.8-55.5,22.6-39.1c2,2.8,2.7,4.6,2.7,8.3L1561.5,469.6z"/>
			</g>
			<g>
				<path class="st0" d="M1545.7,371.3c0.1,18.3,3,37.2,7.2,53.4c8.9,31.2,23.2,49.4,42.2,67.4c1.8,1.9,4.2,2.6,6,4.5
					c-13.3,3.4-25.8-0.4-34.1-16.6c6.1,16.2,7.5,26,19.5,37.6c-20.2-1.1-32.2-28.4-34.7-47.3c0.3-10.2,2.3,31.6-5.2,46.4
					c-1.9-16.3-3-34.6-3.5-51.5c-4,21.6-20.9,38.7-35.1,47.4c6.4-10.5,13.6-24.9,14.9-38.6c-6.8,20.3-26.1,25.7-40.3,26.5
					c17.9-12.6,40.2-38.3,50.2-62.5c8.1-20.3,8.9-47.7,12.9-69.3L1545.7,371.3z"/>
			</g>
		</g>
		<g>
			<g>
				<path class="st0" d="M2216.2,676.8c10,21.8,13.6,38.4,22.7,61.1c17.5,44.6,56.9,88.1,90.8,115.1c-22.2,3-55.9-19.5-68.4-38.6
					c10,24.6,24.9,46.4,43.9,63.6c-27.9,3-70.8-33.1-88.2-54c-4,21.1-1.5,28.4,6.1,67.6c-14.8-7.2-30.6-32.6-37.2-49
					c-4,18.3-3.9,40.3-12.8,56.8c-5.8-19.2-10.1-42.9-13.5-63.9c1,33.8-30.8,75.4-47.9,100.2c-1-33.8,6.2-67.8,1.9-101.6
					c-0.7,27.5-21,60.6-37.3,81.8c3.2-22.9,7.1-49.5,3.7-73.2c-4,22.9-24.4,40.5-40.8,51.7c-0.9-12.8,3.1-28.4,3.9-41.2
					c0.7-16.5,1.4-18.3,1.3-33.8c-24.1,31.3-41.4,49.8-95.7,46.7c21.3-11.2,34.4-22.3,48.2-44.4c12.2-19.4,22.8-40.5,29.2-62.5
					c12.9-42.2,28.2-91.8,52.7-126.8c22-31.3,56.4-51.8,91.8-37.5c24.7,9.8,32.2,35.3,40.6,59.9L2216.2,676.8z"/>
			</g>
			<g>
				<path class="st0" d="M2192.8,554.8c23,62,33,134.8,93.4,167.2c-33.3,1.3-54.3-18.1-66.6-37.4c9.7,23.2,28.4,59.2,48.5,72.6
					c-33.2-3.5-63.9-33.3-83.2-61.3c-0.7,28.2,15.2,60.1,20.6,87.3c-29-30.8-46.7-77.3-50.4-121c0.2,37.9,4.8,81.6-7.2,116.7
					c-3.6-28.1-10.8-53.4-16.2-80.5c0-0.9,0-0.9,0-0.9c0.2,30.1-5.7,74.9-32.7,90.7c2.4-35,11-68.2,10.8-103.2
					c-4.2,30.2-19.7,70.2-41.4,88.9l0,0c6.8-33.1,5.8-64.2,8.2-98.2c4.6,41.7-70.3,62.9-96.5,63.2c35.7-12,53.7-74.4,70.1-107.6
					c20.7-40.1,30.9-94.6,59.5-128.9c17.3-19.6,41.8-19.9,55,6.2L2192.8,554.8z"/>
			</g>
			<g>
				<path class="st0" d="M2157.9,405.5c0.4,67.1,32.2,134.8,73.4,182c4.4,4.8,9.7,10.6,14.1,15.4c-28.8-4.5-61.3-37.2-73.7-66.3
					c3.6,26.2,23,51.3,37.9,71.5c-34.1-4.5-45.7-51-63.3-75.1c0.2,27.2-0.5,56.4-8.2,83.7c-3.6-27.2-10.8-55.3-15.3-80.5
					c-4.2,21.4-11.1,50.7-26.7,65.4c0.8-22.4,6.8-44.8,6.6-67.1c-10.3,36.1-40.7,54.9-68.5,70.7c26.8-35.3,45.8-83.1,61.2-127
					c7.7-20.5,14.6-42,19.7-63.4c2.6-10.7,9.3-58.4,30.3-41.2c2.6,2.9,3.5,4.8,3.5,8.7L2157.9,405.5z"/>
			</g>
			<g>
				<path class="st0" d="M2136.9,302.1c0.1,19.2,3.9,39.1,9.5,56.2c11.9,32.8,31.1,51.8,56.4,70.8c2.5,2.1,5.6,2.7,8,4.7
					c-17.8,3.6-34.5-0.3-45.7-17.4c8.1,17,10,27.3,26.1,39.5c-27.1-1.1-43.1-29.7-46.5-49.6c0.4-10.7,3.1,33.2-7.1,48.8
					c-2.6-17.1-3.9-36.3-4.6-54.2c-5.4,22.7-28.1,40.8-47.1,49.9c8.5-11.1,18.3-26.3,20.1-40.7c-9.1,21.4-34.9,27.1-54,28
					c23.9-13.3,54-40.4,67.4-65.9c11-21.4,12-50.2,17.5-72.9L2136.9,302.1z"/>
			</g>
		</g>
		<g>
			<g>
				<path class="st0" d="M1627.2,763.8c1.4,22.9-12.7,55.2-21.2,73.3c-16.2,34.3-40.7,61.8-62.5,88.4c28,2,54.6-20.7,73.6-46.4
					c-12,31.4-33,52.3-50.6,77c28.7,4.9,52.5-31.2,67.3-59.8c-1.4,21.9-12,41.9-19,60c18.2-10.4,40.7-33.2,50.5-57
					c-5,27.6-16.9,50.4-28.9,73.3c26.6-8.5,44.9-50.3,54.8-80.8c3.4,23.8-1.5,50.5,1.9,74.4c9.1-19,5-49.6,14.9-69.5
					c-0.1,24.8,11.1,48.7,21.5,65.8c0.8-23.8-0.6-48.6,0.9-72.4c6.2,24.8,23.7,47.8,38.4,64c-10.4-22.9-9-48.6-14.5-73.4
					c1.3,21,30.8,66.1,55,76.2c-14.7-17.2-30.9-59.4-36.1-82.8c14.6,32.5,50.2,59.8,101.4,50.9c-26.9-12.5-42.5-25.9-53.6-42.1
					c6.8,5.3,28.3,12.7,34.4,14.1c-44.4-35.2-56.8-65.7-68.6-106.7c-9.7-36.2-13.1-99.2-41-116.5c-34.2-20.1-93.1-9.9-107.9,43.4
					L1627.2,763.8z"/>
			</g>
			<g>
				<path class="st0" d="M1670.5,593.1c-2.1,5-2.1,15-4.2,21.4c-3.7,15-8.5,30.7-13.2,45c-11.6,35-29.5,59.9-52.7,79.8
					c-8.9,7.8-17.3,14.2-27.3,19.9c23.6,9.4,39.9-8.4,57.3-27.6c-12.1,24.3-30,41.3-46.8,58.4c12.1,7.2,35.2-10.6,44.7-19.1
					c13.7-12.1,25.8-27,37.4-42c1,29.3-18,58.6-23.3,84.3c9.5-10.7,16.8-18.5,25.3-32.1c6.8-12.1,16.8-23.5,20.5-37.8
					c-0.6,22.2-9,43.6-8,66.5c6.8-14.3,11.1-29.3,16.4-44.3c0,8.6-3.7,19.3-0.6,26.5c10-13.5,10.1-40,14.8-57.1
					c1,20.7,0.4,40.7,4.6,60.8c6.3-22.1,11.1-45,16.4-67.1c-0.1,25,4.1,47.9,11.4,70.8c1.1-24.3,0.1-52.9,3.3-77.2
					c-1.1,25,11.4,48.6,17.7,70.8c1.1-25-5.7-50.8-5.6-75.1l0,0.7c3.6,13.6,14.1,35.8,21.4,46.6c6.8,8.6,41.9,41.6,51.9,43.1
					c-22-23.7-39.8-62.4-45-87.4l0,0c4.7,13.6,22.5,28.7,31.9,35.9c7.9,6.5,16.8,7.9,25.7,9.4c-22.6-5.1-42.4-48.8-53.4-72.4
					c-13.6-28.7-24-60.9-31.3-93.8c-4.2-18.6-9.3-58.6-24-65.1c-19.4-7.9-45.7,0.5-53.1,28.4L1670.5,593.1z"/>
			</g>
			<g>
				<path class="st0" d="M1707.3,478.4c-15.2,30.9-64.1,146.7-88.4,157.3c19.5,8,48.9-25.5,56.2-38.4
					c-11.1,27.1-28.5,44.9-49.7,59.8c36-2.7,48.6-21.2,65.5-56.9c-1.6,17.9-11.6,36.4-11.7,55c17.4-16.4,26.9-55.7,35.4-81.4
					c-1.1,25-3.3,53.6,1.9,77.9c4.2-24.3,10.1-47.9,13.3-72.1c0.4,30.7,10.9,55.1,23.4,79.5c-1.5-22.9-6.2-45.1-6.2-68.7
					c22,28,43.2,39.5,74.4,43.9c-21.5-16.5-71.8-63.9-80.5-147.6c-1.9-18.6-0.1-14-5.3-31.2c-4.2-15.7-23-25.8-27.8-4.4
					L1707.3,478.4z"/>
			</g>
			<g>
				<path class="st0" d="M1722.3,338.1c0.9,20.4-2,40.1-3.7,60.3c-4.2,49.2-47.2,105.6-58.5,112.2c18.5-1.5,31.9-14.2,41.4-28.8
					c-3.7,11.2-13.9,42.8-22.7,57.8c18.3-14.8,35.7-39.5,38.5-64.9c4.7,19.6-4.8,43.2-6.1,62.3c9.9-20.8,16.1-39.4,18.2-64.3
					c0.8,11.4,8.6,25.5,14.5,32.7c7.8,9.8,17,17.7,27,23.6c-14.5-20.6-20.2-44.7-26.5-63.1c6.1,20,26.5,27.4,43.5,35.6
					c-9.7-7.2-33.5-30.7-44.5-52.2c-9.6-18.7-14.7-40.2-17-62.5c-1.1-9-1.8-17.9-2.2-27L1722.3,338.1z"/>
			</g>
		</g>
		<g>
			<g>
				<path class="st0" d="M1888.2,677.9c1.4,25.8-12.9,62.2-21.4,82.5c-16.4,38.6-41.2,69.6-63.2,99.5c28.3,2.2,55.3-23.4,74.5-52.3
					c-12.1,35.3-33.4,58.9-51.2,86.7c29,5.5,53.2-35.2,68.1-67.3c-1.5,24.7-12.2,47.2-19.3,67.6c18.4-11.7,41.1-37.4,51.1-64.2
					c-5,31.1-17.1,56.8-29.2,82.5c26.9-9.6,45.4-56.7,55.4-91c3.5,26.8-1.5,56.9,2,83.7c9.3-21.5,5.1-55.8,15-78.3
					c-0.1,27.9,11.2,54.8,21.8,74.2c0.8-26.8-0.6-54.8,0.9-81.6c6.3,28,24,53.8,38.8,72.1c-10.6-25.8-9.1-54.8-14.7-82.7
					c1.3,23.7,31.2,74.5,55.6,85.9c-14.8-19.4-31.3-67-36.5-93.3c14.8,36.6,50.9,67.3,102.6,57.4c-27.2-14.1-43-29.1-54.3-47.4
					c6.9,5.9,28.7,14.2,34.8,15.8c-44.9-39.6-57.5-73.9-69.4-120.1c-9.9-40.8-13.3-111.7-41.5-131.2
					c-34.7-22.7-94.2-11.1-109.2,48.9L1888.2,677.9z"/>
			</g>
			<g>
				<path class="st0" d="M1931.9,485.7c-2.1,5.7-2.2,16.9-4.3,24.1c-3.8,16.9-8.6,34.6-13.4,50.7c-11.7,39.4-29.9,67.5-53.3,89.9
					c-9,8.8-17.6,16-27.7,22.4c23.9,10.7,40.4-9.4,58-31.1c-12.3,27.3-30.4,46.6-47.4,65.8c12.2,8.1,35.6-11.9,45.2-21.5
					c13.8-13.6,26.1-30.5,37.8-47.3c1,33-18.2,65.9-23.5,94.9c9.6-12,17-20.9,25.6-36.2c6.9-13.6,17-26.5,20.8-42.5
					c-0.6,25-9.1,49.1-8.1,74.9c6.9-16.1,11.2-33,16.5-49.9c0,9.7-3.8,21.7-0.6,29.8c10.1-15.3,10.2-45,15-64.3
					c1,23.3,0.4,45.9,4.7,68.5c6.4-24.9,11.2-50.7,16.6-75.6c-0.1,28.2,4.2,54,11.5,79.8c1.1-27.4,0.1-59.6,3.4-86.9
					c-1.1,28.1,11.6,54.8,17.9,79.7c1.1-28.1-5.7-57.2-5.7-84.5l0,0.8c3.7,15.3,14.3,40.3,21.7,52.4c6.9,9.7,42.5,46.9,52.6,48.5
					c-22.3-26.7-40.3-70.2-45.6-98.4l0,0c4.8,15.4,22.8,32.3,32.3,40.4c8,7.3,17,8.9,26,10.6c-22.8-5.8-42.9-55-54-81.5
					c-13.7-32.3-24.3-68.5-31.7-105.6c-4.2-20.9-9.4-66.1-24.3-73.4c-19.6-8.9-46.2,0.6-53.7,32L1931.9,485.7z"/>
			</g>
			<g>
				<path class="st0" d="M1969.2,356.6c-15.4,34.8-64.9,165.3-89.5,177.2c19.8,8.9,49.5-28.8,56.9-43.2
					c-11.2,30.5-28.8,50.5-50.3,67.4c36.4-3.1,49.2-23.9,66.2-64.1c-1.6,20.2-11.8,41-11.8,62c17.6-18.4,27.2-62.7,35.8-91.6
					c-1.1,28.2-3.3,60.4,2,87.7c4.3-27.3,10.2-53.8,13.4-81.2c0.4,34.6,11,62,23.7,89.5c-1.5-25.8-6.3-50.7-6.2-77.3
					c22.2,31.5,43.7,44.4,75.3,49.4c-21.7-18.6-72.6-72-81.5-166.2c-2-20.9-0.1-15.8-5.4-35.2c-4.2-17.7-23.3-29.1-28.2-4.9
					L1969.2,356.6z"/>
			</g>
			<g>
				<path class="st0" d="M1984.4,198.6c0.9,23-2,45.2-3.8,67.9c-4.2,55.4-47.8,118.9-59.2,126.4c18.7-1.7,32.3-16,41.9-32.4
					c-3.7,12.7-14.1,48.2-23,65.1c18.5-16.7,36.1-44.5,38.9-73.1c4.7,22.1-4.9,48.7-6.2,70.2c10.1-23.4,16.3-44.3,18.5-72.4
					c0.8,12.8,8.8,28.7,14.7,36.8c7.9,11.1,17.2,20,27.3,26.6c-14.6-23.2-20.4-50.4-26.8-71.1c6.1,22.5,26.8,30.8,44,40.1
					c-9.9-8.1-33.9-34.6-45.1-58.8c-9.7-21.1-14.8-45.3-17.2-70.3c-1.1-10.1-1.8-20.2-2.2-30.4L1984.4,198.6z"/>
			</g>
		</g>
		<g>
			<g>
				<path class="st0" d="M2223.9,661c1.2,21.3-11.8,51.5-19.7,68.3c-15.1,31.9-37.9,57.6-58.2,82.3c26,1.9,50.9-19.3,68.5-43.2
					c-11.1,29.2-30.7,48.7-47.1,71.7c26.7,4.6,48.9-29.1,62.7-55.6c-1.4,20.4-11.2,39-17.7,55.8c17-9.7,37.9-30.9,47-53.1
					c-4.6,25.7-15.7,47-26.9,68.3c24.8-7.9,41.8-46.9,51-75.3c3.2,22.2-1.4,47.1,1.8,69.3c8.5-17.7,4.6-46.2,13.8-64.8
					c0,23.1,10.3,45.3,20.1,61.4c0.7-22.2-0.6-45.3,0.8-67.5c5.8,23.1,22,44.5,35.7,59.6c-9.7-21.3-8.4-45.3-13.5-68.4
					c1.3,19.5,28.7,61.6,51.2,71c-13.7-16-28.8-55.4-33.6-77.2c13.6,30.2,46.8,55.7,94.4,47.4c-25-11.6-39.6-24.1-50-39.2
					c6.3,4.9,26.4,11.8,32,13.1c-41.3-32.7-52.9-61.2-63.9-99.4c-9-33.8-12.2-92.4-38.2-108.5c-31.9-18.8-86.7-9.2-100.5,40.4
					L2223.9,661z"/>
			</g>
			<g>
				<path class="st0" d="M2264.1,502c-2,4.7-2,14-4,20c-3.4,14-7.9,28.6-12.3,41.9c-10.8,32.6-27.5,55.8-49,74.4
					c-8.3,7.3-16.2,13.3-25.5,18.5c22,8.8,37.2-7.8,53.3-25.7c-11.3,22.6-27.9,38.5-43.6,54.4c11.2,6.7,32.8-9.8,41.6-17.8
					c12.7-11.3,24-25.2,34.8-39.1c0.9,27.3-16.7,54.5-21.7,78.5c8.8-10,15.7-17.3,23.5-29.9c6.4-11.3,15.7-21.9,19.1-35.2
					c-0.6,20.6-8.4,40.6-7.5,61.9c6.4-13.3,10.3-27.3,15.2-41.2c0,8-3.4,17.9-0.5,24.6c9.3-12.6,9.4-37.3,13.8-53.2
					c0.9,19.3,0.4,38,4.3,56.6c5.9-20.6,10.4-41.9,15.3-62.5c-0.1,23.3,3.8,44.6,10.6,66c1-22.6,0.1-49.3,3.1-71.9
					c-1,23.3,10.7,45.3,16.5,66c1-23.3-5.3-47.3-5.2-69.9v0.7c3.4,12.7,13.1,33.3,20,43.3c6.3,8,39,38.8,48.3,40.2
					c-20.5-22.1-37.1-58.1-41.9-81.4l0,0c4.4,12.7,21,26.7,29.8,33.4c7.3,6,15.6,7.4,23.9,8.7c-21-4.8-39.5-45.4-49.7-67.4
					c-12.7-26.7-22.4-56.7-29.1-87.4c-3.9-17.3-8.7-54.6-22.4-60.7c-18.1-7.4-42.5,0.5-49.4,26.4L2264.1,502z"/>
			</g>
			<g>
				<path class="st0" d="M2298.5,395.2c-14.2,28.8-59.7,136.7-82.3,146.6c18.2,7.4,45.5-23.8,52.4-35.7
					c-10.3,25.3-26.5,41.8-46.3,55.7c33.5-2.5,45.2-19.8,61-53c-1.5,16.7-10.8,33.9-10.9,51.2c16.2-15.2,25-51.8,32.9-75.8
					c-1,23.3-3,49.9,1.8,72.6c4-22.6,9.4-44.6,12.4-67.2c0.4,28.6,10.2,51.3,21.9,74c-1.4-21.3-5.8-42-5.7-64
					c20.5,26,40.2,36.8,69.3,40.9c-20-15.4-66.9-59.5-75-137.5c-1.8-17.3-0.1-13.1-5-29.1c-3.9-14.6-21.4-24.1-25.9-4.1
					L2298.5,395.2z"/>
			</g>
			<g>
				<path class="st0" d="M2312.4,264.6c0.8,19-1.9,37.4-3.5,56.2c-3.9,45.9-44,98.4-54.5,104.5c17.2-1.4,29.7-13.2,38.6-26.8
					c-3.5,10.5-12.9,39.8-21.1,53.8c17-13.8,33.3-36.8,35.8-60.5c4.4,18.3-4.5,40.2-5.7,58c9.3-19.3,15-36.6,17-59.9
					c0.8,10.6,8.1,23.7,13.5,30.4c7.2,9.2,15.8,16.5,25.2,21.9c-13.5-19.2-18.8-41.6-24.6-58.8c5.7,18.6,24.7,25.5,40.5,33.2
					c-9.1-6.7-31.2-28.6-41.5-48.6c-8.9-17.4-13.6-37.5-15.8-58.2c-1-8.3-1.7-16.7-2.1-25.1L2312.4,264.6z"/>
			</g>
		</g>
		<g>
			<g>
				<path class="st0" d="M2565.8,521.3c1.7,28.3-15.7,68.4-26.2,90.7c-20,42.4-50.4,76.5-77.3,109.4c34.6,2.5,67.6-25.7,91.1-57.4
					c-14.8,38.9-40.9,64.7-62.6,95.3c35.5,6.1,65.1-38.7,83.3-74c-1.8,27.1-14.9,51.9-23.5,74.2c22.6-12.9,50.3-41.1,62.5-70.5
					c-6.1,34.2-20.9,62.4-35.7,90.7c32.9-10.5,55.6-62.3,67.8-100c4.3,29.5-1.9,62.5,2.4,92c11.3-23.5,6.2-61.3,18.4-86.1
					c-0.1,30.7,13.7,60.3,26.7,81.5c0.9-29.5-0.7-60.2,1.1-89.7c7.7,30.7,29.3,59.1,47.5,79.2c-12.9-28.4-11.1-60.2-18-90.9
					c1.7,26,38.2,81.9,68,94.4c-18.1-21.3-38.2-73.6-44.6-102.5c18.1,40.2,62.2,74,125.5,63c-33.2-15.5-52.6-32-66.4-52.1
					c8.4,6.5,35.1,15.7,42.6,17.4c-54.9-43.5-70.3-81.3-84.9-132.1c-12-44.9-16.2-122.8-50.8-144.2
					c-42.4-24.9-115.2-12.2-133.5,53.7L2565.8,521.3z"/>
			</g>
			<g>
				<path class="st0" d="M2619.4,310c-2.6,6.2-2.6,18.6-5.2,26.5c-4.6,18.6-10.5,38-16.4,55.7c-14.4,43.3-36.5,74.2-65.2,98.9
					c-11.1,9.7-21.5,17.6-33.8,24.6c29.2,11.6,49.4-10.4,70.9-34.2c-15,30-37.1,51.2-58,72.3c14.9,8.9,43.6-13.1,55.3-23.7
					c16.9-15,31.9-33.5,46.2-52c1.2,36.3-22.2,72.5-28.8,104.3c11.7-13.2,20.8-22.9,31.3-39.7c8.5-15,20.8-29.1,25.4-46.8
					c-0.7,27.4-11.2,53.9-9.9,82.3c8.5-17.7,13.7-36.2,20.3-54.8c0,10.6-4.6,23.9-0.7,32.7c12.4-16.8,12.5-49.5,18.3-70.7
					c1.2,25.7,0.5,50.4,5.7,75.2c7.9-27.4,13.8-55.7,20.3-83.1c-0.1,31,5.1,59.3,14.1,87.7c1.4-30.1,0.1-65.5,4.1-95.6
					c-1.4,31,14.2,60.2,21.9,87.7c1.4-31-7-62.9-6.9-93v0.9c4.5,16.8,17.4,44.3,26.5,57.6c8.4,10.6,51.9,51.5,64.2,53.3
					c-27.2-29.3-49.2-77.2-55.7-108.2l0,0c5.8,16.8,27.9,35.5,39.5,44.4c9.7,8,20.8,9.8,31.8,11.6c-27.9-6.3-52.5-60.4-66.1-89.6
					c-16.8-35.5-29.7-75.3-38.7-116.1c-5.1-23-11.5-72.6-29.7-80.6c-24-9.8-56.5,0.6-65.7,35.1L2619.4,310z"/>
			</g>
			<g>
				<path class="st0" d="M2665,168c-18.8,38.2-79.4,181.6-109.4,194.8c24.2,9.9,60.5-31.6,69.6-47.5c-13.7,33.6-35.3,55.5-61.6,74.1
					c44.5-3.4,60.1-26.3,81-70.5c-2,22.1-14.4,45.1-14.4,68.1c21.5-20.3,33.3-68.9,43.8-100.7c-1.4,31-4.1,66.4,2.4,96.5
					c5.3-30.1,12.5-59.2,16.4-89.3c0.6,38,13.5,68.2,29,98.4c-1.9-28.3-7.7-55.8-7.6-85c27.2,34.6,53.4,48.9,92.1,54.4
					c-26.6-20.4-88.8-79.1-99.7-182.7c-2.4-23-0.1-17.3-6.6-38.6c-5.2-19.5-28.5-32-34.4-5.4L2665,168z"/>
			</g>
			<g>
				<path class="st0" d="M2683.6-5.6c1.1,25.3-2.5,49.6-4.6,74.6c-5.2,60.9-58.5,130.7-72.4,138.9c22.8-1.8,39.5-17.6,51.3-35.6
					c-4.6,13.9-17.2,53-28.1,71.5c22.6-18.3,44.2-48.9,47.6-80.4c5.8,24.3-6,53.5-7.5,77.2c12.3-25.7,20-48.7,22.6-79.6
					c1,14,10.7,31.5,18,40.4c9.6,12.2,21,21.9,33.4,29.2c-17.9-25.5-25-55.3-32.7-78.1c7.5,24.7,32.8,33.9,53.8,44.1
					c-12.1-8.9-41.4-38-55.1-64.6c-11.9-23.1-18.1-49.8-21-77.3c-1.3-11.1-2.3-22.2-2.7-33.4L2683.6-5.6z"/>
			</g>
		</g>
		<g>
			<g>
				<path class="st0" d="M2902.6,662.7c6.1,35.5-10.4,91-20.5,122.2c-19.5,59.1-53.3,110.4-82.9,159.3
					c44.4-5.9,82.4-50.3,107.7-96.9c-13.3,53.3-42.8,93-66.1,137.5c46-1.6,77.2-66.2,95.5-115.9c1.6,35-11.6,69.8-19.5,100.5
					c26.9-22.3,58.2-65.4,69.5-106c-3,45.1-17.8,84.8-32.6,124.6c40.4-22,61.9-93.7,72.1-144.9c9.6,36.4,6.4,80,16,116.4
					c11.1-32.9-0.8-79.6,11.2-114.2c4.3,39,26,73,45.4,96.7c-3-37.7-9.4-76.3-11.3-114.3c14.2,37,45.6,67.5,71.5,88.3
					c-20.4-32.7-22.6-73.6-35.7-110.9c5.8,32.6,60.1,94.1,99.8,102.2c-26.1-22.3-58.9-83.6-71.2-118.7
					c28.7,46.3,89.5,77.8,168.4,47.3c-44.4-11-71.4-27-91.8-48.9c11.6,6,46.8,10.7,56.6,11c-76-41-100.9-84.9-126.6-145.7
					c-21.6-53.9-37.9-151.9-84.9-170c-57.4-20.6-148.2,14.6-162.1,103.3L2902.6,662.7z"/>
			</g>
			<g>
				<path class="st0" d="M2940.8,380.1c-2.4,8.5-0.7,24.3-2.9,35.1c-3.2,24.8-8,51.1-12.9,75.1c-12.2,58.8-36,103.9-68.9,142.8
					c-12.7,15.2-24.8,28-39.5,40.2c38.8,7.2,61.4-26.1,85.3-62c-14.9,42.1-40,74.8-63.5,107.1c20.2,7.4,53.5-28.1,66.9-44.6
					c19.4-23.5,35.8-50.9,51.4-78.2c6.7,45.8-18,98-21.9,140.1c13-19.9,23.3-34.6,34.2-58.7c8.7-21.3,22.4-42.5,25.7-66.1
					c3,35-6.6,71.5-1,107.2c8.3-24.7,12.3-49.6,18-75c1.5,13.5-2.5,31.6,3.7,41.8c13.4-24.6,8.9-66.2,13.4-94.7
					c5.2,32.3,7.8,64,17.8,94.2c6.1-36.9,9.7-74.4,14.1-110.9c4.3,39.4,14.8,74.1,30.3,107.7c-2.5-38.6-9.1-83.3-8.3-122.5
					c2.6,39.7,26.5,72.9,40.2,105.8c-2.6-39.7-17.8-78.1-21.9-116.4l0.1,1.2c8.1,20.2,28.4,51.7,41.8,66.3
					c12.2,11.3,73.3,51.9,89.2,51c-38.8-30.1-73.5-85.2-86-122.9l0,0c9.8,19.9,40.4,37.8,56.5,46.1c13.5,7.6,27.8,7.1,42.1,6.5
					c-36.4-0.7-75.2-63-96.7-96.7c-26.4-40.7-48.4-88-65.6-137.5c-9.8-27.9-24.9-89.3-49.1-94.7c-31.9-6.2-71.8,15.6-78.6,61.8
					L2940.8,380.1z"/>
			</g>
			<g>
				<path class="st0" d="M2978.8,187.7c-18.5,53.5-75.3,251.7-111.6,276.3c32.1,6.2,72.5-56,81.8-78.6
					c-12.7,46.3-37,79.8-67.8,110.3c56.1-15.9,72.7-49.2,93.1-110.8c0.6,28.7-11.9,61.1-8.7,90.3c24.5-31.4,32.6-96.3,41.4-139.5
					c2.6,39.7,4.2,85.4,16.6,122c2.4-39.6,7.5-78.6,8.3-117.8c6.1,48.2,26.8,83.2,50.8,117.4c-6.4-35.5-17.6-68.9-21.7-106.1
					c39.5,36.9,74.8,48.2,124.8,45c-36.7-19-124.1-77.3-152.5-206.2c-6.3-28.6-2.6-22-13.8-47.4c-9.3-23.4-40.8-33.2-44.5,2.1
					L2978.8,187.7z"/>
			</g>
			<g>
				<path class="st0" d="M2977.9-37.9c4.9,31.8,3.8,63.8,4.7,96.1c2,78.8-55.9,181.5-72.4,195.5c28.8-8.3,47.7-32.7,60.2-58.7
					c-3.9,18.9-14.4,71.8-25.6,98.2c26.1-29.2,49.3-73.7,49.2-114.6c10.8,29.4,0,69.6,1.3,100.1c12-35.9,18.5-67.2,17.5-107.1
					c3.3,17.6,18,37.3,28.6,46.7c13.9,13,29.8,22.4,46.6,28.3c-26.3-27.8-39.5-63.8-52.6-90.8c13.1,29.5,46.5,34.4,74.6,41.9
					c-16.6-8.2-58-37.5-79.2-67.7c-18.4-26.3-30.1-58.6-37.6-92.8c-3.3-13.7-6-27.6-8.2-41.7L2977.9-37.9z"/>
			</g>
		</g>
		<g>
			<g>
				<path class="st0" d="M-102.4,662.7c6.1,35.5-10.4,91-20.5,122.2c-19.5,59.1-53.3,110.4-82.9,159.3
					c44.4-5.9,82.4-50.3,107.7-96.9c-13.3,53.3-42.8,93-66.1,137.5c46-1.6,77.2-66.2,95.5-115.9c1.6,35-11.6,69.8-19.5,100.5
					c26.9-22.3,58.2-65.4,69.5-106c-3,45.1-17.8,84.8-32.6,124.6c40.4-22,61.9-93.7,72.1-144.9c9.6,36.4,6.4,80,16,116.4
					c11.1-32.9-0.8-79.6,11.2-114.2c4.3,39,26,73,45.4,96.7c-3-37.7-9.4-76.3-11.3-114.3c14.2,37,45.6,67.5,71.5,88.3
					c-20.4-32.7-22.6-73.6-35.7-110.9c5.8,32.6,60.1,94.1,99.8,102.2c-26.1-22.3-58.9-83.6-71.2-118.7
					c28.7,46.3,89.5,77.8,168.4,47.3c-44.4-11-71.4-27-91.8-48.9c11.6,6,46.8,10.7,56.6,11c-76-41-100.9-84.9-126.6-145.7
					c-21.6-53.9-37.9-151.9-84.9-170C10.8,461.9-79.9,497.2-93.9,585.8L-102.4,662.7z"/>
			</g>
			<g>
				<path class="st0" d="M-64.2,380.1c-2.4,8.5-0.7,24.3-2.9,35.1c-3.2,24.8-8,51.1-12.9,75.1c-12.2,58.8-36,103.9-68.9,142.8
					c-12.7,15.2-24.8,28-39.5,40.2c38.8,7.2,61.4-26.1,85.3-62c-14.9,42.1-40,74.8-63.5,107.1c20.2,7.4,53.5-28.1,66.9-44.6
					c19.4-23.5,35.8-50.9,51.4-78.2c6.7,45.8-18,98-21.9,140.1c13-19.9,23.3-34.6,34.2-58.7c8.7-21.3,22.4-42.5,25.7-66.1
					c3,35-6.6,71.5-1,107.2c8.3-24.7,12.3-49.6,18-75c1.5,13.5-2.5,31.6,3.7,41.8c13.4-24.6,8.9-66.2,13.4-94.7
					c5.2,32.3,7.8,64,17.8,94.2c6.1-36.9,9.7-74.4,14.1-110.9c4.3,39.4,14.8,74.1,30.3,107.7c-2.5-38.6-9.1-83.3-8.3-122.5
					c2.6,39.7,26.5,72.9,40.2,105.8c-2.6-39.7-17.8-78.1-21.9-116.4l0.1,1.2c8.1,20.2,28.4,51.7,41.8,66.3
					c12.2,11.3,73.3,51.9,89.2,51c-38.8-30.1-73.5-85.2-86-122.9l0,0c9.8,19.9,40.4,37.8,56.5,46.1c13.5,7.6,27.8,7.1,42.1,6.5
					c-36.4-0.7-75.2-63-96.7-96.7c-26.4-40.7-48.4-88-65.6-137.5c-9.8-27.9-24.9-89.3-49.1-94.7c-31.9-6.2-71.8,15.6-78.6,61.8
					L-64.2,380.1z"/>
			</g>
			<g>
				<path class="st0" d="M-26.2,187.7c-18.5,53.5-75.3,251.7-111.6,276.3c32.1,6.2,72.5-56,81.8-78.6c-12.7,46.3-37,79.8-67.8,110.3
					c56.1-15.9,72.7-49.2,93.1-110.8c0.6,28.7-11.9,61.1-8.7,90.3c24.5-31.4,32.6-96.3,41.4-139.5c2.6,39.7,4.2,85.4,16.6,122
					c2.4-39.6,7.5-78.6,8.3-117.8c6.1,48.2,26.8,83.2,50.8,117.4c-6.4-35.5-17.6-68.9-21.7-106.1c39.5,36.9,74.8,48.2,124.8,45
					c-36.7-19-124.1-77.3-152.5-206.2c-6.3-28.6-2.6-22-13.8-47.4c-9.3-23.4-40.8-33.2-44.5,2.1L-26.2,187.7z"/>
			</g>
			<g>
				<path class="st0" d="M-27.1-37.9c4.9,31.8,3.8,63.8,4.7,96.1c2,78.8-55.9,181.5-72.4,195.5c28.8-8.3,47.7-32.7,60.2-58.7
					c-3.9,18.9-14.4,71.8-25.6,98.2c26.1-29.2,49.3-73.7,49.2-114.6c10.8,29.4,0,69.6,1.3,100.1c12-35.9,18.5-67.2,17.5-107.1
					c3.3,17.6,18,37.3,28.6,46.7c13.9,13,29.8,22.4,46.6,28.3c-26.3-27.8-39.5-63.8-52.6-90.8c13.1,29.5,46.5,34.4,74.6,41.9
					c-16.6-8.2-58-37.5-79.2-67.7C7.2,103.9-4.5,71.6-12,37.4c-3.3-13.7-6-27.6-8.2-41.7L-27.1-37.9z"/>
			</g>
		</g>
	</g>
</g>
</svg>
