<?xml version="1.0" encoding="UTF-8"?>
<svg width="318px" height="185px" viewBox="0 0 318 185" version="1.1" xmlns="http://www.w3.org/2000/svg" xmlns:xlink="http://www.w3.org/1999/xlink">
    <!-- Generator: Sketch 61.2 (89653) - https://sketch.com -->
    <title>Group_82</title>
    <desc>Created with Sketch.</desc>
    <defs>
        <linearGradient x1="100%" y1="50%" x2="-17.8%" y2="50%" id="linearGradient-1">
            <stop stop-color="#238399" offset="0%"></stop>
            <stop stop-color="#97C4CF" offset="100%"></stop>
        </linearGradient>
    </defs>
    <g id="Page-1" stroke="none" stroke-width="1" fill="none" fill-rule="evenodd" opacity="0.78">
        <g id="Artboard" transform="translate(0.000000, -104.000000)" fill-rule="nonzero">
            <g id="design" transform="translate(0.000000, 104.000000)">
                <g id="Main-banner-1_1">
                    <g id="OBJECTS">
                        <g id="Group_82">
                            <path d="M0,12.6563266 C16.9296875,21.1445641 32.9894969,31.4021078 44.0024125,46.5671063 C48.9104828,53.3248219 52.6861109,60.9077828 58.1654812,67.2123984 C67.8175578,78.3182734 81.9344547,84.5206953 96.0645875,88.6272219 C139.706859,101.309097 188.506222,97.6359703 228.036427,120.059495 C251.354147,133.286506 269.588959,155.230767 278.324678,180.575433 L278.371466,184.678573 L0.0563296875,184.678573 L0,184.662259 L0,12.6563266 Z" id="Path_258" fill="url(#linearGradient-1)"></path>
                            <path d="M0,27.8622641 C5.69299219,26.6898062 11.6485484,29.1156766 17.0328047,31.5467797 C37.3964484,40.7414469 58.3252359,51.234775 71.4540547,69.3153734 C75.9653547,75.5270297 79.435325,82.4965203 84.4714453,88.2907828 C93.343525,98.4990766 106.31813,104.198841 119.305663,107.973545 C159.418556,119.629789 204.270531,116.251855 240.604719,136.86298 C259.602291,147.639495 274.925813,164.714163 283.752952,184.678573 L2.47912188,184.678573 C1.60204598,183.99904 0.774025154,183.25845 0,182.462323 L0,27.8622641 Z" id="Path_259" fill="#FFFFFF"></path>
                            <g id="Group_73" fill="#FFFFFF">
                                <path d="M-0.00123125,0 C15.3964734,5.30545625 31.0188812,16.1601563 37.8597063,20.9167828 C51.0861016,30.11145 60.4223625,41.2822734 69.45235,52.0861844 C83.0385781,68.344225 95.8715891,83.7009906 120.414711,91.0971094 C139.170034,96.7482391 159.441642,100.2533 179.046836,103.640777 C208.169284,108.67505 238.282273,113.879852 263.344059,126.225595 C289.046403,138.887155 306.961091,158.059564 317.919216,184.679189 L316.823711,184.679189 C291.840417,124.182644 236.903581,114.67647 178.874769,104.647939 C159.239409,101.251844 138.935481,97.7427813 120.121981,92.0719516 C95.2870531,84.5881062 82.3586203,69.1177578 68.6717375,52.7405937 C59.6851516,41.9887031 50.3941391,30.8699 37.2797875,21.7546484 C30.5260734,17.0589688 15.1222125,6.35509687 -0.00123125,1.058875 L-0.00123125,0 Z" id="Path_260"></path>
                            </g>
                        </g>
                    </g>
                </g>
            </g>
        </g>
    </g>
</svg>