<?xml version="1.0" encoding="UTF-8"?>
<svg width="159px" height="93px" viewBox="0 0 159 93" version="1.1" xmlns="http://www.w3.org/2000/svg" xmlns:xlink="http://www.w3.org/1999/xlink">
    <!-- Generator: Sketch 61.2 (89653) - https://sketch.com -->
    <title>Group_84</title>
    <desc>Created with Sketch.</desc>
    <defs>
        <linearGradient x1="0%" y1="50%" x2="117.8%" y2="50%" id="linearGradient-1">
            <stop stop-color="#238399" offset="0%"></stop>
            <stop stop-color="#97C4CF" offset="100%"></stop>
        </linearGradient>
    </defs>
    <g id="Page-1" stroke="none" stroke-width="1" fill="none" fill-rule="evenodd" opacity="0.5">
        <g id="Artboard" transform="translate(-432.000000, -104.000000)" fill-rule="nonzero">
            <g id="design" transform="translate(0.000000, 104.000000)">
                <g id="Main-banner-1_1">
                    <g id="OBJECTS">
                        <g id="Group_84" transform="translate(431.989295, 0.000000)">
                            <path d="M158.959916,86.0111234 C150.494764,81.7670047 142.464859,76.6385406 136.958402,69.0555797 C134.50452,65.6767219 132.616706,61.8853953 129.876867,58.7327797 C125.050983,53.1798422 117.992227,50.0786313 110.927314,48.0252141 C89.1061781,41.6842766 64.7064969,43.5209938 44.9412406,32.3092313 C33.1881564,25.5820072 24.2593648,14.8372013 19.7972687,2.0512625 L19.773875,-0.0003078125 L158.931597,-0.0003078125 L158.959916,0.0076953125 L158.959916,86.0111234 Z" id="Path_258-2" fill="url(#linearGradient-1)"></path>
                            <path d="M158.959608,78.4081547 C156.113266,78.9929984 153.13518,77.7814484 150.443359,76.5658969 C140.261538,71.9687172 129.797144,66.7220531 123.232734,57.6822156 C120.977084,54.5763875 119.241945,51.0916422 116.724039,48.1945109 C112.288153,43.0903641 105.800697,40.2403281 99.3070844,38.3531297 C79.2506375,32.5247 56.8243422,34.2130516 38.6572484,23.9081047 C29.1054009,18.4371983 21.5477515,10.0619754 17.0832859,0.0003078125 L157.720663,0.0003078125 C158.159202,0.340072566 158.573213,0.710367715 158.959608,1.10843281 L158.959608,78.4081547 Z" id="Path_259-2" fill="#FFFFFF"></path>
                            <g id="Group_73-2" fill="#FFFFFF">
                                <path d="M158.959608,92.3391328 C151.260602,89.6864047 143.449552,84.2587469 140.029139,81.8808953 C133.416095,77.2837156 128.747811,71.69815 124.232817,66.2963484 C117.439703,58.1673281 111.023044,50.4889453 98.7517906,46.7908859 C89.373975,43.965475 79.238325,42.2127906 69.4357281,40.5192062 C54.8746578,38.0022234 39.8180094,35.3996687 27.2872703,29.2267969 C14.435175,22.8957094 5.47783125,13.3098125 -0.00123125,0 L0.546675,0 C13.0383219,30.2481187 40.5065859,35.0013594 69.5213,40.015625 C79.3389797,41.7125953 89.4909437,43.4674344 98.8976938,46.3023875 C111.315158,50.0444641 117.77922,57.7794844 124.623431,65.9685281 C129.117494,71.3444734 133.762077,76.903875 140.319406,81.4613469 C143.695802,83.808725 151.397578,89.1606609 158.959608,91.8087719 L158.959608,92.3391328 Z" id="Path_260-2"></path>
                            </g>
                        </g>
                    </g>
                </g>
            </g>
        </g>
    </g>
</svg>